# Blender 5.1.2
# www.blender.org
mtllib Black_pawn.mtl
o pawn_black_low
v 1.137097 0.496171 -0.957083
v 1.117079 0.486970 -0.966716
v 1.101758 0.469967 -0.974088
v 1.093467 0.447752 -0.978078
v 1.092400 0.435729 -0.978592
v 1.093467 0.423707 -0.978078
v 1.096627 0.412146 -0.976558
v 1.101758 0.401492 -0.974088
v 1.115961 0.384489 -0.967254
v 1.126959 0.376762 -0.961962
v 1.147931 0.497355 -0.951870
v 1.140432 0.496171 -0.961268
v 1.133222 0.492664 -0.970304
v 1.126576 0.486970 -0.978632
v 1.120751 0.479306 -0.985931
v 1.115971 0.469967 -0.991922
v 1.112419 0.459313 -0.996373
v 1.110232 0.447752 -0.999114
v 1.109493 0.435729 -1.000040
v 1.110232 0.423707 -0.999114
v 1.112419 0.412146 -0.996373
v 1.115971 0.401492 -0.991922
v 1.120751 0.392153 -0.985931
v 1.125802 0.384489 -0.979602
v 1.133414 0.376762 -0.970062
v 1.145252 0.496171 -0.963591
v 1.142676 0.492664 -0.974861
v 1.140302 0.486970 -0.985247
v 1.138221 0.479306 -0.994351
v 1.136514 0.469967 -1.001822
v 1.135245 0.459313 -1.007374
v 1.134463 0.447752 -1.010792
v 1.134200 0.435729 -1.011947
v 1.134463 0.423707 -1.010792
v 1.135245 0.412146 -1.007374
v 1.136514 0.401492 -1.001822
v 1.138221 0.392153 -0.994351
v 1.140026 0.384489 -0.986457
v 1.142745 0.376762 -0.974559
v 1.150603 0.496171 -0.963592
v 1.153172 0.492664 -0.974864
v 1.155539 0.486970 -0.985252
v 1.157615 0.479306 -0.994357
v 1.159318 0.469967 -1.001829
v 1.160583 0.459313 -1.007382
v 1.161363 0.447752 -1.010801
v 1.161626 0.435729 -1.011955
v 1.161363 0.423707 -1.010801
v 1.160583 0.412146 -1.007382
v 1.159318 0.401492 -1.001829
v 1.157615 0.392153 -0.994357
v 1.155815 0.384489 -0.986462
v 1.153103 0.376762 -0.974562
v 1.155424 0.496171 -0.961272
v 1.162629 0.492664 -0.970313
v 1.169270 0.486970 -0.978645
v 1.175090 0.479306 -0.985948
v 1.179867 0.469967 -0.991941
v 1.183416 0.459313 -0.996395
v 1.185601 0.447752 -0.999137
v 1.186339 0.435729 -1.000063
v 1.185601 0.423707 -0.999137
v 1.183416 0.412146 -0.996395
v 1.179867 0.401492 -0.991941
v 1.175090 0.392153 -0.985948
v 1.170043 0.384489 -0.979615
v 1.162437 0.376762 -0.970071
v 1.158762 0.496171 -0.957090
v 1.169176 0.492664 -0.962109
v 1.178774 0.486970 -0.966735
v 1.187186 0.479306 -0.970789
v 1.194090 0.469967 -0.974117
v 1.199220 0.459313 -0.976589
v 1.202379 0.447752 -0.978112
v 1.203446 0.435729 -0.978626
v 1.202379 0.423707 -0.978112
v 1.199220 0.412146 -0.976589
v 1.194090 0.401492 -0.974117
v 1.187186 0.392153 -0.970789
v 1.179891 0.384489 -0.967274
v 1.168897 0.376762 -0.961975
v 1.159954 0.496171 -0.951874
v 1.171514 0.492664 -0.951877
v 1.182169 0.486970 -0.951881
v 1.191507 0.479306 -0.951884
v 1.199171 0.469967 -0.951886
v 1.204866 0.459313 -0.951888
v 1.208373 0.447752 -0.951889
v 1.209557 0.435729 -0.951889
v 1.208373 0.423707 -0.951889
v 1.204866 0.412146 -0.951888
v 1.199171 0.401492 -0.951886
v 1.191507 0.392153 -0.951884
v 1.183410 0.384489 -0.951881
v 1.171205 0.376762 -0.951877
v 1.158765 0.496171 -0.946657
v 1.169182 0.492664 -0.941644
v 1.178783 0.486970 -0.937024
v 1.187198 0.479306 -0.932975
v 1.194104 0.469967 -0.929652
v 1.199235 0.459313 -0.927183
v 1.202395 0.447752 -0.925662
v 1.203462 0.435729 -0.925149
v 1.202395 0.423707 -0.925662
v 1.199235 0.412146 -0.927183
v 1.194104 0.401492 -0.929652
v 1.187198 0.392153 -0.932975
v 1.179901 0.384489 -0.936486
v 1.168903 0.376762 -0.941778
v 1.155430 0.496171 -0.942473
v 1.162641 0.492664 -0.933437
v 1.169286 0.486970 -0.925109
v 1.175111 0.479306 -0.917809
v 1.179891 0.469967 -0.911819
v 1.183443 0.459313 -0.907367
v 1.185631 0.447752 -0.904626
v 1.186369 0.435729 -0.903701
v 1.185631 0.423707 -0.904626
v 1.183443 0.412146 -0.907367
v 1.179891 0.401492 -0.911819
v 1.175111 0.392153 -0.917809
v 1.170060 0.384489 -0.924139
v 1.162448 0.376762 -0.933678
v 1.150610 0.496171 -0.940150
v 1.153186 0.492664 -0.928880
v 1.155560 0.486970 -0.918493
v 1.157641 0.479306 -0.909389
v 1.159348 0.469967 -0.901918
v 1.160617 0.459313 -0.896366
v 1.161399 0.447752 -0.892948
v 1.161663 0.435729 -0.891793
v 1.161399 0.423707 -0.892948
v 1.160617 0.412146 -0.896366
v 1.159348 0.401492 -0.901918
v 1.157641 0.392153 -0.909389
v 1.155836 0.384489 -0.917284
v 1.153117 0.376762 -0.929181
v 1.121059 0.372977 -0.918152
v 1.145259 0.496171 -0.940148
v 1.142690 0.492664 -0.928877
v 1.140323 0.486970 -0.918489
v 1.138247 0.479306 -0.909384
v 1.136544 0.469967 -0.901911
v 1.135279 0.459313 -0.896359
v 1.134500 0.447752 -0.892940
v 1.134236 0.435729 -0.891785
v 1.134500 0.423707 -0.892940
v 1.135279 0.412146 -0.896359
v 1.136544 0.401492 -0.901911
v 1.138247 0.392153 -0.909384
v 1.140047 0.384489 -0.917279
v 1.142759 0.376762 -0.929178
v 1.140438 0.496171 -0.942468
v 1.133233 0.492664 -0.933428
v 1.126593 0.486970 -0.925096
v 1.120772 0.479306 -0.917793
v 1.115996 0.469967 -0.911799
v 1.112446 0.459313 -0.907346
v 1.110261 0.447752 -0.904603
v 1.109523 0.435729 -0.903677
v 1.110261 0.423707 -0.904603
v 1.112446 0.412146 -0.907346
v 1.115996 0.401492 -0.911799
v 1.120772 0.392153 -0.917793
v 1.125819 0.384489 -0.924125
v 1.133426 0.376762 -0.933669
v 1.137101 0.496171 -0.946650
v 1.126686 0.492664 -0.941631
v 1.117089 0.486970 -0.937006
v 1.108676 0.479306 -0.932951
v 1.101772 0.469967 -0.929624
v 1.096642 0.459313 -0.927151
v 1.093483 0.447752 -0.925629
v 1.092416 0.435729 -0.925115
v 1.093483 0.423707 -0.925629
v 1.096642 0.412146 -0.927151
v 1.101772 0.401492 -0.929624
v 1.108676 0.392153 -0.932951
v 1.115971 0.384489 -0.936467
v 1.126965 0.376762 -0.941765
v 1.135908 0.496171 -0.951866
v 1.124348 0.492664 -0.951863
v 1.113693 0.486970 -0.951860
v 1.104355 0.479306 -0.951857
v 1.096691 0.469967 -0.951854
v 1.090996 0.459313 -0.951853
v 1.087489 0.447752 -0.951852
v 1.086305 0.435729 -0.951851
v 1.087489 0.423707 -0.951852
v 1.090996 0.412146 -0.951853
v 1.096691 0.401492 -0.951854
v 1.104355 0.392153 -0.951857
v 1.112453 0.384489 -0.951859
v 1.124657 0.376762 -0.951863
v 1.126680 0.492664 -0.962096
v 1.108665 0.479306 -0.970765
v 1.096627 0.459313 -0.976558
v 1.108665 0.392153 -0.970765
v 1.126800 0.357565 -0.978351
v 1.191048 0.372977 -0.951883
v 1.109090 0.372977 -0.933151
v 1.186772 0.372977 -0.970590
v 1.186784 0.372977 -0.933174
v 1.174824 0.372977 -0.918168
v 1.121038 0.372977 -0.985572
v 1.104814 0.372977 -0.951857
v 1.109078 0.372977 -0.970566
v 1.157538 0.372977 -0.909837
v 1.138350 0.372977 -0.909831
v 1.174804 0.372977 -0.985588
v 1.138324 0.372977 -0.993903
v 1.157513 0.372977 -0.993909
v 1.116900 0.361352 -0.990757
v 1.103101 0.361352 -0.973442
v 1.136846 0.361352 -1.000370
v 1.158987 0.361352 -1.000377
v 1.178938 0.361352 -0.990776
v 1.192748 0.361352 -0.973470
v 1.197682 0.361352 -0.951885
v 1.192762 0.361352 -0.930298
v 1.178962 0.361352 -0.912983
v 1.159017 0.361352 -0.903370
v 1.136875 0.361352 -0.903363
v 1.116924 0.361352 -0.912964
v 1.103114 0.361352 -0.930270
v 1.098180 0.361352 -0.951855
v 1.117403 0.357565 -0.966560
v 1.140382 0.357565 -0.984898
v 1.155460 0.357565 -0.984902
v 1.169046 0.357565 -0.978364
v 1.178451 0.357565 -0.966579
v 1.181810 0.357565 -0.951881
v 1.178460 0.357565 -0.937180
v 1.169063 0.357565 -0.925389
v 1.155480 0.357565 -0.918843
v 1.140402 0.357565 -0.918838
v 1.126816 0.357565 -0.925376
v 1.117411 0.357565 -0.937161
v 1.114052 0.357565 -0.951860
v 1.108737 0.369248 -1.000987
v 1.108692 0.365490 -1.001043
v 1.091242 0.365490 -0.979149
v 1.091308 0.369248 -0.979117
v 1.133929 0.369248 -1.013128
v 1.133913 0.365490 -1.013199
v 1.161895 0.369248 -1.013137
v 1.161911 0.365490 -1.013207
v 1.187095 0.369248 -1.001011
v 1.187140 0.365490 -1.001067
v 1.204538 0.369248 -0.979152
v 1.204603 0.365490 -0.979183
v 1.210769 0.369248 -0.951889
v 1.210841 0.365490 -0.951889
v 1.204555 0.369248 -0.924623
v 1.204620 0.365490 -0.924592
v 1.187125 0.369248 -0.902753
v 1.187170 0.365490 -0.902697
v 1.161933 0.369248 -0.890612
v 1.161949 0.365490 -0.890541
v 1.133967 0.369248 -0.890603
v 1.133951 0.365490 -0.890533
v 1.108767 0.369248 -0.902729
v 1.108722 0.365490 -0.902673
v 1.091324 0.369248 -0.924588
v 1.091259 0.365490 -0.924557
v 1.085093 0.369248 -0.951851
v 1.085021 0.365490 -0.951851
v 1.125505 0.328140 -0.979973
v 1.115533 0.328140 -0.967460
v 1.139920 0.328140 -0.986920
v 1.155921 0.328140 -0.986925
v 1.170339 0.328140 -0.979987
v 1.180320 0.328140 -0.967480
v 1.183885 0.328140 -0.951881
v 1.180329 0.328140 -0.936280
v 1.170357 0.328140 -0.923767
v 1.155942 0.328140 -0.916820
v 1.139941 0.328140 -0.916815
v 1.125523 0.328140 -0.923753
v 1.115542 0.328140 -0.936260
v 1.111977 0.328140 -0.951859
v 1.120544 0.270802 -0.986190
v 1.108366 0.270802 -0.970909
v 1.138147 0.270802 -0.994674
v 1.157688 0.270802 -0.994680
v 1.175297 0.270802 -0.986207
v 1.187485 0.270802 -0.970933
v 1.191839 0.270802 -0.951884
v 1.187497 0.270802 -0.932831
v 1.175318 0.270802 -0.917550
v 1.157715 0.270802 -0.909066
v 1.138174 0.270802 -0.909060
v 1.120566 0.270802 -0.917533
v 1.108377 0.270802 -0.932807
v 1.104023 0.270802 -0.951857
v 1.111766 0.228329 -0.997192
v 1.095683 0.228329 -0.977012
v 1.135011 0.228329 -1.008395
v 1.160816 0.228329 -1.008403
v 1.184069 0.228329 -0.997214
v 1.200164 0.228329 -0.977044
v 1.205914 0.228329 -0.951888
v 1.200179 0.228329 -0.926728
v 1.184097 0.228329 -0.906549
v 1.160851 0.228329 -0.895345
v 1.135046 0.228329 -0.895337
v 1.111793 0.228329 -0.906526
v 1.095698 0.228329 -0.926696
v 1.089949 0.228329 -0.951852
v 1.102641 0.217405 -1.008626
v 1.082501 0.217405 -0.983355
v 1.131752 0.217405 -1.022656
v 1.164067 0.217405 -1.022666
v 1.193186 0.217405 -1.008654
v 1.213342 0.217405 -0.983395
v 1.220542 0.217405 -0.951892
v 1.213361 0.217405 -0.920385
v 1.193221 0.217405 -0.895114
v 1.164110 0.217405 -0.881085
v 1.131795 0.217405 -0.881075
v 1.102676 0.217405 -0.895087
v 1.082520 0.217405 -0.920345
v 1.075320 0.217405 -0.951848
v 1.103315 0.221754 -1.007782
v 1.105909 0.226403 -1.004530
v 1.083474 0.221754 -0.982887
v 1.087223 0.226403 -0.981083
v 1.131992 0.221754 -1.021603
v 1.132919 0.226403 -1.017548
v 1.163827 0.221754 -1.021613
v 1.162902 0.226403 -1.017557
v 1.192513 0.221754 -1.007809
v 1.189920 0.226403 -1.004556
v 1.212369 0.221754 -0.982926
v 1.208622 0.226403 -0.981120
v 1.219462 0.221754 -0.951892
v 1.215303 0.226403 -0.951891
v 1.212388 0.221754 -0.920854
v 1.208640 0.226403 -0.922657
v 1.192547 0.221754 -0.895959
v 1.189953 0.226403 -0.899210
v 1.163870 0.221754 -0.882137
v 1.162943 0.226403 -0.886192
v 1.132035 0.221754 -0.882128
v 1.132960 0.226403 -0.886183
v 1.103349 0.221754 -0.895931
v 1.105942 0.226403 -0.899184
v 1.083493 0.221754 -0.920814
v 1.087240 0.226403 -0.922620
v 1.076400 0.221754 -0.951848
v 1.080560 0.226403 -0.951849
v 1.101433 0.173380 -1.010140
v 1.080756 0.173380 -0.984195
v 1.131320 0.173380 -1.024544
v 1.164497 0.173380 -1.024554
v 1.194393 0.173380 -1.010168
v 1.215087 0.173380 -0.984236
v 1.222479 0.173380 -0.951893
v 1.215106 0.173380 -0.919546
v 1.194429 0.173380 -0.893600
v 1.164542 0.173380 -0.879196
v 1.131365 0.173380 -0.879186
v 1.101469 0.173380 -0.893572
v 1.080776 0.173380 -0.919504
v 1.073383 0.173380 -0.951847
v 1.093568 0.207972 -1.019996
v 1.090426 0.198806 -1.023934
v 1.064854 0.198806 -0.991847
v 1.069393 0.207972 -0.989662
v 1.128511 0.207972 -1.036836
v 1.127388 0.198806 -1.041748
v 1.167299 0.207972 -1.036848
v 1.168419 0.198806 -1.041760
v 1.202252 0.207972 -1.020029
v 1.205392 0.198806 -1.023969
v 1.226446 0.207972 -0.989710
v 1.230984 0.198806 -0.991898
v 1.235088 0.207972 -0.951897
v 1.240126 0.198806 -0.951898
v 1.226469 0.207972 -0.914078
v 1.231008 0.198806 -0.911894
v 1.202294 0.207972 -0.883744
v 1.205436 0.198806 -0.879807
v 1.167351 0.207972 -0.866904
v 1.168474 0.198806 -0.861993
v 1.128563 0.207972 -0.866892
v 1.127443 0.198806 -0.861980
v 1.093610 0.207972 -0.883711
v 1.090470 0.198806 -0.879771
v 1.069417 0.207972 -0.914030
v 1.064878 0.198806 -0.911843
v 1.060774 0.207972 -0.951843
v 1.055736 0.198806 -0.951842
v 1.090426 0.190613 -1.023934
v 1.093685 0.181739 -1.019850
v 1.069562 0.181739 -0.989581
v 1.064854 0.190613 -0.991847
v 1.127388 0.190613 -1.041748
v 1.128552 0.181739 -1.036654
v 1.168419 0.190613 -1.041760
v 1.167258 0.181739 -1.036666
v 1.205392 0.190613 -1.023969
v 1.202135 0.181739 -1.019883
v 1.230984 0.190613 -0.991898
v 1.226277 0.181739 -0.989629
v 1.240126 0.190613 -0.951898
v 1.234902 0.181739 -0.951897
v 1.231008 0.190613 -0.911894
v 1.226300 0.181739 -0.914159
v 1.205436 0.190613 -0.879807
v 1.202177 0.181739 -0.883891
v 1.168474 0.190613 -0.861993
v 1.167310 0.181739 -0.867086
v 1.127443 0.190613 -0.861980
v 1.128604 0.181739 -0.867074
v 1.090470 0.190613 -0.879771
v 1.093727 0.181739 -0.883857
v 1.064878 0.190613 -0.911843
v 1.069585 0.181739 -0.914111
v 1.055736 0.190613 -0.951842
v 1.060961 0.181739 -0.951843
v 1.091857 0.162576 -1.022140
v 1.087574 0.156128 -1.027508
v 1.060733 0.156128 -0.993829
v 1.066921 0.162576 -0.990852
v 1.127899 0.162576 -1.039511
v 1.126369 0.156128 -1.046205
v 1.167909 0.162576 -1.039523
v 1.169435 0.156128 -1.046219
v 1.203962 0.162576 -1.022175
v 1.208242 0.156128 -1.027545
v 1.228917 0.162576 -0.990902
v 1.235103 0.156128 -0.993883
v 1.237832 0.162576 -0.951898
v 1.244699 0.156128 -0.951900
v 1.228941 0.162576 -0.912888
v 1.235129 0.156128 -0.909911
v 1.204005 0.162576 -0.881600
v 1.208288 0.156128 -0.876232
v 1.167963 0.162576 -0.864229
v 1.169493 0.156128 -0.857535
v 1.127953 0.162576 -0.864217
v 1.126427 0.156128 -0.857522
v 1.091900 0.162576 -0.881566
v 1.087620 0.156128 -0.876195
v 1.066945 0.162576 -0.912839
v 1.060759 0.156128 -0.909857
v 1.058030 0.162576 -0.951843
v 1.051163 0.156128 -0.951840
v 1.087574 0.148947 -1.027508
v 1.092240 0.141955 -1.021660
v 1.067474 0.141955 -0.990586
v 1.060733 0.148947 -0.993829
v 1.126369 0.148947 -1.046205
v 1.128036 0.141955 -1.038912
v 1.169435 0.148947 -1.046219
v 1.167773 0.141955 -1.038925
v 1.208242 0.148947 -1.027545
v 1.203579 0.141955 -1.021695
v 1.235103 0.148947 -0.993883
v 1.228364 0.141955 -0.990635
v 1.244699 0.148947 -0.951900
v 1.237218 0.141955 -0.951898
v 1.235129 0.148947 -0.909911
v 1.228388 0.141955 -0.913155
v 1.208288 0.148947 -0.876232
v 1.203622 0.141955 -0.882080
v 1.169493 0.148947 -0.857535
v 1.167826 0.141955 -0.864828
v 1.126427 0.148947 -0.857522
v 1.128090 0.141955 -0.864816
v 1.087620 0.148947 -0.876195
v 1.092283 0.141955 -0.882046
v 1.060759 0.148947 -0.909857
v 1.067498 0.141955 -0.913105
v 1.051163 0.148947 -0.951840
v 1.058644 0.141955 -0.951843
v 1.147931 0.141955 -0.951870
vn -0.6433 0.7002 -0.3096
vn -0.3525 0.8250 -0.4417
vn -0.4453 0.7002 -0.5580
vn -0.6630 -0.6773 -0.3190
vn -0.5212 -0.5492 -0.6532
vn -0.4589 -0.6773 -0.5751
vn -0.5212 0.5492 -0.6532
vn -0.7530 0.5492 -0.3624
vn -0.3882 -0.7827 -0.4865
vn -0.5609 -0.7827 -0.2699
vn -0.8343 0.3779 -0.4015
vn -0.5775 0.3779 -0.7237
vn -0.1192 -0.8449 -0.5215
vn -0.3336 -0.8449 -0.4181
vn -0.6121 0.1925 -0.7670
vn -0.8842 0.1925 -0.4255
vn -0.6237 -0.0000 -0.7816
vn -0.9011 -0.0000 -0.4336
vn -0.1879 0.9780 -0.0904
vn -0.0000 1.0000 -0.0000
vn -0.1300 0.9780 -0.1630
vn -0.5219 -0.5467 0.6548
vn -0.0602 -0.9626 0.2641
vn -0.1861 -0.5466 0.8164
vn -0.6121 -0.1925 -0.7670
vn -0.8842 -0.1925 -0.4255
vn -0.2461 0.9189 -0.3084
vn -0.3555 0.9189 -0.1711
vn -0.8343 -0.3779 -0.4015
vn -0.5775 -0.3779 -0.7237
vn -0.5092 0.8250 -0.2450
vn -0.7530 -0.5492 -0.3624
vn -0.1259 0.8250 -0.5509
vn -0.2063 -0.3779 -0.9026
vn -0.1862 -0.5492 -0.8147
vn -0.1591 0.7002 -0.6960
vn -0.1639 -0.6773 -0.7172
vn -0.1862 0.5492 -0.8147
vn -0.1387 -0.7827 -0.6068
vn -0.2063 0.3779 -0.9026
vn 0.1383 -0.7827 -0.6069
vn -0.2186 0.1925 -0.9566
vn -0.2228 -0.0000 -0.9749
vn -0.0465 0.9780 -0.2032
vn -0.7543 -0.5466 0.3635
vn -0.2709 -0.9626 0.0001
vn -0.2440 -0.9626 0.1176
vn -0.2187 -0.1925 -0.9566
vn -0.0879 0.9189 -0.3846
vn 0.2181 0.1925 -0.9568
vn 0.3334 -0.8449 -0.4183
vn 0.1189 -0.8449 -0.5215
vn 0.2222 -0.0000 -0.9750
vn 0.0463 0.9780 -0.2033
vn 0.7545 -0.5466 0.3631
vn 0.2709 -0.9626 -0.0001
vn 0.8374 -0.5467 -0.0003
vn 0.2181 -0.1925 -0.9568
vn 0.0877 0.9189 -0.3846
vn 0.2057 -0.3779 -0.9027
vn 0.1256 0.8250 -0.5509
vn 0.1857 -0.5492 -0.8148
vn 0.1587 0.7002 -0.6961
vn 0.1635 -0.6773 -0.7173
vn 0.1857 0.5492 -0.8148
vn 0.2057 0.3779 -0.9027
vn 0.5208 -0.5492 -0.6535
vn 0.4450 0.7002 -0.5583
vn 0.4586 -0.6773 -0.5754
vn 0.5208 0.5492 -0.6535
vn 0.3879 -0.7827 -0.4868
vn 0.5770 0.3779 -0.7240
vn 0.5607 -0.7827 -0.2702
vn 0.6116 0.1925 -0.7674
vn 0.6232 -0.0000 -0.7820
vn 0.1299 0.9780 -0.1630
vn 0.2440 -0.9626 -0.1176
vn 0.7543 -0.5466 -0.3636
vn 0.6116 -0.1925 -0.7674
vn 0.2459 0.9189 -0.3085
vn 0.5770 -0.3779 -0.7240
vn 0.3522 0.8250 -0.4419
vn 0.4819 -0.8449 -0.2322
vn 0.6225 -0.7827 -0.0002
vn 0.5349 -0.8449 -0.0002
vn 0.8840 0.1925 -0.4260
vn 0.9008 -0.0000 -0.4342
vn 0.1878 0.9780 -0.0905
vn 0.8840 -0.1925 -0.4260
vn 0.3554 0.9189 -0.1713
vn 0.8341 -0.3779 -0.4020
vn 0.5090 0.8250 -0.2453
vn 0.7528 -0.5492 -0.3628
vn 0.6431 0.7002 -0.3100
vn 0.6628 -0.6773 -0.3194
vn 0.7528 0.5492 -0.3628
vn 0.8341 0.3779 -0.4020
vn 0.5651 0.8250 -0.0002
vn 0.7139 0.7002 -0.0002
vn 0.8357 -0.5492 -0.0003
vn 0.7357 -0.6773 -0.0002
vn 0.8357 0.5492 -0.0003
vn 0.9259 0.3779 -0.0003
vn 0.4820 -0.8449 0.2319
vn 0.9813 0.1925 -0.0003
vn 1.0000 -0.0000 -0.0003
vn 0.2085 0.9780 -0.0001
vn 0.5219 -0.5467 -0.6548
vn 0.1688 -0.9626 -0.2118
vn 0.9813 -0.1925 -0.0003
vn 0.3945 0.9189 -0.0001
vn 0.9259 -0.3779 -0.0003
vn 0.8842 0.1925 0.4255
vn 0.9011 -0.0000 0.4336
vn 0.1879 0.9780 0.0904
vn 0.1866 -0.5466 0.8163
vn 0.1689 -0.9626 0.2117
vn 0.5223 -0.5466 0.6545
vn 0.8842 -0.1925 0.4255
vn 0.3555 0.9189 0.1711
vn 0.8343 -0.3779 0.4015
vn 0.5092 0.8250 0.2450
vn 0.7530 -0.5492 0.3624
vn 0.6433 0.7002 0.3096
vn 0.6630 -0.6773 0.3190
vn 0.7530 0.5492 0.3624
vn 0.5609 -0.7827 0.2699
vn 0.8343 0.3779 0.4015
vn 0.3336 -0.8449 0.4181
vn 0.5212 -0.5492 0.6532
vn 0.4589 -0.6773 0.5751
vn 0.5212 0.5492 0.6532
vn 0.3882 -0.7827 0.4865
vn 0.5775 0.3779 0.7237
vn 0.1192 -0.8449 0.5215
vn 0.6121 0.1925 0.7670
vn 0.6237 -0.0000 0.7816
vn 0.1300 0.9780 0.1630
vn 0.0604 -0.9626 0.2641
vn 0.6121 -0.1925 0.7670
vn 0.2461 0.9189 0.3084
vn 0.5775 -0.3779 0.7237
vn 0.3525 0.8250 0.4417
vn 0.4453 0.7002 0.5580
vn -0.1680 0.9825 -0.0809
vn -0.7966 0.6045 0.0002
vn -0.1865 0.9825 0.0001
vn 0.2186 -0.1925 0.9566
vn 0.0465 0.9780 0.2032
vn 0.0879 0.9189 0.3846
vn 0.2063 -0.3779 0.9026
vn 0.1259 0.8250 0.5509
vn 0.1862 -0.5492 0.8147
vn 0.1591 0.7002 0.6960
vn 0.1639 -0.6773 0.7172
vn 0.1862 0.5492 0.8147
vn 0.1387 -0.7827 0.6068
vn 0.2063 0.3779 0.9026
vn -0.1189 -0.8449 0.5215
vn 0.2186 0.1925 0.9566
vn 0.2228 -0.0000 0.9749
vn -0.1383 -0.7827 0.6069
vn -0.1857 0.5492 0.8148
vn -0.2057 0.3779 0.9027
vn -0.3334 -0.8449 0.4183
vn -0.2181 0.1925 0.9568
vn -0.2222 -0.0000 0.9750
vn -0.0463 0.9780 0.2033
vn -0.1866 -0.5466 -0.8163
vn -0.1689 -0.9626 -0.2117
vn -0.5223 -0.5466 -0.6545
vn -0.2181 -0.1925 0.9568
vn -0.0877 0.9189 0.3846
vn -0.2057 -0.3779 0.9027
vn -0.1256 0.8250 0.5509
vn -0.1857 -0.5492 0.8148
vn -0.1587 0.7002 0.6961
vn -0.1635 -0.6773 0.7173
vn -0.2459 0.9189 0.3085
vn -0.6116 -0.1925 0.7674
vn -0.5770 -0.3779 0.7240
vn -0.3522 0.8250 0.4419
vn -0.5208 -0.5492 0.6535
vn -0.4450 0.7002 0.5583
vn -0.4586 -0.6773 0.5754
vn -0.5208 0.5492 0.6535
vn -0.3879 -0.7827 0.4868
vn -0.5770 0.3779 0.7240
vn -0.4819 -0.8449 0.2322
vn -0.6116 0.1925 0.7674
vn -0.6232 -0.0000 0.7820
vn -0.1299 0.9780 0.1630
vn -0.8374 -0.5466 0.0003
vn -0.2441 -0.9626 -0.1174
vn -0.7528 0.5492 0.3628
vn -0.8341 0.3779 0.4020
vn -0.5607 -0.7827 0.2702
vn -0.5349 -0.8449 0.0002
vn -0.8840 0.1925 0.4260
vn -0.9008 -0.0000 0.4342
vn -0.1878 0.9780 0.0905
vn -0.0414 0.9825 0.1818
vn -0.4965 0.6045 0.6230
vn -0.1770 0.6045 0.7767
vn -0.8840 -0.1925 0.4260
vn -0.3554 0.9189 0.1713
vn -0.8341 -0.3779 0.4020
vn -0.5090 0.8250 0.2453
vn -0.7528 -0.5492 0.3628
vn -0.6431 0.7002 0.3100
vn -0.6628 -0.6773 0.3194
vn -0.9813 -0.1925 0.0003
vn -0.9259 -0.3779 0.0003
vn -0.5651 0.8250 0.0002
vn -0.8357 -0.5492 0.0003
vn -0.7139 0.7002 0.0002
vn -0.7357 -0.6773 0.0002
vn -0.8357 0.5492 0.0003
vn -0.6225 -0.7827 0.0002
vn -0.9259 0.3779 0.0003
vn -0.4820 -0.8449 -0.2319
vn -0.9813 0.1925 0.0003
vn -1.0000 -0.0000 0.0003
vn -0.2085 0.9780 0.0001
vn 0.0602 -0.9626 -0.2641
vn 0.1861 -0.5466 -0.8164
vn -0.3945 0.9189 0.0001
vn 0.0414 0.9825 -0.1818
vn 0.4965 0.6045 -0.6230
vn 0.1770 0.6045 -0.7767
vn 0.1680 0.9825 0.0809
vn 0.7966 0.6045 -0.0002
vn 0.1865 0.9825 -0.0001
vn -0.0604 -0.9626 -0.2641
vn -0.1680 0.9825 0.0810
vn -0.1162 0.9825 0.1458
vn 0.1680 0.9825 -0.0810
vn 0.7176 0.6045 -0.3459
vn -0.1688 -0.9626 0.2118
vn 0.1162 0.9825 -0.1458
vn 0.1775 0.6045 0.7766
vn 0.0416 0.9825 0.1818
vn -0.0416 0.9825 -0.1818
vn -0.1775 0.6045 -0.7766
vn 0.1163 0.9825 0.1458
vn 0.4969 0.6045 0.6227
vn -0.7546 -0.5466 -0.3631
vn -0.1163 0.9825 -0.1458
vn -0.4969 0.6045 -0.6227
vn 0.7178 0.6045 0.3454
vn 0.2441 -0.9626 0.1174
vn -0.7176 0.6045 0.3459
vn -0.0418 0.9823 -0.1827
vn 0.0416 0.9823 -0.1827
vn 0.0418 0.9823 0.1827
vn -0.1688 0.9823 -0.0812
vn -0.1874 0.9823 0.0001
vn -0.1169 0.9823 -0.1465
vn 0.1169 0.9823 0.1465
vn 0.1688 0.9823 0.0812
vn 0.1688 0.9823 -0.0814
vn 0.1168 0.9823 -0.1465
vn -0.1688 0.9823 0.0814
vn 0.1874 0.9823 -0.0001
vn -0.1168 0.9823 0.1465
vn -0.0416 0.9823 0.1827
vn -0.4795 -0.6396 -0.6008
vn -0.6927 -0.6396 -0.3333
vn 0.6927 -0.6396 0.3333
vn 0.7687 -0.6396 -0.0002
vn -0.6925 -0.6396 0.3337
vn 0.6925 -0.6396 -0.3337
vn -0.7687 -0.6396 0.0002
vn -0.4791 -0.6396 0.6011
vn 0.4791 -0.6396 -0.6011
vn -0.1708 -0.6396 0.7495
vn 0.1708 -0.6396 -0.7495
vn 0.1713 -0.6396 0.7494
vn -0.1713 -0.6396 -0.7494
vn 0.4795 -0.6396 0.6008
vn -0.7178 0.6045 -0.3454
vn 0.6203 0.1044 0.7774
vn 0.2210 0.1044 -0.9697
vn -0.2210 0.1044 0.9697
vn 0.6198 0.1044 -0.7777
vn 0.8959 0.1044 -0.4318
vn -0.8959 0.1044 0.4318
vn -0.8962 0.1044 -0.4312
vn 0.9945 0.1044 -0.0003
vn -0.9945 0.1044 0.0003
vn -0.6203 0.1044 -0.7774
vn -0.2216 0.1044 -0.9695
vn -0.9732 0.2298 0.0003
vn -0.8767 0.2298 0.4225
vn 0.8767 0.2298 -0.4225
vn 0.8770 0.2298 0.4220
vn 0.9732 0.2298 -0.0003
vn 0.8962 0.1044 0.4312
vn -0.6070 0.2298 -0.7607
vn -0.8770 0.2298 -0.4220
vn 0.2216 0.1044 0.9695
vn 0.6070 0.2298 0.7607
vn 0.2169 0.2298 0.9488
vn 0.2163 0.2298 -0.9489
vn -0.2169 0.2298 -0.9488
vn -0.6198 0.1044 0.7777
vn -0.2163 0.2298 0.9489
vn -0.6066 0.2298 0.7611
vn 0.6066 0.2298 -0.7611
vn 0.9492 0.3146 -0.0003
vn 0.8554 0.3146 0.4116
vn -0.8554 0.3146 -0.4116
vn 0.5921 0.3146 0.7420
vn -0.5921 0.3146 -0.7420
vn 0.2115 0.3146 0.9254
vn -0.2115 0.3146 -0.9254
vn -0.5916 0.3146 0.7423
vn -0.2109 0.3146 0.9255
vn 0.2109 0.3146 -0.9255
vn 0.5916 0.3146 -0.7423
vn -0.9492 0.3146 0.0003
vn -0.8551 0.3146 0.4121
vn 0.8551 0.3146 -0.4121
vn -0.1980 0.4541 0.8687
vn 0.2163 0.2410 0.9461
vn 0.1985 0.4541 0.8686
vn -0.8028 0.4541 -0.3863
vn -0.9705 0.2410 0.0003
vn -0.8910 0.4541 0.0003
vn -0.5553 0.4541 0.6968
vn -0.2157 0.2410 0.9463
vn 0.5553 0.4541 -0.6968
vn 0.2157 0.2410 -0.9463
vn 0.1980 0.4541 -0.8687
vn -0.8743 0.2410 0.4214
vn -0.6049 0.2410 0.7590
vn 0.8026 0.4541 -0.3868
vn 0.6049 0.2410 -0.7590
vn -0.8026 0.4541 0.3868
vn 0.8910 0.4541 -0.0003
vn 0.8743 0.2410 -0.4214
vn 0.8028 0.4541 0.3863
vn 0.9705 0.2410 -0.0003
vn -0.2163 0.2410 -0.9461
vn -0.1985 0.4541 -0.8686
vn 0.5557 0.4541 0.6964
vn 0.8746 0.2410 0.4208
vn 0.6054 0.2410 0.7586
vn -0.6054 0.2410 -0.7586
vn -0.5557 0.4541 -0.6964
vn -0.3308 0.8477 -0.4146
vn -0.4780 0.8477 -0.2300
vn -0.1253 0.9796 -0.1570
vn -0.1182 0.8477 -0.5171
vn -0.0448 0.9796 -0.1959
vn 0.1179 0.8477 -0.5172
vn 0.0446 0.9796 -0.1959
vn 0.3306 0.8477 -0.4148
vn 0.1252 0.9796 -0.1571
vn 0.4778 0.8477 -0.2303
vn 0.1810 0.9796 -0.0872
vn 0.5304 0.8477 -0.0002
vn 0.2009 0.9796 -0.0001
vn 0.4780 0.8477 0.2300
vn 0.3308 0.8477 0.4146
vn 0.1253 0.9796 0.1570
vn 0.0448 0.9796 0.1959
vn 0.1182 0.8477 0.5171
vn -0.1179 0.8477 0.5172
vn -0.0446 0.9796 0.1959
vn -0.3306 0.8477 0.4148
vn -0.1252 0.9796 0.1571
vn -0.4778 0.8477 0.2303
vn -0.1810 0.9796 0.0872
vn -0.5304 0.8477 0.0002
vn -0.2009 0.9796 0.0001
vn -0.1810 0.9796 -0.0871
vn -0.8746 0.2410 -0.4208
vn -0.8746 0.2406 -0.4209
vn -0.9672 -0.2539 0.0003
vn -0.9706 0.2406 0.0003
vn -0.6050 0.2406 0.7591
vn -0.2149 -0.2539 0.9430
vn -0.2157 0.2406 0.9464
vn 0.6049 0.2406 -0.7591
vn 0.2149 -0.2539 -0.9430
vn 0.2157 0.2406 -0.9464
vn -0.8744 0.2406 0.4214
vn -0.6028 -0.2539 0.7564
vn 0.8744 0.2406 -0.4214
vn 0.6028 -0.2539 -0.7564
vn -0.8713 -0.2539 0.4199
vn 0.9706 0.2406 -0.0003
vn 0.8713 -0.2539 -0.4199
vn -0.4629 -0.6702 -0.5801
vn -0.9010 -0.0120 -0.4336
vn -0.6688 -0.6702 -0.3218
vn 0.8746 0.2406 0.4209
vn 0.9672 -0.2539 -0.0003
vn -0.2155 -0.2540 -0.9429
vn -0.2163 0.2406 -0.9462
vn 0.6054 0.2406 0.7587
vn 0.8716 -0.2539 0.4194
vn 0.2163 0.2406 0.9462
vn 0.6033 -0.2539 0.7560
vn -0.6033 -0.2539 -0.7560
vn -0.6054 0.2406 -0.7587
vn 0.2155 -0.2540 0.9429
vn -0.4903 0.8390 -0.2359
vn -0.7476 0.6641 0.0002
vn -0.5441 0.8390 0.0002
vn 0.4903 0.8390 0.2359
vn 0.7476 0.6641 -0.0002
vn 0.5441 0.8390 -0.0002
vn 0.3394 0.8390 0.4253
vn 0.6737 0.6641 0.3242
vn -0.3394 0.8390 -0.4253
vn -0.6737 0.6641 -0.3242
vn 0.1212 0.8390 0.5304
vn 0.4663 0.6641 0.5844
vn -0.1666 0.6641 -0.7289
vn -0.4663 0.6641 -0.5844
vn -0.1209 0.8390 0.5305
vn 0.1666 0.6641 0.7289
vn 0.1209 0.8390 -0.5305
vn -0.1212 0.8390 -0.5304
vn -0.3391 0.8390 0.4255
vn -0.1661 0.6641 0.7290
vn 0.3391 0.8390 -0.4255
vn 0.1661 0.6641 -0.7290
vn -0.4901 0.8390 0.2362
vn -0.4660 0.6641 0.5847
vn 0.4901 0.8390 -0.2362
vn 0.4660 0.6641 -0.5847
vn -0.6735 0.6641 0.3246
vn 0.6735 0.6641 -0.3246
vn -0.2228 -0.0120 -0.9748
vn -0.6237 -0.0120 -0.7816
vn -0.1649 -0.6702 0.7236
vn 0.2228 -0.0119 0.9748
vn 0.1654 -0.6702 0.7235
vn -0.9999 -0.0120 0.0003
vn -0.7422 -0.6702 0.0002
vn -0.4626 -0.6702 0.5804
vn -0.2222 -0.0119 0.9749
vn 0.4626 -0.6702 -0.5804
vn 0.2222 -0.0119 -0.9749
vn 0.1649 -0.6702 -0.7236
vn -0.9008 -0.0119 0.4341
vn -0.6232 -0.0120 0.7820
vn 0.9008 -0.0120 -0.4341
vn 0.6232 -0.0120 -0.7820
vn -0.6686 -0.6702 0.3222
vn 0.7422 -0.6702 -0.0002
vn 0.6686 -0.6702 -0.3222
vn 0.9010 -0.0120 0.4336
vn 0.9999 -0.0120 -0.0003
vn -0.1654 -0.6702 -0.7235
vn 0.6688 -0.6702 0.3218
vn 0.6237 -0.0119 0.7816
vn 0.4629 -0.6702 0.5801
vn -0.8716 -0.2539 -0.4194
vn 0.9258 0.3780 -0.0003
vn 0.8336 -0.3790 -0.4018
vn 0.8340 0.3780 -0.4019
vn 0.2561 -0.9118 0.3209
vn 0.0915 -0.9118 0.4003
vn -0.0000 -1.0000 -0.0000
vn 0.8342 0.3780 0.4014
vn 0.9254 -0.3790 -0.0003
vn 0.2057 0.3780 -0.9026
vn -0.2062 -0.3790 -0.9021
vn -0.2063 0.3780 -0.9025
vn 0.5774 0.3780 0.7236
vn 0.8339 -0.3790 0.4013
vn 0.2063 0.3780 0.9025
vn 0.5772 -0.3790 0.7233
vn -0.5772 -0.3790 -0.7233
vn -0.5774 0.3780 -0.7236
vn -0.2057 0.3780 0.9026
vn 0.2062 -0.3790 0.9021
vn -0.8342 0.3780 -0.4014
vn -0.9254 -0.3790 0.0003
vn -0.9258 0.3780 0.0003
vn -0.5770 0.3780 0.7240
vn -0.2056 -0.3790 0.9023
vn 0.5770 0.3780 -0.7240
vn 0.2056 -0.3790 -0.9023
vn -0.8340 0.3780 0.4019
vn -0.5768 -0.3790 0.7237
vn 0.5768 -0.3790 -0.7237
vn -0.8336 -0.3790 0.4018
vn -0.5743 0.7705 0.2768
vn 0.6375 0.7705 -0.0002
vn 0.5743 0.7705 -0.2768
vn -0.6375 0.7705 0.0002
vn 0.5744 0.7705 0.2764
vn 0.3976 0.7705 0.4983
vn -0.5744 0.7705 -0.2764
vn -0.3976 0.7705 -0.4983
vn 0.1420 0.7705 0.6215
vn -0.1420 0.7705 -0.6215
vn -0.1417 0.7705 0.6216
vn 0.1417 0.7705 -0.6216
vn -0.3973 0.7705 0.4985
vn 0.3973 0.7705 -0.4985
vn -0.3700 -0.9118 -0.1780
vn -0.2561 -0.9118 -0.3209
vn -0.0915 -0.9118 -0.4003
vn 0.0912 -0.9118 -0.4003
vn 0.2559 -0.9118 -0.3211
vn 0.3699 -0.9118 -0.1783
vn 0.4106 -0.9118 -0.0001
vn 0.3700 -0.9118 0.1780
vn -0.0912 -0.9118 0.4003
vn -0.2559 -0.9118 0.3211
vn -0.3699 -0.9118 0.1783
vn -0.4106 -0.9118 0.0001
vn -0.8339 -0.3790 -0.4013
vn 0.1810 0.9796 0.0871
vt 0.164597 0.692028
vt 0.169319 0.685754
vt 0.171165 0.690025
vt 0.168313 0.727262
vt 0.178652 0.720318
vt 0.179286 0.726482
vt 0.172701 0.694029
vt 0.165362 0.695995
vt 0.180032 0.733936
vt 0.168625 0.734345
vt 0.166020 0.699816
vt 0.173985 0.697958
vt 0.193719 0.748509
vt 0.181169 0.748635
vt 0.175094 0.701868
vt 0.166554 0.703624
vt 0.176141 0.705924
vt 0.167031 0.707497
vt 0.160449 0.676860
vt 0.157330 0.667585
vt 0.163247 0.675541
vt 0.338106 0.904581
vt 0.326124 0.908972
vt 0.327542 0.902771
vt 0.177042 0.710227
vt 0.167441 0.711605
vt 0.166819 0.681077
vt 0.162371 0.682879
vt 0.167821 0.716080
vt 0.177837 0.714853
vt 0.163688 0.687734
vt 0.168176 0.721188
vt 0.174800 0.682367
vt 0.188552 0.712787
vt 0.189705 0.718384
vt 0.177750 0.686570
vt 0.190918 0.725152
vt 0.180201 0.690631
vt 0.192064 0.732926
vt 0.182275 0.694686
vt 0.204530 0.731471
vt 0.184071 0.698817
vt 0.185728 0.703097
vt 0.165685 0.673353
vt 0.348610 0.905635
vt 0.359458 0.912077
vt 0.348389 0.911801
vt 0.187159 0.707683
vt 0.170967 0.678033
vt 0.193745 0.694142
vt 0.218226 0.745875
vt 0.205956 0.745938
vt 0.196172 0.698840
vt 0.167504 0.670292
vt 0.292632 0.891677
vt 0.273542 0.896638
vt 0.274847 0.884672
vt 0.198250 0.703941
vt 0.174556 0.673574
vt 0.200133 0.709529
vt 0.179964 0.677266
vt 0.201782 0.715825
vt 0.184297 0.681327
vt 0.203275 0.723217
vt 0.187951 0.685414
vt 0.191059 0.689672
vt 0.215366 0.712630
vt 0.190744 0.673515
vt 0.216927 0.721174
vt 0.196052 0.677663
vt 0.217826 0.730209
vt 0.200707 0.682171
vt 0.232468 0.729997
vt 0.204634 0.687254
vt 0.208103 0.692715
vt 0.168176 0.666363
vt 0.440364 0.882628
vt 0.426659 0.896181
vt 0.424257 0.889125
vt 0.210975 0.698722
vt 0.177064 0.667615
vt 0.213435 0.705285
vt 0.184478 0.670138
vt 0.230545 0.745511
vt 0.249007 0.732771
vt 0.242292 0.748165
vt 0.217648 0.677129
vt 0.222744 0.683962
vt 0.167502 0.661939
vt 0.226747 0.691673
vt 0.177757 0.659535
vt 0.229851 0.700077
vt 0.187592 0.659764
vt 0.231835 0.709377
vt 0.196669 0.662127
vt 0.232681 0.719548
vt 0.204649 0.666027
vt 0.211687 0.671049
vt 0.187577 0.644871
vt 0.200968 0.644964
vt 0.253623 0.707297
vt 0.251959 0.720472
vt 0.213699 0.647388
vt 0.224998 0.653370
vt 0.078844 0.733005
vt 0.095016 0.741659
vt 0.085715 0.744896
vt 0.235084 0.660956
vt 0.242769 0.670912
vt 0.164702 0.657535
vt 0.413048 0.893642
vt 0.415093 0.899485
vt 0.248929 0.681966
vt 0.174916 0.649651
vt 0.252144 0.694306
vt 0.077442 0.679050
vt 0.100677 0.682058
vt 0.096876 0.688736
vt 0.149121 0.657653
vt 0.146651 0.662516
vt 0.316672 0.899894
vt 0.303191 0.903092
vt 0.305382 0.896392
vt 0.093911 0.695876
vt 0.073827 0.689659
vt 0.136042 0.661220
vt 0.137309 0.651290
vt 0.071775 0.700695
vt 0.092014 0.703581
vt 0.126534 0.662859
vt 0.124574 0.649556
vt 0.091031 0.711749
vt 0.072461 0.711965
vt 0.112283 0.650429
vt 0.118392 0.666144
vt 0.074721 0.723212
vt 0.091109 0.720565
vt 0.111386 0.670638
vt 0.101164 0.655062
vt 0.092195 0.729224
vt 0.091320 0.661201
vt 0.105563 0.676033
vt 0.104918 0.740944
vt 0.083650 0.669679
vt 0.105458 0.713464
vt 0.104637 0.720793
vt 0.120469 0.680528
vt 0.104324 0.728604
vt 0.116656 0.685256
vt 0.114992 0.741604
vt 0.113368 0.690126
vt 0.110704 0.695367
vt 0.146202 0.667064
vt 0.314695 0.906281
vt 0.108448 0.700909
vt 0.137543 0.668835
vt 0.106733 0.706920
vt 0.130689 0.672169
vt 0.125118 0.676245
vt 0.368880 0.894324
vt 0.359186 0.904224
vt 0.359028 0.895381
vt 0.120151 0.704875
vt 0.147293 0.670823
vt 0.140595 0.674662
vt 0.118716 0.709999
vt 0.135696 0.678895
vt 0.117488 0.715667
vt 0.131828 0.682960
vt 0.116354 0.722178
vt 0.128691 0.687164
vt 0.115615 0.729135
vt 0.126027 0.691339
vt 0.125163 0.743084
vt 0.123757 0.695652
vt 0.121858 0.700151
vt 0.126273 0.730575
vt 0.136349 0.691634
vt 0.134585 0.695617
vt 0.135601 0.744832
vt 0.133005 0.699562
vt 0.131664 0.703647
vt 0.149272 0.673661
vt 0.392221 0.900924
vt 0.382325 0.910268
vt 0.381218 0.903662
vt 0.130403 0.707928
vt 0.144460 0.678827
vt 0.129277 0.712578
vt 0.141115 0.683423
vt 0.128236 0.717768
vt 0.138474 0.687609
vt 0.127110 0.723811
vt 0.148713 0.681565
vt 0.139905 0.710130
vt 0.139114 0.714553
vt 0.146679 0.686383
vt 0.138349 0.719524
vt 0.145039 0.690618
vt 0.137405 0.725372
vt 0.143737 0.694581
vt 0.136679 0.732052
vt 0.142614 0.698379
vt 0.146393 0.746450
vt 0.141613 0.702174
vt 0.140754 0.706060
vt 0.151725 0.675738
vt 0.359251 0.905753
vt 0.370573 0.911969
vt 0.150948 0.696220
vt 0.150439 0.699983
vt 0.147093 0.733296
vt 0.157577 0.747686
vt 0.149942 0.703704
vt 0.149529 0.707508
vt 0.154525 0.676955
vt 0.330041 0.891933
vt 0.338303 0.903068
vt 0.327875 0.901249
vt 0.149080 0.711500
vt 0.153202 0.683111
vt 0.148649 0.715845
vt 0.152321 0.688023
vt 0.148214 0.720753
vt 0.151550 0.692288
vt 0.147560 0.726576
vt 0.158194 0.712008
vt 0.158150 0.716379
vt 0.158003 0.688468
vt 0.158092 0.721336
vt 0.158062 0.692754
vt 0.157804 0.727247
vt 0.158133 0.696692
vt 0.157694 0.734104
vt 0.158196 0.700460
vt 0.169161 0.748412
vt 0.158197 0.704191
vt 0.158231 0.707998
vt 0.157487 0.677329
vt 0.404713 0.903459
vt 0.402716 0.897485
vt 0.157791 0.683543
vt 0.398947 0.887209
vt 0.412426 0.892112
vt 0.402188 0.896003
vt 0.299136 0.879305
vt 0.275969 0.881995
vt 0.287810 0.870323
vt 0.393913 0.907213
vt 0.349253 0.894804
vt 0.339567 0.894241
vt 0.418107 0.877672
vt 0.439323 0.880203
vt 0.423525 0.887347
vt 0.337348 0.910417
vt 0.408557 0.883574
vt 0.317116 0.898309
vt 0.320119 0.889281
vt 0.389025 0.890104
vt 0.391778 0.899392
vt 0.309974 0.884670
vt 0.305941 0.894692
vt 0.370022 0.905160
vt 0.378870 0.892351
vt 0.380915 0.902085
vt 0.293433 0.889677
vt 0.290224 0.899670
vt 0.348667 0.904129
vt 0.385136 0.874490
vt 0.394189 0.873184
vt 0.325115 0.874712
vt 0.367313 0.879515
vt 0.358706 0.881090
vt 0.376194 0.877263
vt 0.317047 0.870524
vt 0.308812 0.866573
vt 0.408850 0.866245
vt 0.402275 0.870939
vt 0.350079 0.879932
vt 0.428407 0.869367
vt 0.302254 0.860452
vt 0.341442 0.880239
vt 0.333298 0.877856
vt 0.384825 0.922844
vt 0.371634 0.923409
vt 0.288231 0.912247
vt 0.275115 0.910829
vt 0.347617 0.923320
vt 0.440390 0.905717
vt 0.429005 0.906846
vt 0.359482 0.922521
vt 0.336117 0.920931
vt 0.418187 0.909089
vt 0.324188 0.920697
vt 0.408091 0.913601
vt 0.312323 0.917374
vt 0.397091 0.918326
vt 0.300777 0.913801
vt 0.369857 0.903602
vt 0.789050 0.743447
vt 0.802365 0.756944
vt 0.786477 0.751413
vt 0.805576 0.672609
vt 0.791046 0.685420
vt 0.789017 0.677174
vt 0.807610 0.738889
vt 0.791044 0.735327
vt 0.802711 0.663520
vt 0.786479 0.669036
vt 0.792591 0.727134
vt 0.799330 0.654736
vt 0.783495 0.661022
vt 0.810373 0.720084
vt 0.793459 0.718857
vt 0.810476 0.700946
vt 0.793738 0.710505
vt 0.793426 0.702121
vt 0.795542 0.646343
vt 0.780161 0.653107
vt 0.810765 0.710532
vt 0.783522 0.759260
vt 0.795149 0.773746
vt 0.780177 0.766966
vt 0.809495 0.691392
vt 0.792523 0.693747
vt 0.807857 0.681925
vt 0.846386 0.710834
vt 0.845586 0.722965
vt 0.830611 0.640622
vt 0.829571 0.779754
vt 0.823898 0.789492
vt 0.798933 0.765549
vt 0.844773 0.686530
vt 0.845992 0.698656
vt 0.805243 0.748034
vt 0.834448 0.769296
vt 0.838510 0.758241
vt 0.839549 0.662788
vt 0.842593 0.674535
vt 0.809288 0.729548
vt 0.841699 0.746741
vt 0.844207 0.734995
vt 0.835526 0.651424
vt 0.843671 0.804344
vt 0.851448 0.792547
vt 0.872469 0.697232
vt 0.857906 0.780004
vt 0.871178 0.683074
vt 0.863167 0.766880
vt 0.868761 0.668947
vt 0.870137 0.739401
vt 0.867289 0.753283
vt 0.865152 0.654941
vt 0.860250 0.641187
vt 0.872694 0.711308
vt 0.872017 0.725399
vt 0.824891 0.630602
vt 0.853919 0.627853
vt 0.520646 0.446106
vt 0.535019 0.434621
vt 0.536022 0.437025
vt 0.498938 0.510680
vt 0.494427 0.492290
vt 0.497133 0.492406
vt 0.508559 0.458951
vt 0.519018 0.444097
vt 0.551241 0.559128
vt 0.532154 0.555688
vt 0.533359 0.553221
vt 0.498040 0.473783
vt 0.506499 0.457496
vt 0.570128 0.559771
vt 0.550777 0.561838
vt 0.500497 0.474646
vt 0.589023 0.555009
vt 0.570432 0.562494
vt 0.571163 0.433534
vt 0.589679 0.436986
vt 0.588675 0.439501
vt 0.515990 0.544602
vt 0.517843 0.542572
vt 0.553352 0.432717
vt 0.571638 0.430944
vt 0.553076 0.430129
vt 0.503605 0.529334
vt 0.506005 0.527916
vt 0.509246 0.525997
vt 0.502533 0.509759
vt 0.514233 0.523062
vt 0.520417 0.539811
vt 0.524386 0.535562
vt 0.535027 0.549854
vt 0.537637 0.544661
vt 0.551883 0.555404
vt 0.552924 0.549669
vt 0.569721 0.556007
vt 0.569064 0.550130
vt 0.587491 0.551368
vt 0.584733 0.546021
vt 0.583827 0.447706
vt 0.570507 0.437040
vt 0.586930 0.442820
vt 0.553727 0.436272
vt 0.554256 0.441749
vt 0.539457 0.445470
vt 0.537385 0.440350
vt 0.522849 0.448895
vt 0.526316 0.453270
vt 0.511437 0.460986
vt 0.515807 0.464081
vt 0.503888 0.475785
vt 0.509104 0.477560
vt 0.500778 0.492537
vt 0.506397 0.492776
vt 0.508081 0.508377
vt 0.496367 0.511319
vt 0.629278 0.808145
vt 0.650518 0.803502
vt 0.650580 0.807933
vt 0.694400 0.807959
vt 0.716300 0.803393
vt 0.716324 0.807904
vt 0.542379 0.809165
vt 0.564465 0.804076
vt 0.564562 0.808607
vt 0.672362 0.807925
vt 0.694368 0.803435
vt 0.519628 0.809706
vt 0.542243 0.804546
vt 0.672331 0.803412
vt 0.493847 0.810624
vt 0.519485 0.804923
vt 0.607913 0.798318
vt 0.629117 0.789294
vt 0.629125 0.798220
vt 0.781078 0.808953
vt 0.804451 0.805026
vt 0.804254 0.810049
vt 0.586403 0.803999
vt 0.586450 0.808463
vt 0.759876 0.808317
vt 0.781180 0.804558
vt 0.738289 0.808036
vt 0.759942 0.803914
vt 0.607910 0.803956
vt 0.607971 0.808363
vt 0.738306 0.803557
vt 0.629396 0.824282
vt 0.650570 0.813683
vt 0.650422 0.823861
vt 0.780137 0.824641
vt 0.803115 0.816391
vt 0.800046 0.826680
vt 0.759480 0.824427
vt 0.780846 0.814601
vt 0.608084 0.825140
vt 0.629350 0.813773
vt 0.738037 0.824561
vt 0.759790 0.814015
vt 0.586500 0.814271
vt 0.608028 0.814100
vt 0.716112 0.824679
vt 0.738270 0.813851
vt 0.564758 0.825363
vt 0.586548 0.824550
vt 0.694211 0.824756
vt 0.716328 0.813849
vt 0.542719 0.826074
vt 0.564675 0.814561
vt 0.672153 0.825052
vt 0.694393 0.813848
vt 0.520511 0.827144
vt 0.542555 0.815078
vt 0.672325 0.813787
vt 0.498188 0.829569
vt 0.519887 0.815955
vt 0.586414 0.789025
vt 0.607956 0.789683
vt 0.716285 0.797604
vt 0.738581 0.788121
vt 0.738388 0.797700
vt 0.650395 0.788722
vt 0.650439 0.797820
vt 0.694370 0.797636
vt 0.716370 0.788348
vt 0.542138 0.798635
vt 0.564257 0.788587
vt 0.564387 0.798248
vt 0.672329 0.788039
vt 0.694424 0.788730
vt 0.519661 0.789115
vt 0.542027 0.789574
vt 0.672320 0.797620
vt 0.494714 0.798098
vt 0.519465 0.798862
vt 0.803782 0.798644
vt 0.781196 0.790254
vt 0.801768 0.789575
vt 0.586418 0.798176
vt 0.781252 0.798946
vt 0.760345 0.789386
vt 0.760119 0.798365
vt 0.494960 0.817703
vt 0.629198 0.803753
vt 0.493788 0.805041
vt 0.266648 0.353482
vt 0.287393 0.373424
vt 0.283618 0.375996
vt 0.716902 0.928262
vt 0.702291 0.909940
vt 0.749735 0.887092
vt 0.278923 0.634715
vt 0.266209 0.654791
vt 0.263064 0.651941
vt 0.307867 0.420884
vt 0.319820 0.442432
vt 0.315760 0.443664
vt 0.291642 0.617810
vt 0.281858 0.637078
vt 0.302175 0.599857
vt 0.294731 0.619830
vt 0.325523 0.466019
vt 0.321384 0.466801
vt 0.310923 0.580425
vt 0.305496 0.601539
vt 0.324312 0.490634
vt 0.328728 0.514253
vt 0.324629 0.514120
vt 0.317849 0.559255
vt 0.314521 0.581785
vt 0.297116 0.398113
vt 0.311875 0.419207
vt 0.322455 0.536923
vt 0.321698 0.560254
vt 0.301061 0.395958
vt 0.326440 0.537500
vt 0.307986 0.513346
vt 0.317311 0.536152
vt 0.306264 0.534408
vt 0.268226 0.386880
vt 0.261994 0.358389
vt 0.278690 0.379407
vt 0.307332 0.491688
vt 0.319344 0.513906
vt 0.253347 0.638271
vt 0.275299 0.631591
vt 0.259652 0.647486
vt 0.267491 0.624774
vt 0.287686 0.615166
vt 0.304389 0.469717
vt 0.318918 0.491011
vt 0.288752 0.592934
vt 0.279421 0.609654
vt 0.299316 0.448357
vt 0.315892 0.467804
vt 0.296352 0.574776
vt 0.297906 0.597664
vt 0.291523 0.427554
vt 0.310659 0.445163
vt 0.302273 0.555064
vt 0.306292 0.578645
vt 0.281094 0.406807
vt 0.302688 0.423021
vt 0.312894 0.557945
vt 0.292025 0.400885
vt 0.334932 0.489923
vt 0.331644 0.464929
vt 0.325554 0.440784
vt 0.317821 0.416840
vt 0.307163 0.392710
vt 0.292935 0.369794
vt 0.270780 0.350473
vt 0.277138 0.347395
vt 0.286298 0.640671
vt 0.271222 0.657902
vt 0.299258 0.622850
vt 0.319785 0.583884
vt 0.327609 0.561867
vt 0.332314 0.538426
vt 0.334504 0.514565
vt 0.328492 0.490316
vt 0.697076 0.887092
vt 0.716902 0.845922
vt 0.738017 0.835754
vt 0.797178 0.864244
vt 0.802393 0.887092
vt 0.797178 0.909940
vt 0.782567 0.928262
vt 0.761452 0.938430
vt 0.738017 0.938430
vt 0.761452 0.835754
vt 0.782567 0.845922
vt 0.702291 0.864244
vt 0.441100 0.892902
vt 0.414832 0.860452
vt 0.845880 0.615154
vt 0.589836 0.557660
vt 0.569440 0.442371
vt 0.497031 0.788142
vt 0.253334 0.368562
vt 0.310135 0.603985
s 1
usemtl Black
f 196/1/1 14/2/2 15/3/3
f 198/4/4 22/5/5 23/6/6
f 196/1/1 16/7/7 3/8/8
f 198/4/4 24/9/9 9/10/10
f 197/11/11 16/7/7 17/12/12
f 24/9/9 39/13/13 25/14/14
f 197/11/11 18/15/15 4/16/16
f 4/16/16 19/17/17 5/18/18
f 1/19/19 11/20/20 12/21/21
f 263/22/22 223/23/23 261/24/24
f 5/18/18 20/25/25 6/26/26
f 1/19/19 13/27/27 195/28/28
f 7/29/29 20/25/25 21/30/30
f 195/28/28 14/2/2 2/31/31
f 7/29/29 22/5/5 8/32/32
f 13/27/27 28/33/33 14/2/2
f 22/5/5 35/34/34 36/35/35
f 15/3/3 28/33/33 29/36/36
f 22/5/5 37/37/37 23/6/6
f 15/3/3 30/38/38 16/7/7
f 23/6/6 38/39/39 24/9/9
f 16/7/7 31/40/40 17/12/12
f 52/41/41 39/13/13 38/39/39
f 17/12/12 32/42/42 18/15/15
f 19/17/17 32/42/42 33/43/43
f 12/21/21 11/20/20 26/44/44
f 265/45/45 226/46/46 225/47/47
f 19/17/17 34/48/48 20/25/25
f 12/21/21 27/49/49 13/27/27
f 20/25/25 35/34/34 21/30/30
f 31/40/40 46/50/50 32/42/42
f 52/41/41 67/51/51 53/52/52
f 33/43/43 46/50/50 47/53/53
f 26/44/44 11/20/20 40/54/54
f 255/55/55 219/56/56 253/57/57
f 33/43/43 48/58/58 34/48/48
f 26/44/44 41/59/59 27/49/49
f 35/34/34 48/58/58 49/60/60
f 27/49/49 42/61/61 28/33/33
f 35/34/34 50/62/62 36/35/35
f 29/36/36 42/61/61 43/63/63
f 36/35/35 51/64/64 37/37/37
f 29/36/36 44/65/65 30/38/38
f 37/37/37 52/41/41 38/39/39
f 30/38/38 45/66/66 31/40/40
f 49/60/60 64/67/67 50/62/62
f 42/61/61 57/68/68 43/63/63
f 50/62/62 65/69/69 51/64/64
f 43/63/63 58/70/70 44/65/65
f 51/64/64 66/71/71 52/41/41
f 44/65/65 59/72/72 45/66/66
f 80/73/73 67/51/51 66/71/71
f 45/66/66 60/74/74 46/50/50
f 47/53/53 60/74/74 61/75/75
f 40/54/54 11/20/20 54/76/76
f 253/77/57 218/78/77 251/79/78
f 47/53/53 62/80/79 48/58/58
f 41/59/59 54/76/76 55/81/80
f 49/60/60 62/80/79 63/82/81
f 41/59/59 56/83/82 42/61/61
f 81/84/83 94/85/84 95/86/85
f 61/75/75 74/87/86 75/88/87
f 54/76/76 11/20/20 68/89/88
f 61/75/75 76/90/89 62/80/79
f 54/76/76 69/91/90 55/81/80
f 63/82/81 76/90/89 77/92/91
f 55/81/80 70/93/92 56/83/82
f 63/82/81 78/94/93 64/67/67
f 57/68/68 70/93/92 71/95/94
f 65/69/69 78/94/93 79/96/95
f 57/68/68 72/97/96 58/70/70
f 65/69/69 80/73/73 66/71/71
f 59/72/72 72/97/96 73/98/97
f 59/72/72 74/87/86 60/74/74
f 71/95/94 84/99/98 85/100/99
f 79/96/95 92/101/100 93/102/101
f 71/95/94 86/103/102 72/97/96
f 79/96/95 94/85/84 80/73/73
f 73/98/97 86/103/102 87/104/103
f 94/105/84 109/106/104 95/107/85
f 73/98/97 88/108/105 74/87/86
f 75/88/87 88/108/105 89/109/106
f 68/89/88 11/20/20 82/110/107
f 249/111/108 218/78/77 217/112/109
f 75/88/87 90/113/110 76/90/89
f 68/89/88 83/114/111 69/91/90
f 77/92/91 90/113/110 91/115/112
f 69/91/90 84/99/98 70/93/92
f 77/92/91 92/101/100 78/94/93
f 89/116/106 102/117/113 103/118/114
f 82/119/107 11/20/20 96/120/115
f 259/121/116 221/122/117 257/123/118
f 89/116/106 104/124/119 90/125/110
f 82/119/107 97/126/120 83/127/111
f 91/128/112 104/124/119 105/129/121
f 83/127/111 98/130/122 84/131/98
f 91/128/112 106/132/123 92/133/100
f 85/134/99 98/130/122 99/135/124
f 93/136/101 106/132/123 107/137/125
f 85/134/99 100/138/126 86/139/102
f 93/136/101 108/140/127 94/105/84
f 87/141/103 100/138/126 101/142/128
f 108/140/127 123/143/129 109/106/104
f 87/141/103 102/117/113 88/144/105
f 107/137/125 120/145/130 121/146/131
f 99/135/124 114/147/132 100/138/126
f 107/137/125 122/148/133 108/140/127
f 101/142/128 114/147/132 115/149/134
f 122/148/133 137/150/135 123/143/129
f 101/142/128 116/151/136 102/117/113
f 103/118/114 116/151/136 117/152/137
f 96/120/115 11/20/20 110/153/138
f 261/24/24 222/154/139 259/121/116
f 103/118/114 118/155/140 104/124/119
f 96/120/115 111/156/141 97/126/120
f 105/129/121 118/155/140 119/157/142
f 97/126/120 112/158/143 98/130/122
f 105/129/121 120/145/130 106/132/123
f 99/135/124 112/158/143 113/159/144
f 207/160/145 266/161/146 206/162/147
f 117/152/137 132/163/148 118/155/140
f 111/156/141 124/164/149 125/165/150
f 119/157/142 132/163/148 133/166/151
f 111/156/141 126/167/152 112/158/143
f 119/157/142 134/168/153 120/145/130
f 112/158/143 127/169/154 113/159/144
f 121/146/131 134/168/153 135/170/155
f 113/159/144 128/171/156 114/147/132
f 122/148/133 135/170/155 136/172/157
f 114/147/132 129/173/158 115/149/134
f 136/172/157 152/174/159 137/150/135
f 115/149/134 130/175/160 116/151/136
f 117/152/137 130/175/160 131/176/161
f 110/153/138 11/20/20 124/164/149
f 135/170/155 151/177/162 136/172/157
f 129/173/158 143/178/163 144/179/164
f 151/177/162 166/180/165 152/174/159
f 129/173/158 145/181/166 130/175/160
f 131/176/161 145/181/166 146/182/167
f 124/164/149 11/20/20 139/183/168
f 245/184/169 213/185/170 241/186/171
f 131/176/161 147/187/172 132/163/148
f 125/165/150 139/183/168 140/188/173
f 133/166/151 147/187/172 148/189/174
f 125/165/150 141/190/175 126/167/152
f 133/166/151 149/191/176 134/168/153
f 127/169/154 141/190/175 142/192/177
f 135/170/155 149/191/176 150/193/178
f 127/169/154 143/178/163 128/171/156
f 139/183/168 154/194/179 140/188/173
f 148/189/174 161/195/180 162/196/181
f 140/188/173 155/197/182 141/190/175
f 148/189/174 163/198/183 149/191/176
f 142/192/177 155/197/182 156/199/184
f 150/193/178 163/198/183 164/200/185
f 142/192/177 157/201/186 143/178/163
f 150/193/178 165/202/187 151/177/162
f 143/178/163 158/203/188 144/179/164
f 165/202/187 180/204/189 166/180/165
f 144/179/164 159/205/190 145/181/166
f 146/182/167 159/205/190 160/206/191
f 139/183/168 11/20/20 153/207/192
f 267/208/193 214/209/194 226/46/46
f 146/182/167 161/195/180 147/187/172
f 158/203/188 171/210/195 172/211/196
f 179/212/197 194/213/198 180/204/189
f 158/203/188 173/214/199 159/205/190
f 160/206/191 173/214/199 174/215/200
f 153/207/192 11/20/20 167/216/201
f 209/217/202 262/218/203 260/219/204
f 160/206/191 175/220/205 161/195/180
f 153/207/192 168/221/206 154/194/179
f 162/196/181 175/220/205 176/222/207
f 154/194/179 169/223/208 155/197/182
f 162/196/181 177/224/209 163/198/183
f 156/199/184 169/223/208 170/225/210
f 164/200/185 177/224/209 178/226/211
f 156/199/184 171/210/195 157/201/186
f 164/200/185 179/212/197 165/202/187
f 176/222/207 189/227/212 190/228/213
f 168/221/206 183/229/214 169/223/208
f 176/222/207 191/230/215 177/224/209
f 170/225/210 183/229/214 184/231/216
f 178/226/211 191/230/215 192/232/217
f 170/225/210 185/233/218 171/210/195
f 178/226/211 193/234/219 179/212/197
f 172/211/196 185/233/218 186/235/220
f 193/234/219 10/236/221 194/213/198
f 172/211/196 187/237/222 173/214/199
f 174/215/200 187/237/222 188/238/223
f 167/216/201 11/20/20 181/239/224
f 249/111/108 216/240/225 247/241/226
f 174/215/200 189/227/212 175/220/205
f 167/216/201 182/242/227 168/221/206
f 186/235/220 4/16/16 187/237/222
f 188/238/223 4/16/16 5/18/18
f 181/239/224 11/20/20 1/19/19
f 212/243/228 248/244/229 246/245/230
f 188/238/223 6/26/26 189/227/212
f 181/239/224 195/28/28 182/242/227
f 190/228/213 6/26/26 7/29/29
f 182/242/227 2/31/31 183/229/214
f 190/228/213 8/32/32 191/230/215
f 184/231/216 2/31/31 196/1/1
f 192/232/217 8/32/32 198/4/4
f 184/231/216 3/8/8 185/233/218
f 192/232/217 9/10/10 193/234/219
f 186/235/220 3/8/8 197/11/11
f 203/246/231 252/247/232 200/248/233
f 247/241/226 215/249/234 245/184/169
f 201/250/235 262/218/203 138/251/236
f 202/252/237 252/253/232 250/254/238
f 263/22/22 225/47/47 224/255/239
f 202/252/237 248/244/229 210/256/240
f 209/217/202 258/257/241 208/258/242
f 211/259/243 246/245/230 244/260/244
f 204/261/245 258/257/241 256/262/246
f 241/186/171 214/209/194 242/263/247
f 205/264/248 244/260/244 240/265/249
f 204/261/245 254/266/250 203/246/231
f 257/123/118 220/267/251 255/55/55
f 201/250/235 266/161/146 264/268/252
f 39/269/253 212/243/228 211/259/243
f 53/270/254 210/256/240 212/243/228
f 137/271/255 209/217/202 208/258/242
f 10/272/256 206/162/147 194/273/257
f 25/274/258 207/160/145 10/272/256
f 39/269/253 205/264/248 25/274/258
f 123/275/259 208/258/242 204/261/245
f 123/275/259 203/246/231 109/276/260
f 81/277/261 210/256/240 67/278/262
f 180/279/263 206/162/147 201/250/235
f 81/277/261 200/280/233 202/252/237
f 109/276/260 200/248/233 95/281/264
f 180/279/263 138/251/236 166/282/265
f 152/283/266 138/251/236 209/217/202
f 215/249/234 199/284/267 213/185/170
f 214/209/194 199/284/267 227/285/268
f 221/122/117 233/286/269 220/267/251
f 219/56/56 233/286/269 232/287/270
f 226/46/46 238/288/271 225/47/47
f 218/78/77 232/289/270 231/290/272
f 226/46/46 227/285/268 239/291/273
f 224/255/239 238/288/271 237/292/274
f 217/112/109 231/290/272 230/293/275
f 224/255/239 236/294/276 223/23/23
f 217/112/109 229/295/277 216/240/225
f 222/154/139 236/294/276 235/296/278
f 216/240/225 228/297/279 215/249/234
f 221/122/117 235/296/278 234/298/280
f 242/263/247 240/265/249 241/186/171
f 241/186/171 244/260/244 245/184/169
f 247/241/226 244/260/244 246/245/230
f 247/241/226 248/244/229 249/111/108
f 249/111/108 250/254/238 251/79/78
f 253/77/57 250/254/238 252/253/232
f 254/266/250 253/57/57 252/247/232
f 255/55/55 256/262/246 257/123/118
f 258/257/241 257/123/118 256/262/246
f 259/121/116 260/219/204 261/24/24
f 261/24/24 262/218/203 263/22/22
f 263/22/22 264/268/252 265/45/45
f 265/45/45 266/161/146 267/208/193
f 267/208/193 243/299/281 242/263/247
f 205/264/248 243/299/281 207/160/145
f 235/300/278 276/301/282 234/302/280
f 271/303/283 228/304/279 229/305/277
f 278/306/284 235/300/278 236/307/276
f 272/308/285 229/305/277 230/309/275
f 237/310/274 278/306/284 236/307/276
f 273/311/286 230/309/275 231/312/272
f 280/313/287 237/310/274 238/314/271
f 269/315/288 239/316/273 227/317/268
f 274/318/289 231/312/272 232/319/270
f 281/320/290 238/314/271 239/316/273
f 233/321/269 274/322/289 232/323/270
f 276/301/282 233/321/269 234/302/280
f 268/324/291 227/317/268 199/325/267
f 270/326/292 199/325/267 228/304/279
f 280/313/287 295/327/293 294/328/294
f 274/318/289 287/329/295 273/311/286
f 269/315/288 295/327/293 281/320/290
f 274/322/289 289/330/296 288/331/297
f 276/301/282 289/330/296 275/332/298
f 269/315/288 282/333/299 283/334/300
f 277/335/301 290/336/302 276/301/282
f 270/326/292 282/333/299 268/324/291
f 278/306/284 291/337/303 277/335/301
f 270/326/292 285/338/304 284/339/305
f 279/340/306 292/341/307 278/306/284
f 272/308/285 285/338/304 271/303/283
f 280/313/287 293/342/308 279/340/306
f 273/311/286 286/343/309 272/308/285
f 289/330/296 302/344/310 288/331/297
f 290/336/302 303/345/311 289/330/296
f 282/333/299 297/346/312 283/334/300
f 291/337/303 304/347/313 290/336/302
f 284/339/305 296/348/314 282/333/299
f 292/341/307 305/349/315 291/337/303
f 285/338/304 298/350/316 284/339/305
f 292/341/307 307/351/317 306/352/318
f 286/343/309 299/353/319 285/338/304
f 294/328/294 307/351/317 293/342/308
f 287/329/295 300/354/320 286/343/309
f 294/328/294 309/355/321 308/356/322
f 288/357/297 301/358/323 287/329/295
f 283/334/300 309/355/321 295/327/293
f 344/359/324 319/360/325 342/361/326
f 326/362/327 323/363/328 350/364/329
f 346/365/330 320/366/331 344/359/324
f 332/367/332 313/368/333 330/369/334
f 346/365/330 322/370/335 321/371/336
f 334/372/337 314/373/338 332/367/332
f 348/374/339 323/363/328 322/370/335
f 336/375/340 315/376/341 334/372/337
f 338/377/342 316/378/343 336/379/340
f 330/369/334 312/380/344 328/381/345
f 340/382/346 317/383/347 338/377/342
f 342/361/326 318/384/348 340/382/346
f 328/381/345 310/385/349 324/386/350
f 326/362/327 325/387/351 324/386/350
f 327/388/352 296/389/353 325/387/351
f 328/381/345 325/387/351 329/390/354
f 325/387/351 298/391/355 329/390/354
f 330/369/334 329/390/354 331/392/356
f 329/390/354 299/393/357 331/392/356
f 330/369/334 333/394/358 332/367/332
f 331/392/356 300/395/359 333/394/358
f 332/367/332 335/396/360 334/372/337
f 333/394/358 301/397/361 335/396/360
f 336/375/340 335/396/360 337/398/362
f 337/398/362 301/397/361 302/399/363
f 302/400/363 339/401/364 337/402/362
f 339/401/364 336/379/340 337/402/362
f 338/377/342 341/403/365 340/382/346
f 339/401/364 304/404/366 341/403/365
f 305/405/367 341/403/365 304/404/366
f 343/406/368 340/382/346 341/403/365
f 344/359/324 343/406/368 345/407/369
f 343/406/368 306/408/370 345/407/369
f 346/365/330 345/407/369 347/409/371
f 347/409/371 306/408/370 307/410/372
f 346/365/330 349/411/373 348/374/339
f 347/409/371 308/412/374 349/411/373
f 348/374/339 351/413/375 350/364/329
f 349/411/373 309/414/376 351/413/375
f 350/364/329 327/388/352 326/362/327
f 351/413/375 297/415/377 327/388/352
f 326/362/327 310/385/349 311/416/378
f 368/417/379 420/418/380 393/419/381
f 389/420/382 414/421/383 387/422/384
f 375/423/385 400/424/386 373/425/387
f 391/426/388 416/427/389 389/420/382
f 377/428/390 402/429/391 375/423/385
f 393/419/381 418/430/392 391/426/388
f 379/431/393 404/432/394 377/428/390
f 395/433/395 353/434/396 396/435/397
f 381/436/398 406/437/399 379/438/393
f 373/425/387 398/439/400 371/440/401
f 383/441/402 408/442/403 381/436/398
f 385/443/404 410/444/405 383/441/402
f 371/440/401 394/445/406 367/446/407
f 387/422/384 412/447/408 385/443/404
f 311/448/409 392/449/410 323/450/411
f 317/451/412 378/452/413 316/453/414
f 318/454/415 380/455/416 317/451/412
f 310/456/417 369/457/418 311/448/409
f 319/458/419 382/459/420 318/454/415
f 310/456/417 370/460/421 366/461/422
f 320/462/423 384/463/424 319/458/419
f 313/464/425 370/460/421 312/465/426
f 321/466/427 386/467/428 320/462/423
f 314/468/429 372/469/430 313/464/425
f 322/470/431 388/471/432 321/466/427
f 315/472/433 374/473/434 314/468/429
f 322/470/431 392/449/410 390/474/435
f 316/475/414 376/476/436 315/472/433
f 395/433/395 354/477/437 352/478/438
f 415/479/439 361/480/440 413/481/441
f 396/435/397 365/482/442 421/483/443
f 417/484/444 362/485/445 415/479/439
f 403/486/446 355/487/447 401/488/448
f 417/484/444 364/489/449 363/490/450
f 403/486/446 357/491/451 356/492/452
f 421/483/443 364/489/449 419/493/453
f 407/494/454 357/491/451 405/495/455
f 407/496/454 359/497/456 358/498/457
f 399/499/458 355/487/447 354/477/437
f 409/500/459 360/501/460 359/497/456
f 411/502/461 361/480/440 360/501/460
f 368/417/379 366/461/422 367/446/407
f 367/446/407 370/460/421 371/440/401
f 371/440/401 372/469/430 373/425/387
f 375/423/385 372/469/430 374/473/434
f 375/423/385 376/476/436 377/428/390
f 379/431/393 376/476/436 378/503/413
f 380/455/416 379/438/393 378/452/413
f 381/436/398 382/459/420 383/441/402
f 384/463/424 383/441/402 382/459/420
f 385/443/404 386/467/428 387/422/384
f 389/420/382 386/467/428 388/471/432
f 391/426/388 388/471/432 390/474/435
f 393/419/381 390/474/435 392/449/410
f 368/417/379 392/449/410 369/457/418
f 395/433/395 397/504/462 394/445/406
f 399/499/458 394/445/406 398/439/400
f 399/499/458 400/424/386 401/488/448
f 401/488/448 402/429/391 403/486/446
f 403/486/446 404/432/394 405/495/455
f 405/495/455 406/505/399 407/494/454
f 408/442/403 407/496/454 406/437/399
f 409/500/459 410/444/405 411/502/461
f 410/444/405 413/481/441 411/502/461
f 413/481/441 414/421/383 415/479/439
f 415/479/439 416/427/389 417/484/444
f 417/484/444 418/430/392 419/493/453
f 419/493/453 420/418/380 421/483/443
f 421/483/443 397/504/462 396/435/397
f 367/446/407 397/504/462 368/417/379
f 435/506/463 460/507/464 433/508/465
f 467/509/466 469/510/467 478/511/468
f 437/512/469 462/513/470 435/514/463
f 429/515/471 454/516/472 427/517/473
f 439/518/474 464/519/475 437/512/469
f 441/520/476 466/521/477 439/518/474
f 427/517/473 450/522/478 423/523/479
f 443/524/480 468/525/481 441/520/476
f 424/526/482 476/527/483 449/528/484
f 445/529/485 470/530/486 443/524/480
f 431/531/487 456/532/488 429/515/471
f 447/533/489 472/534/490 445/529/485
f 433/508/465 458/535/491 431/531/487
f 449/528/484 474/536/492 447/533/489
f 365/537/442 446/538/493 364/539/449
f 357/540/451 434/541/494 432/542/495
f 353/543/396 448/544/496 365/537/442
f 358/545/457 436/546/497 434/547/494
f 359/548/456 438/549/498 436/546/497
f 352/550/438 425/551/499 353/543/396
f 361/552/440 438/549/498 360/553/460
f 354/554/437 422/555/500 352/550/438
f 362/556/445 440/557/501 361/552/440
f 355/558/447 426/559/502 354/554/437
f 363/560/450 442/561/503 362/556/445
f 356/562/452 428/563/504 355/558/447
f 364/539/449 444/564/505 363/560/450
f 357/540/451 430/565/506 356/562/452
f 424/526/482 422/555/500 423/523/479
f 427/517/473 422/555/500 426/559/502
f 427/517/473 428/563/504 429/515/471
f 429/515/471 430/565/506 431/531/487
f 431/531/487 432/542/495 433/508/465
f 433/508/465 434/541/494 435/506/463
f 434/547/494 437/512/469 435/514/463
f 437/512/469 438/549/498 439/518/474
f 440/557/501 439/518/474 438/549/498
f 441/520/476 442/561/503 443/524/480
f 443/524/480 444/564/505 445/529/485
f 445/529/485 446/538/493 447/533/489
f 447/533/489 448/544/496 449/528/484
f 449/528/484 425/551/499 424/526/482
f 452/566/507 450/522/478 451/567/508
f 451/567/508 454/516/472 455/568/509
f 457/569/510 454/516/472 456/532/488
f 459/570/511 456/532/488 458/535/491
f 459/570/511 460/507/464 461/571/512
f 461/571/512 462/572/470 463/573/513
f 462/513/470 465/574/514 463/575/513
f 465/574/514 466/521/477 467/576/466
f 468/525/481 467/576/466 466/521/477
f 471/577/515 468/525/481 470/530/486
f 473/578/516 470/530/486 472/534/490
f 473/578/516 474/536/492 475/579/517
f 475/579/517 476/527/483 477/580/518
f 452/566/507 476/527/483 453/581/519
f 423/523/479 453/581/519 424/526/482
f 471/582/515 478/511/468 469/510/467
f 475/583/517 477/584/518 478/511/468
f 455/585/509 457/586/510 478/511/468
f 478/511/468 457/586/510 459/587/511
f 459/587/511 461/588/512 478/511/468
f 461/588/512 463/589/513 478/511/468
f 463/589/513 465/590/514 478/511/468
f 465/590/514 467/509/466 478/511/468
f 452/591/507 451/592/508 478/511/468
f 451/592/508 455/585/509 478/511/468
f 478/511/468 471/582/515 473/593/516
f 452/591/507 478/511/468 477/584/518
f 473/593/516 475/583/517 478/511/468
f 9/10/10 25/14/14 10/236/221
f 196/1/1 2/31/31 14/2/2
f 198/4/4 8/32/32 22/5/5
f 196/1/1 15/3/3 16/7/7
f 198/4/4 23/6/6 24/9/9
f 197/11/11 3/8/8 16/7/7
f 24/9/9 38/39/39 39/13/13
f 197/11/11 17/12/12 18/15/15
f 4/16/16 18/15/15 19/17/17
f 263/22/22 224/255/239 223/23/23
f 5/18/18 19/17/17 20/25/25
f 1/19/19 12/21/21 13/27/27
f 7/29/29 6/26/26 20/25/25
f 195/28/28 13/27/27 14/2/2
f 7/29/29 21/30/30 22/5/5
f 13/27/27 27/49/49 28/33/33
f 22/5/5 21/30/30 35/34/34
f 15/3/3 14/2/2 28/33/33
f 22/5/5 36/35/35 37/37/37
f 15/3/3 29/36/36 30/38/38
f 23/6/6 37/37/37 38/39/39
f 16/7/7 30/38/38 31/40/40
f 52/41/41 53/52/52 39/13/13
f 17/12/12 31/40/40 32/42/42
f 19/17/17 18/15/15 32/42/42
f 265/45/45 267/208/193 226/46/46
f 19/17/17 33/43/43 34/48/48
f 12/21/21 26/44/44 27/49/49
f 20/25/25 34/48/48 35/34/34
f 31/40/40 45/66/66 46/50/50
f 52/41/41 66/71/71 67/51/51
f 33/43/43 32/42/42 46/50/50
f 255/55/55 220/267/251 219/56/56
f 33/43/43 47/53/53 48/58/58
f 26/44/44 40/54/54 41/59/59
f 35/34/34 34/48/48 48/58/58
f 27/49/49 41/59/59 42/61/61
f 35/34/34 49/60/60 50/62/62
f 29/36/36 28/33/33 42/61/61
f 36/35/35 50/62/62 51/64/64
f 29/36/36 43/63/63 44/65/65
f 37/37/37 51/64/64 52/41/41
f 30/38/38 44/65/65 45/66/66
f 49/60/60 63/82/81 64/67/67
f 42/61/61 56/83/82 57/68/68
f 50/62/62 64/67/67 65/69/69
f 43/63/63 57/68/68 58/70/70
f 51/64/64 65/69/69 66/71/71
f 44/65/65 58/70/70 59/72/72
f 80/73/73 81/84/83 67/51/51
f 45/66/66 59/72/72 60/74/74
f 47/53/53 46/50/50 60/74/74
f 253/77/57 219/594/56 218/78/77
f 47/53/53 61/75/75 62/80/79
f 41/59/59 40/54/54 54/76/76
f 49/60/60 48/58/58 62/80/79
f 41/59/59 55/81/80 56/83/82
f 81/84/83 80/73/73 94/85/84
f 61/75/75 60/74/74 74/87/86
f 61/75/75 75/88/87 76/90/89
f 54/76/76 68/89/88 69/91/90
f 63/82/81 62/80/79 76/90/89
f 55/81/80 69/91/90 70/93/92
f 63/82/81 77/92/91 78/94/93
f 57/68/68 56/83/82 70/93/92
f 65/69/69 64/67/67 78/94/93
f 57/68/68 71/95/94 72/97/96
f 65/69/69 79/96/95 80/73/73
f 59/72/72 58/70/70 72/97/96
f 59/72/72 73/98/97 74/87/86
f 71/95/94 70/93/92 84/99/98
f 79/96/95 78/94/93 92/101/100
f 71/95/94 85/100/99 86/103/102
f 79/96/95 93/102/101 94/85/84
f 73/98/97 72/97/96 86/103/102
f 94/105/84 108/140/127 109/106/104
f 73/98/97 87/104/103 88/108/105
f 75/88/87 74/87/86 88/108/105
f 249/111/108 251/79/78 218/78/77
f 75/88/87 89/109/106 90/113/110
f 68/89/88 82/110/107 83/114/111
f 77/92/91 76/90/89 90/113/110
f 69/91/90 83/114/111 84/99/98
f 77/92/91 91/115/112 92/101/100
f 89/116/106 88/144/105 102/117/113
f 259/121/116 222/154/139 221/122/117
f 89/116/106 103/118/114 104/124/119
f 82/119/107 96/120/115 97/126/120
f 91/128/112 90/125/110 104/124/119
f 83/127/111 97/126/120 98/130/122
f 91/128/112 105/129/121 106/132/123
f 85/134/99 84/131/98 98/130/122
f 93/136/101 92/133/100 106/132/123
f 85/134/99 99/135/124 100/138/126
f 93/136/101 107/137/125 108/140/127
f 87/141/103 86/139/102 100/138/126
f 108/140/127 122/148/133 123/143/129
f 87/141/103 101/142/128 102/117/113
f 107/137/125 106/132/123 120/145/130
f 99/135/124 113/159/144 114/147/132
f 107/137/125 121/146/131 122/148/133
f 101/142/128 100/138/126 114/147/132
f 122/148/133 136/172/157 137/150/135
f 101/142/128 115/149/134 116/151/136
f 103/118/114 102/117/113 116/151/136
f 261/24/24 223/23/23 222/154/139
f 103/118/114 117/152/137 118/155/140
f 96/120/115 110/153/138 111/156/141
f 105/129/121 104/124/119 118/155/140
f 97/126/120 111/156/141 112/158/143
f 105/129/121 119/157/142 120/145/130
f 99/135/124 98/130/122 112/158/143
f 207/160/145 243/299/281 266/161/146
f 117/152/137 131/176/161 132/163/148
f 111/156/141 110/153/138 124/164/149
f 119/157/142 118/155/140 132/163/148
f 111/156/141 125/165/150 126/167/152
f 119/157/142 133/166/151 134/168/153
f 112/158/143 126/167/152 127/169/154
f 121/146/131 120/145/130 134/168/153
f 113/159/144 127/169/154 128/171/156
f 122/148/133 121/146/131 135/170/155
f 114/147/132 128/171/156 129/173/158
f 136/172/157 151/177/162 152/174/159
f 115/149/134 129/173/158 130/175/160
f 117/152/137 116/151/136 130/175/160
f 135/170/155 150/193/178 151/177/162
f 129/173/158 128/171/156 143/178/163
f 151/177/162 165/202/187 166/180/165
f 129/173/158 144/179/164 145/181/166
f 131/176/161 130/175/160 145/181/166
f 245/184/169 215/249/234 213/185/170
f 131/176/161 146/182/167 147/187/172
f 125/165/150 124/164/149 139/183/168
f 133/166/151 132/163/148 147/187/172
f 125/165/150 140/188/173 141/190/175
f 133/166/151 148/189/174 149/191/176
f 127/169/154 126/167/152 141/190/175
f 135/170/155 134/168/153 149/191/176
f 127/169/154 142/192/177 143/178/163
f 139/183/168 153/207/192 154/194/179
f 148/189/174 147/187/172 161/195/180
f 140/188/173 154/194/179 155/197/182
f 148/189/174 162/196/181 163/198/183
f 142/192/177 141/190/175 155/197/182
f 150/193/178 149/191/176 163/198/183
f 142/192/177 156/199/184 157/201/186
f 150/193/178 164/200/185 165/202/187
f 143/178/163 157/201/186 158/203/188
f 165/202/187 179/212/197 180/204/189
f 144/179/164 158/203/188 159/205/190
f 146/182/167 145/181/166 159/205/190
f 267/208/193 242/263/247 214/209/194
f 146/182/167 160/206/191 161/195/180
f 158/203/188 157/201/186 171/210/195
f 179/212/197 193/234/219 194/213/198
f 158/203/188 172/211/196 173/214/199
f 160/206/191 159/205/190 173/214/199
f 209/217/202 138/251/236 262/218/203
f 160/206/191 174/215/200 175/220/205
f 153/207/192 167/216/201 168/221/206
f 162/196/181 161/195/180 175/220/205
f 154/194/179 168/221/206 169/223/208
f 162/196/181 176/222/207 177/224/209
f 156/199/184 155/197/182 169/223/208
f 164/200/185 163/198/183 177/224/209
f 156/199/184 170/225/210 171/210/195
f 164/200/185 178/226/211 179/212/197
f 176/222/207 175/220/205 189/227/212
f 168/221/206 182/242/227 183/229/214
f 176/222/207 190/228/213 191/230/215
f 170/225/210 169/223/208 183/229/214
f 178/226/211 177/224/209 191/230/215
f 170/225/210 184/231/216 185/233/218
f 178/226/211 192/232/217 193/234/219
f 172/211/196 171/210/195 185/233/218
f 193/234/219 9/10/10 10/236/221
f 172/211/196 186/235/220 187/237/222
f 174/215/200 173/214/199 187/237/222
f 249/111/108 217/112/109 216/240/225
f 174/215/200 188/238/223 189/227/212
f 167/216/201 181/239/224 182/242/227
f 186/235/220 197/11/11 4/16/16
f 188/238/223 187/237/222 4/16/16
f 212/243/228 210/256/240 248/244/229
f 188/238/223 5/18/18 6/26/26
f 181/239/224 1/19/19 195/28/28
f 190/228/213 189/227/212 6/26/26
f 182/242/227 195/28/28 2/31/31
f 190/228/213 7/29/29 8/32/32
f 184/231/216 183/229/214 2/31/31
f 192/232/217 191/230/215 8/32/32
f 184/231/216 196/1/1 3/8/8
f 192/232/217 198/4/4 9/10/10
f 186/235/220 185/233/218 3/8/8
f 203/246/231 254/266/250 252/247/232
f 247/241/226 216/240/225 215/249/234
f 201/250/235 264/268/252 262/218/203
f 202/252/237 200/280/233 252/253/232
f 263/22/22 265/45/45 225/47/47
f 202/252/237 250/254/238 248/244/229
f 209/217/202 260/219/204 258/257/241
f 211/259/243 212/243/228 246/245/230
f 204/261/245 208/258/242 258/257/241
f 241/186/171 213/185/170 214/209/194
f 205/264/248 211/259/243 244/260/244
f 204/261/245 256/262/246 254/266/250
f 257/123/118 221/122/117 220/267/251
f 201/250/235 206/162/147 266/161/146
f 39/269/253 53/270/254 212/243/228
f 53/270/254 67/278/262 210/256/240
f 137/271/255 152/283/266 209/217/202
f 10/272/256 207/160/145 206/162/147
f 25/274/258 205/264/248 207/160/145
f 39/269/253 211/259/243 205/264/248
f 123/275/259 137/271/255 208/258/242
f 123/275/259 204/261/245 203/246/231
f 81/277/261 202/252/237 210/256/240
f 180/279/263 194/273/257 206/162/147
f 81/277/261 95/595/264 200/280/233
f 109/276/260 203/246/231 200/248/233
f 180/279/263 201/250/235 138/251/236
f 152/283/266 166/282/265 138/251/236
f 215/249/234 228/297/279 199/284/267
f 214/209/194 213/185/170 199/284/267
f 221/122/117 234/298/280 233/286/269
f 219/56/56 220/267/251 233/286/269
f 226/46/46 239/291/273 238/288/271
f 218/78/77 219/594/56 232/289/270
f 226/46/46 214/209/194 227/285/268
f 224/255/239 225/47/47 238/288/271
f 217/112/109 218/78/77 231/290/272
f 224/255/239 237/292/274 236/294/276
f 217/112/109 230/293/275 229/295/277
f 222/154/139 223/23/23 236/294/276
f 216/240/225 229/295/277 228/297/279
f 221/122/117 222/154/139 235/296/278
f 242/263/247 243/299/281 240/265/249
f 241/186/171 240/265/249 244/260/244
f 247/241/226 245/184/169 244/260/244
f 247/241/226 246/245/230 248/244/229
f 249/111/108 248/244/229 250/254/238
f 253/77/57 251/79/78 250/254/238
f 254/266/250 255/55/55 253/57/57
f 255/55/55 254/266/250 256/262/246
f 258/257/241 259/121/116 257/123/118
f 259/121/116 258/257/241 260/219/204
f 261/24/24 260/219/204 262/218/203
f 263/22/22 262/218/203 264/268/252
f 265/45/45 264/268/252 266/161/146
f 267/208/193 266/161/146 243/299/281
f 205/264/248 240/265/249 243/299/281
f 235/300/278 277/335/301 276/301/282
f 271/303/283 270/326/292 228/304/279
f 278/306/284 277/335/301 235/300/278
f 272/308/285 271/303/283 229/305/277
f 237/310/274 279/340/306 278/306/284
f 273/311/286 272/308/285 230/309/275
f 280/313/287 279/340/306 237/310/274
f 269/315/288 281/320/290 239/316/273
f 274/318/289 273/311/286 231/312/272
f 281/320/290 280/313/287 238/314/271
f 233/321/269 275/332/298 274/322/289
f 276/301/282 275/332/298 233/321/269
f 268/324/291 269/315/288 227/317/268
f 270/326/292 268/324/291 199/325/267
f 280/313/287 281/320/290 295/327/293
f 274/318/289 288/357/297 287/329/295
f 269/315/288 283/334/300 295/327/293
f 274/322/289 275/332/298 289/330/296
f 276/301/282 290/336/302 289/330/296
f 269/315/288 268/324/291 282/333/299
f 277/335/301 291/337/303 290/336/302
f 270/326/292 284/339/305 282/333/299
f 278/306/284 292/341/307 291/337/303
f 270/326/292 271/303/283 285/338/304
f 279/340/306 293/342/308 292/341/307
f 272/308/285 286/343/309 285/338/304
f 280/313/287 294/328/294 293/342/308
f 273/311/286 287/329/295 286/343/309
f 289/330/296 303/345/311 302/344/310
f 290/336/302 304/347/313 303/345/311
f 282/333/299 296/348/314 297/346/312
f 291/337/303 305/349/315 304/347/313
f 284/339/305 298/350/316 296/348/314
f 292/341/307 306/352/318 305/349/315
f 285/338/304 299/353/319 298/350/316
f 292/341/307 293/342/308 307/351/317
f 286/343/309 300/354/320 299/353/319
f 294/328/294 308/356/322 307/351/317
f 287/329/295 301/358/323 300/354/320
f 294/328/294 295/327/293 309/355/321
f 288/357/297 302/596/310 301/358/323
f 283/334/300 297/346/312 309/355/321
f 344/359/324 320/366/331 319/360/325
f 326/362/327 311/416/378 323/363/328
f 346/365/330 321/371/336 320/366/331
f 332/367/332 314/373/338 313/368/333
f 346/365/330 348/374/339 322/370/335
f 334/372/337 315/376/341 314/373/338
f 348/374/339 350/364/329 323/363/328
f 336/375/340 316/597/343 315/376/341
f 338/377/342 317/383/347 316/378/343
f 330/369/334 313/368/333 312/380/344
f 340/382/346 318/384/348 317/383/347
f 342/361/326 319/360/325 318/384/348
f 328/381/345 312/380/344 310/385/349
f 326/362/327 327/388/352 325/387/351
f 327/388/352 297/415/377 296/389/353
f 328/381/345 324/386/350 325/387/351
f 325/387/351 296/389/353 298/391/355
f 330/369/334 328/381/345 329/390/354
f 329/390/354 298/391/355 299/393/357
f 330/369/334 331/392/356 333/394/358
f 331/392/356 299/393/357 300/395/359
f 332/367/332 333/394/358 335/396/360
f 333/394/358 300/395/359 301/397/361
f 336/375/340 334/372/337 335/396/360
f 337/398/362 335/396/360 301/397/361
f 302/400/363 303/598/520 339/401/364
f 339/401/364 338/377/342 336/379/340
f 338/377/342 339/401/364 341/403/365
f 339/401/364 303/598/520 304/404/366
f 305/405/367 343/406/368 341/403/365
f 343/406/368 342/361/326 340/382/346
f 344/359/324 342/361/326 343/406/368
f 343/406/368 305/405/367 306/408/370
f 346/365/330 344/359/324 345/407/369
f 347/409/371 345/407/369 306/408/370
f 346/365/330 347/409/371 349/411/373
f 347/409/371 307/410/372 308/412/374
f 348/374/339 349/411/373 351/413/375
f 349/411/373 308/412/374 309/414/376
f 350/364/329 351/413/375 327/388/352
f 351/413/375 309/414/376 297/415/377
f 326/362/327 324/386/350 310/385/349
f 368/417/379 397/504/462 420/418/380
f 389/420/382 416/427/389 414/421/383
f 375/423/385 402/429/391 400/424/386
f 391/426/388 418/430/392 416/427/389
f 377/428/390 404/432/394 402/429/391
f 393/419/381 420/418/380 418/430/392
f 379/431/393 406/505/399 404/432/394
f 395/433/395 352/478/438 353/434/396
f 381/436/398 408/442/403 406/437/399
f 373/425/387 400/424/386 398/439/400
f 383/441/402 410/444/405 408/442/403
f 385/443/404 412/447/408 410/444/405
f 371/440/401 398/439/400 394/445/406
f 387/422/384 414/421/383 412/447/408
f 311/448/409 369/457/418 392/449/410
f 317/451/412 380/455/416 378/452/413
f 318/454/415 382/459/420 380/455/416
f 310/456/417 366/461/422 369/457/418
f 319/458/419 384/463/424 382/459/420
f 310/456/417 312/465/426 370/460/421
f 320/462/423 386/467/428 384/463/424
f 313/464/425 372/469/430 370/460/421
f 321/466/427 388/471/432 386/467/428
f 314/468/429 374/473/434 372/469/430
f 322/470/431 390/474/435 388/471/432
f 315/472/433 376/476/436 374/473/434
f 322/470/431 323/450/411 392/449/410
f 316/475/414 378/503/413 376/476/436
f 395/433/395 399/499/458 354/477/437
f 415/479/439 362/485/445 361/480/440
f 396/435/397 353/434/396 365/482/442
f 417/484/444 363/490/450 362/485/445
f 403/486/446 356/492/452 355/487/447
f 417/484/444 419/493/453 364/489/449
f 403/486/446 405/495/455 357/491/451
f 421/483/443 365/482/442 364/489/449
f 407/494/454 358/599/457 357/491/451
f 407/496/454 409/500/459 359/497/456
f 399/499/458 401/488/448 355/487/447
f 409/500/459 411/502/461 360/501/460
f 411/502/461 413/481/441 361/480/440
f 368/417/379 369/457/418 366/461/422
f 367/446/407 366/461/422 370/460/421
f 371/440/401 370/460/421 372/469/430
f 375/423/385 373/425/387 372/469/430
f 375/423/385 374/473/434 376/476/436
f 379/431/393 377/428/390 376/476/436
f 380/455/416 381/436/398 379/438/393
f 381/436/398 380/455/416 382/459/420
f 384/463/424 385/443/404 383/441/402
f 385/443/404 384/463/424 386/467/428
f 389/420/382 387/422/384 386/467/428
f 391/426/388 389/420/382 388/471/432
f 393/419/381 391/426/388 390/474/435
f 368/417/379 393/419/381 392/449/410
f 395/433/395 396/435/397 397/504/462
f 399/499/458 395/433/395 394/445/406
f 399/499/458 398/439/400 400/424/386
f 401/488/448 400/424/386 402/429/391
f 403/486/446 402/429/391 404/432/394
f 405/495/455 404/432/394 406/505/399
f 408/442/403 409/500/459 407/496/454
f 409/500/459 408/442/403 410/444/405
f 410/444/405 412/447/408 413/481/441
f 413/481/441 412/447/408 414/421/383
f 415/479/439 414/421/383 416/427/389
f 417/484/444 416/427/389 418/430/392
f 419/493/453 418/430/392 420/418/380
f 421/483/443 420/418/380 397/504/462
f 367/446/407 394/445/406 397/504/462
f 435/506/463 462/572/470 460/507/464
f 437/512/469 464/519/475 462/513/470
f 429/515/471 456/532/488 454/516/472
f 439/518/474 466/521/477 464/519/475
f 441/520/476 468/525/481 466/521/477
f 427/517/473 454/516/472 450/522/478
f 443/524/480 470/530/486 468/525/481
f 424/526/482 453/581/519 476/527/483
f 445/529/485 472/534/490 470/530/486
f 431/531/487 458/535/491 456/532/488
f 447/533/489 474/536/492 472/534/490
f 433/508/465 460/507/464 458/535/491
f 449/528/484 476/527/483 474/536/492
f 365/537/442 448/544/496 446/538/493
f 357/540/451 358/600/457 434/541/494
f 353/543/396 425/551/499 448/544/496
f 358/545/457 359/548/456 436/546/497
f 359/548/456 360/553/460 438/549/498
f 352/550/438 422/555/500 425/551/499
f 361/552/440 440/557/501 438/549/498
f 354/554/437 426/559/502 422/555/500
f 362/556/445 442/561/503 440/557/501
f 355/558/447 428/563/504 426/559/502
f 363/560/450 444/564/505 442/561/503
f 356/562/452 430/565/506 428/563/504
f 364/539/449 446/538/493 444/564/505
f 357/540/451 432/542/495 430/565/506
f 424/526/482 425/551/499 422/555/500
f 427/517/473 423/523/479 422/555/500
f 427/517/473 426/559/502 428/563/504
f 429/515/471 428/563/504 430/565/506
f 431/531/487 430/565/506 432/542/495
f 433/508/465 432/542/495 434/541/494
f 434/547/494 436/546/497 437/512/469
f 437/512/469 436/546/497 438/549/498
f 440/557/501 441/520/476 439/518/474
f 441/520/476 440/557/501 442/561/503
f 443/524/480 442/561/503 444/564/505
f 445/529/485 444/564/505 446/538/493
f 447/533/489 446/538/493 448/544/496
f 449/528/484 448/544/496 425/551/499
f 452/566/507 453/581/519 450/522/478
f 451/567/508 450/522/478 454/516/472
f 457/569/510 455/568/509 454/516/472
f 459/570/511 457/569/510 456/532/488
f 459/570/511 458/535/491 460/507/464
f 461/571/512 460/507/464 462/572/470
f 462/513/470 464/519/475 465/574/514
f 465/574/514 464/519/475 466/521/477
f 468/525/481 469/601/467 467/576/466
f 471/577/515 469/601/467 468/525/481
f 473/578/516 471/577/515 470/530/486
f 473/578/516 472/534/490 474/536/492
f 475/579/517 474/536/492 476/527/483
f 452/566/507 477/580/518 476/527/483
f 423/523/479 450/522/478 453/581/519
f 9/10/10 24/9/9 25/14/14
