# Blender 5.1.2
# www.blender.org
mtllib Black_knight.mtl
o knight_black_low
v 0.799779 0.257211 -1.391001
v 0.799781 0.257211 -1.208925
v 0.799780 0.281166 -1.214339
v 0.799779 0.281166 -1.390620
v 0.799781 0.334335 -1.199352
v 0.799779 0.278996 -1.378991
v 0.799780 0.278996 -1.220935
v 0.799780 0.410668 -1.237314
v 0.799780 0.451569 -1.267455
v 0.799780 0.480892 -1.287892
v 0.799780 0.495522 -1.256542
v 0.799780 0.485392 -1.281810
v 0.799780 0.492356 -1.246721
v 0.799780 0.571229 -1.288154
v 0.799780 0.560436 -1.227348
v 0.799780 0.569439 -1.278770
v 0.799780 0.379632 -1.216475
v 0.799779 0.192442 -1.420321
v 0.799779 0.207506 -1.423577
v 0.799781 0.207506 -1.176349
v 0.799781 0.192442 -1.179605
v 0.799781 0.141954 -1.192371
v 0.799779 0.141954 -1.407555
v 0.799779 0.175013 -1.411942
v 0.799781 0.175013 -1.187984
v 0.799780 0.576621 -1.314196
v 0.799779 0.581125 -1.333500
v 0.799780 0.479837 -1.226826
v 0.799780 0.479837 -1.219555
v 0.799781 0.496182 -1.206517
v 0.799781 0.501824 -1.197506
v 0.799781 0.530480 -1.196193
v 0.799781 0.557154 -1.208586
v 0.799781 0.555278 -1.207428
v 0.799781 0.540231 -1.205766
v 0.799781 0.505615 -1.196391
v 0.799781 0.527902 -1.195697
v 0.799781 0.526735 -1.194408
v 0.799781 0.524082 -1.194408
v 0.799781 0.522999 -1.195731
v 0.799780 0.515350 -1.239051
v 0.799781 0.506765 -1.197972
v 0.799781 0.510717 -1.197179
v 0.799781 0.511066 -1.207181
v 0.799780 0.510909 -1.240662
v 0.799781 0.522359 -1.197260
v 0.799780 0.514975 -1.216713
v 0.799781 0.514975 -1.196514
v 0.799779 0.598648 -1.356817
v 0.799779 0.286899 -1.423746
v 0.799779 0.410729 -1.415185
v 0.799779 0.450796 -1.425413
v 0.799779 0.549687 -1.419949
v 0.799779 0.584345 -1.397099
v 0.799779 0.482388 -1.429682
v 0.799779 0.523307 -1.428293
v 0.799779 0.599432 -1.371305
v 0.799779 0.364467 -1.398768
v 0.799779 0.337128 -1.393435
v 0.799779 0.312013 -1.400981
v 0.799781 0.222569 -1.188717
v 0.799779 0.222569 -1.411209
v 0.799779 0.233378 -1.393038
v 0.799781 0.233378 -1.206888
v 0.799780 0.245363 -1.217219
v 0.799779 0.245363 -1.382707
v 0.799781 0.269442 -1.208925
v 0.799779 0.269441 -1.391001
v 0.799779 0.154073 -1.430471
v 0.799779 0.148180 -1.423352
v 0.799781 0.148180 -1.176573
v 0.799781 0.154073 -1.169454
v 0.799781 0.169160 -1.176405
v 0.799781 0.162985 -1.169454
v 0.799779 0.162985 -1.430471
v 0.799779 0.169160 -1.423521
v 0.799781 0.309945 -1.201184
v 0.896426 0.207506 -1.222891
v 0.893880 0.192442 -1.224921
v 0.917121 0.192442 -1.273182
v 0.920295 0.207506 -1.272457
v 0.917120 0.192442 -1.326746
v 0.920294 0.207506 -1.327471
v 0.893879 0.192442 -1.375006
v 0.896425 0.207506 -1.377036
v 0.809629 0.576589 -1.314417
v 0.852000 0.192442 -1.408402
v 0.853413 0.207506 -1.411336
v 0.852002 0.192442 -1.191524
v 0.853415 0.207506 -1.188591
v 0.904674 0.141954 -1.276022
v 0.883899 0.141954 -1.232881
v 0.888535 0.257211 -1.320222
v 0.870956 0.257211 -1.356725
v 0.839279 0.257211 -1.381986
v 0.839280 0.257211 -1.217941
v 0.870957 0.257211 -1.243202
v 0.888536 0.257211 -1.279706
v 0.846463 0.141954 -1.203026
v 0.846461 0.141954 -1.396900
v 0.883898 0.141954 -1.367046
v 0.904674 0.141954 -1.323905
v 0.888536 0.269441 -1.279706
v 0.870957 0.269442 -1.243202
v 0.836931 0.281166 -1.222819
v 0.866723 0.281166 -1.246578
v 0.883257 0.281166 -1.280911
v 0.883256 0.281166 -1.319017
v 0.866723 0.281166 -1.358382
v 0.836930 0.281166 -1.382141
v 0.829388 0.335890 -1.371397
v 0.883538 0.322723 -1.338362
v 0.885181 0.339855 -1.279166
v 0.864318 0.321475 -1.225101
v 0.841241 0.333322 -1.207854
v 0.876826 0.278996 -1.317549
v 0.861566 0.278996 -1.349236
v 0.834068 0.278996 -1.371165
v 0.834069 0.278996 -1.228762
v 0.861566 0.278996 -1.250691
v 0.876826 0.278996 -1.282378
v 0.842525 0.449973 -1.314006
v 0.836484 0.410293 -1.278935
v 0.832110 0.410668 -1.246945
v 0.831567 0.451391 -1.270790
v 0.837150 0.451730 -1.291553
v 0.818880 0.410668 -1.389985
v 0.815011 0.449968 -1.404570
v 0.856577 0.410668 -1.301745
v 0.845852 0.449973 -1.370085
v 0.858917 0.410668 -1.347232
v 0.835825 0.525376 -1.285236
v 0.811212 0.521444 -1.415777
v 0.829530 0.536681 -1.326684
v 0.812351 0.481778 -1.412114
v 0.840672 0.469256 -1.320522
v 0.844465 0.503338 -1.287828
v 0.836707 0.473313 -1.298192
v 0.826583 0.526072 -1.240055
v 0.834277 0.477453 -1.289302
v 0.824406 0.497632 -1.256229
v 0.840673 0.484262 -1.284605
v 0.840673 0.475640 -1.299764
v 0.817185 0.495554 -1.244678
v 0.821717 0.497421 -1.243747
v 0.841065 0.475772 -1.348977
v 0.823896 0.507161 -1.241335
v 0.821918 0.564304 -1.292204
v 0.809784 0.571222 -1.288154
v 0.823451 0.558909 -1.360832
v 0.809944 0.565587 -1.391820
v 0.812309 0.557154 -1.208587
v 0.810095 0.560434 -1.227348
v 0.820322 0.554184 -1.221210
v 0.823104 0.561238 -1.283682
v 0.809835 0.569433 -1.278770
v 0.827313 0.544612 -1.372511
v 0.827641 0.548003 -1.302936
v 0.810538 0.544908 -1.407304
v 0.818629 0.567135 -1.315059
v 0.821298 0.569332 -1.348316
v 0.809590 0.575055 -1.355006
v 0.809568 0.578553 -1.338282
v 0.822410 0.565081 -1.331808
v 0.837950 0.524422 -1.295224
v 0.839283 0.492891 -1.370104
v 0.833087 0.522292 -1.384890
v 0.872196 0.372921 -1.292435
v 0.871215 0.368013 -1.335882
v 0.825175 0.364906 -1.375294
v 0.832995 0.378953 -1.225485
v 0.847056 0.349958 -1.257402
v 0.844465 0.491496 -1.299382
v 0.812651 0.481797 -1.225401
v 0.817802 0.485276 -1.224587
v 0.812651 0.481797 -1.219556
v 0.818038 0.485276 -1.219542
v 0.813482 0.498138 -1.206685
v 0.822209 0.500998 -1.207181
v 0.812204 0.502809 -1.197438
v 0.814407 0.555278 -1.207428
v 0.844465 0.476829 -1.321408
v 0.824572 0.539773 -1.225547
v 0.812576 0.505615 -1.196394
v 0.841047 0.521897 -1.311416
v 0.840087 0.514744 -1.361949
v 0.836423 0.466237 -1.320140
v 0.869564 0.300138 -1.354883
v 0.834379 0.534044 -1.298623
v 0.832252 0.536079 -1.284651
v 0.825614 0.521307 -1.233643
v 0.824980 0.526735 -1.202139
v 0.819128 0.526735 -1.194409
v 0.818418 0.522998 -1.195732
v 0.819043 0.524082 -1.194409
v 0.823987 0.523006 -1.203530
v 0.825210 0.524086 -1.202155
v 0.823729 0.530175 -1.203080
v 0.817583 0.530480 -1.196194
v 0.820611 0.539540 -1.211482
v 0.815439 0.540231 -1.205766
v 0.817933 0.527902 -1.195698
v 0.824825 0.527217 -1.202501
v 0.824800 0.523075 -1.216375
v 0.824255 0.529628 -1.215417
v 0.825370 0.523787 -1.215170
v 0.825304 0.525365 -1.215225
v 0.825389 0.525931 -1.215283
v 0.832431 0.507353 -1.248967
v 0.828117 0.515350 -1.239051
v 0.822603 0.505992 -1.208583
v 0.821258 0.507072 -1.207974
v 0.821998 0.508236 -1.239499
v 0.811939 0.506757 -1.197842
v 0.821760 0.511024 -1.207181
v 0.812442 0.510709 -1.197049
v 0.825759 0.515350 -1.237215
v 0.829293 0.510909 -1.240662
v 0.822250 0.510909 -1.238826
v 0.824159 0.519969 -1.232513
v 0.823688 0.522428 -1.215294
v 0.822819 0.522375 -1.204236
v 0.816073 0.522357 -1.197040
v 0.824164 0.514975 -1.215294
v 0.823295 0.514975 -1.203490
v 0.816549 0.514975 -1.196294
v 0.831747 0.540396 -1.348031
v 0.825824 0.556599 -1.331859
v 0.827869 0.558605 -1.349127
v 0.831022 0.542608 -1.360878
v 0.821853 0.571315 -1.341342
v 0.821108 0.559161 -1.310973
v 0.824780 0.551852 -1.315150
v 0.819208 0.569770 -1.324332
v 0.826878 0.550712 -1.324445
v 0.823018 0.567228 -1.323011
v 0.825048 0.564255 -1.327752
v 0.827212 0.558878 -1.327784
v 0.822651 0.565558 -1.317132
v 0.824223 0.560502 -1.314542
v 0.826550 0.555868 -1.317190
v 0.827881 0.555145 -1.323083
v 0.805827 0.364467 -1.394840
v 0.804946 0.410729 -1.411842
v 0.804659 0.450796 -1.422951
v 0.804129 0.482405 -1.427423
v 0.803882 0.523307 -1.426491
v 0.803535 0.549690 -1.418122
v 0.803229 0.583303 -1.396151
v 0.803046 0.598134 -1.370592
v 0.807211 0.337128 -1.389736
v 0.817654 0.285505 -1.411724
v 0.803035 0.597188 -1.356699
v 0.813214 0.311294 -1.391573
v 0.818016 0.575503 -1.412648
v 0.810160 0.558095 -1.397430
v 0.824029 0.548854 -1.375707
v 0.819767 0.569154 -1.411954
v 0.815131 0.577930 -1.373622
v 0.823140 0.553289 -1.383554
v 0.823140 0.560098 -1.370498
v 0.820518 0.568607 -1.367641
v 0.819183 0.557716 -1.380980
v 0.814830 0.571119 -1.375579
v 0.819694 0.560151 -1.371500
v 0.817477 0.567221 -1.369001
v 0.908951 0.175013 -1.324881
v 0.887328 0.175013 -1.369781
v 0.848365 0.175013 -1.400852
v 0.848366 0.175013 -1.199074
v 0.887329 0.175013 -1.230146
v 0.908951 0.175013 -1.275046
v 0.908237 0.222569 -1.275209
v 0.886756 0.222569 -1.230603
v 0.848048 0.222569 -1.199734
v 0.848047 0.222569 -1.400192
v 0.886755 0.222569 -1.369324
v 0.908236 0.222569 -1.324718
v 0.890521 0.233378 -1.320675
v 0.872548 0.233378 -1.357995
v 0.840163 0.233378 -1.383821
v 0.840164 0.233378 -1.216106
v 0.872549 0.233378 -1.241932
v 0.890521 0.233378 -1.279253
v 0.880449 0.245363 -1.281551
v 0.864472 0.245363 -1.248373
v 0.835682 0.245363 -1.225413
v 0.835681 0.245363 -1.374513
v 0.864471 0.245363 -1.351554
v 0.880449 0.245363 -1.318376
v 0.839280 0.269442 -1.217941
v 0.839279 0.269441 -1.381986
v 0.870956 0.269441 -1.356725
v 0.888535 0.269441 -1.320222
v 0.927016 0.154073 -1.329005
v 0.920075 0.148180 -1.327421
v 0.896249 0.148180 -1.376896
v 0.901815 0.154073 -1.381334
v 0.853316 0.148180 -1.411134
v 0.856404 0.154073 -1.417547
v 0.853317 0.148180 -1.188793
v 0.856406 0.154073 -1.182379
v 0.896250 0.148180 -1.223032
v 0.901816 0.154073 -1.218593
v 0.920076 0.148180 -1.272507
v 0.927016 0.154073 -1.270923
v 0.920240 0.169160 -1.272470
v 0.927016 0.162985 -1.270923
v 0.896382 0.169160 -1.222926
v 0.901816 0.162985 -1.218593
v 0.853390 0.169160 -1.188641
v 0.856406 0.162985 -1.182379
v 0.853389 0.169160 -1.411285
v 0.856404 0.162985 -1.417547
v 0.896381 0.169160 -1.377001
v 0.901815 0.162985 -1.381334
v 0.927016 0.162985 -1.329005
v 0.920240 0.169160 -1.327458
v 0.871072 0.309945 -1.237269
v 0.839285 0.309945 -1.209611
v 0.815825 0.546172 -1.218155
v 0.703135 0.207506 -1.222890
v 0.705681 0.192442 -1.224920
v 0.682439 0.192442 -1.273180
v 0.679265 0.207506 -1.272455
v 0.682439 0.192442 -1.326744
v 0.679265 0.207506 -1.327469
v 0.705679 0.192442 -1.375004
v 0.703134 0.207506 -1.377034
v 0.789930 0.576589 -1.314417
v 0.747558 0.192442 -1.408401
v 0.746145 0.207506 -1.411335
v 0.747559 0.192442 -1.191524
v 0.746147 0.207506 -1.188590
v 0.694886 0.141954 -1.276021
v 0.715662 0.141954 -1.232880
v 0.711024 0.257211 -1.320220
v 0.728603 0.257211 -1.356724
v 0.760279 0.257211 -1.381985
v 0.760281 0.257211 -1.217940
v 0.728604 0.257211 -1.243201
v 0.711024 0.257211 -1.279704
v 0.753098 0.141954 -1.203026
v 0.753097 0.141954 -1.396900
v 0.715661 0.141954 -1.367045
v 0.694885 0.141954 -1.323904
v 0.711024 0.269441 -1.279704
v 0.728604 0.269442 -1.243201
v 0.762630 0.281166 -1.222818
v 0.732837 0.281166 -1.246577
v 0.716303 0.281166 -1.280909
v 0.716303 0.281166 -1.319015
v 0.732836 0.281166 -1.358381
v 0.762628 0.281166 -1.382140
v 0.770171 0.335890 -1.371397
v 0.716021 0.322723 -1.338361
v 0.714379 0.339855 -1.279165
v 0.735243 0.321475 -1.225100
v 0.758320 0.333322 -1.207853
v 0.722734 0.278996 -1.317548
v 0.737993 0.278996 -1.349235
v 0.765490 0.278996 -1.371164
v 0.765492 0.278996 -1.228761
v 0.737994 0.278996 -1.250690
v 0.722734 0.278996 -1.282377
v 0.757034 0.449973 -1.314005
v 0.763076 0.410293 -1.278934
v 0.767450 0.410668 -1.246944
v 0.767993 0.451391 -1.270790
v 0.762409 0.451730 -1.291552
v 0.780678 0.410668 -1.389985
v 0.784547 0.449968 -1.404570
v 0.742983 0.410668 -1.301744
v 0.753706 0.449973 -1.370085
v 0.740642 0.410668 -1.347231
v 0.763735 0.525376 -1.285235
v 0.788346 0.521444 -1.415777
v 0.770029 0.536681 -1.326684
v 0.787206 0.481778 -1.412113
v 0.758887 0.469256 -1.320521
v 0.755094 0.503338 -1.287828
v 0.762852 0.473313 -1.298191
v 0.772978 0.526072 -1.240055
v 0.765283 0.477453 -1.289301
v 0.775154 0.497632 -1.256229
v 0.758887 0.484262 -1.284604
v 0.758887 0.475640 -1.299763
v 0.782375 0.495554 -1.244678
v 0.777843 0.497421 -1.243747
v 0.758493 0.475772 -1.348977
v 0.775665 0.507161 -1.241335
v 0.777642 0.564304 -1.292204
v 0.789776 0.571222 -1.288154
v 0.776107 0.558909 -1.360832
v 0.789614 0.565587 -1.391820
v 0.787252 0.557154 -1.208586
v 0.789466 0.560434 -1.227348
v 0.779239 0.554184 -1.221210
v 0.776456 0.561238 -1.283682
v 0.789724 0.569433 -1.278770
v 0.772245 0.544612 -1.372511
v 0.771919 0.548003 -1.302936
v 0.789020 0.544908 -1.407304
v 0.780930 0.567135 -1.315059
v 0.778261 0.569332 -1.348316
v 0.789968 0.575055 -1.355006
v 0.789991 0.578553 -1.338282
v 0.777149 0.565081 -1.331808
v 0.761610 0.524422 -1.295224
v 0.760276 0.492891 -1.370104
v 0.766471 0.522292 -1.384890
v 0.727364 0.372921 -1.292434
v 0.728344 0.368013 -1.335881
v 0.774384 0.364906 -1.375294
v 0.766565 0.378953 -1.225485
v 0.752504 0.349958 -1.257401
v 0.755094 0.491496 -1.299381
v 0.786910 0.481797 -1.225401
v 0.781759 0.485276 -1.224587
v 0.786910 0.481797 -1.219555
v 0.781523 0.485276 -1.219542
v 0.786079 0.498138 -1.206685
v 0.777352 0.500998 -1.207181
v 0.787357 0.502809 -1.197438
v 0.785154 0.555278 -1.207428
v 0.755094 0.476829 -1.321407
v 0.774989 0.539773 -1.225547
v 0.786985 0.505615 -1.196394
v 0.758513 0.521897 -1.311416
v 0.759472 0.514744 -1.361948
v 0.763136 0.466237 -1.320140
v 0.729995 0.300138 -1.354882
v 0.765181 0.534044 -1.298622
v 0.767308 0.536079 -1.284651
v 0.773946 0.521307 -1.233643
v 0.774581 0.526735 -1.202139
v 0.780433 0.526735 -1.194409
v 0.781143 0.522998 -1.195732
v 0.780518 0.524082 -1.194409
v 0.775575 0.523006 -1.203530
v 0.774352 0.524086 -1.202155
v 0.775832 0.530175 -1.203079
v 0.781979 0.530480 -1.196193
v 0.778950 0.539540 -1.211482
v 0.784123 0.540231 -1.205765
v 0.781628 0.527902 -1.195698
v 0.774737 0.527217 -1.202500
v 0.774761 0.523075 -1.216375
v 0.775306 0.529628 -1.215416
v 0.774191 0.523787 -1.215169
v 0.774257 0.525365 -1.215224
v 0.774172 0.525931 -1.215283
v 0.767130 0.507353 -1.248966
v 0.771444 0.515350 -1.239051
v 0.776958 0.505992 -1.208583
v 0.778303 0.507072 -1.207974
v 0.777562 0.508236 -1.239498
v 0.787622 0.506757 -1.197842
v 0.777801 0.511024 -1.207181
v 0.787120 0.510709 -1.197049
v 0.773802 0.515350 -1.237215
v 0.770267 0.510909 -1.240662
v 0.777310 0.510909 -1.238826
v 0.775401 0.519969 -1.232513
v 0.775873 0.522428 -1.215294
v 0.776742 0.522375 -1.204236
v 0.783488 0.522357 -1.197040
v 0.775397 0.514975 -1.215294
v 0.776266 0.514975 -1.203490
v 0.783012 0.514975 -1.196294
v 0.767812 0.540396 -1.348031
v 0.773735 0.556599 -1.331858
v 0.771690 0.558605 -1.349126
v 0.768536 0.542608 -1.360878
v 0.777706 0.571315 -1.341341
v 0.778451 0.559161 -1.310973
v 0.774780 0.551852 -1.315150
v 0.780351 0.569770 -1.324332
v 0.772681 0.550712 -1.324445
v 0.776541 0.567228 -1.323011
v 0.774511 0.564255 -1.327751
v 0.772347 0.558878 -1.327783
v 0.776909 0.565558 -1.317132
v 0.775337 0.560502 -1.314541
v 0.773009 0.555868 -1.317190
v 0.771678 0.555145 -1.323083
v 0.793731 0.364467 -1.394840
v 0.794612 0.410729 -1.411842
v 0.794899 0.450796 -1.422951
v 0.795428 0.482405 -1.427423
v 0.795675 0.523307 -1.426491
v 0.796023 0.549690 -1.418122
v 0.796329 0.583303 -1.396151
v 0.796512 0.598134 -1.370592
v 0.792347 0.337128 -1.389736
v 0.781904 0.285505 -1.411724
v 0.796524 0.597188 -1.356699
v 0.786344 0.311294 -1.391572
v 0.781542 0.575503 -1.412647
v 0.789398 0.558095 -1.397430
v 0.775530 0.548854 -1.375707
v 0.779791 0.569154 -1.411954
v 0.784427 0.577930 -1.373622
v 0.776418 0.553289 -1.383553
v 0.776418 0.560098 -1.370498
v 0.779041 0.568607 -1.367641
v 0.780376 0.557716 -1.380980
v 0.784728 0.571119 -1.375579
v 0.779864 0.560151 -1.371500
v 0.782081 0.567221 -1.369001
v 0.690609 0.175013 -1.324880
v 0.712231 0.175013 -1.369780
v 0.751193 0.175013 -1.400852
v 0.751195 0.175013 -1.199073
v 0.712232 0.175013 -1.230145
v 0.690609 0.175013 -1.275044
v 0.691323 0.222569 -1.275208
v 0.712805 0.222569 -1.230602
v 0.751513 0.222569 -1.199734
v 0.751511 0.222569 -1.400192
v 0.712804 0.222569 -1.369323
v 0.691323 0.222569 -1.324717
v 0.709038 0.233378 -1.320673
v 0.727010 0.233378 -1.357994
v 0.759395 0.233378 -1.383820
v 0.759397 0.233378 -1.216105
v 0.727011 0.233378 -1.241931
v 0.709039 0.233378 -1.279251
v 0.719110 0.245363 -1.281550
v 0.735088 0.245363 -1.248372
v 0.763879 0.245363 -1.225413
v 0.763878 0.245363 -1.374513
v 0.735087 0.245363 -1.351552
v 0.719110 0.245363 -1.318375
v 0.760281 0.269442 -1.217940
v 0.760279 0.269441 -1.381985
v 0.728603 0.269441 -1.356724
v 0.711024 0.269441 -1.320220
v 0.672543 0.154073 -1.329003
v 0.679484 0.148180 -1.327419
v 0.703309 0.148180 -1.376894
v 0.697743 0.154073 -1.381333
v 0.746242 0.148180 -1.411133
v 0.743153 0.154073 -1.417547
v 0.746244 0.148180 -1.188792
v 0.743155 0.154073 -1.182378
v 0.703311 0.148180 -1.223030
v 0.697745 0.154073 -1.218591
v 0.679484 0.148180 -1.272505
v 0.672544 0.154073 -1.270921
v 0.679320 0.169160 -1.272468
v 0.672544 0.162985 -1.270921
v 0.703179 0.169160 -1.222925
v 0.697745 0.162985 -1.218591
v 0.746171 0.169160 -1.188641
v 0.743155 0.162985 -1.182378
v 0.746169 0.169160 -1.411284
v 0.743153 0.162985 -1.417547
v 0.703178 0.169160 -1.376999
v 0.697743 0.162985 -1.381333
v 0.672543 0.162985 -1.329003
v 0.679320 0.169160 -1.327456
v 0.728489 0.309945 -1.237268
v 0.760276 0.309945 -1.209611
v 0.783736 0.546172 -1.218155
v 0.799780 0.141954 -1.299963
vn 0.4111 -0.3195 0.8537
vn 0.7623 0.2221 0.6079
vn 0.4231 0.2221 0.8785
vn 0.5203 0.7464 0.4149
vn 0.2887 0.7464 0.5996
vn -0.0000 -0.3195 0.9476
vn -0.0000 0.2221 0.9750
vn -0.0000 0.7464 0.6655
vn 0.4230 0.2221 -0.8785
vn -0.0000 -0.3195 -0.9476
vn -0.0000 0.2221 -0.9750
vn 0.2887 0.7464 -0.5996
vn -0.0000 0.7464 -0.6655
vn 0.7408 -0.3195 -0.5908
vn 0.7623 0.2221 -0.6079
vn 0.5203 0.7464 -0.4149
vn 0.9238 -0.3195 -0.2109
vn 0.9506 0.2221 -0.2170
vn 0.6488 0.7464 -0.1481
vn 0.9506 0.2221 0.2170
vn 0.6488 0.7464 0.1481
vn 0.7408 -0.3195 0.5908
vn 0.0920 -0.9773 -0.1911
vn -0.0000 -0.8513 -0.5248
vn 0.2277 -0.8513 -0.4728
vn -0.0000 -0.4040 0.9148
vn 0.3996 0.3895 0.8298
vn -0.0000 0.3895 0.9210
vn 0.3969 -0.4040 0.8242
vn 0.7201 0.3895 0.5742
vn 0.7152 -0.4040 0.5703
vn 0.8979 0.3895 0.2049
vn 0.8918 -0.4040 -0.2036
vn 0.7201 0.3895 -0.5742
vn 0.8979 0.3895 -0.2049
vn 0.2068 -0.9773 0.0472
vn 0.5116 -0.8513 -0.1168
vn 0.5116 -0.8513 0.1168
vn 0.7152 -0.4040 -0.5703
vn 0.3996 0.3895 -0.8298
vn 0.8918 -0.4040 0.2035
vn 0.1658 -0.9773 -0.1322
vn 0.4103 -0.8513 -0.3272
vn 0.3969 -0.4040 -0.8242
vn -0.0000 0.3895 -0.9210
vn 0.1658 -0.9773 0.1322
vn 0.4103 -0.8513 0.3272
vn 0.2068 -0.9773 -0.0472
vn -0.0000 -0.9773 0.2121
vn 0.2277 -0.8513 0.4728
vn -0.0000 -0.8513 0.5248
vn 0.0920 -0.9773 0.1911
vn 0.9333 -0.2891 0.2130
vn 0.8883 0.4120 -0.2028
vn 0.8883 0.4120 0.2027
vn 0.4154 -0.2891 0.8625
vn 0.7124 0.4120 0.5681
vn 0.3954 0.4120 0.8209
vn 0.7485 -0.2891 0.5969
vn -0.0000 -0.2891 0.9573
vn -0.0000 0.4120 0.9112
vn 0.9333 -0.2891 -0.2130
vn 0.7124 0.4120 -0.5681
vn 0.6070 0.7826 0.1385
vn 0.4867 0.7826 0.3882
vn 0.6070 0.7826 -0.1385
vn 0.4867 0.7826 -0.3882
vn 0.0894 -0.9813 -0.1707
vn 0.1649 -0.9765 -0.1387
vn 0.1948 -0.9729 -0.1249
vn -0.0000 -0.9499 0.3125
vn 0.1356 -0.9499 0.2816
vn 0.2443 -0.9499 0.1948
vn 0.3047 -0.9499 0.0695
vn 0.3047 -0.9499 -0.0695
vn 0.2998 -0.9516 -0.0673
vn 0.9830 -0.0751 -0.1676
vn 0.9081 0.3112 0.2801
vn 0.9818 -0.0801 0.1722
vn 0.8345 -0.1523 0.5295
vn 0.7486 0.1925 0.6344
vn 0.4254 -0.3955 0.8140
vn 0.3992 -0.2669 0.8772
vn 0.9233 0.0555 -0.3800
vn 0.7717 -0.1455 -0.6191
vn 0.8064 -0.1099 -0.5811
vn 0.8762 0.2226 -0.4274
vn 0.8809 0.3570 0.3107
vn 0.8485 0.4209 0.3208
vn 0.8786 0.2312 0.4178
vn 0.7437 0.5008 0.4428
vn 0.7042 0.4245 0.5690
vn 0.8561 0.4947 -0.1497
vn 0.6849 0.6867 0.2438
vn 0.5843 0.8010 0.1302
vn -0.0000 0.5556 0.8315
vn -0.0000 0.5758 0.8176
vn 0.6342 0.3883 0.6686
vn 0.9469 0.1508 0.2841
vn 0.8288 0.0924 -0.5519
vn 0.8608 0.2443 -0.4465
vn 0.8434 0.2871 -0.4541
vn 0.9292 0.1473 -0.3390
vn 0.9462 0.3054 0.1074
vn 0.7406 -0.6714 0.0266
vn 0.9987 0.0501 -0.0118
vn 0.9754 -0.2204 -0.0063
vn 0.7907 -0.5517 0.2654
vn 0.9325 0.2723 -0.2373
vn 0.9614 0.2708 -0.0496
vn -0.0000 0.5723 0.8200
vn 0.6833 0.3825 0.6220
vn 0.9782 0.1375 0.1559
vn 0.4322 -0.8623 0.2639
vn -0.0000 -0.8556 0.5176
vn 0.6896 -0.5115 0.5126
vn 0.2806 -0.7118 0.6439
vn 0.3597 -0.9010 -0.2425
vn -0.0000 -0.9047 -0.4260
vn 0.2852 -0.9151 -0.2852
vn 0.5754 -0.7263 0.3760
vn 0.9304 0.3210 0.1771
vn 0.8923 -0.2816 0.3528
vn 0.9762 0.0616 0.2079
vn -0.0000 -0.9973 0.0740
vn 0.8779 0.3107 0.3643
vn 0.3970 -0.4094 0.8214
vn 0.8592 -0.3987 0.3206
vn 0.8012 0.5914 0.0912
vn 0.2839 0.9398 0.1903
vn 0.2926 0.9410 0.1701
vn -0.0000 0.9837 0.1799
vn -0.0000 0.9808 0.1951
vn 0.8688 0.4018 -0.2893
vn 0.8504 0.3858 -0.3578
vn 0.8136 0.4867 -0.3181
vn 0.7302 -0.1216 -0.6723
vn 0.6825 -0.0640 -0.7281
vn 0.2279 0.8414 0.4899
vn 0.8321 0.4530 0.3201
vn 0.2379 0.9598 0.1491
vn 0.9535 0.2183 0.2078
vn -0.0000 0.9850 0.1724
vn 0.8685 -0.0822 -0.4888
vn 0.8470 -0.0284 -0.5309
vn 0.6704 0.6803 -0.2962
vn -0.0000 -0.9844 -0.1758
vn 0.0382 -0.9847 -0.1701
vn 0.0699 -0.9825 -0.1727
vn 0.3740 0.9149 0.1522
vn -0.0000 0.9461 0.3238
vn -0.0000 0.9769 0.2138
vn 0.6597 0.0600 -0.7492
vn 0.6076 0.1266 -0.7841
vn 0.9139 0.4056 0.0177
vn 0.9028 0.4204 -0.0913
vn 0.5805 -0.8125 0.0537
vn 0.7742 -0.6180 -0.1367
vn 0.7283 -0.6837 0.0464
vn -0.0000 0.1512 0.9885
vn 0.6506 0.3954 0.6484
vn -0.0000 0.4520 0.8920
vn 0.5254 0.2444 0.8150
vn 0.9140 0.3879 0.1192
vn 0.7748 0.0005 -0.6322
vn 0.6477 0.2847 -0.7067
vn 0.7396 0.0565 -0.6706
vn -0.0000 -0.4222 0.9065
vn -0.0000 -0.2438 0.9698
vn 0.8344 0.5488 0.0503
vn 0.9248 0.2976 -0.2371
vn 0.8728 0.2952 -0.3888
vn -0.0000 -0.9830 -0.1834
vn 0.8857 0.1024 -0.4529
vn 0.8747 -0.0305 -0.4838
vn 0.9961 -0.0722 0.0507
vn 0.9212 0.3629 0.1405
vn 0.3165 -0.8611 0.3978
vn -0.0000 -0.9083 0.4184
vn -0.0000 -0.9578 -0.2874
vn 0.7411 -0.6081 0.2847
vn 0.2110 -0.7535 0.6227
vn -0.0000 -0.7502 0.6612
vn 0.8088 -0.3409 0.4792
vn 0.2817 -0.5964 0.7516
vn -0.0000 0.3152 0.9490
vn -0.0000 -0.6159 0.7878
vn -0.0000 0.3254 0.9456
vn 0.5578 0.4418 0.7027
vn -0.0000 0.8279 0.5609
vn 0.8543 0.4439 0.2705
vn 0.8162 0.4565 0.3541
vn 0.9678 0.2421 0.0686
vn 0.9983 -0.0496 0.0319
vn -0.0000 0.4287 0.9034
vn 0.3967 0.4658 0.7910
vn 0.9406 0.3385 -0.0261
vn 0.9281 0.3721 -0.0120
vn 0.9562 0.2624 -0.1301
vn 0.9019 0.1859 -0.3899
vn 0.9532 0.0413 -0.2996
vn -0.0000 0.4904 0.8715
vn 0.3538 0.4562 0.8165
vn -0.0000 0.4645 0.8856
vn 0.9434 0.3095 0.1196
vn 0.9539 0.2718 -0.1274
vn 0.9822 0.0851 0.1676
vn 0.5001 -0.8542 0.1423
vn 0.5409 -0.8391 0.0576
vn 0.6399 -0.7622 0.0977
vn 0.9390 -0.1982 0.2811
vn 0.9413 -0.3360 0.0337
vn 0.8659 0.4174 0.2757
vn 0.2193 -0.8772 0.4271
vn -0.0000 -0.4281 0.9037
vn -0.0000 -0.8562 0.5166
vn -0.0000 0.4055 0.9141
vn 0.4228 0.4132 0.8065
vn 0.3103 0.5956 0.7410
vn 0.7615 -0.2955 0.5769
vn -0.0000 0.1003 0.9950
vn 0.3841 0.1174 0.9158
vn -0.0000 0.1005 0.9949
vn 0.9960 0.0887 0.0142
vn 0.2264 0.8118 0.5383
vn 0.3659 0.2560 0.8948
vn 0.8464 -0.0092 0.5325
vn 0.7095 -0.3233 0.6262
vn 0.8892 0.3679 0.2719
vn 0.7427 0.4312 0.5123
vn 0.6696 0.6301 0.3932
vn -0.0000 0.9999 0.0150
vn 0.0009 1.0000 -0.0043
vn -0.0000 1.0000 -0.0047
vn 0.9947 -0.1008 0.0195
vn 0.9228 -0.1843 0.3384
vn 0.9949 -0.0987 0.0197
vn 0.0014 0.9994 0.0334
vn 0.0019 1.0000 0.0089
vn 0.9025 -0.1921 0.3856
vn 0.3771 -0.2282 0.8976
vn -0.0000 -0.1966 0.9805
vn -0.0000 -0.1968 0.9804
vn 0.1364 -0.3811 0.9144
vn 0.4054 -0.3806 0.8312
vn -0.0000 -0.3349 0.9423
vn 0.0600 -0.9353 0.3487
vn 0.7611 -0.5646 0.3191
vn 0.3959 -0.9095 0.1266
vn -0.0000 -1.0000 -0.0088
vn 0.0011 -0.9999 -0.0169
vn 0.0005 -1.0000 -0.0086
vn -0.0000 -1.0000 -0.0000
vn 0.9171 0.0964 0.3869
vn 0.9952 0.0823 0.0524
vn 0.9967 0.0637 0.0498
vn 0.9721 0.2253 0.0651
vn 0.9057 0.0999 0.4120
vn 0.9151 0.2191 0.3384
vn 0.9945 0.0799 0.0672
vn 0.9236 0.3746 -0.0811
vn 0.9212 0.3518 0.1662
vn 0.7331 0.6796 -0.0270
vn 0.9309 0.3535 -0.0924
vn 0.9290 0.3690 -0.0283
vn 0.9554 0.2685 0.1232
vn 0.9622 0.2058 -0.1782
vn 0.9756 -0.2197 -0.0033
vn 0.9215 0.1066 -0.3736
vn 0.9806 0.1696 0.0988
vn 0.6909 0.7079 0.1468
vn 0.8014 0.5959 0.0511
vn 0.9293 0.0468 0.3663
vn 0.9979 0.0044 0.0640
vn 0.7034 0.6028 0.3766
vn 0.5513 0.8342 0.0152
vn 0.5253 0.6959 0.4896
vn 0.8359 0.5206 -0.1739
vn 0.7371 0.5698 -0.3633
vn 0.7959 0.3178 0.5153
vn 0.6752 0.2645 0.6886
vn 0.8688 -0.1421 0.4744
vn 0.4830 0.5885 -0.6484
vn -0.0000 0.5078 -0.8615
vn 0.5406 0.3974 -0.7415
vn 0.3796 0.6699 -0.6381
vn -0.0000 0.9682 -0.2500
vn 0.4020 0.8951 -0.1926
vn 0.3987 0.1566 -0.9036
vn -0.0000 0.4187 -0.9081
vn 0.3983 0.4107 -0.8202
vn 0.4580 -0.0463 -0.8878
vn -0.0000 -0.1870 -0.9824
vn -0.0000 -0.0492 -0.9988
vn -0.0000 0.1599 -0.9871
vn 0.5227 -0.2152 -0.8249
vn -0.0000 0.0681 -0.9977
vn -0.0000 -0.2706 -0.9627
vn -0.0000 0.9472 0.3207
vn -0.0000 0.7263 -0.6874
vn 0.5250 -0.2579 -0.8111
vn -0.0000 -0.2946 -0.9556
vn 0.4480 -0.1738 -0.8770
vn 0.6686 0.2968 -0.6818
vn 0.8387 -0.1442 -0.5252
vn 0.4709 0.0657 -0.8797
vn -0.8916 0.3944 -0.2223
vn -0.7400 -0.3868 -0.5503
vn -0.4015 -0.5806 -0.7083
vn -0.8212 0.5530 -0.1410
vn -0.8096 0.5665 -0.1535
vn 0.2220 -0.8382 -0.4981
vn 0.2229 -0.8376 -0.4987
vn 0.8909 0.4103 -0.1948
vn 0.9686 0.2469 -0.0310
vn 0.7433 0.5684 0.3528
vn 0.8392 0.4449 -0.3126
vn 0.9940 0.0995 -0.0452
vn 0.8595 0.5111 -0.0092
vn 0.9320 0.3294 0.1515
vn 0.8182 0.5702 -0.0737
vn 0.9451 0.3017 0.1255
vn 0.9784 0.1188 -0.1694
vn 0.5402 0.6833 -0.4913
vn 0.9650 0.2377 0.1110
vn 0.7216 0.0248 -0.6918
vn -0.0000 0.8184 0.5746
vn 0.4054 0.3563 0.8418
vn -0.0000 0.3564 0.9344
vn 0.2493 0.8184 0.5177
vn 0.7305 0.3564 0.5826
vn 0.9109 0.3563 0.2079
vn 0.5602 0.8184 -0.1279
vn 0.9109 0.3563 -0.2079
vn 0.4492 0.8184 0.3583
vn 0.7305 0.3563 -0.5826
vn 0.2493 0.8184 -0.5177
vn 0.4054 0.3564 -0.8418
vn -0.0000 0.8184 -0.5746
vn -0.0000 0.3563 -0.9344
vn 0.4111 -0.3195 -0.8537
vn 0.9238 -0.3195 0.2108
vn 0.4917 0.7775 -0.3921
vn 0.2729 0.7775 -0.5666
vn -0.0000 0.7775 -0.6289
vn -0.0000 0.7775 0.6289
vn 0.2729 0.7775 0.5666
vn 0.4917 0.7775 0.3921
vn 0.6131 0.7775 0.1399
vn 0.6131 0.7775 -0.1399
vn 0.9734 0.0553 -0.2222
vn 0.7806 0.0553 -0.6225
vn 0.9734 0.0553 0.2222
vn 0.7806 0.0553 0.6225
vn 0.4332 0.0553 0.8996
vn -0.0000 0.0553 0.9985
vn 0.4332 0.0553 -0.8996
vn -0.0000 0.0553 -0.9985
vn 0.7484 -0.2891 -0.5969
vn 0.4153 -0.2891 -0.8625
vn -0.0000 -0.2891 -0.9573
vn -0.0000 0.4120 -0.9112
vn 0.3953 0.4120 -0.8210
vn 0.2701 0.7826 -0.5609
vn -0.0000 0.7826 -0.6226
vn -0.0000 0.7826 0.6226
vn 0.2701 0.7826 0.5609
vn 0.4492 0.8184 -0.3583
vn 0.7588 -0.3014 0.5774
vn -0.7623 0.2221 0.6079
vn -0.4111 -0.3195 0.8537
vn -0.4230 0.2221 0.8785
vn -0.2887 0.7464 0.5996
vn -0.4111 -0.3195 -0.8537
vn -0.4231 0.2221 -0.8785
vn -0.2887 0.7464 -0.5996
vn -0.7409 -0.3195 -0.5908
vn -0.7623 0.2221 -0.6079
vn -0.5203 0.7464 -0.4149
vn -0.9238 -0.3195 -0.2108
vn -0.9506 0.2221 -0.2170
vn -0.6488 0.7464 -0.1481
vn -0.9238 -0.3195 0.2109
vn -0.9506 0.2221 0.2170
vn -0.6488 0.7464 0.1481
vn -0.7408 -0.3195 0.5908
vn -0.5203 0.7464 0.4149
vn -0.0920 -0.9773 -0.1911
vn -0.2277 -0.8512 -0.4728
vn -0.3996 0.3895 0.8298
vn -0.7201 0.3895 0.5742
vn -0.3969 -0.4040 0.8242
vn -0.8979 0.3895 0.2049
vn -0.7152 -0.4040 0.5704
vn -0.7201 0.3895 -0.5742
vn -0.8918 -0.4040 -0.2035
vn -0.8979 0.3895 -0.2049
vn -0.5116 -0.8513 -0.1168
vn -0.2068 -0.9773 0.0472
vn -0.5116 -0.8513 0.1168
vn -0.3996 0.3895 -0.8298
vn -0.7152 -0.4040 -0.5703
vn -0.8918 -0.4040 0.2036
vn -0.1658 -0.9773 -0.1322
vn -0.4103 -0.8513 -0.3272
vn -0.3969 -0.4040 -0.8242
vn -0.1658 -0.9773 0.1322
vn -0.4103 -0.8513 0.3272
vn -0.2068 -0.9773 -0.0472
vn -0.2277 -0.8513 0.4728
vn -0.0920 -0.9773 0.1911
vn -0.8883 0.4120 -0.2028
vn -0.9333 -0.2891 0.2130
vn -0.8883 0.4120 0.2028
vn -0.7124 0.4120 0.5681
vn -0.4153 -0.2891 0.8625
vn -0.3953 0.4120 0.8210
vn -0.7484 -0.2891 0.5969
vn -0.7124 0.4120 -0.5681
vn -0.9333 -0.2891 -0.2130
vn -0.6070 0.7826 0.1385
vn -0.4867 0.7826 0.3882
vn -0.4867 0.7826 -0.3882
vn -0.6070 0.7826 -0.1385
vn -0.1649 -0.9765 -0.1387
vn -0.0894 -0.9813 -0.1707
vn -0.1948 -0.9729 -0.1249
vn -0.1356 -0.9499 0.2816
vn -0.2443 -0.9499 0.1949
vn -0.2443 -0.9499 0.1948
vn -0.3047 -0.9499 0.0695
vn -0.3047 -0.9499 -0.0695
vn -0.2998 -0.9516 -0.0673
vn -0.9081 0.3112 0.2801
vn -0.9830 -0.0751 -0.1676
vn -0.9818 -0.0801 0.1722
vn -0.8345 -0.1523 0.5295
vn -0.7486 0.1925 0.6345
vn -0.4254 -0.3955 0.8140
vn -0.7588 -0.3014 0.5774
vn -0.7717 -0.1455 -0.6191
vn -0.9233 0.0555 -0.3799
vn -0.8064 -0.1099 -0.5811
vn -0.8809 0.3570 0.3107
vn -0.8762 0.2226 -0.4274
vn -0.8485 0.4209 0.3208
vn -0.8786 0.2312 0.4178
vn -0.7437 0.5008 0.4428
vn -0.7042 0.4245 0.5690
vn -0.6506 0.3954 0.6484
vn -0.8561 0.4947 -0.1496
vn -0.6849 0.6867 0.2438
vn -0.9614 0.2708 -0.0496
vn -0.6342 0.3883 0.6686
vn -0.8288 0.0924 -0.5519
vn -0.8608 0.2443 -0.4465
vn -0.8292 0.1000 -0.5499
vn -0.9469 0.1508 0.2841
vn -0.9462 0.3054 0.1074
vn -0.9292 0.1473 -0.3390
vn -0.7406 -0.6714 0.0266
vn -0.9754 -0.2204 -0.0063
vn -0.9987 0.0501 -0.0118
vn -0.7907 -0.5517 0.2654
vn -0.9325 0.2723 -0.2373
vn -0.9248 0.2976 -0.2371
vn -0.6833 0.3825 0.6220
vn -0.9782 0.1375 0.1559
vn -0.9140 0.3879 0.1193
vn -0.4322 -0.8623 0.2639
vn -0.2806 -0.7118 0.6439
vn -0.6896 -0.5115 0.5126
vn -0.3597 -0.9010 -0.2425
vn -0.2852 -0.9151 -0.2852
vn -0.8923 -0.2816 0.3528
vn -0.9304 0.3210 0.1771
vn -0.9762 0.0616 0.2079
vn -0.8779 0.3107 0.3643
vn -0.3970 -0.4094 0.8214
vn -0.4228 0.4132 0.8065
vn -0.2839 0.9398 0.1903
vn -0.8012 0.5914 0.0912
vn -0.2926 0.9410 0.1701
vn -0.8688 0.4018 -0.2893
vn -0.8136 0.4867 -0.3181
vn -0.8504 0.3858 -0.3578
vn -0.7302 -0.1216 -0.6723
vn -0.6825 -0.0640 -0.7281
vn -0.2279 0.8414 0.4899
vn -0.8320 0.4530 0.3202
vn -0.5578 0.4418 0.7027
vn -0.9535 0.2183 0.2079
vn -0.2379 0.9598 0.1491
vn -0.8470 -0.0284 -0.5309
vn -0.8685 -0.0822 -0.4888
vn -0.6704 0.6803 -0.2962
vn -0.0382 -0.9847 -0.1701
vn -0.0000 -0.9854 -0.1705
vn -0.3740 0.9149 0.1522
vn -0.5843 0.8010 0.1302
vn -0.7331 0.6796 -0.0270
vn -0.6597 0.0600 -0.7491
vn -0.6077 0.1266 -0.7840
vn -0.9139 0.4056 0.0177
vn -0.9028 0.4204 -0.0912
vn -0.5805 -0.8125 0.0537
vn -0.7742 -0.6180 -0.1367
vn -0.7283 -0.6837 0.0464
vn -0.5254 0.2444 0.8150
vn -0.8857 0.1024 -0.4529
vn -0.7748 0.0005 -0.6322
vn -0.7396 0.0565 -0.6706
vn -0.6477 0.2847 -0.7067
vn -0.3992 -0.2669 0.8772
vn -0.8344 0.5488 0.0503
vn -0.8728 0.2952 -0.3888
vn -0.0699 -0.9825 -0.1727
vn -0.8747 -0.0305 -0.4837
vn -0.9961 -0.0722 0.0508
vn -0.9212 0.3629 0.1405
vn -0.3165 -0.8611 0.3978
vn -0.7411 -0.6081 0.2847
vn -0.2109 -0.7535 0.6227
vn -0.8088 -0.3409 0.4792
vn -0.2817 -0.5964 0.7516
vn -0.3659 0.2560 0.8948
vn -0.9678 0.2421 0.0686
vn -0.8543 0.4439 0.2705
vn -0.9983 -0.0496 0.0320
vn -0.8592 -0.3987 0.3206
vn -0.9406 0.3385 -0.0261
vn -0.9562 0.2624 -0.1301
vn -0.9281 0.3721 -0.0120
vn -0.9019 0.1859 -0.3899
vn -0.9532 0.0413 -0.2996
vn -0.3538 0.4562 0.8165
vn -0.9434 0.3095 0.1196
vn -0.9539 0.2718 -0.1274
vn -0.8434 0.2871 -0.4541
vn -0.9822 0.0851 0.1676
vn -0.3967 0.4658 0.7910
vn -0.5001 -0.8542 0.1423
vn -0.5409 -0.8391 0.0576
vn -0.3959 -0.9095 0.1266
vn -0.9390 -0.1982 0.2812
vn -0.6399 -0.7622 0.0977
vn -0.9413 -0.3360 0.0337
vn -0.8659 0.4174 0.2757
vn -0.2193 -0.8772 0.4271
vn -0.8162 0.4565 0.3542
vn -0.3103 0.5956 0.7410
vn -0.7614 -0.2955 0.5770
vn -0.3841 0.1174 0.9158
vn -0.9960 0.0887 0.0142
vn -0.2264 0.8118 0.5383
vn -0.8464 -0.0092 0.5325
vn -0.8892 0.3679 0.2719
vn -0.7095 -0.3233 0.6262
vn -0.7427 0.4312 0.5123
vn -0.6696 0.6301 0.3932
vn -0.0009 1.0000 -0.0043
vn -0.0019 1.0000 0.0089
vn -0.9228 -0.1843 0.3384
vn -0.9947 -0.1008 0.0195
vn -0.9949 -0.0987 0.0197
vn -0.0014 0.9994 0.0334
vn -0.3771 -0.2282 0.8976
vn -0.9024 -0.1921 0.3856
vn -0.3995 -0.2289 0.8877
vn -0.1364 -0.3811 0.9144
vn -0.4054 -0.3805 0.8312
vn -0.0000 -0.3410 0.9401
vn -0.0600 -0.9353 0.3487
vn -0.0000 -0.9224 0.3861
vn -0.7611 -0.5646 0.3191
vn -0.0011 -0.9999 -0.0169
vn -0.0000 -0.9999 -0.0168
vn -0.0005 -1.0000 -0.0086
vn -0.9171 0.0964 0.3869
vn -0.9952 0.0823 0.0525
vn -0.9057 0.0999 0.4121
vn -0.9721 0.2253 0.0651
vn -0.9967 0.0637 0.0498
vn -0.3932 0.1175 0.9119
vn -0.9151 0.2191 0.3384
vn -0.9945 0.0799 0.0672
vn -0.9236 0.3746 -0.0810
vn -0.9212 0.3518 0.1663
vn -0.9554 0.2685 0.1232
vn -0.9309 0.3535 -0.0923
vn -0.9290 0.3690 -0.0283
vn -0.9806 0.1696 0.0988
vn -0.9756 -0.2197 -0.0033
vn -0.9622 0.2058 -0.1782
vn -0.9215 0.1066 -0.3736
vn -0.6909 0.7079 0.1468
vn -0.8014 0.5959 0.0511
vn -0.7034 0.6028 0.3766
vn -0.7211 0.6883 0.0797
vn -0.9979 0.0044 0.0640
vn -0.5513 0.8342 0.0152
vn -0.5253 0.6959 0.4896
vn -0.8359 0.5206 -0.1739
vn -0.7371 0.5698 -0.3633
vn -0.7959 0.3178 0.5153
vn -0.6752 0.2645 0.6886
vn -0.8688 -0.1421 0.4744
vn -0.9293 0.0468 0.3663
vn -0.4830 0.5885 -0.6484
vn -0.5406 0.3974 -0.7415
vn -0.3797 0.6699 -0.6381
vn -0.4020 0.8951 -0.1926
vn -0.3987 0.1566 -0.9036
vn -0.3983 0.4107 -0.8202
vn -0.4580 -0.0463 -0.8878
vn -0.4480 -0.1738 -0.8770
vn -0.5227 -0.2152 -0.8249
vn -0.4709 0.0657 -0.8797
vn -0.5250 -0.2579 -0.8111
vn -0.6686 0.2968 -0.6818
vn -0.8387 -0.1442 -0.5252
vn -0.7694 0.4703 -0.4323
vn 0.8916 0.3944 -0.2223
vn 0.7400 -0.3868 -0.5503
vn 0.9268 -0.0315 -0.3742
vn 0.8212 0.5530 -0.1410
vn 0.8096 0.5665 -0.1535
vn 0.4015 -0.5806 -0.7084
vn -0.2220 -0.8382 -0.4981
vn -0.8909 0.4103 -0.1948
vn -0.7433 0.5684 0.3528
vn -0.9686 0.2469 -0.0310
vn -0.9940 0.0995 -0.0452
vn -0.8392 0.4449 -0.3126
vn -0.8595 0.5111 -0.0091
vn -0.9320 0.3294 0.1516
vn -0.8182 0.5702 -0.0737
vn -0.5402 0.6833 -0.4912
vn -0.9451 0.3017 0.1255
vn -0.9784 0.1188 -0.1694
vn -0.7216 0.0248 -0.6918
vn -0.9650 0.2377 0.1111
vn -0.2493 0.8184 0.5177
vn -0.4054 0.3563 0.8418
vn -0.4492 0.8184 0.3583
vn -0.9109 0.3563 0.2079
vn -0.5602 0.8184 -0.1279
vn -0.5602 0.8184 0.1279
vn -0.7305 0.3563 0.5826
vn -0.7305 0.3563 -0.5826
vn -0.9109 0.3563 -0.2079
vn -0.2493 0.8184 -0.5177
vn -0.4492 0.8184 -0.3582
vn -0.4054 0.3563 -0.8418
vn -0.4917 0.7775 -0.3921
vn -0.2729 0.7775 -0.5666
vn -0.2729 0.7775 0.5666
vn -0.4917 0.7775 0.3921
vn -0.6131 0.7775 0.1399
vn -0.6131 0.7775 -0.1399
vn -0.7806 0.0553 -0.6225
vn -0.9734 0.0553 -0.2222
vn -0.9734 0.0553 0.2222
vn -0.7806 0.0553 0.6225
vn -0.4332 0.0553 0.8996
vn -0.4332 0.0553 -0.8996
vn -0.7485 -0.2891 -0.5969
vn -0.4154 -0.2891 -0.8625
vn -0.3954 0.4120 -0.8209
vn -0.2701 0.7826 -0.5609
vn -0.2701 0.7826 0.5609
vn -0.0000 -0.4040 -0.9148
vn -0.0000 -0.9773 -0.2121
vn 0.8292 0.1000 -0.5499
vn -0.0000 -0.8039 0.5948
vn 0.3932 0.1175 0.9119
vn -0.0000 0.8085 0.5885
vn -0.0000 0.9994 0.0348
vn 0.3995 -0.2289 0.8877
vn 0.9633 0.2577 0.0745
vn 0.7211 0.6883 0.0797
vn -0.0000 0.6716 -0.7409
vn 0.7694 0.4703 -0.4323
vn -0.9268 -0.0315 -0.3742
vn 0.5602 0.8184 0.1279
vn -0.5754 -0.7263 0.3761
vn -0.9633 0.2577 0.0745
vn -0.2229 -0.8376 -0.4987
vt 0.016061 0.166324
vt 0.029261 0.137981
vt 0.024869 0.167185
vt 0.039990 0.140152
vt 0.035861 0.168170
vt 0.015118 0.197165
vt 0.024129 0.196903
vt 0.035019 0.196697
vt 0.073852 0.037144
vt 0.084369 0.009362
vt 0.091704 0.014430
vt 0.081915 0.042899
vt 0.099095 0.022536
vt 0.052479 0.055442
vt 0.059342 0.059542
vt 0.068127 0.064483
vt 0.039217 0.080151
vt 0.046883 0.083636
vt 0.056530 0.087936
vt 0.036552 0.109878
vt 0.046800 0.113197
vt 0.020750 0.136141
vt 0.703589 0.615371
vt 0.736381 0.621664
vt 0.704645 0.625048
vt 0.525336 0.635018
vt 0.556425 0.639937
vt 0.525335 0.640069
vt 0.556433 0.635000
vt 0.586673 0.639576
vt 0.586657 0.634734
vt 0.616492 0.639092
vt 0.645770 0.633203
vt 0.675361 0.636723
vt 0.645921 0.637942
vt 0.615857 0.619568
vt 0.645588 0.628458
vt 0.616283 0.629260
vt 0.675153 0.631947
vt 0.705322 0.634910
vt 0.616409 0.634321
vt 0.674134 0.617355
vt 0.674908 0.627022
vt 0.705043 0.630086
vt 0.738335 0.632837
vt 0.586336 0.620031
vt 0.586608 0.629888
vt 0.645008 0.618811
vt 0.525390 0.619166
vt 0.556407 0.629900
vt 0.525323 0.629787
vt 0.556307 0.619822
vt 0.077203 0.122284
vt 0.091340 0.102389
vt 0.084308 0.124333
vt 0.068959 0.171040
vt 0.079322 0.147517
vt 0.076661 0.171747
vt 0.071728 0.146126
vt 0.067693 0.196390
vt 0.075494 0.196487
vt 0.084623 0.099732
vt 0.100073 0.081946
vt 0.093748 0.126796
vt 0.088603 0.149019
vt 0.099629 0.105380
vt 0.108155 0.086012
vt 0.518120 0.921223
vt 0.510848 0.902602
vt 0.516812 0.901303
vt 0.594326 0.878134
vt 0.579434 0.863123
vt 0.597239 0.875473
vt 0.577954 0.866798
vt 0.557964 0.859696
vt 0.539076 0.869383
vt 0.558228 0.863666
vt 0.524316 0.882820
vt 0.537119 0.865932
vt 0.521068 0.880560
vt 0.072808 0.556879
vt 0.103980 0.580231
vt 0.072113 0.579167
vt 0.089471 0.602789
vt 0.095996 0.608937
vt 0.073951 0.622646
vt 0.091281 0.623927
vt 0.176866 0.536207
vt 0.157704 0.512273
vt 0.182438 0.509321
vt 0.123699 0.550480
vt 0.147608 0.573582
vt 0.123662 0.575283
vt 0.149219 0.590974
vt 0.116077 0.599562
vt 0.148286 0.609388
vt 0.982136 0.617036
vt 0.978387 0.604443
vt 0.991016 0.613132
vt 0.180838 0.614038
vt 0.154202 0.628254
vt 0.172925 0.596846
vt 0.173593 0.583939
vt 0.953233 0.653601
vt 0.948709 0.637556
vt 0.956199 0.639747
vt 0.150511 0.546541
vt 0.173496 0.569879
vt 0.880244 0.741135
vt 0.877998 0.725258
vt 0.884382 0.739176
vt 0.886890 0.750821
vt 0.962817 0.626654
vt 0.970572 0.605634
vt 0.199581 0.604136
vt 0.188928 0.586537
vt 0.186802 0.580974
vt 0.906344 0.776016
vt 0.882058 0.777375
vt 0.893934 0.757433
vt 0.888057 0.757662
vt 0.911082 0.800129
vt 0.898076 0.792318
vt 0.908048 0.785646
vt 0.885044 0.752776
vt 0.917130 0.749693
vt 0.915725 0.774473
vt 0.903739 0.752441
vt 0.894215 0.787350
vt 0.939201 0.791486
vt 0.940470 0.794828
vt 0.938301 0.792137
vt 0.938166 0.742954
vt 0.946638 0.737630
vt 0.947682 0.743083
vt 0.953446 0.741961
vt 0.952346 0.736454
vt 0.911779 0.698439
vt 0.913813 0.695463
vt 0.922222 0.701655
vt 0.967611 0.742582
vt 0.972059 0.715551
vt 0.983119 0.740750
vt 0.952074 0.781674
vt 0.947346 0.776518
vt 0.953028 0.772268
vt 0.939267 0.778140
vt 0.958909 0.771936
vt 0.950378 0.693991
vt 0.956761 0.675948
vt 0.962360 0.693708
vt 0.934850 0.700203
vt 0.929936 0.706759
vt 0.522996 0.943130
vt 0.507078 0.943862
vt 0.512288 0.924266
vt 0.943344 0.722386
vt 0.946255 0.709874
vt 0.948984 0.721207
vt 0.939735 0.708839
vt 0.971794 0.757828
vt 0.988113 0.756782
vt 0.919264 0.740688
vt 0.926845 0.735311
vt 0.877571 0.742350
vt 0.913796 0.798245
vt 0.911088 0.783979
vt 0.106950 0.645289
vt 0.129062 0.618809
vt 0.134022 0.637396
vt 0.103499 0.622145
vt 0.190946 0.550387
vt 0.184394 0.567518
vt 0.129153 0.515153
vt 0.111730 0.514921
vt 0.075405 0.531675
vt 0.078635 0.509323
vt 0.086101 0.535593
vt 0.805375 0.951506
vt 0.818070 0.950374
vt 0.816896 0.955257
vt 0.073974 0.644998
vt 0.092583 0.646219
vt 0.938311 0.737697
vt 0.957991 0.616732
vt 0.960411 0.631393
vt 0.527961 0.938597
vt 0.097396 0.548716
vt 0.946892 0.676203
vt 0.895509 0.748215
vt 0.914340 0.744472
vt 0.913261 0.802169
vt 0.908825 0.807790
vt 0.905465 0.804734
vt 0.915379 0.800082
vt 0.922735 0.804227
vt 0.921301 0.812220
vt 0.924086 0.800065
vt 0.927558 0.805515
vt 0.930566 0.811313
vt 0.928298 0.811864
vt 0.958114 0.784612
vt 0.950893 0.782434
vt 0.958468 0.783375
vt 0.943191 0.785104
vt 0.940342 0.790439
vt 0.937129 0.785582
vt 0.935235 0.786833
vt 0.953769 0.793094
vt 0.946323 0.787839
vt 0.909472 0.736441
vt 0.916238 0.724657
vt 0.896386 0.711028
vt 0.896797 0.696726
vt 0.883247 0.710481
vt 0.947438 0.800615
vt 0.942825 0.793274
vt 0.948536 0.799673
vt 0.923397 0.747782
vt 0.912600 0.705439
vt 0.238526 0.517870
vt 0.221428 0.533373
vt 0.225298 0.511315
vt 0.202462 0.539094
vt 0.201853 0.508858
vt 0.928503 0.774427
vt 0.937436 0.792317
vt 0.933599 0.787940
vt 0.933793 0.787077
vt 0.927896 0.779234
vt 0.934549 0.787317
vt 0.939314 0.791264
vt 0.939902 0.795228
vt 0.945589 0.802052
vt 0.944869 0.802558
vt 0.946802 0.801137
vt 0.941217 0.794250
vt 0.941976 0.793947
vt 0.918013 0.781847
vt 0.117274 0.108963
vt 0.121474 0.099713
vt 0.121487 0.108963
vt 0.935455 0.786654
vt 0.929744 0.804722
vt 0.928891 0.805040
vt 0.922946 0.777722
vt 0.920104 0.777961
vt 0.925960 0.798273
vt 0.919898 0.782820
vt 0.926894 0.798455
vt 0.118740 0.022002
vt 0.105984 0.004036
vt 0.118741 0.002994
vt 0.669779 0.005449
vt 0.652450 0.008848
vt 0.669662 0.003881
vt 0.111553 0.027757
vt 0.106262 0.022002
vt 0.652735 0.011137
vt 0.644735 0.010107
vt 0.637832 0.012385
vt 0.637832 0.010097
vt 0.921354 0.781984
vt 0.923691 0.779344
vt 0.311187 0.003385
vt 0.298393 0.005711
vt 0.296406 0.003026
vt 0.939749 0.796379
vt 0.927457 0.780546
vt 0.936808 0.792623
vt 0.015673 0.017940
vt 0.004032 0.003191
vt 0.016479 0.004097
vt 0.023180 0.004590
vt 0.027265 0.008420
vt 0.122006 0.094139
vt 0.118850 0.087233
vt 0.123034 0.087926
vt 0.123239 0.078049
vt 0.117784 0.093867
vt 0.945315 0.780512
vt 0.913890 0.712663
vt 0.923315 0.708644
vt 0.930664 0.716196
vt 0.931764 0.710202
vt 0.932224 0.728459
vt 0.926986 0.727787
vt 0.925881 0.717918
vt 0.853670 0.011056
vt 0.856677 0.015220
vt 0.851332 0.012743
vt 0.924230 0.723017
vt 0.935202 0.718997
vt 0.935956 0.724523
vt 0.859757 0.011046
vt 0.856697 0.012347
vt 0.858451 0.005489
vt 0.853849 0.002988
vt 0.859785 0.002988
vt 0.852929 0.007973
vt 0.850141 0.007329
vt 0.860570 0.007947
vt 0.863369 0.007328
vt 0.862067 0.012746
vt 0.608856 0.955979
vt 0.627335 0.944305
vt 0.629337 0.954812
vt 0.785381 0.951178
vt 0.799007 0.949767
vt 0.799147 0.951408
vt 0.750698 0.950627
vt 0.764856 0.948680
vt 0.765201 0.950833
vt 0.728625 0.950252
vt 0.711412 0.946980
vt 0.728765 0.947532
vt 0.750602 0.948227
vt 0.661013 0.949365
vt 0.644815 0.944861
vt 0.661688 0.945398
vt 0.805158 0.949963
vt 0.785440 0.949336
vt 0.688474 0.949549
vt 0.689106 0.946270
vt 0.711056 0.949955
vt 0.975330 0.772501
vt 0.957376 0.716536
vt 0.990921 0.788607
vt 0.644891 0.949875
vt 0.907179 0.676597
vt 0.040617 0.015385
vt 0.036963 0.003036
vt 0.044624 0.011894
vt 0.033253 0.025887
vt 0.036461 0.036563
vt 0.054934 0.007707
vt 0.059902 0.009030
vt 0.882674 0.112428
vt 0.889141 0.109233
vt 0.888707 0.121090
vt 0.877544 0.110374
vt 0.871384 0.106524
vt 0.874563 0.102329
vt 0.876311 0.116043
vt 0.877903 0.103891
vt 0.885299 0.086624
vt 0.885427 0.107539
vt 0.879137 0.108852
vt 0.889141 0.086553
vt 0.882361 0.110447
vt 0.525324 0.645325
vt 0.556701 0.652632
vt 0.525511 0.653056
vt 0.556452 0.645077
vt 0.587000 0.652015
vt 0.616888 0.651399
vt 0.646140 0.642872
vt 0.646400 0.649952
vt 0.586729 0.644611
vt 0.675960 0.649192
vt 0.705620 0.640005
vt 0.705876 0.647409
vt 0.737676 0.638642
vt 0.736342 0.646465
vt 0.009025 0.133652
vt 0.002996 0.197579
vt 0.058732 0.026674
vt 0.067479 0.032682
vt 0.029300 0.075511
vt 0.017852 0.103627
vt 0.028666 0.107264
vt 0.078264 0.070405
vt 0.091055 0.049662
vt 0.106468 0.031924
vt 0.048078 0.196533
vt 0.048587 0.169461
vt 0.052488 0.142829
vt 0.058649 0.117081
vt 0.067470 0.092791
vt 0.076338 0.096650
vt 0.086245 0.074755
vt 0.068506 0.119986
vt 0.062292 0.144629
vt 0.059067 0.170280
vt 0.058276 0.196226
vt 0.098781 0.055253
vt 0.112047 0.038147
vt 0.093939 0.078660
vt 0.105548 0.059733
vt 0.118662 0.041837
vt 0.124342 0.045992
vt 0.111041 0.063544
vt 0.117903 0.068150
vt 0.130381 0.052655
vt 0.085816 0.196682
vt 0.086562 0.172457
vt 0.810043 0.840170
vt 0.826992 0.818917
vt 0.865075 0.866673
vt 0.675630 0.641699
vt 0.073254 0.600982
vt 0.032168 0.253269
vt 0.018177 0.227286
vt 0.026583 0.225941
vt 0.037140 0.224591
vt 0.092713 0.370281
vt 0.069141 0.352134
vt 0.075378 0.347753
vt 0.100392 0.362050
vt 0.083287 0.341976
vt 0.054926 0.329784
vt 0.061487 0.325942
vt 0.069777 0.321132
vt 0.042790 0.306395
vt 0.049741 0.303075
vt 0.058336 0.299164
vt 0.032392 0.281770
vt 0.039719 0.279046
vt 0.049281 0.275677
vt 0.024267 0.255362
vt 0.041928 0.250943
vt 0.311616 0.621544
vt 0.343920 0.615167
vt 0.342964 0.624731
vt 0.493763 0.639923
vt 0.462489 0.639553
vt 0.493763 0.634866
vt 0.431571 0.638908
vt 0.462522 0.634547
vt 0.371957 0.636239
vt 0.401596 0.632918
vt 0.401432 0.637709
vt 0.401805 0.627972
vt 0.432152 0.618771
vt 0.431797 0.628772
vt 0.342330 0.634469
vt 0.372176 0.631468
vt 0.431673 0.633994
vt 0.373004 0.616758
vt 0.372438 0.626697
vt 0.309744 0.632576
vt 0.342591 0.629707
vt 0.462897 0.619163
vt 0.462563 0.629372
vt 0.402130 0.618518
vt 0.493760 0.629637
vt 0.494005 0.619316
vt 0.091184 0.284568
vt 0.076829 0.266640
vt 0.083445 0.264481
vt 0.078447 0.243182
vt 0.068431 0.221173
vt 0.075865 0.220545
vt 0.071415 0.244573
vt 0.100406 0.303795
vt 0.084979 0.287360
vt 0.092078 0.261863
vt 0.087011 0.241739
vt 0.108096 0.299551
vt 0.098834 0.281308
vt 0.562255 0.958894
vt 0.544370 0.949972
vt 0.564092 0.953076
vt 0.607924 0.894320
vt 0.604132 0.895458
vt 0.609349 0.915993
vt 0.605424 0.915361
vt 0.597938 0.933873
vt 0.601187 0.936145
vt 0.583170 0.947295
vt 0.585118 0.950736
vt 0.669453 0.476247
vt 0.692804 0.507420
vt 0.670516 0.508115
vt 0.646894 0.490757
vt 0.640746 0.484231
vt 0.627037 0.506276
vt 0.648702 0.506973
vt 0.737411 0.422523
vt 0.713476 0.403361
vt 0.740363 0.397790
vt 0.676101 0.432619
vt 0.699203 0.456528
vt 0.674400 0.456565
vt 0.658709 0.431008
vt 0.650122 0.464150
vt 0.640295 0.431941
vt 0.630874 0.451165
vt 0.980975 0.177070
vt 0.977225 0.189664
vt 0.969410 0.188473
vt 0.635646 0.399389
vt 0.652838 0.407303
vt 0.952072 0.140506
vt 0.947548 0.156551
vt 0.944651 0.141105
vt 0.665745 0.406634
vt 0.679804 0.406732
vt 0.703143 0.429716
vt 0.973620 0.235251
vt 0.969481 0.233294
vt 0.975857 0.219372
vt 0.966978 0.244940
vt 0.961655 0.167452
vt 0.956829 0.177374
vt 0.645548 0.380646
vt 0.663147 0.391299
vt 0.668710 0.393425
vt 0.682166 0.395833
vt 0.947537 0.270145
vt 0.971823 0.271492
vt 0.959671 0.281472
vt 0.965814 0.251781
vt 0.959937 0.251555
vt 0.955813 0.286443
vt 0.942811 0.294260
vt 0.945838 0.279775
vt 0.938155 0.268606
vt 0.936737 0.243827
vt 0.950130 0.246569
vt 0.914687 0.285631
vt 0.913420 0.288974
vt 0.912672 0.288396
vt 0.907223 0.231779
vt 0.915698 0.237098
vt 0.906183 0.237232
vt 0.900418 0.236113
vt 0.942063 0.192570
vt 0.931622 0.195791
vt 0.940027 0.189596
vt 0.970897 0.078555
vt 0.966449 0.051524
vt 0.981957 0.053357
vt 0.901809 0.275825
vt 0.906535 0.270667
vt 0.902991 0.276585
vt 0.914615 0.272285
vt 0.894970 0.266091
vt 0.900850 0.266420
vt 0.955599 0.118158
vt 0.949216 0.100115
vt 0.961198 0.100398
vt 0.923910 0.200899
vt 0.918993 0.194346
vt 0.520824 0.958916
vt 0.508864 0.956035
vt 0.910510 0.216533
vt 0.907593 0.204022
vt 0.914113 0.202984
vt 0.922083 0.204343
vt 0.970632 0.036278
vt 0.986950 0.037324
vt 0.934599 0.234823
vt 0.927015 0.229450
vt 0.976293 0.236465
vt 0.940096 0.292378
vt 0.942796 0.278110
vt 0.604394 0.473277
vt 0.627538 0.476728
vt 0.700968 0.482831
vt 0.699296 0.389281
vt 0.734530 0.451074
vt 0.734762 0.468498
vt 0.718008 0.504823
vt 0.714090 0.494126
vt 0.740361 0.501593
vt 0.805473 0.948437
vt 0.817209 0.945425
vt 0.604685 0.506254
vt 0.625757 0.488946
vt 0.904870 0.215357
vt 0.901515 0.230606
vt 0.915550 0.231841
vt 0.959250 0.162713
vt 0.540811 0.955504
vt 0.621430 0.426025
vt 0.612287 0.446205
vt 0.945730 0.117903
vt 0.958358 0.242338
vt 0.939525 0.238605
vt 0.940633 0.296301
vt 0.938514 0.294215
vt 0.945072 0.301920
vt 0.931160 0.298364
vt 0.929807 0.294203
vt 0.932598 0.306356
vt 0.926337 0.299654
vt 0.925005 0.299181
vt 0.923332 0.305454
vt 0.925601 0.306004
vt 0.895770 0.278766
vt 0.895417 0.277530
vt 0.916757 0.279725
vt 0.910694 0.279251
vt 0.918651 0.280976
vt 0.915588 0.286281
vt 0.900120 0.287246
vt 0.944388 0.230572
vt 0.957462 0.205151
vt 0.937617 0.218791
vt 0.957045 0.190850
vt 0.970601 0.204598
vt 0.911064 0.287421
vt 0.906455 0.294764
vt 0.905356 0.293823
vt 0.930470 0.241919
vt 0.941246 0.199570
vt 0.716310 0.358799
vt 0.731814 0.341701
vt 0.738368 0.354929
vt 0.710590 0.377765
vt 0.740825 0.378374
vt 0.925377 0.268566
vt 0.907563 0.281987
vt 0.916453 0.286461
vt 0.920287 0.282082
vt 0.917081 0.286766
vt 0.925986 0.273374
vt 0.920093 0.281219
vt 0.919337 0.281460
vt 0.914574 0.285408
vt 0.913988 0.289373
vt 0.908305 0.296200
vt 0.907091 0.295286
vt 0.913546 0.284585
vt 0.911913 0.288094
vt 0.935870 0.275982
vt 0.121474 0.118214
vt 0.918431 0.280797
vt 0.924152 0.298863
vt 0.930935 0.271858
vt 0.927932 0.292411
vt 0.933777 0.272097
vt 0.933986 0.276955
vt 0.926998 0.292594
vt 0.131497 0.004036
vt 0.131218 0.022002
vt 0.623214 0.008848
vt 0.605885 0.005449
vt 0.606002 0.003881
vt 0.125928 0.027757
vt 0.630929 0.010107
vt 0.622929 0.011137
vt 0.630644 0.012395
vt 0.932530 0.276120
vt 0.930191 0.273481
vt 0.323981 0.005711
vt 0.311187 0.006067
vt 0.909025 0.296705
vt 0.914142 0.290524
vt 0.909695 0.297166
vt 0.926425 0.274685
vt 0.004032 0.032688
vt 0.002990 0.017940
vt 0.023180 0.031289
vt 0.016479 0.031783
vt 0.122006 0.123788
vt 0.118850 0.130693
vt 0.117784 0.124059
vt 0.123239 0.139877
vt 0.123034 0.130001
vt 0.117261 0.118484
vt 0.908568 0.274659
vt 0.939959 0.206796
vt 0.930532 0.202781
vt 0.923187 0.210337
vt 0.927971 0.212056
vt 0.921633 0.222601
vt 0.926871 0.221926
vt 0.929624 0.217155
vt 0.909881 0.036192
vt 0.914045 0.039199
vt 0.912358 0.041536
vt 0.918650 0.213140
vt 0.917899 0.218667
vt 0.919612 0.034418
vt 0.919541 0.037775
vt 0.912754 0.036172
vt 0.922113 0.039020
vt 0.922113 0.033084
vt 0.917128 0.039940
vt 0.917772 0.042728
vt 0.917154 0.032298
vt 0.917774 0.029500
vt 0.912356 0.030802
vt 0.914056 0.033112
vt 0.609636 0.931479
vt 0.630001 0.933946
vt 0.785498 0.947493
vt 0.799251 0.948139
vt 0.750851 0.945837
vt 0.765337 0.946554
vt 0.728799 0.944809
vt 0.711246 0.943988
vt 0.661267 0.941395
vt 0.645209 0.939862
vt 0.688684 0.942958
vt 0.974168 0.021605
vt 0.956214 0.077571
vt 0.989759 0.005499
vt 0.969672 0.003402
vt 0.946652 0.170726
vt 0.937679 0.173937
vt 0.747875 0.010346
vt 0.735526 0.006693
vt 0.736117 0.002980
vt 0.758376 0.002982
vt 0.769052 0.006189
vt 0.744384 0.014354
vt 0.740197 0.024663
vt 0.433511 0.117200
vt 0.427478 0.125863
vt 0.427044 0.114006
vt 0.444801 0.111297
vt 0.438641 0.115146
vt 0.441622 0.107102
vt 0.439873 0.120816
vt 0.438282 0.108664
vt 0.437048 0.113625
vt 0.430885 0.091397
vt 0.430758 0.112312
vt 0.433824 0.115220
vt 0.427044 0.091326
vt 0.493713 0.645347
vt 0.493751 0.653105
vt 0.462417 0.644770
vt 0.431145 0.651763
vt 0.401219 0.642697
vt 0.431434 0.644035
vt 0.462254 0.652257
vt 0.371309 0.648495
vt 0.400824 0.649857
vt 0.342051 0.639497
vt 0.371698 0.641049
vt 0.341822 0.646799
vt 0.310422 0.638299
vt 0.006943 0.229126
vt 0.076336 0.380413
vt 0.060666 0.357827
vt 0.046213 0.334815
vt 0.033831 0.310656
vt 0.022636 0.285376
vt 0.013787 0.258154
vt 0.079380 0.315348
vt 0.092174 0.335144
vt 0.049474 0.222959
vt 0.053638 0.248049
vt 0.060214 0.271714
vt 0.068557 0.294315
vt 0.087373 0.311084
vt 0.076897 0.290866
vt 0.069241 0.269043
vt 0.062724 0.246141
vt 0.059340 0.221763
vt 0.113183 0.346140
vt 0.099746 0.329818
vt 0.094611 0.307146
vt 0.106252 0.325302
vt 0.119523 0.342334
vt 0.124920 0.338108
vt 0.111498 0.321458
vt 0.118172 0.316774
vt 0.085305 0.220109
vt 0.851483 0.807123
vt 0.310142 0.627074
vt 0.926157 0.866673
vt 0.920108 0.893175
vt 0.903159 0.914429
vt 0.878667 0.926223
vt 0.851484 0.926223
vt 0.826992 0.914429
vt 0.810043 0.893175
vt 0.803994 0.866673
vt 0.878667 0.807123
vt 0.903159 0.818917
vt 0.920108 0.840171
vt 0.732965 0.611739
vt 0.737904 0.627262
vt 0.945813 0.653001
vt 0.878495 0.774954
vt 0.117261 0.099443
vt 0.931583 0.811026
vt 0.118740 0.027683
vt 0.645020 0.012395
vt 0.944199 0.803019
vt 0.027140 0.017940
vt 0.120974 0.074935
vt 0.855094 0.005560
vt 0.605385 0.943606
vt 0.970835 0.790704
vt 0.916153 0.679803
vt 0.033250 0.003628
vt 0.616637 0.643911
vt 0.004566 0.165250
vt 0.074979 0.003937
vt 0.043630 0.050137
vt 0.085669 0.375016
vt 0.314933 0.611739
vt 0.989855 0.180974
vt 0.955037 0.154360
vt 0.975385 0.269068
vt 0.948430 0.298863
vt 0.968825 0.246894
vt 0.603465 0.487644
vt 0.922316 0.305168
vt 0.325968 0.003026
vt 0.027265 0.027459
vt 0.120974 0.142991
vt 0.741521 0.029632
vt 0.311774 0.646007
vt 0.107495 0.352755
vt 0.130409 0.331714
s 1
usemtl Black.004
f 89/1/1 78/2/2 90/3/3
f 90/3/3 274/4/4 275/5/5
f 21/6/6 90/3/3 20/7/7
f 20/7/7 275/5/5 61/8/8
f 88/9/9 18/10/10 19/11/11
f 276/12/12 19/11/11 62/13/13
f 84/14/14 88/9/9 85/15/15
f 277/16/16 88/9/9 276/12/12
f 82/17/17 85/15/15 83/18/18
f 278/19/19 85/15/15 277/16/16
f 81/20/20 82/17/17 83/18/18
f 81/20/20 278/19/19 273/21/21
f 79/22/22 81/20/20 78/2/2
f 78/2/2 273/21/21 274/4/4
f 100/23/23 70/24/24 299/25/25
f 72/26/26 312/27/27 74/28/28
f 302/29/29 310/30/30 312/27/27
f 304/31/31 308/32/32 310/30/30
f 295/33/33 316/34/34 317/35/35
f 91/36/36 296/37/37 305/38/38
f 298/39/39 314/40/40 316/34/34
f 306/41/41 317/35/35 308/32/32
f 101/42/42 299/25/25 297/43/43
f 300/44/44 75/45/45 314/40/40
f 92/46/46 305/38/38 303/47/47
f 102/48/48 297/43/43 296/37/37
f 22/49/49 301/50/50 71/51/51
f 99/52/52 303/47/47 301/50/50
f 98/53/53 294/54/54 103/55/55
f 96/56/56 104/57/57 291/58/58
f 97/59/59 103/55/55 104/57/57
f 2/60/60 291/58/58 67/61/61
f 93/62/62 293/63/63 294/54/54
f 104/57/57 121/64/64 120/65/65
f 121/64/64 294/54/54 116/66/66
f 294/54/54 117/67/67 116/66/66
f 118/68/68 109/69/69 117/70/70
f 7/71/71 105/72/72 3/73/71
f 119/74/72 106/75/73 105/72/72
f 121/76/74 106/75/73 120/77/73
f 116/78/75 107/79/74 121/76/74
f 117/70/70 108/80/76 116/78/75
f 108/81/77 113/82/78 107/83/79
f 319/84/80 113/82/78 114/85/81
f 105/86/82 319/84/80 320/87/83
f 130/88/84 127/89/85 128/90/86
f 169/91/87 129/92/88 168/93/89
f 168/93/89 123/94/90 172/95/91
f 124/96/92 172/95/91 123/94/90
f 162/97/93 253/98/94 163/99/95
f 124/96/92 9/100/96 8/101/97
f 125/102/98 123/94/90 126/103/99
f 133/104/100 248/105/101 159/106/102
f 129/92/88 126/103/99 123/94/90
f 131/107/103 122/108/104 129/92/88
f 136/109/105 146/110/106 182/111/107
f 182/111/107 143/112/108 136/109/105
f 151/113/109 250/114/110 162/97/93
f 125/102/98 10/115/111 9/100/96
f 126/103/99 140/116/112 125/102/98
f 122/108/104 138/117/113 126/103/99
f 141/118/114 12/119/115 142/120/116
f 12/119/115 140/121/117 142/120/116
f 174/122/118 13/123/119 144/124/120
f 143/112/108 140/121/117 138/125/121
f 132/126/122 209/127/123 137/128/124
f 11/129/125 144/124/120 13/123/119
f 192/130/126 195/131/127 197/132/128
f 155/133/129 149/134/130 156/135/131
f 16/136/132 149/134/130 14/137/133
f 157/138/134 257/139/135 150/140/136
f 243/141/137 127/142/85 170/143/138
f 152/144/139 154/145/140 153/146/141
f 155/133/129 154/145/140 183/147/142
f 15/148/143 156/135/131 16/136/132
f 153/146/141 155/133/129 156/135/131
f 245/149/144 135/150/145 128/151/86
f 150/140/136 162/152/93 161/153/146
f 4/154/147 252/155/148 110/156/149
f 86/157/150 27/158/151 26/159/152
f 163/160/95 161/153/146 162/152/93
f 251/161/153 170/143/138 111/162/154
f 189/163/155 158/164/156 155/133/129
f 136/109/105 187/165/157 146/110/106
f 175/166/158 144/124/120 145/167/159
f 5/168/160 171/169/161 17/170/162
f 115/171/163 172/95/91 171/169/161
f 113/82/78 172/95/91 114/85/81
f 113/82/78 169/91/87 168/93/89
f 122/108/104 146/172/106 187/173/164
f 131/107/103 170/174/138 127/89/85
f 169/91/87 111/175/154 170/174/138
f 109/176/165 110/177/166 188/178/167
f 253/179/94 27/180/151 163/181/95
f 3/182/168 320/87/83 77/183/169
f 149/134/130 26/159/152 14/137/133
f 148/184/170 86/157/150 149/134/130
f 249/185/171 151/113/109 256/186/172
f 6/187/173 110/156/149 118/68/68
f 108/81/77 188/178/167 112/188/174
f 8/101/97 171/169/161 124/96/92
f 246/189/175 133/104/100 135/150/145
f 142/120/116 173/190/176 137/128/124
f 137/128/124 165/191/177 132/126/122
f 175/166/158 176/192/178 174/122/118
f 174/122/118 29/193/179 28/194/180
f 177/195/181 178/196/182 176/192/178
f 176/192/178 30/197/183 29/193/179
f 179/198/184 180/199/185 178/196/182
f 180/199/185 30/197/183 178/196/182
f 180/199/185 36/200/186 31/201/187
f 144/124/120 141/118/114 145/167/159
f 152/144/139 34/202/188 181/203/189
f 153/146/141 33/204/190 152/144/139
f 200/205/191 198/206/192 205/207/193
f 179/198/184 175/166/158 145/167/159
f 197/132/128 207/208/194 192/130/126
f 181/203/189 35/209/195 201/210/196
f 185/211/197 165/191/177 137/128/124
f 189/163/155 165/191/177 185/211/197
f 134/212/198 186/213/199 167/214/200
f 187/165/157 143/112/108 138/125/121
f 188/178/167 111/175/154 112/188/174
f 166/215/201 167/214/200 186/213/199
f 37/216/202 199/217/203 32/218/204
f 190/219/205 155/133/129 183/147/142
f 157/138/134 230/220/206 167/214/200
f 185/211/197 137/128/124 173/190/176
f 110/177/166 111/175/154 188/178/167
f 159/221/102 167/222/200 133/223/100
f 130/88/84 166/224/201 146/172/106
f 135/225/145 167/222/200 166/224/201
f 135/225/145 130/88/84 128/90/86
f 189/163/155 134/212/198 158/164/156
f 189/163/155 155/133/129 190/219/205
f 189/163/155 132/126/122 165/191/177
f 190/219/205 139/226/207 132/126/122
f 32/218/204 201/210/196 35/209/195
f 196/227/208 221/228/209 204/229/210
f 191/230/211 206/231/212 204/229/210
f 207/208/194 203/232/213 192/130/126
f 197/132/128 194/233/214 196/227/208
f 194/233/214 39/234/215 40/235/216
f 38/236/217 195/131/127 193/237/218
f 198/206/192 201/210/196 199/217/203
f 198/206/192 202/238/219 203/232/213
f 205/207/193 191/230/211 139/226/207
f 145/167/159 209/127/123 147/239/220
f 48/240/221 223/241/222 46/242/223
f 198/206/192 208/243/224 205/207/193
f 206/231/212 196/227/208 204/229/210
f 206/231/212 191/230/211 207/208/194
f 207/208/194 191/230/211 208/243/224
f 214/244/225 36/200/186 184/245/226
f 139/226/207 191/230/211 210/246/227
f 141/118/114 137/128/124 209/127/123
f 38/236/217 202/238/219 37/216/202
f 202/238/219 192/130/126 203/232/213
f 147/239/220 179/198/184 145/167/159
f 218/247/228 147/239/220 209/127/123
f 211/248/229 213/249/230 212/250/231
f 211/248/229 184/245/226 179/198/184
f 212/250/231 184/245/226 211/248/229
f 44/251/232 219/252/233 45/253/234
f 219/254/235 212/255/236 213/256/237
f 44/251/232 216/257/238 215/258/239
f 215/259/240 214/260/241 212/255/236
f 214/260/241 43/261/242 42/262/243
f 147/239/220 219/263/244 213/249/230
f 218/247/228 217/264/245 219/263/244
f 210/246/227 209/127/123 139/226/207
f 41/265/246 219/266/244 217/267/245
f 40/235/216 223/268/247 194/233/214
f 220/269/248 204/229/210 221/228/209
f 217/264/245 191/230/211 220/269/248
f 194/233/214 222/270/249 196/227/208
f 47/271/250 217/272/251 224/273/252
f 47/271/250 225/274/253 226/275/253
f 222/276/254 224/277/255 221/278/256
f 224/277/255 220/279/257 221/278/256
f 223/241/222 225/280/258 222/276/254
f 183/147/142 154/145/140 321/281/259
f 201/210/196 200/205/191 181/203/189
f 134/212/198 167/214/200 227/282/260
f 150/140/136 230/220/206 157/138/134
f 161/153/146 229/283/261 150/140/136
f 164/284/262 229/283/261 231/285/263
f 230/220/206 227/282/260 167/214/200
f 229/283/261 227/282/260 230/220/206
f 232/286/264 158/164/156 233/287/265
f 228/288/266 134/212/198 227/282/260
f 238/289/267 235/290/268 228/291/269
f 233/287/265 134/212/198 235/292/270
f 234/293/271 86/157/150 160/294/272
f 234/293/271 231/285/263 163/160/95
f 241/295/273 242/296/274 239/297/275
f 239/297/275 234/298/276 160/299/277
f 237/300/278 228/291/269 164/301/279
f 240/302/280 160/299/277 232/303/281
f 233/304/282 240/302/280 232/303/281
f 234/298/276 237/300/278 164/301/279
f 235/290/268 241/295/273 233/304/282
f 232/286/264 148/184/170 155/133/129
f 252/305/283 60/306/284 254/307/285
f 249/308/286 57/309/287 250/310/288
f 247/311/289 53/312/290 248/313/291
f 246/314/292 52/315/293 55/316/294
f 246/314/292 56/317/295 247/311/289
f 243/318/296 59/319/297 58/320/298
f 250/310/288 49/321/299 253/179/94
f 248/313/291 54/322/300 249/308/286
f 244/323/301 58/320/298 51/324/302
f 245/325/303 51/324/302 52/315/293
f 111/162/154 254/326/304 251/161/153
f 244/327/305 128/151/86 127/142/85
f 110/328/166 254/326/304 111/162/154
f 251/329/306 60/306/284 59/319/297
f 159/330/102 257/139/135 157/138/134
f 151/331/307 258/332/308 256/333/309
f 259/334/310 151/331/307 162/335/311
f 256/333/309 260/336/312 257/337/313
f 262/338/314 259/339/315 162/340/316
f 261/341/317 257/342/318 260/343/319
f 262/338/314 150/344/320 261/341/317
f 263/345/321 261/341/317 260/343/319
f 258/346/322 263/345/321 260/343/319
f 264/347/323 265/348/324 263/345/321
f 264/347/323 258/346/322 255/349/325
f 262/338/314 264/347/323 259/339/315
f 259/339/315 264/347/323 255/349/325
f 266/350/326 261/341/317 265/348/324
f 73/351/327 270/352/328 25/353/329
f 311/354/330 271/355/331 270/352/328
f 272/356/332 318/357/333 267/358/334
f 309/359/335 272/356/332 271/355/331
f 318/357/333 268/360/336 267/358/334
f 268/360/336 313/361/337 269/362/338
f 269/362/338 76/363/339 24/364/340
f 89/1/1 271/365/331 79/22/22
f 25/366/329 89/1/1 21/6/6
f 269/367/338 18/10/10 87/368/341
f 84/14/14 269/367/338 87/368/341
f 267/369/334 84/14/14 82/17/17
f 272/370/332 82/17/17 80/371/342
f 271/365/331 80/371/342 79/22/22
f 280/372/343 276/12/12 281/373/344
f 276/12/12 63/374/345 281/373/344
f 64/375/346 275/5/5 282/376/347
f 282/376/347 274/4/4 283/377/348
f 283/377/348 273/21/21 284/378/349
f 284/378/349 278/19/19 279/379/350
f 279/379/350 277/16/16 280/372/343
f 290/380/351 280/372/343 289/381/352
f 285/382/353 279/379/350 290/380/351
f 283/377/348 285/382/353 286/383/354
f 287/384/355 283/377/348 286/383/354
f 64/375/346 287/384/355 65/385/356
f 288/386/357 63/374/345 66/387/358
f 280/372/343 288/386/357 289/381/352
f 287/384/355 97/59/59 96/56/56
f 290/380/351 94/388/359 93/62/62
f 286/383/354 98/53/53 97/59/59
f 289/381/352 95/389/360 94/388/359
f 285/382/353 93/62/62 98/53/53
f 288/386/357 1/390/361 95/389/360
f 2/60/60 287/384/355 96/56/56
f 95/389/360 68/391/362 292/392/363
f 94/388/359 292/392/363 293/63/63
f 117/67/67 292/392/363 118/393/364
f 292/392/363 6/394/365 118/393/364
f 7/395/366 291/58/58 119/396/367
f 119/396/367 104/57/57 120/65/65
f 99/397/52 22/398/49 566/399/253
f 295/33/33 305/38/38 296/37/37
f 305/38/38 304/31/31 303/47/47
f 304/31/31 301/50/50 303/47/47
f 302/29/29 71/51/51 301/50/50
f 70/24/24 300/44/44 299/25/25
f 299/25/25 298/39/39 297/43/43
f 297/43/43 295/33/33 296/37/37
f 315/400/368 317/35/35 316/34/34
f 313/361/337 316/34/34 314/40/40
f 76/363/339 314/40/40 75/45/45
f 312/27/27 73/351/327 74/28/28
f 310/30/30 311/354/330 312/27/27
f 308/32/32 309/359/335 310/30/30
f 318/357/333 308/32/32 317/35/35
f 320/87/83 5/168/160 77/183/169
f 320/87/83 114/85/81 115/171/163
f 319/84/80 114/85/81 320/87/83
f 107/83/79 319/84/80 106/401/369
f 181/203/189 200/205/191 321/281/259
f 200/205/191 183/147/142 321/281/259
f 154/145/140 181/203/189 321/281/259
f 322/402/370 333/403/371 334/404/372
f 519/405/373 322/402/370 334/404/372
f 334/404/372 21/6/6 20/7/7
f 61/8/8 334/404/372 20/7/7
f 19/406/11 331/407/374 332/408/375
f 62/409/13 332/408/375 520/410/376
f 332/408/375 328/411/377 329/412/378
f 520/410/376 329/412/378 521/413/379
f 329/412/378 326/414/380 327/415/381
f 521/413/379 327/415/381 522/416/382
f 327/415/381 324/417/383 325/418/384
f 517/419/385 327/415/381 325/418/384
f 325/418/384 323/420/386 322/402/370
f 517/419/385 322/402/370 518/421/387
f 70/422/24 344/423/388 543/424/389
f 556/425/390 72/26/26 74/28/28
f 554/426/391 546/427/392 556/425/390
f 552/428/393 548/429/394 554/426/391
f 560/430/395 539/431/396 561/432/397
f 540/433/398 335/434/399 549/435/400
f 558/436/401 542/437/402 560/430/395
f 561/432/397 550/438/403 552/428/393
f 543/424/389 345/439/404 541/440/405
f 75/441/45 544/442/406 558/436/401
f 549/435/400 336/443/407 547/444/408
f 540/433/398 345/439/404 346/445/409
f 545/446/410 22/49/49 71/51/51
f 547/444/408 343/447/411 545/446/410
f 538/448/412 342/449/413 347/450/414
f 348/451/415 340/452/416 535/453/417
f 347/450/414 341/454/418 348/451/415
f 535/453/417 2/60/60 67/61/61
f 537/455/419 337/456/420 538/448/412
f 365/457/421 348/451/415 364/458/422
f 365/457/421 538/448/412 347/450/414
f 361/459/423 538/448/412 360/460/424
f 353/461/425 362/462/426 361/463/427
f 7/71/71 349/464/428 363/465/428
f 363/465/428 350/466/429 364/467/430
f 350/466/429 365/468/431 364/467/430
f 351/469/431 360/470/432 365/468/431
f 352/471/433 361/463/427 360/470/432
f 357/472/434 352/473/435 351/474/436
f 563/475/437 358/476/438 357/472/434
f 349/477/439 563/475/437 350/478/440
f 371/479/441 374/480/442 372/481/443
f 373/482/444 413/483/445 412/484/446
f 367/485/447 412/484/446 416/486/448
f 368/487/449 416/486/448 415/488/450
f 406/489/451 497/490/452 494/491/453
f 368/487/449 9/492/96 369/493/454
f 369/493/454 367/485/447 368/487/449
f 377/494/455 492/495/456 491/496/457
f 373/482/444 370/497/458 366/498/459
f 375/499/460 366/498/459 374/480/442
f 380/500/461 426/501/462 390/502/463
f 387/503/464 426/501/462 380/500/461
f 395/504/465 494/491/453 493/505/466
f 10/506/111 369/493/454 9/492/96
f 384/507/467 370/497/458 369/493/454
f 366/498/459 382/508/468 431/509/469
f 385/510/470 12/511/115 11/512/125
f 384/513/471 12/511/115 386/514/472
f 13/515/119 418/516/473 388/517/474
f 387/503/464 384/513/471 386/514/472
f 453/518/475 376/519/476 381/520/477
f 11/512/125 388/517/474 385/510/470
f 436/521/478 439/522/479 437/523/480
f 393/524/481 399/525/482 400/526/483
f 16/527/132 393/524/481 400/526/483
f 401/528/484 394/529/485 501/530/486
f 371/531/441 487/532/487 414/533/488
f 396/534/489 398/535/490 425/536/491
f 399/525/482 427/537/492 398/535/490
f 15/538/143 400/526/483 397/539/493
f 397/539/493 399/525/482 398/535/490
f 379/540/494 489/541/495 372/542/443
f 394/529/485 405/543/496 406/544/451
f 4/154/147 496/545/497 50/546/498
f 330/547/499 27/548/151 407/549/500
f 407/549/500 405/543/496 475/550/501
f 414/533/488 495/551/502 355/552/503
f 433/553/504 399/525/482 402/554/505
f 380/500/461 390/502/463 431/555/506
f 388/517/474 419/556/507 389/557/508
f 5/558/160 415/488/450 359/559/509
f 359/559/509 416/486/448 358/476/438
f 416/486/448 357/472/434 358/476/438
f 357/472/434 413/483/445 356/560/510
f 390/561/463 366/498/459 431/509/469
f 414/562/488 375/499/460 371/479/441
f 413/483/445 355/563/503 356/560/510
f 353/564/511 432/565/512 354/566/513
f 27/180/151 497/567/452 407/568/500
f 3/569/168 564/570/514 349/477/439
f 26/571/152 393/524/481 14/572/133
f 330/547/499 392/573/515 393/524/481
f 500/574/516 493/505/466 492/495/456
f 354/575/517 6/187/173 362/462/426
f 352/473/435 432/565/512 353/564/511
f 8/576/97 415/488/450 17/577/162
f 377/494/455 490/578/518 379/540/494
f 417/579/519 386/514/472 381/520/477
f 381/520/477 376/519/476 409/580/520
f 419/556/507 420/581/521 421/582/522
f 418/516/473 29/583/179 420/581/521
f 421/582/522 422/584/523 423/585/524
f 420/581/521 30/586/183 422/584/523
f 423/585/524 424/587/525 428/588/526
f 30/586/183 424/587/525 422/584/523
f 36/589/186 424/587/525 31/590/187
f 388/517/474 389/557/508 385/510/470
f 396/534/489 34/591/188 33/592/190
f 33/592/190 397/539/493 396/534/489
f 449/593/527 444/594/528 427/537/492
f 419/556/507 423/585/524 389/557/508
f 451/595/529 441/596/530 436/521/478
f 425/536/491 35/597/195 34/591/188
f 429/598/531 381/520/477 409/580/520
f 433/553/504 429/598/531 409/580/520
f 430/599/532 378/600/533 411/601/534
f 431/555/506 387/503/464 380/500/461
f 432/565/512 356/560/510 355/563/503
f 410/602/535 430/599/532 411/601/534
f 443/603/536 37/604/202 32/605/204
f 434/606/537 427/537/492 399/525/482
f 401/528/484 411/601/534 474/607/538
f 430/599/532 410/602/535 390/502/463
f 354/566/513 432/565/512 355/563/503
f 411/608/534 403/609/539 377/610/455
f 374/480/442 410/611/535 379/612/494
f 379/612/494 411/608/534 377/610/455
f 379/612/494 372/481/443 374/480/442
f 378/600/533 433/553/504 402/554/505
f 433/553/504 434/606/537 399/525/482
f 376/519/476 433/553/504 409/580/520
f 383/613/540 434/606/537 376/519/476
f 32/605/204 445/614/541 443/603/536
f 440/615/542 465/616/543 466/617/544
f 435/618/545 448/619/546 450/620/547
f 447/621/548 451/595/529 436/521/478
f 438/622/549 441/596/530 440/615/542
f 438/622/549 39/623/215 439/522/479
f 38/624/217 439/522/479 39/623/215
f 445/614/541 442/625/550 443/603/536
f 442/625/550 446/626/551 443/603/536
f 435/618/545 449/593/527 383/613/540
f 453/518/475 389/557/508 391/627/552
f 467/628/553 48/240/221 46/242/223
f 452/629/554 442/625/550 449/593/527
f 450/620/547 440/615/542 441/596/530
f 450/620/547 451/595/529 435/618/545
f 451/595/529 452/629/554 435/618/545
f 36/589/186 458/630/555 428/588/526
f 383/613/540 454/631/556 435/618/545
f 385/510/470 381/520/477 386/514/472
f 446/626/551 38/624/217 37/604/202
f 446/626/551 436/521/478 437/523/480
f 391/627/552 423/585/524 455/632/557
f 462/633/558 453/518/475 391/627/552
f 455/632/557 457/634/559 391/627/552
f 455/632/557 423/585/524 428/588/526
f 428/588/526 456/635/560 455/632/557
f 44/251/232 463/636/561 459/637/562
f 456/638/563 463/639/564 457/640/565
f 460/641/566 44/251/232 459/637/562
f 458/642/567 459/643/568 456/638/563
f 458/642/567 43/261/242 460/644/569
f 463/645/570 391/627/552 457/634/559
f 461/646/571 462/633/558 463/645/570
f 454/631/556 453/518/475 462/633/558
f 41/265/246 463/647/570 45/648/572
f 40/649/216 467/650/573 46/651/574
f 464/652/575 448/619/546 435/618/545
f 461/646/571 435/618/545 454/631/556
f 438/622/549 466/617/544 467/650/573
f 47/271/250 461/653/576 41/654/577
f 469/655/253 468/656/578 47/271/250
f 466/657/579 468/658/580 469/659/581
f 464/660/582 468/658/580 465/661/583
f 467/628/553 469/659/581 470/662/584
f 427/537/492 565/663/585 398/535/490
f 445/614/541 425/536/491 444/594/528
f 378/600/533 471/664/586 411/601/534
f 394/529/485 474/607/538 473/665/587
f 405/543/496 473/665/587 475/550/501
f 473/665/587 408/666/588 475/550/501
f 474/607/538 411/601/534 471/664/586
f 473/665/587 471/664/586 472/667/589
f 402/554/505 476/668/590 477/669/591
f 472/667/589 378/600/533 479/670/592
f 479/671/593 482/672/594 472/673/595
f 477/669/591 378/600/533 402/554/505
f 330/547/499 478/674/596 404/675/597
f 475/550/501 478/674/596 407/549/500
f 483/676/598 480/677/599 486/678/600
f 478/679/601 483/676/598 404/680/602
f 472/673/595 481/681/603 408/682/604
f 404/680/602 484/683/605 476/684/606
f 477/685/607 484/683/605 485/686/608
f 478/679/601 481/681/603 480/677/599
f 479/671/593 485/686/608 486/678/600
f 476/668/590 392/573/515 404/675/597
f 60/306/284 496/687/609 498/688/610
f 57/309/287 493/689/611 494/690/612
f 53/312/290 491/691/613 492/692/614
f 490/693/615 52/315/293 489/694/616
f 56/317/295 490/693/615 491/691/613
f 487/695/617 59/319/297 495/696/618
f 49/321/299 494/690/612 497/567/452
f 54/322/300 492/692/614 493/689/611
f 488/697/619 58/320/298 487/695/617
f 489/694/616 51/324/302 488/697/619
f 355/552/503 495/551/502 498/698/620
f 372/542/443 488/699/621 371/531/441
f 354/700/513 498/698/620 496/701/622
f 495/696/618 60/306/284 498/688/610
f 403/702/539 501/530/486 500/703/516
f 395/704/623 502/705/624 499/706/625
f 395/704/623 503/707/626 406/708/627
f 500/709/628 504/710/629 502/705/624
f 506/711/630 406/712/631 503/713/632
f 501/714/633 505/715/634 504/716/635
f 394/717/636 506/711/630 505/715/634
f 507/718/637 505/715/634 509/719/638
f 502/720/639 504/716/635 507/718/637
f 508/721/640 509/719/638 510/722/641
f 502/720/639 508/721/640 499/723/642
f 508/721/640 506/711/630 503/713/632
f 503/713/632 499/723/642 508/721/640
f 510/722/641 505/715/634 506/711/630
f 25/353/329 555/724/643 73/351/327
f 514/725/644 553/726/645 555/724/643
f 516/727/646 562/728/647 551/729/648
f 516/727/646 553/726/645 515/730/649
f 512/731/650 562/728/647 511/732/651
f 512/731/650 557/733/652 559/734/653
f 513/735/654 76/736/339 557/733/652
f 323/420/386 514/737/644 333/403/371
f 333/403/371 25/366/329 21/6/6
f 331/407/374 24/738/340 513/739/654
f 328/411/377 513/739/654 512/740/650
f 326/414/380 512/740/650 511/741/651
f 326/414/380 516/742/646 324/417/383
f 324/417/383 515/743/649 323/420/386
f 524/744/655 520/410/376 521/413/379
f 525/745/656 62/409/13 520/410/376
f 64/375/346 519/405/373 61/8/8
f 526/746/657 518/421/387 519/405/373
f 527/747/658 517/419/385 518/421/387
f 528/748/659 522/416/382 517/419/385
f 523/749/660 521/413/379 522/416/382
f 533/750/661 523/749/660 534/751/662
f 534/751/662 528/748/659 529/752/663
f 529/752/663 527/747/658 530/753/664
f 531/754/665 527/747/658 526/746/657
f 65/385/356 526/746/657 64/375/346
f 66/755/358 525/745/656 532/756/666
f 532/756/666 524/744/655 533/750/661
f 341/454/418 531/754/665 340/452/416
f 338/757/667 534/751/662 337/456/420
f 342/449/413 530/753/664 341/454/418
f 339/758/668 533/750/661 338/757/667
f 342/449/413 534/751/662 529/752/663
f 1/759/361 532/756/666 339/758/668
f 340/452/416 65/385/356 2/60/60
f 68/760/362 339/758/668 536/761/669
f 536/761/669 338/757/667 537/455/419
f 361/459/423 536/761/669 537/455/419
f 362/762/670 68/760/362 536/761/669
f 7/395/366 535/453/417 67/61/61
f 363/763/671 348/451/415 535/453/417
f 566/399/253 22/398/49 343/764/411
f 549/435/400 539/431/396 540/433/398
f 549/435/400 548/429/394 550/438/403
f 547/444/408 546/427/392 548/429/394
f 545/446/410 72/26/26 546/427/392
f 70/422/24 544/442/406 69/765/672
f 543/424/389 542/437/402 544/442/406
f 540/433/398 542/437/402 541/440/405
f 560/430/395 562/728/647 559/734/653
f 560/430/395 557/733/652 558/436/401
f 558/436/401 76/736/339 75/441/45
f 74/28/28 555/724/643 556/425/390
f 554/426/391 555/724/643 553/726/645
f 552/428/393 553/726/645 551/729/648
f 561/432/397 551/729/648 562/728/647
f 564/570/514 5/558/160 359/559/509
f 564/570/514 359/559/509 358/476/438
f 563/475/437 564/570/514 358/476/438
f 563/475/437 351/474/436 350/478/440
f 425/536/491 565/663/585 444/594/528
f 444/594/528 565/663/585 427/537/492
f 398/535/490 565/663/585 425/536/491
f 345/766/404 344/767/388 566/399/253
f 23/768/673 100/769/23 566/399/253
f 566/399/253 100/769/23 101/770/42
f 101/770/42 102/771/48 566/399/253
f 102/771/48 91/772/36 566/399/253
f 91/772/36 92/773/46 566/399/253
f 92/773/46 99/397/52 566/399/253
f 344/767/388 23/768/673 566/399/253
f 566/399/253 343/764/411 336/774/407
f 336/774/407 335/775/399 566/399/253
f 335/775/399 346/776/409 566/399/253
f 346/776/409 345/766/404 566/399/253
f 89/1/1 79/22/22 78/2/2
f 90/3/3 78/2/2 274/4/4
f 21/6/6 89/1/1 90/3/3
f 20/7/7 90/3/3 275/5/5
f 88/9/9 87/368/341 18/10/10
f 276/12/12 88/9/9 19/11/11
f 84/14/14 87/368/341 88/9/9
f 277/16/16 85/15/15 88/9/9
f 82/17/17 84/14/14 85/15/15
f 278/19/19 83/18/18 85/15/15
f 81/20/20 80/371/342 82/17/17
f 81/20/20 83/18/18 278/19/19
f 79/22/22 80/371/342 81/20/20
f 78/2/2 81/20/20 273/21/21
f 100/23/23 23/777/673 70/24/24
f 72/26/26 302/29/29 312/27/27
f 302/29/29 304/31/31 310/30/30
f 304/31/31 306/41/41 308/32/32
f 295/33/33 298/39/39 316/34/34
f 91/36/36 102/48/48 296/37/37
f 298/39/39 300/44/44 314/40/40
f 306/41/41 295/33/33 317/35/35
f 101/42/42 100/23/23 299/25/25
f 300/44/44 69/778/672 75/45/45
f 92/46/46 91/36/36 305/38/38
f 102/48/48 101/42/42 297/43/43
f 22/49/49 99/52/52 301/50/50
f 99/52/52 92/46/46 303/47/47
f 98/53/53 93/62/62 294/54/54
f 96/56/56 97/59/59 104/57/57
f 97/59/59 98/53/53 103/55/55
f 2/60/60 96/56/56 291/58/58
f 93/62/62 94/388/359 293/63/63
f 104/57/57 103/55/55 121/64/64
f 121/64/64 103/55/55 294/54/54
f 294/54/54 293/63/63 117/67/67
f 118/68/68 110/156/149 109/69/69
f 7/71/71 119/74/72 105/72/72
f 119/74/72 120/77/73 106/75/73
f 121/76/74 107/79/74 106/75/73
f 116/78/75 108/80/76 107/79/74
f 117/70/70 109/69/69 108/80/76
f 108/81/77 112/188/174 113/82/78
f 105/86/82 106/401/369 319/84/80
f 130/88/84 131/107/103 127/89/85
f 169/91/87 131/107/103 129/92/88
f 168/93/89 129/92/88 123/94/90
f 124/96/92 171/169/161 172/95/91
f 162/97/93 250/114/110 253/98/94
f 124/96/92 125/102/98 9/100/96
f 125/102/98 124/96/92 123/94/90
f 133/104/100 247/779/674 248/105/101
f 129/92/88 122/108/104 126/103/99
f 131/107/103 130/88/84 122/108/104
f 182/111/107 173/190/176 143/112/108
f 151/113/109 249/185/171 250/114/110
f 125/102/98 140/116/112 10/115/111
f 126/103/99 138/117/113 140/116/112
f 122/108/104 187/173/164 138/117/113
f 141/118/114 11/129/125 12/119/115
f 12/119/115 10/780/675 140/121/117
f 174/122/118 28/194/180 13/123/119
f 143/112/108 142/120/116 140/121/117
f 132/126/122 139/226/207 209/127/123
f 11/129/125 141/118/114 144/124/120
f 192/130/126 193/237/218 195/131/127
f 155/133/129 148/184/170 149/134/130
f 16/136/132 156/135/131 149/134/130
f 243/141/137 244/327/305 127/142/85
f 152/144/139 181/203/189 154/145/140
f 15/148/143 153/146/141 156/135/131
f 153/146/141 154/145/140 155/133/129
f 245/149/144 246/189/175 135/150/145
f 4/154/147 50/546/498 252/155/148
f 86/157/150 163/160/95 27/158/151
f 163/160/95 231/285/263 161/153/146
f 251/161/153 243/141/137 170/143/138
f 175/166/158 174/122/118 144/124/120
f 5/168/160 115/171/163 171/169/161
f 115/171/163 114/85/81 172/95/91
f 113/82/78 168/93/89 172/95/91
f 113/82/78 112/188/174 169/91/87
f 122/108/104 130/88/84 146/172/106
f 131/107/103 169/91/87 170/174/138
f 169/91/87 112/188/174 111/175/154
f 253/179/94 49/321/299 27/180/151
f 3/182/168 105/86/82 320/87/83
f 149/134/130 86/157/150 26/159/152
f 148/184/170 160/294/272 86/157/150
f 256/186/172 159/106/102 248/105/101
f 248/105/101 249/185/171 256/186/172
f 6/187/173 4/154/147 110/156/149
f 108/81/77 109/176/165 188/178/167
f 8/101/97 17/170/162 171/169/161
f 246/189/175 247/779/674 133/104/100
f 142/120/116 143/112/108 173/190/176
f 175/166/158 177/195/181 176/192/178
f 174/122/118 176/192/178 29/193/179
f 177/195/181 179/198/184 178/196/182
f 176/192/178 178/196/182 30/197/183
f 179/198/184 184/245/226 180/199/185
f 180/199/185 31/201/187 30/197/183
f 180/199/185 184/245/226 36/200/186
f 152/144/139 33/204/190 34/202/188
f 153/146/141 15/148/143 33/204/190
f 205/207/193 139/226/207 183/147/142
f 183/147/142 200/205/191 205/207/193
f 179/198/184 177/195/181 175/166/158
f 197/132/128 206/231/212 207/208/194
f 181/203/189 34/202/188 35/209/195
f 134/212/198 185/211/197 186/213/199
f 187/165/157 136/109/105 143/112/108
f 37/216/202 202/238/219 199/217/203
f 173/190/176 182/111/107 185/211/197
f 182/111/107 146/110/106 186/213/199
f 185/211/197 182/111/107 186/213/199
f 146/110/106 166/215/201 186/213/199
f 159/330/102 157/138/134 167/214/200
f 130/88/84 135/225/145 166/224/201
f 135/225/145 133/223/100 167/222/200
f 189/163/155 185/211/197 134/212/198
f 189/163/155 190/219/205 132/126/122
f 190/219/205 183/147/142 139/226/207
f 32/218/204 199/217/203 201/210/196
f 196/227/208 222/270/249 221/228/209
f 207/208/194 208/243/224 203/232/213
f 197/132/128 195/131/127 194/233/214
f 194/233/214 195/131/127 39/234/215
f 38/236/217 39/234/215 195/131/127
f 198/206/192 200/205/191 201/210/196
f 198/206/192 199/217/203 202/238/219
f 205/207/193 208/243/224 191/230/211
f 145/167/159 141/118/114 209/127/123
f 48/240/221 226/781/676 223/241/222
f 198/206/192 203/232/213 208/243/224
f 206/231/212 197/132/128 196/227/208
f 214/244/225 42/782/677 36/200/186
f 141/118/114 142/120/116 137/128/124
f 38/236/217 193/237/218 202/238/219
f 202/238/219 193/237/218 192/130/126
f 147/239/220 211/248/229 179/198/184
f 211/248/229 147/239/220 213/249/230
f 212/250/231 214/244/225 184/245/226
f 44/251/232 215/258/239 219/252/233
f 219/254/235 215/259/240 212/255/236
f 44/251/232 43/783/678 216/257/238
f 215/259/240 216/784/679 214/260/241
f 214/260/241 216/784/679 43/261/242
f 147/239/220 218/247/228 219/263/244
f 218/247/228 210/246/227 217/264/245
f 210/246/227 218/247/228 209/127/123
f 41/265/246 45/648/572 219/266/244
f 40/235/216 46/785/574 223/268/247
f 220/269/248 191/230/211 204/229/210
f 217/264/245 210/246/227 191/230/211
f 194/233/214 223/268/247 222/270/249
f 47/271/250 41/654/577 217/272/251
f 226/275/253 48/786/253 47/271/250
f 47/271/250 224/273/252 225/274/253
f 222/276/254 225/280/258 224/277/255
f 224/277/255 217/787/680 220/279/257
f 223/241/222 226/781/676 225/280/258
f 150/140/136 229/283/261 230/220/206
f 161/153/146 231/285/263 229/283/261
f 164/284/262 228/288/266 229/283/261
f 229/283/261 228/288/266 227/282/260
f 232/286/264 155/133/129 158/164/156
f 228/288/266 235/292/270 134/212/198
f 238/289/267 242/296/274 235/290/268
f 233/287/265 158/164/156 134/212/198
f 234/293/271 163/160/95 86/157/150
f 234/293/271 164/284/262 231/285/263
f 242/296/274 238/289/267 236/788/681
f 238/289/267 237/300/278 236/788/681
f 236/788/681 239/297/275 242/296/274
f 239/297/275 240/302/280 241/295/273
f 239/297/275 236/788/681 234/298/276
f 237/300/278 238/289/267 228/291/269
f 240/302/280 239/297/275 160/299/277
f 233/304/282 241/295/273 240/302/280
f 234/298/276 236/788/681 237/300/278
f 235/290/268 242/296/274 241/295/273
f 232/286/264 160/294/272 148/184/170
f 252/305/283 50/789/682 60/306/284
f 249/308/286 54/322/300 57/309/287
f 247/311/289 56/317/295 53/312/290
f 246/314/292 245/325/303 52/315/293
f 246/314/292 55/316/294 56/317/295
f 243/318/296 251/329/306 59/319/297
f 250/310/288 57/309/287 49/321/299
f 248/313/291 53/312/290 54/322/300
f 244/323/301 243/318/296 58/320/298
f 245/325/303 244/323/301 51/324/302
f 244/327/305 245/149/144 128/151/86
f 110/328/166 252/790/683 254/326/304
f 251/329/306 254/307/285 60/306/284
f 159/330/102 256/791/172 257/139/135
f 151/331/307 255/792/684 258/332/308
f 259/334/310 255/792/684 151/331/307
f 256/333/309 258/332/308 260/336/312
f 261/341/317 150/344/320 257/342/318
f 262/338/314 162/340/316 150/344/320
f 263/345/321 265/348/324 261/341/317
f 264/347/323 266/350/326 265/348/324
f 264/347/323 263/345/321 258/346/322
f 262/338/314 266/350/326 264/347/323
f 266/350/326 262/338/314 261/341/317
f 73/351/327 311/354/330 270/352/328
f 311/354/330 309/359/335 271/355/331
f 272/356/332 307/793/685 318/357/333
f 309/359/335 307/793/685 272/356/332
f 318/357/333 315/400/368 268/360/336
f 268/360/336 315/400/368 313/361/337
f 269/362/338 313/361/337 76/363/339
f 89/1/1 270/794/328 271/365/331
f 25/366/329 270/794/328 89/1/1
f 269/367/338 24/795/340 18/10/10
f 84/14/14 268/796/336 269/367/338
f 267/369/334 268/796/336 84/14/14
f 272/370/332 267/369/334 82/17/17
f 271/365/331 272/370/332 80/371/342
f 280/372/343 277/16/16 276/12/12
f 276/12/12 62/13/13 63/374/345
f 64/375/346 61/8/8 275/5/5
f 282/376/347 275/5/5 274/4/4
f 283/377/348 274/4/4 273/21/21
f 284/378/349 273/21/21 278/19/19
f 279/379/350 278/19/19 277/16/16
f 290/380/351 279/379/350 280/372/343
f 285/382/353 284/378/349 279/379/350
f 283/377/348 284/378/349 285/382/353
f 287/384/355 282/376/347 283/377/348
f 64/375/346 282/376/347 287/384/355
f 288/386/357 281/373/344 63/374/345
f 280/372/343 281/373/344 288/386/357
f 287/384/355 286/383/354 97/59/59
f 290/380/351 289/381/352 94/388/359
f 286/383/354 285/382/353 98/53/53
f 289/381/352 288/386/357 95/389/360
f 285/382/353 290/380/351 93/62/62
f 288/386/357 66/387/358 1/390/361
f 2/60/60 65/385/356 287/384/355
f 95/389/360 1/390/361 68/391/362
f 94/388/359 95/389/360 292/392/363
f 117/67/67 293/63/63 292/392/363
f 292/392/363 68/391/362 6/394/365
f 7/395/366 67/61/61 291/58/58
f 119/396/367 291/58/58 104/57/57
f 295/33/33 306/41/41 305/38/38
f 305/38/38 306/41/41 304/31/31
f 304/31/31 302/29/29 301/50/50
f 302/29/29 72/26/26 71/51/51
f 70/24/24 69/778/672 300/44/44
f 299/25/25 300/44/44 298/39/39
f 297/43/43 298/39/39 295/33/33
f 315/400/368 318/357/333 317/35/35
f 313/361/337 315/400/368 316/34/34
f 76/363/339 313/361/337 314/40/40
f 312/27/27 311/354/330 73/351/327
f 310/30/30 309/359/335 311/354/330
f 308/32/32 307/793/685 309/359/335
f 318/357/333 307/793/685 308/32/32
f 320/87/83 115/171/163 5/168/160
f 107/83/79 113/82/78 319/84/80
f 322/402/370 323/420/386 333/403/371
f 519/405/373 518/421/387 322/402/370
f 334/404/372 333/403/371 21/6/6
f 61/8/8 519/405/373 334/404/372
f 19/406/11 18/797/10 331/407/374
f 62/409/13 19/406/11 332/408/375
f 332/408/375 331/407/374 328/411/377
f 520/410/376 332/408/375 329/412/378
f 329/412/378 328/411/377 326/414/380
f 521/413/379 329/412/378 327/415/381
f 327/415/381 326/414/380 324/417/383
f 517/419/385 522/416/382 327/415/381
f 325/418/384 324/417/383 323/420/386
f 517/419/385 325/418/384 322/402/370
f 70/422/24 23/798/673 344/423/388
f 556/425/390 546/427/392 72/26/26
f 554/426/391 548/429/394 546/427/392
f 552/428/393 550/438/403 548/429/394
f 560/430/395 542/437/402 539/431/396
f 540/433/398 346/445/409 335/434/399
f 558/436/401 544/442/406 542/437/402
f 561/432/397 539/431/396 550/438/403
f 543/424/389 344/423/388 345/439/404
f 75/441/45 69/765/672 544/442/406
f 549/435/400 335/434/399 336/443/407
f 540/433/398 541/440/405 345/439/404
f 545/446/410 343/447/411 22/49/49
f 547/444/408 336/443/407 343/447/411
f 538/448/412 337/456/420 342/449/413
f 348/451/415 341/454/418 340/452/416
f 347/450/414 342/449/413 341/454/418
f 535/453/417 340/452/416 2/60/60
f 537/455/419 338/757/667 337/456/420
f 365/457/421 347/450/414 348/451/415
f 365/457/421 360/460/424 538/448/412
f 361/459/423 537/455/419 538/448/412
f 353/461/425 354/575/517 362/462/426
f 7/71/71 3/73/71 349/464/428
f 363/465/428 349/464/428 350/466/429
f 350/466/429 351/469/431 365/468/431
f 351/469/431 352/471/433 360/470/432
f 352/471/433 353/461/425 361/463/427
f 357/472/434 356/560/510 352/473/435
f 349/477/439 564/570/514 563/475/437
f 371/479/441 375/499/460 374/480/442
f 373/482/444 375/499/460 413/483/445
f 367/485/447 373/482/444 412/484/446
f 368/487/449 367/485/447 416/486/448
f 406/489/451 407/799/500 497/490/452
f 368/487/449 8/576/97 9/492/96
f 369/493/454 370/497/458 367/485/447
f 377/494/455 403/800/539 492/495/456
f 373/482/444 367/485/447 370/497/458
f 375/499/460 373/482/444 366/498/459
f 387/503/464 417/579/519 426/501/462
f 395/504/465 406/489/451 494/491/453
f 10/506/111 384/507/467 369/493/454
f 384/507/467 382/508/468 370/497/458
f 366/498/459 370/497/458 382/508/468
f 385/510/470 386/514/472 12/511/115
f 384/513/471 10/801/675 12/511/115
f 13/515/119 28/802/180 418/516/473
f 387/503/464 382/803/686 384/513/471
f 453/518/475 383/613/540 376/519/476
f 11/512/125 13/515/119 388/517/474
f 436/521/478 441/596/530 439/522/479
f 393/524/481 392/573/515 399/525/482
f 16/527/132 14/572/133 393/524/481
f 371/531/441 488/699/621 487/532/487
f 396/534/489 397/539/493 398/535/490
f 15/538/143 16/527/132 400/526/483
f 397/539/493 400/526/483 399/525/482
f 379/540/494 490/578/518 489/541/495
f 4/154/147 354/575/517 496/545/497
f 330/547/499 26/571/152 27/548/151
f 407/549/500 406/544/451 405/543/496
f 414/533/488 487/532/487 495/551/502
f 388/517/474 418/516/473 419/556/507
f 5/558/160 17/577/162 415/488/450
f 359/559/509 415/488/450 416/486/448
f 416/486/448 412/484/446 357/472/434
f 357/472/434 412/484/446 413/483/445
f 390/561/463 374/480/442 366/498/459
f 414/562/488 413/483/445 375/499/460
f 413/483/445 414/562/488 355/563/503
f 27/180/151 49/321/299 497/567/452
f 3/569/168 77/804/169 564/570/514
f 26/571/152 330/547/499 393/524/481
f 330/547/499 404/675/597 392/573/515
f 492/495/456 403/800/539 500/574/516
f 500/574/516 395/504/465 493/505/466
f 354/575/517 4/154/147 6/187/173
f 352/473/435 356/560/510 432/565/512
f 8/576/97 368/487/449 415/488/450
f 377/494/455 491/496/457 490/578/518
f 417/579/519 387/503/464 386/514/472
f 419/556/507 418/516/473 420/581/521
f 418/516/473 28/802/180 29/583/179
f 421/582/522 420/581/521 422/584/523
f 420/581/521 29/583/179 30/586/183
f 423/585/524 422/584/523 424/587/525
f 30/586/183 31/590/187 424/587/525
f 36/589/186 428/588/526 424/587/525
f 396/534/489 425/536/491 34/591/188
f 33/592/190 15/538/143 397/539/493
f 427/537/492 383/613/540 449/593/527
f 449/593/527 442/625/550 444/594/528
f 419/556/507 421/582/522 423/585/524
f 451/595/529 450/620/547 441/596/530
f 425/536/491 445/614/541 35/597/195
f 430/599/532 429/598/531 378/600/533
f 431/555/506 382/803/686 387/503/464
f 443/603/536 446/626/551 37/604/202
f 390/502/463 426/501/462 430/599/532
f 426/501/462 417/579/519 429/598/531
f 417/579/519 381/520/477 429/598/531
f 429/598/531 430/599/532 426/501/462
f 411/601/534 401/528/484 403/702/539
f 374/480/442 390/561/463 410/611/535
f 379/612/494 410/611/535 411/608/534
f 378/600/533 429/598/531 433/553/504
f 376/519/476 434/606/537 433/553/504
f 383/613/540 427/537/492 434/606/537
f 32/605/204 35/597/195 445/614/541
f 440/615/542 448/619/546 465/616/543
f 447/621/548 452/629/554 451/595/529
f 438/622/549 439/522/479 441/596/530
f 438/622/549 40/649/216 39/623/215
f 38/624/217 437/523/480 439/522/479
f 445/614/541 444/594/528 442/625/550
f 442/625/550 447/621/548 446/626/551
f 435/618/545 452/629/554 449/593/527
f 453/518/475 385/510/470 389/557/508
f 467/628/553 470/662/584 48/240/221
f 452/629/554 447/621/548 442/625/550
f 450/620/547 448/619/546 440/615/542
f 36/589/186 42/805/677 458/630/555
f 385/510/470 453/518/475 381/520/477
f 446/626/551 437/523/480 38/624/217
f 446/626/551 447/621/548 436/521/478
f 391/627/552 389/557/508 423/585/524
f 455/632/557 456/635/560 457/634/559
f 428/588/526 458/630/555 456/635/560
f 44/251/232 45/253/234 463/636/561
f 456/638/563 459/643/568 463/639/564
f 460/641/566 43/783/678 44/251/232
f 458/642/567 460/644/569 459/643/568
f 458/642/567 42/262/243 43/261/242
f 463/645/570 462/633/558 391/627/552
f 461/646/571 454/631/556 462/633/558
f 454/631/556 383/613/540 453/518/475
f 41/265/246 461/806/571 463/647/570
f 40/649/216 438/622/549 467/650/573
f 464/652/575 465/616/543 448/619/546
f 461/646/571 464/652/575 435/618/545
f 438/622/549 440/615/542 466/617/544
f 47/271/250 468/656/578 461/653/576
f 47/271/250 48/786/253 470/807/253
f 470/807/253 469/655/253 47/271/250
f 466/657/579 465/661/583 468/658/580
f 464/660/582 461/808/687 468/658/580
f 467/628/553 466/657/579 469/659/581
f 394/529/485 401/528/484 474/607/538
f 405/543/496 394/529/485 473/665/587
f 473/665/587 472/667/589 408/666/588
f 473/665/587 474/607/538 471/664/586
f 402/554/505 399/525/482 476/668/590
f 472/667/589 471/664/586 378/600/533
f 479/671/593 486/678/600 482/672/594
f 477/669/591 479/670/592 378/600/533
f 330/547/499 407/549/500 478/674/596
f 475/550/501 408/666/588 478/674/596
f 481/681/603 482/672/594 480/677/599
f 482/672/594 486/678/600 480/677/599
f 486/678/600 485/686/608 483/676/598
f 485/686/608 484/683/605 483/676/598
f 478/679/601 480/677/599 483/676/598
f 472/673/595 482/672/594 481/681/603
f 404/680/602 483/676/598 484/683/605
f 477/685/607 476/684/606 484/683/605
f 478/679/601 408/682/604 481/681/603
f 479/671/593 477/685/607 485/686/608
f 476/668/590 399/525/482 392/573/515
f 60/306/284 50/789/682 496/687/609
f 57/309/287 54/322/300 493/689/611
f 53/312/290 56/317/295 491/691/613
f 490/693/615 55/316/294 52/315/293
f 56/317/295 55/316/294 490/693/615
f 487/695/617 58/320/298 59/319/297
f 49/321/299 57/309/287 494/690/612
f 54/322/300 53/312/290 492/692/614
f 488/697/619 51/324/302 58/320/298
f 489/694/616 52/315/293 51/324/302
f 372/542/443 489/541/495 488/699/621
f 354/700/513 355/552/503 498/698/620
f 495/696/618 59/319/297 60/306/284
f 403/702/539 401/528/484 501/530/486
f 395/704/623 500/709/628 502/705/624
f 395/704/623 499/706/625 503/707/626
f 500/709/628 501/809/688 504/710/629
f 501/714/633 394/717/636 505/715/634
f 394/717/636 406/712/631 506/711/630
f 507/718/637 504/716/635 505/715/634
f 508/721/640 507/718/637 509/719/638
f 502/720/639 507/718/637 508/721/640
f 508/721/640 510/722/641 506/711/630
f 510/722/641 509/719/638 505/715/634
f 25/353/329 514/725/644 555/724/643
f 514/725/644 515/730/649 553/726/645
f 516/727/646 511/732/651 562/728/647
f 516/727/646 551/729/648 553/726/645
f 512/731/650 559/734/653 562/728/647
f 512/731/650 513/735/654 557/733/652
f 513/735/654 24/810/340 76/736/339
f 323/420/386 515/743/649 514/737/644
f 333/403/371 514/737/644 25/366/329
f 331/407/374 18/797/10 24/738/340
f 328/411/377 331/407/374 513/739/654
f 326/414/380 328/411/377 512/740/650
f 326/414/380 511/741/651 516/742/646
f 324/417/383 516/742/646 515/743/649
f 524/744/655 525/745/656 520/410/376
f 525/745/656 63/811/345 62/409/13
f 64/375/346 526/746/657 519/405/373
f 526/746/657 527/747/658 518/421/387
f 527/747/658 528/748/659 517/419/385
f 528/748/659 523/749/660 522/416/382
f 523/749/660 524/744/655 521/413/379
f 533/750/661 524/744/655 523/749/660
f 534/751/662 523/749/660 528/748/659
f 529/752/663 528/748/659 527/747/658
f 531/754/665 530/753/664 527/747/658
f 65/385/356 531/754/665 526/746/657
f 66/755/358 63/811/345 525/745/656
f 532/756/666 525/745/656 524/744/655
f 341/454/418 530/753/664 531/754/665
f 338/757/667 533/750/661 534/751/662
f 342/449/413 529/752/663 530/753/664
f 339/758/668 532/756/666 533/750/661
f 342/449/413 337/456/420 534/751/662
f 1/759/361 66/755/358 532/756/666
f 340/452/416 531/754/665 65/385/356
f 68/760/362 1/759/361 339/758/668
f 536/761/669 339/758/668 338/757/667
f 361/459/423 362/762/670 536/761/669
f 362/762/670 6/812/365 68/760/362
f 7/395/366 363/763/671 535/453/417
f 363/763/671 364/458/422 348/451/415
f 549/435/400 550/438/403 539/431/396
f 549/435/400 547/444/408 548/429/394
f 547/444/408 545/446/410 546/427/392
f 545/446/410 71/51/51 72/26/26
f 70/422/24 543/424/389 544/442/406
f 543/424/389 541/440/405 542/437/402
f 540/433/398 539/431/396 542/437/402
f 560/430/395 561/432/397 562/728/647
f 560/430/395 559/734/653 557/733/652
f 558/436/401 557/733/652 76/736/339
f 74/28/28 73/351/327 555/724/643
f 554/426/391 556/425/390 555/724/643
f 552/428/393 554/426/391 553/726/645
f 561/432/397 552/428/393 551/729/648
f 564/570/514 77/804/169 5/558/160
f 563/475/437 357/472/434 351/474/436
