# Blender 5.1.2
# www.blender.org
mtllib White_bishop.mtl
o bishop_white_low
v 0.498940 0.216886 1.033718
v 0.449329 0.216886 1.022395
v 0.538725 0.216886 1.065445
v 0.560804 0.216886 1.111292
v 0.560805 0.216886 1.162178
v 0.538726 0.216886 1.208026
v 0.498942 0.216886 1.239754
v 0.449331 0.216886 1.251077
v 0.491814 0.176938 1.048515
v 0.449329 0.176938 1.038818
v 0.525885 0.176938 1.075685
v 0.544793 0.176938 1.114946
v 0.544793 0.176938 1.158524
v 0.525886 0.176938 1.197786
v 0.491816 0.176938 1.224957
v 0.449331 0.176938 1.234654
v 0.501871 0.206584 1.027631
v 0.449329 0.206584 1.015639
v 0.544007 0.206584 1.061232
v 0.567391 0.206584 1.109788
v 0.567391 0.206584 1.163682
v 0.544008 0.206584 1.212238
v 0.449331 0.224955 1.234356
v 0.501873 0.206584 1.245840
v 0.489944 0.224955 1.224688
v 0.449331 0.206584 1.257833
v 0.523910 0.224955 1.197601
v 0.542760 0.224955 1.158458
v 0.542760 0.224955 1.115013
v 0.523909 0.224955 1.075870
v 0.449329 0.224955 1.039116
v 0.489942 0.224955 1.048783
v 0.501871 0.197463 1.027631
v 0.498894 0.187585 1.033814
v 0.449329 0.187585 1.022501
v 0.449329 0.197463 1.015639
v 0.544007 0.197463 1.061232
v 0.538642 0.187585 1.065511
v 0.567391 0.197463 1.109788
v 0.560700 0.187585 1.111315
v 0.567391 0.197463 1.163682
v 0.560701 0.187585 1.162155
v 0.544008 0.197463 1.212238
v 0.538643 0.187585 1.207959
v 0.501873 0.197463 1.245840
v 0.498895 0.187585 1.239658
v 0.449331 0.197463 1.257833
v 0.449331 0.187585 1.250971
v 0.500564 0.164910 1.030346
v 0.504477 0.157732 1.022219
v 0.449329 0.157732 1.009632
v 0.449329 0.164910 1.018652
v 0.541651 0.164910 1.063111
v 0.548703 0.157732 1.057487
v 0.564453 0.164910 1.110459
v 0.573247 0.157732 1.108452
v 0.564453 0.164910 1.163011
v 0.573247 0.157732 1.165018
v 0.541652 0.164910 1.210359
v 0.548704 0.157732 1.215983
v 0.500566 0.164910 1.243125
v 0.504479 0.157732 1.251252
v 0.449331 0.164910 1.254820
v 0.449331 0.157732 1.263840
v 0.504477 0.149738 1.022219
v 0.500214 0.141954 1.031072
v 0.449329 0.141954 1.019459
v 0.449329 0.149738 1.009632
v 0.548703 0.149738 1.057487
v 0.541021 0.141954 1.063614
v 0.573247 0.149738 1.108452
v 0.563667 0.141954 1.110638
v 0.573247 0.149738 1.165018
v 0.563667 0.141954 1.162832
v 0.548704 0.149738 1.215983
v 0.541022 0.141954 1.209857
v 0.504479 0.149738 1.251252
v 0.500216 0.141954 1.242399
v 0.449331 0.149738 1.263840
v 0.449331 0.141954 1.254013
v 0.449330 0.141954 1.136736
v 0.449331 0.235033 1.225204
v 0.487716 0.235033 1.216443
v 0.518498 0.235033 1.191895
v 0.535581 0.235033 1.156421
v 0.535580 0.235033 1.117049
v 0.518497 0.235033 1.081576
v 0.449329 0.235033 1.048267
v 0.487715 0.235033 1.057028
v 0.449330 0.311517 1.186072
v 0.470737 0.311517 1.181186
v 0.487903 0.311517 1.167496
v 0.497430 0.311517 1.147714
v 0.497429 0.311517 1.125757
v 0.487903 0.311517 1.105975
v 0.449330 0.311517 1.087400
v 0.470736 0.311517 1.092285
v 0.415149 0.239829 1.065759
v 0.387738 0.239829 1.087619
v 0.372526 0.239829 1.119207
v 0.372527 0.239829 1.154266
v 0.387739 0.239829 1.185854
v 0.415150 0.239829 1.207713
v 0.483510 0.239829 1.065758
v 0.449329 0.239829 1.057957
v 0.399718 0.216886 1.033718
v 0.359934 0.216886 1.065446
v 0.337855 0.216886 1.111293
v 0.337856 0.216886 1.162180
v 0.359935 0.216886 1.208027
v 0.399720 0.216886 1.239754
v 0.406844 0.176938 1.048515
v 0.372774 0.176938 1.075686
v 0.353867 0.176938 1.114948
v 0.353867 0.176938 1.158525
v 0.372775 0.176938 1.197787
v 0.406846 0.176938 1.224957
v 0.396787 0.206584 1.027631
v 0.354652 0.206584 1.061234
v 0.331269 0.206584 1.109790
v 0.331269 0.206584 1.163684
v 0.354653 0.206584 1.212240
v 0.396789 0.206584 1.245841
v 0.408718 0.224955 1.224689
v 0.374751 0.224955 1.197602
v 0.355901 0.224955 1.158459
v 0.355900 0.224955 1.115014
v 0.374750 0.224955 1.075871
v 0.408716 0.224955 1.048784
v 0.396787 0.197463 1.027631
v 0.399765 0.187585 1.033814
v 0.354652 0.197463 1.061234
v 0.360017 0.187585 1.065512
v 0.331269 0.197463 1.109790
v 0.337959 0.187585 1.111317
v 0.331269 0.197463 1.163684
v 0.337960 0.187585 1.162156
v 0.354653 0.197463 1.212240
v 0.360018 0.187585 1.207961
v 0.396789 0.197463 1.245841
v 0.399766 0.187585 1.239658
v 0.398095 0.164910 1.030347
v 0.394181 0.157732 1.022220
v 0.357008 0.164910 1.063113
v 0.349956 0.157732 1.057489
v 0.334207 0.164910 1.110461
v 0.325413 0.157732 1.108454
v 0.334207 0.164910 1.163013
v 0.325413 0.157732 1.165020
v 0.357009 0.164910 1.210361
v 0.349957 0.157732 1.215985
v 0.398096 0.164910 1.243126
v 0.394183 0.157732 1.251253
v 0.394181 0.149738 1.022220
v 0.398445 0.141954 1.031073
v 0.349956 0.149738 1.057489
v 0.357638 0.141954 1.063615
v 0.325413 0.149738 1.108454
v 0.334993 0.141954 1.110640
v 0.325413 0.149738 1.165020
v 0.334993 0.141954 1.162834
v 0.349957 0.149738 1.215985
v 0.357640 0.141954 1.209858
v 0.394183 0.149738 1.251253
v 0.398446 0.141954 1.242400
v 0.410946 0.235033 1.216444
v 0.380163 0.235033 1.191896
v 0.363080 0.235033 1.156423
v 0.363080 0.235033 1.117051
v 0.380162 0.235033 1.081577
v 0.410944 0.235033 1.057029
v 0.427924 0.311517 1.181187
v 0.410758 0.311517 1.167497
v 0.401231 0.311517 1.147715
v 0.401231 0.311517 1.125758
v 0.410757 0.311517 1.105976
v 0.427924 0.311517 1.092286
v 0.510921 0.239829 1.087618
v 0.526134 0.239829 1.119205
v 0.526134 0.239829 1.154265
v 0.510922 0.239829 1.185853
v 0.483511 0.239829 1.207713
v 0.449331 0.239829 1.215515
v 0.449330 0.352787 1.179128
v 0.467724 0.352787 1.174930
v 0.482474 0.352787 1.163167
v 0.490660 0.352787 1.146169
v 0.490660 0.352787 1.127302
v 0.482474 0.352787 1.110304
v 0.449330 0.352787 1.094344
v 0.467723 0.352787 1.098542
v 0.430937 0.352787 1.174930
v 0.416187 0.352787 1.163167
v 0.408001 0.352787 1.146169
v 0.408001 0.352787 1.127303
v 0.416186 0.352787 1.110305
v 0.430936 0.352787 1.098542
v 0.507021 0.273865 1.149903
v 0.507021 0.273865 1.123568
v 0.391639 0.273865 1.123569
v 0.391640 0.273865 1.149904
v 0.495595 0.273865 1.173630
v 0.403066 0.273865 1.173631
v 0.475005 0.273865 1.190050
v 0.449330 0.273865 1.077562
v 0.423655 0.273865 1.083422
v 0.423656 0.273865 1.190050
v 0.449331 0.273865 1.195910
v 0.475004 0.273865 1.083422
v 0.495594 0.273865 1.099841
v 0.403065 0.273865 1.099842
v 0.449330 0.399185 1.179128
v 0.467724 0.399185 1.174930
v 0.482474 0.399185 1.163167
v 0.490660 0.399185 1.146169
v 0.490660 0.399185 1.127302
v 0.482474 0.399185 1.110304
v 0.449330 0.399185 1.094344
v 0.467723 0.399185 1.098542
v 0.430937 0.399185 1.174930
v 0.416187 0.399185 1.163167
v 0.408001 0.399185 1.146169
v 0.408001 0.399185 1.127303
v 0.416186 0.399185 1.110305
v 0.430936 0.399185 1.098542
v 0.449330 0.429320 1.182961
v 0.469387 0.429320 1.178383
v 0.485470 0.429320 1.165556
v 0.494396 0.429320 1.147022
v 0.494396 0.429320 1.126450
v 0.485470 0.429320 1.107915
v 0.449330 0.429320 1.090511
v 0.469386 0.429320 1.095089
v 0.429274 0.429320 1.178383
v 0.413190 0.429320 1.165557
v 0.404264 0.429320 1.147022
v 0.404264 0.429320 1.126450
v 0.413190 0.429320 1.107916
v 0.429274 0.429320 1.095089
v 0.449330 0.445710 1.181491
v 0.468749 0.445710 1.177058
v 0.484321 0.445710 1.164640
v 0.492963 0.445710 1.146694
v 0.492963 0.445710 1.126777
v 0.484321 0.445710 1.108832
v 0.449330 0.445710 1.091981
v 0.468748 0.445710 1.096413
v 0.429912 0.445710 1.177059
v 0.414340 0.445710 1.164640
v 0.405697 0.445710 1.146695
v 0.405697 0.445710 1.126777
v 0.414339 0.445710 1.108832
v 0.429911 0.445710 1.096413
v 0.449331 0.435281 1.213089
v 0.449331 0.430198 1.207876
v 0.449331 0.431686 1.211562
v 0.480197 0.430198 1.200830
v 0.482459 0.435281 1.205528
v 0.481797 0.431686 1.204152
v 0.504950 0.430198 1.181090
v 0.509026 0.435281 1.184341
v 0.507832 0.431686 1.183389
v 0.518686 0.430198 1.152565
v 0.523769 0.435281 1.153726
v 0.522281 0.431686 1.153386
v 0.518686 0.430198 1.120905
v 0.523769 0.435281 1.119745
v 0.522280 0.431686 1.120085
v 0.504949 0.430198 1.092381
v 0.509025 0.435281 1.089130
v 0.507831 0.431686 1.090082
v 0.449330 0.430198 1.065596
v 0.449329 0.435281 1.060382
v 0.449329 0.431686 1.061910
v 0.480196 0.430198 1.072641
v 0.482458 0.435281 1.067944
v 0.481795 0.431686 1.069319
v 0.416202 0.435281 1.205528
v 0.418464 0.430198 1.200831
v 0.416865 0.431686 1.204152
v 0.389635 0.435281 1.184342
v 0.393711 0.430198 1.181091
v 0.390829 0.431686 1.183390
v 0.374891 0.435281 1.153727
v 0.379974 0.430198 1.152567
v 0.376380 0.431686 1.153387
v 0.374891 0.435281 1.119746
v 0.379974 0.430198 1.120906
v 0.376380 0.431686 1.120086
v 0.389634 0.435281 1.089131
v 0.393710 0.430198 1.092381
v 0.390828 0.431686 1.090083
v 0.416201 0.435281 1.067944
v 0.418463 0.430198 1.072641
v 0.416864 0.431686 1.069320
v 0.449331 0.444832 1.207876
v 0.449331 0.439749 1.213089
v 0.449331 0.443344 1.211562
v 0.482459 0.439749 1.205528
v 0.480197 0.444832 1.200830
v 0.481797 0.443344 1.204152
v 0.509026 0.439749 1.184341
v 0.504950 0.444832 1.181090
v 0.507832 0.443344 1.183389
v 0.523769 0.439749 1.153726
v 0.518686 0.444832 1.152565
v 0.522281 0.443344 1.153386
v 0.523769 0.439749 1.119745
v 0.518686 0.444832 1.120905
v 0.522280 0.443344 1.120085
v 0.509025 0.439749 1.089130
v 0.504949 0.444832 1.092381
v 0.507831 0.443344 1.090082
v 0.449329 0.439749 1.060382
v 0.449330 0.444832 1.065596
v 0.449329 0.443344 1.061910
v 0.482458 0.439749 1.067944
v 0.480196 0.444832 1.072641
v 0.481795 0.443344 1.069319
v 0.418464 0.444832 1.200831
v 0.416202 0.439749 1.205528
v 0.416865 0.443344 1.204152
v 0.393711 0.444832 1.181091
v 0.389635 0.439749 1.184342
v 0.390829 0.443344 1.183390
v 0.379974 0.444832 1.152567
v 0.374891 0.439749 1.153727
v 0.376380 0.443344 1.153387
v 0.379974 0.444832 1.120906
v 0.374891 0.439749 1.119746
v 0.376380 0.443344 1.120086
v 0.393710 0.444832 1.092381
v 0.389634 0.439749 1.089131
v 0.390828 0.443344 1.090083
v 0.418463 0.444832 1.072641
v 0.416201 0.439749 1.067944
v 0.416864 0.443344 1.069320
v 0.406239 0.451734 1.102372
v 0.395596 0.451734 1.124472
v 0.395596 0.451734 1.149001
v 0.406239 0.451734 1.171100
v 0.425416 0.451734 1.087078
v 0.449330 0.451734 1.081620
v 0.473244 0.451734 1.087078
v 0.492421 0.451734 1.102371
v 0.503064 0.451734 1.124471
v 0.503064 0.451734 1.149000
v 0.492422 0.451734 1.171100
v 0.473244 0.451734 1.186393
v 0.449331 0.451734 1.191852
v 0.425417 0.451734 1.186394
v 0.449330 0.464985 1.180836
v 0.449331 0.456374 1.191852
v 0.473244 0.456374 1.186393
v 0.468465 0.464985 1.176468
v 0.492422 0.456374 1.171100
v 0.483809 0.464985 1.164231
v 0.503064 0.456374 1.149000
v 0.492324 0.464985 1.146549
v 0.503064 0.456374 1.124471
v 0.492324 0.464985 1.126922
v 0.492421 0.456374 1.102371
v 0.483808 0.464985 1.109240
v 0.449330 0.456374 1.081620
v 0.449330 0.464985 1.092636
v 0.473244 0.456374 1.087078
v 0.468464 0.464985 1.097003
v 0.430196 0.464985 1.176469
v 0.425417 0.456374 1.186394
v 0.414852 0.464985 1.164232
v 0.406239 0.456374 1.171100
v 0.406336 0.464985 1.146549
v 0.395596 0.456374 1.149001
v 0.406336 0.464985 1.126923
v 0.395596 0.456374 1.124472
v 0.414851 0.464985 1.109240
v 0.406239 0.456374 1.102372
v 0.430196 0.464985 1.097004
v 0.425416 0.456374 1.087078
v 0.449330 0.448547 1.083227
v 0.491165 0.448547 1.103373
v 0.501498 0.448547 1.148643
v 0.472547 0.448547 1.184946
v 0.491166 0.448547 1.170098
v 0.501498 0.448547 1.124829
v 0.449330 0.448547 1.190245
v 0.426113 0.448547 1.088526
v 0.472547 0.448547 1.088525
v 0.426114 0.448547 1.184946
v 0.407495 0.448547 1.170099
v 0.397162 0.448547 1.148643
v 0.397162 0.448547 1.124829
v 0.407495 0.448547 1.103374
v 0.472413 0.459845 1.184666
v 0.449330 0.459845 1.189935
v 0.490923 0.459845 1.169905
v 0.501195 0.459845 1.148573
v 0.501195 0.459845 1.124898
v 0.490922 0.459845 1.103567
v 0.472412 0.459845 1.088805
v 0.449330 0.459845 1.083537
v 0.426248 0.459845 1.184667
v 0.407738 0.459845 1.169905
v 0.397465 0.459845 1.148574
v 0.397465 0.459845 1.124898
v 0.407737 0.459845 1.103567
v 0.426248 0.459845 1.088806
v 0.468465 0.471799 1.176468
v 0.449330 0.471799 1.180836
v 0.483809 0.471799 1.164231
v 0.492324 0.471799 1.146549
v 0.492324 0.471799 1.126922
v 0.483808 0.471799 1.109240
v 0.468464 0.471799 1.097003
v 0.449330 0.471799 1.092636
v 0.430196 0.471799 1.176469
v 0.414852 0.471799 1.164232
v 0.406336 0.471799 1.146549
v 0.406336 0.471799 1.126923
v 0.414851 0.471799 1.109240
v 0.430196 0.471799 1.097004
v 0.468465 0.475479 1.176468
v 0.449330 0.475479 1.180836
v 0.483809 0.475479 1.164231
v 0.492324 0.475479 1.146549
v 0.492324 0.475479 1.126922
v 0.483808 0.475479 1.109240
v 0.468464 0.475479 1.097003
v 0.449330 0.475479 1.092636
v 0.430196 0.475479 1.176469
v 0.414852 0.475479 1.164232
v 0.406336 0.475479 1.146549
v 0.406336 0.475479 1.126923
v 0.414851 0.475479 1.109240
v 0.430196 0.475479 1.097004
v 0.449330 0.473639 1.185630
v 0.428116 0.473639 1.180788
v 0.470545 0.473639 1.180788
v 0.411103 0.473639 1.167221
v 0.487558 0.473639 1.167221
v 0.401662 0.473639 1.147616
v 0.496999 0.473639 1.147616
v 0.401662 0.473639 1.125856
v 0.496999 0.473639 1.125856
v 0.411103 0.473639 1.106251
v 0.487557 0.473639 1.106251
v 0.428115 0.473639 1.092684
v 0.470544 0.473639 1.092683
v 0.449330 0.473639 1.087842
v 0.420568 0.530819 1.196462
v 0.449331 0.530819 1.203026
v 0.478093 0.530819 1.196461
v 0.397503 0.530819 1.178068
v 0.501158 0.530819 1.178067
v 0.384702 0.530819 1.151487
v 0.513958 0.530819 1.151486
v 0.384702 0.530819 1.121985
v 0.513958 0.530819 1.121984
v 0.397502 0.530819 1.095405
v 0.501158 0.530819 1.095404
v 0.420567 0.530819 1.077011
v 0.478092 0.530819 1.077010
v 0.449330 0.530819 1.070446
v 0.428486 0.586159 1.093454
v 0.411771 0.586159 1.106784
v 0.402495 0.586159 1.126047
v 0.402495 0.586159 1.147426
v 0.411772 0.586159 1.166688
v 0.428487 0.586159 1.180018
v 0.449330 0.586159 1.088697
v 0.470173 0.586159 1.093454
v 0.486888 0.586159 1.106784
v 0.496165 0.586159 1.126046
v 0.496165 0.586159 1.147425
v 0.486889 0.586159 1.166688
v 0.449330 0.586159 1.184775
v 0.509596 0.499850 1.122980
v 0.476151 0.499850 1.192430
v 0.497659 0.499850 1.098194
v 0.497660 0.499850 1.175277
v 0.476151 0.499850 1.081042
v 0.509596 0.499850 1.150491
v 0.449331 0.499850 1.198552
v 0.449330 0.499850 1.074920
v 0.422509 0.499850 1.081042
v 0.401000 0.499850 1.098195
v 0.389064 0.499850 1.122981
v 0.389064 0.499850 1.150492
v 0.401001 0.499850 1.175278
v 0.422510 0.499850 1.192430
v 0.402189 0.561789 1.099143
v 0.423170 0.561789 1.191060
v 0.402190 0.561789 1.174330
v 0.423169 0.561789 1.082412
v 0.390547 0.561789 1.150153
v 0.449330 0.561789 1.076441
v 0.390547 0.561789 1.123320
v 0.475491 0.561789 1.082412
v 0.496470 0.561789 1.099142
v 0.508113 0.561789 1.123319
v 0.508113 0.561789 1.150152
v 0.496471 0.561789 1.174329
v 0.475491 0.561789 1.191060
v 0.449331 0.561789 1.197031
v 0.439820 0.606018 1.116988
v 0.449330 0.606018 1.114818
v 0.432194 0.606018 1.123070
v 0.427961 0.606018 1.131859
v 0.427961 0.606018 1.141613
v 0.432194 0.606018 1.150402
v 0.439820 0.606018 1.156484
v 0.449330 0.606018 1.158654
v 0.458840 0.606018 1.116988
v 0.458840 0.606018 1.156484
v 0.444567 0.609652 1.126845
v 0.449330 0.609652 1.125758
v 0.440747 0.609652 1.129891
v 0.438627 0.609652 1.134293
v 0.438627 0.609652 1.139179
v 0.440747 0.609652 1.143581
v 0.444567 0.609652 1.146627
v 0.449330 0.609652 1.147714
v 0.454093 0.609652 1.126845
v 0.457913 0.609652 1.129891
v 0.460033 0.609652 1.134293
v 0.460033 0.609652 1.139179
v 0.457913 0.609652 1.143581
v 0.454093 0.609652 1.146627
v 0.442723 0.626476 1.123017
v 0.449330 0.626476 1.121509
v 0.437425 0.626476 1.127242
v 0.434485 0.626476 1.133348
v 0.434485 0.626476 1.140124
v 0.437425 0.626476 1.146230
v 0.442724 0.626476 1.150455
v 0.449330 0.626476 1.151963
v 0.455937 0.626476 1.123017
v 0.461235 0.626476 1.127242
v 0.464175 0.626476 1.133348
v 0.464175 0.626476 1.140124
v 0.461235 0.626476 1.146230
v 0.455937 0.626476 1.150455
v 0.470476 0.606817 1.132394
v 0.470476 0.606018 1.145763
v 0.470476 0.606740 1.141129
v 0.470476 0.530819 1.074445
v 0.470476 0.561789 1.080476
v 0.470476 0.590862 1.099026
v 0.470476 0.603681 1.152318
v 0.470476 0.606018 1.126683
v 0.470477 0.586159 1.180151
v 0.470476 0.604450 1.121784
v 0.470477 0.561789 1.192334
v 0.470477 0.530819 1.198655
v 0.465111 0.596274 1.105440
v 0.465111 0.607929 1.133139
v 0.465111 0.586159 1.180888
v 0.465111 0.561789 1.193069
v 0.465111 0.607870 1.140373
v 0.465111 0.592576 1.172504
v 0.465111 0.606018 1.151427
v 0.465111 0.606569 1.149368
v 0.465111 0.586159 1.092057
v 0.465111 0.530819 1.073699
v 0.465110 0.561789 1.079729
v 0.465111 0.606018 1.121931
v 0.465111 0.530819 1.199332
v 0.465111 0.606620 1.124200
v 0.449330 0.626476 1.136736
vn 0.9372 0.2756 0.2139
vn 0.9338 -0.2875 -0.2131
vn 0.9372 0.2756 -0.2139
vn 0.7515 0.2756 0.5993
vn 0.9338 -0.2875 0.2131
vn 0.4171 0.2756 0.8661
vn 0.7488 -0.2875 0.5972
vn 0.3082 -0.7039 -0.6399
vn -0.0000 0.0231 -0.9997
vn -0.0000 -0.7039 -0.7103
vn -0.0000 0.2756 0.9613
vn 0.4156 -0.2875 0.8629
vn 0.7488 -0.2875 -0.5972
vn 0.7515 0.2756 -0.5993
vn 0.4156 -0.2875 -0.8629
vn 0.4171 0.2756 -0.8661
vn 0.2942 0.7385 -0.6066
vn 0.5247 0.7423 -0.4168
vn 0.6513 0.7442 -0.1482
vn 0.6513 0.7442 0.1482
vn 0.5247 0.7423 0.4168
vn 0.2942 0.7385 0.6066
vn -0.0000 0.7341 0.6790
vn 0.5553 -0.7039 -0.4429
vn 0.4338 0.0231 -0.9007
vn 0.6925 -0.7039 0.1580
vn 0.9747 0.0231 -0.2225
vn 0.6925 -0.7039 -0.1581
vn 0.7816 0.0231 0.6233
vn 0.9747 0.0231 0.2225
vn 0.3082 -0.7039 0.6399
vn 0.5553 -0.7039 0.4428
vn -0.0000 0.0231 0.9997
vn 0.4338 0.0231 0.9007
vn 0.7816 0.0231 -0.6233
vn -0.0000 0.7341 -0.6790
vn 0.1775 0.9072 -0.3814
vn 0.1775 0.9072 0.3814
vn -0.0000 0.9006 0.4346
vn 0.3163 0.9131 0.2572
vn 0.3909 0.9160 0.0906
vn 0.3909 0.9160 -0.0906
vn 0.3163 0.9131 -0.2573
vn -0.0000 -0.7039 0.7103
vn -0.0000 -0.2875 -0.9578
vn -0.0000 0.2756 -0.9613
vn 0.3954 0.4119 0.8210
vn 0.7121 -0.4128 0.5679
vn 0.7124 0.4119 0.5681
vn -0.0000 0.4119 0.9112
vn 0.3952 -0.4128 0.8206
vn 0.8884 0.4119 -0.2028
vn 0.7121 -0.4128 -0.5679
vn 0.7124 0.4119 -0.5681
vn 0.3952 -0.4128 -0.8206
vn 0.3954 0.4119 -0.8210
vn 0.8884 0.4119 0.2028
vn 0.8880 -0.4129 -0.2027
vn 0.8880 -0.4128 0.2027
vn 0.2495 0.8181 0.5182
vn 0.4497 0.8181 0.3586
vn -0.0000 0.8181 -0.5751
vn 0.2495 0.8181 -0.5182
vn 0.4497 0.8181 -0.3586
vn 0.5607 0.8181 -0.1280
vn 0.5607 0.8181 0.1280
vn -0.0000 0.8181 0.5751
vn 0.1602 -0.9293 -0.3327
vn -0.0000 -0.4128 -0.9108
vn 0.2887 -0.9293 -0.2302
vn 0.3600 -0.9293 -0.0822
vn 0.3600 -0.9293 0.0822
vn 0.2887 -0.9293 0.2302
vn 0.1602 -0.9293 0.3327
vn -0.0000 -0.9293 0.3693
vn -0.0000 0.4119 -0.9112
vn -0.0000 -1.0000 -0.0000
vn -0.0000 -0.9293 -0.3693
vn 0.7831 0.5947 0.1819
vn 0.5139 0.7579 0.4019
vn 0.6130 0.6121 0.4996
vn 0.6129 0.6121 -0.4996
vn 0.2843 0.7703 -0.5708
vn 0.5139 0.7579 -0.4019
vn 0.3227 0.6429 0.6947
vn -0.0000 0.7842 0.6205
vn -0.0000 0.6723 0.7403
vn 0.7831 0.5947 -0.1820
vn 0.6447 0.7506 0.1448
vn 0.2843 0.7703 0.5708
vn 0.3227 0.6429 -0.6947
vn -0.0000 0.7842 -0.6205
vn 0.6447 0.7506 -0.1448
vn -0.2843 0.7703 -0.5708
vn -0.0000 0.8962 -0.4437
vn 0.4325 0.8962 0.0987
vn -0.5139 0.7579 -0.4019
vn -0.1925 0.8962 -0.3997
vn 0.3469 0.8962 0.2766
vn -0.6447 0.7506 -0.1448
vn -0.3469 0.8962 -0.2766
vn 0.1925 0.8962 0.3997
vn -0.4325 0.8962 0.0987
vn -0.4325 0.8962 -0.0987
vn 0.8448 0.4991 -0.1928
vn 0.8993 0.3861 0.2053
vn 0.8448 0.4991 0.1928
vn -0.7212 0.3861 -0.5751
vn -0.9530 0.2109 -0.2175
vn -0.7643 0.2109 -0.6095
vn 0.8993 0.3861 -0.2053
vn 0.7642 0.2109 -0.6095
vn 0.9530 0.2109 -0.2175
vn -0.4002 0.3861 -0.8311
vn -0.4241 0.2109 -0.8807
vn 0.4002 0.3861 -0.8311
vn 0.7212 0.3861 -0.5751
vn -0.0000 0.3861 -0.9224
vn 0.4241 0.2109 -0.8807
vn -0.0000 0.3861 0.9224
vn -0.4241 0.2109 0.8807
vn -0.4002 0.3861 0.8311
vn -0.9338 -0.2875 -0.2131
vn -0.9372 0.2756 0.2139
vn -0.9372 0.2756 -0.2139
vn -0.9338 -0.2875 0.2131
vn -0.7515 0.2756 0.5993
vn -0.7488 -0.2875 0.5972
vn -0.4171 0.2756 0.8661
vn -0.4338 0.0231 -0.9007
vn -0.3082 -0.7039 -0.6399
vn -0.4156 -0.2875 0.8629
vn -0.7488 -0.2875 -0.5972
vn -0.7515 0.2756 -0.5993
vn -0.4156 -0.2875 -0.8629
vn -0.4171 0.2756 -0.8661
vn -0.5247 0.7423 -0.4168
vn -0.6513 0.7442 -0.1482
vn -0.6513 0.7442 0.1482
vn -0.5247 0.7423 0.4168
vn -0.2942 0.7385 0.6066
vn -0.7816 0.0231 -0.6233
vn -0.5553 -0.7039 -0.4429
vn -0.9747 0.0231 -0.2225
vn -0.6925 -0.7039 0.1581
vn -0.6925 -0.7039 -0.1580
vn -0.9747 0.0231 0.2225
vn -0.5553 -0.7039 0.4429
vn -0.7816 0.0231 0.6233
vn -0.3082 -0.7039 0.6399
vn -0.4338 0.0231 0.9007
vn -0.1775 0.9072 -0.3814
vn -0.2942 0.7385 -0.6066
vn -0.1775 0.9072 0.3814
vn -0.3163 0.9131 0.2573
vn -0.3909 0.9160 0.0906
vn -0.3909 0.9160 -0.0906
vn -0.3163 0.9131 -0.2572
vn -0.0000 -0.2875 0.9578
vn -0.7121 -0.4128 0.5679
vn -0.3954 0.4119 0.8210
vn -0.7124 0.4119 0.5681
vn -0.3952 -0.4128 0.8206
vn -0.7121 -0.4128 -0.5679
vn -0.8884 0.4119 -0.2028
vn -0.7124 0.4119 -0.5681
vn -0.3952 -0.4128 -0.8206
vn -0.3954 0.4119 -0.8210
vn -0.8880 -0.4128 -0.2027
vn -0.8884 0.4119 0.2028
vn -0.8880 -0.4128 0.2027
vn -0.4497 0.8181 0.3586
vn -0.2495 0.8181 -0.5182
vn -0.4497 0.8181 -0.3586
vn -0.5607 0.8181 -0.1280
vn -0.5607 0.8181 0.1280
vn -0.2495 0.8181 0.5182
vn -0.1602 -0.9293 -0.3327
vn -0.2887 -0.9293 -0.2302
vn -0.3600 -0.9293 -0.0822
vn -0.3600 -0.9293 0.0822
vn -0.2887 -0.9293 0.2302
vn -0.1602 -0.9293 0.3327
vn -0.0000 -0.4128 0.9108
vn -0.5139 0.7579 0.4019
vn -0.7831 0.5947 0.1820
vn -0.6129 0.6121 0.4996
vn -0.6130 0.6121 -0.4996
vn -0.3227 0.6429 -0.6947
vn -0.3227 0.6429 0.6947
vn -0.6447 0.7506 0.1448
vn -0.7831 0.5947 -0.1819
vn -0.2843 0.7703 0.5708
vn -0.0000 0.6723 -0.7403
vn -0.0000 0.8962 0.4437
vn 0.1925 0.8962 -0.3997
vn -0.3469 0.8962 0.2766
vn 0.3469 0.8962 -0.2766
vn -0.1925 0.8962 0.3997
vn 0.4325 0.8962 -0.0987
vn 0.4002 0.3861 0.8311
vn -0.0000 0.2109 0.9775
vn -0.7642 0.2109 0.6095
vn -0.7212 0.3861 0.5751
vn -0.0000 0.2109 -0.9775
vn 0.7212 0.3861 0.5751
vn 0.4241 0.2109 0.8807
vn -0.9530 0.2109 0.2175
vn -0.8993 0.3861 0.2053
vn 0.7643 0.2109 0.6095
vn -0.8993 0.3861 -0.2053
vn 0.9715 0.0842 0.2217
vn 0.7791 0.0842 0.6213
vn -0.4324 0.0842 -0.8978
vn 0.9530 0.2109 0.2175
vn 0.9715 0.0842 -0.2217
vn -0.0000 0.0842 -0.9964
vn 0.4323 0.0842 -0.8978
vn 0.7790 0.0842 -0.6213
vn -0.0000 0.0842 0.9964
vn -0.4323 0.0842 0.8978
vn -0.7790 0.0842 0.6213
vn -0.9715 0.0842 0.2217
vn -0.9715 0.0842 -0.2217
vn 0.4323 0.0842 0.8978
vn -0.7791 0.0842 -0.6213
vn -0.4330 -0.0638 -0.8991
vn -0.6775 0.4991 -0.5403
vn -0.3760 0.4991 -0.7807
vn 0.6775 0.4991 -0.5403
vn -0.0000 0.4991 -0.8665
vn 0.3760 0.4991 -0.7807
vn -0.0000 0.4991 0.8665
vn -0.3760 0.4991 0.7807
vn 0.3760 0.4991 0.7807
vn -0.6775 0.4991 0.5403
vn -0.8448 0.4991 0.1928
vn 0.6775 0.4991 0.5403
vn -0.8448 0.4991 -0.1928
vn 0.7802 -0.0638 -0.6222
vn -0.0000 -0.0638 -0.9980
vn 0.4330 -0.0638 -0.8991
vn -0.4330 -0.0638 0.8991
vn -0.0000 -0.0638 0.9980
vn -0.7802 -0.0638 0.6222
vn 0.4330 -0.0638 0.8991
vn -0.9729 -0.0638 0.2221
vn 0.7802 -0.0638 0.6222
vn -0.9729 -0.0638 -0.2221
vn 0.9729 -0.0638 0.2221
vn -0.7802 -0.0638 -0.6222
vn 0.9729 -0.0638 -0.2221
vn 0.4304 -0.1262 0.8938
vn -0.0000 -0.1262 0.9920
vn -0.4304 -0.1262 0.8938
vn -0.7756 -0.1262 0.6185
vn 0.7756 -0.1262 0.6185
vn -0.9671 -0.1262 0.2207
vn 0.9671 -0.1262 0.2207
vn -0.9671 -0.1262 -0.2207
vn -0.7756 -0.1262 -0.6185
vn 0.9671 -0.1262 -0.2207
vn -0.4304 -0.1262 -0.8938
vn 0.7756 -0.1262 -0.6185
vn -0.0000 -0.1262 -0.9920
vn 0.4304 -0.1262 -0.8938
vn -0.9564 -0.1942 -0.2183
vn -0.7670 0.1942 -0.6116
vn -0.7670 -0.1942 -0.6116
vn 0.7669 -0.1942 -0.6116
vn 0.9564 0.1942 -0.2183
vn 0.9564 -0.1942 -0.2183
vn -0.4256 0.1942 -0.8838
vn -0.4256 -0.1942 -0.8838
vn 0.4256 -0.1942 -0.8838
vn 0.7669 0.1942 -0.6116
vn 0.1001 0.9730 0.2078
vn -0.0000 0.1638 0.9865
vn -0.0000 0.9730 0.2306
vn -0.0000 -0.1942 -0.9810
vn 0.4256 0.1942 -0.8838
vn -0.4256 -0.1942 0.8838
vn -0.7669 0.1942 0.6116
vn -0.7669 -0.1942 0.6116
vn -0.0000 0.1942 -0.9810
vn 0.0153 -0.9994 0.0317
vn -0.0000 -0.9729 0.2314
vn -0.0000 -0.9994 0.0352
vn -0.0000 -0.1942 0.9810
vn -0.4256 0.1942 0.8838
vn -0.9564 0.1942 0.2183
vn -0.9564 -0.1942 0.2183
vn 0.9564 -0.1942 0.2183
vn 0.7669 0.1942 0.6116
vn 0.7669 -0.1942 0.6116
vn -0.9564 0.1942 -0.2183
vn 0.9564 0.1942 0.2183
vn 0.0275 -0.9994 -0.0219
vn 0.2256 -0.9729 -0.0515
vn 0.0343 -0.9994 -0.0078
vn -0.0275 -0.9994 -0.0219
vn -0.1004 -0.9729 -0.2085
vn -0.0153 -0.9994 -0.0317
vn 0.1004 -0.9729 -0.2085
vn 0.1809 -0.9729 -0.1443
vn -0.0000 -0.9729 -0.2314
vn -0.0000 -0.9994 -0.0352
vn 0.0153 -0.9994 -0.0317
vn 0.4256 0.1942 0.8838
vn 0.4256 -0.1942 0.8838
vn -0.1004 -0.9729 0.2085
vn -0.0153 -0.9994 0.0317
vn -0.0275 -0.9994 0.0219
vn -0.1809 -0.9729 0.1443
vn 0.1809 -0.9729 0.1443
vn 0.1004 -0.9729 0.2085
vn -0.2256 -0.9729 0.0515
vn -0.0343 -0.9994 0.0078
vn 0.0275 -0.9994 0.0219
vn 0.2256 -0.9729 0.0515
vn -0.2256 -0.9729 -0.0515
vn -0.0343 -0.9994 -0.0078
vn 0.0343 -0.9994 0.0078
vn -0.1809 -0.9729 -0.1443
vn -0.1001 0.9730 0.2078
vn -0.7713 0.1639 0.6151
vn -0.1803 0.9730 0.1438
vn -0.0000 0.9730 -0.2306
vn -0.4280 0.1639 -0.8888
vn -0.0000 0.1638 -0.9865
vn 0.1803 0.9730 0.1438
vn 0.4280 0.1638 0.8888
vn -0.4280 0.1639 0.8888
vn -0.2248 0.9730 0.0513
vn -0.9618 0.1638 0.2195
vn 0.2248 0.9730 0.0513
vn 0.7713 0.1638 0.6151
vn -0.2248 0.9730 -0.0513
vn -0.9618 0.1638 -0.2195
vn 0.9617 0.1639 -0.2195
vn 0.9618 0.1638 0.2195
vn -0.1803 0.9730 -0.1438
vn -0.7713 0.1638 -0.6151
vn 0.2248 0.9730 -0.0513
vn 0.7713 0.1639 -0.6151
vn -0.1001 0.9730 -0.2078
vn 0.1001 0.9730 -0.2078
vn 0.1803 0.9730 -0.1438
vn 0.4280 0.1638 -0.8888
vn -0.0000 -0.6872 0.7265
vn 0.3152 -0.6872 0.6545
vn 0.5680 -0.6872 0.4529
vn 0.7082 -0.6872 -0.1617
vn 0.7082 -0.6872 0.1616
vn 0.5680 -0.6872 -0.4529
vn 0.3152 -0.6872 -0.6545
vn -0.3152 -0.6872 0.6545
vn -0.5680 -0.6872 0.4529
vn -0.7082 -0.6872 0.1617
vn -0.5680 -0.6872 -0.4529
vn -0.7082 -0.6872 -0.1616
vn -0.3152 -0.6872 -0.6545
vn -0.0000 -0.6872 -0.7265
vn -0.0000 0.6872 0.7265
vn 0.3152 0.6872 0.6545
vn 0.5680 0.6872 0.4529
vn 0.7082 0.6872 0.1616
vn 0.7082 0.6872 -0.1617
vn 0.5680 0.6872 -0.4529
vn 0.3152 0.6872 -0.6545
vn -0.0000 0.1942 0.9810
vn -0.3152 0.6872 0.6545
vn -0.7082 0.6872 0.1617
vn -0.5680 0.6872 0.4529
vn -0.5680 0.6872 -0.4529
vn -0.7082 0.6872 -0.1616
vn -0.3152 0.6872 -0.6545
vn -0.0000 0.6872 -0.7265
vn -0.9501 -0.2243 -0.2168
vn -0.7587 0.2415 -0.6050
vn -0.7619 -0.2243 -0.6076
vn 0.7619 -0.2243 -0.6076
vn 0.9461 0.2415 -0.2159
vn 0.9501 -0.2243 -0.2169
vn -0.4210 0.2415 -0.8743
vn -0.4228 -0.2243 -0.8780
vn 0.4228 -0.2243 -0.8780
vn 0.7587 0.2415 -0.6050
vn -0.0000 -0.2243 -0.9745
vn 0.4210 0.2415 -0.8743
vn -0.4228 -0.2243 0.8780
vn -0.7587 0.2415 0.6050
vn -0.7619 -0.2243 0.6076
vn -0.0000 0.2415 -0.9704
vn 0.4228 -0.2243 0.8780
vn -0.0000 0.2415 0.9704
vn -0.0000 -0.2243 0.9745
vn 0.7619 -0.2243 0.6076
vn 0.4210 0.2415 0.8743
vn -0.9461 0.2415 0.2159
vn -0.9501 -0.2243 0.2169
vn 0.9501 -0.2243 0.2168
vn 0.7587 0.2415 0.6050
vn -0.9461 0.2415 -0.2159
vn 0.9461 0.2415 0.2159
vn -0.4210 0.2415 0.8743
vn 0.5697 0.6849 0.4543
vn 0.2134 0.8707 0.4431
vn 0.3162 0.6849 0.6565
vn 0.4795 0.8707 0.1094
vn 0.7104 0.6849 0.1621
vn 0.4795 0.8707 -0.1094
vn 0.7104 0.6849 -0.1622
vn 0.5697 0.6849 -0.4543
vn 0.2134 0.8707 -0.4431
vn 0.3162 0.6849 -0.6565
vn -0.0000 0.8707 -0.4918
vn -0.0000 0.6849 -0.7287
vn -0.0000 0.6849 0.7287
vn -0.3162 0.6849 0.6565
vn -0.5697 0.6849 0.4543
vn -0.7104 0.6849 0.1621
vn -0.7104 0.6849 -0.1621
vn -0.5697 0.6849 -0.4543
vn -0.3162 0.6849 -0.6565
vn -0.5319 -0.7330 -0.4241
vn -0.4339 -0.0000 -0.9010
vn -0.0000 -0.0000 -1.0000
vn -0.0000 -0.7330 0.6803
vn -0.2951 -0.7330 0.6129
vn 0.6632 -0.7330 -0.1514
vn 0.6632 -0.7330 0.1514
vn -0.6632 -0.7330 0.1514
vn -0.6632 -0.7330 -0.1514
vn 0.5319 -0.7330 0.4241
vn 0.2952 -0.7330 0.6129
vn -0.2952 -0.7330 -0.6129
vn -0.0000 -0.7330 -0.6803
vn -0.5318 -0.7330 0.4241
vn 0.2951 -0.7330 -0.6129
vn 0.5318 -0.7330 -0.4241
vn -0.0000 0.8707 0.4918
vn -0.3845 0.8707 -0.3066
vn -0.2134 0.8707 -0.4431
vn -0.4795 0.8707 -0.1094
vn -0.4795 0.8707 0.1094
vn -0.3845 0.8707 0.3066
vn -0.2134 0.8707 0.4431
vn -0.4339 -0.0000 0.9010
vn -0.0000 0.9336 0.3583
vn -0.1555 0.9336 0.3228
vn 0.4339 -0.0000 -0.9010
vn 0.7818 -0.0000 -0.6235
vn -0.9749 -0.0000 -0.2225
vn -0.7818 -0.0000 -0.6235
vn 0.9749 -0.0000 -0.2225
vn 0.9749 -0.0000 0.2225
vn -0.7818 -0.0000 0.6235
vn -0.9749 -0.0000 0.2225
vn 0.7818 -0.0000 0.6235
vn 0.4339 -0.0000 0.9010
vn -0.0000 -0.0000 1.0000
vn 0.4982 0.5693 0.6540
vn 0.6193 0.6147 0.4885
vn 0.5402 0.7757 0.3263
vn -0.2801 0.9336 0.2234
vn 0.2801 0.9336 0.2234
vn 0.1555 0.9336 0.3228
vn -0.3493 0.9336 0.0797
vn 0.3493 0.9336 0.0797
vn -0.3493 0.9336 -0.0797
vn 0.3493 0.9336 -0.0797
vn -0.2801 0.9336 -0.2234
vn -0.1555 0.9336 -0.3228
vn 0.2801 0.9336 -0.2234
vn -0.0000 0.9336 -0.3583
vn 0.1555 0.9336 -0.3228
vn -0.0000 -0.9336 -0.3583
vn 0.1555 -0.9336 -0.3228
vn 0.2801 -0.9336 -0.2234
vn -0.2801 -0.9336 -0.2234
vn -0.1555 -0.9336 -0.3228
vn 0.3493 -0.9336 -0.0797
vn -0.3493 -0.9336 -0.0797
vn 0.3493 -0.9336 0.0797
vn -0.3493 -0.9336 0.0797
vn 0.2801 -0.9336 0.2234
vn -0.2801 -0.9336 0.2234
vn 0.1555 -0.9336 0.3228
vn -0.0000 -0.9336 0.3583
vn -0.1555 -0.9336 0.3228
vn 0.4712 0.3181 -0.8227
vn 0.3389 0.3114 -0.8878
vn 0.5159 0.5259 -0.6762
vn -0.4115 0.3169 -0.8545
vn -0.0059 0.6249 -0.7807
vn -0.0091 0.3173 -0.9483
vn 0.6280 0.6031 -0.4918
vn 0.7415 0.3169 -0.5914
vn -0.7415 0.3169 -0.5913
vn -0.3391 0.6238 -0.7042
vn 0.7704 0.6141 -0.1716
vn 0.9247 0.3169 -0.2111
vn -0.9247 0.3169 -0.2110
vn -0.6111 0.6238 -0.4873
vn 0.7684 0.6162 0.1729
vn 0.9247 0.3169 0.2110
vn -0.4039 -0.3651 -0.8388
vn -0.7816 0.0233 -0.6233
vn -0.4338 0.0233 -0.9007
vn -0.7620 0.6238 0.1739
vn -0.7620 0.6238 -0.1739
vn 0.7426 0.3157 0.5907
vn 0.4036 -0.3656 0.8387
vn 0.2192 -0.0452 0.9746
vn 0.2026 -0.0375 0.9785
vn -0.7415 0.3169 0.5914
vn -0.9247 0.3169 0.2111
vn 0.4220 0.3135 0.8507
vn -0.3391 0.6238 0.7042
vn -0.6111 0.6238 0.4873
vn 0.0088 0.3181 0.9480
vn -0.4115 0.3169 0.8545
vn -0.7278 -0.3651 0.5805
vn -0.4338 0.0233 0.9007
vn -0.7816 0.0233 0.6233
vn 0.7278 -0.3651 -0.5804
vn 0.9747 0.0233 -0.2225
vn 0.9076 -0.3651 -0.2072
vn 0.0005 -0.3647 0.9311
vn -0.4039 -0.3651 0.8388
vn -0.9076 -0.3651 -0.2071
vn -0.7279 -0.3651 -0.5804
vn 0.9076 -0.3651 0.2071
vn 0.9747 0.0233 0.2225
vn 0.6324 -0.5880 0.5043
vn 0.3510 -0.5880 0.7288
vn -0.9747 0.0233 0.2225
vn -0.9747 0.0233 -0.2225
vn 0.1894 -0.0428 -0.9810
vn 0.2503 -0.0528 -0.9667
vn 0.4053 -0.3682 -0.8368
vn 0.7279 -0.3651 0.5804
vn 0.7816 0.0233 0.6233
vn -0.0103 0.0233 -0.9997
vn -0.0018 -0.3669 -0.9302
vn -0.9076 -0.3651 0.2072
vn 0.4787 0.0218 -0.8777
vn 0.7816 0.0233 -0.6233
vn 0.4577 0.0245 0.8888
vn 0.2297 0.3239 0.9178
vn 0.0069 0.6227 0.7824
vn 0.3510 -0.5880 -0.7288
vn 0.6324 -0.5880 -0.5043
vn -0.6324 -0.5880 0.5043
vn -0.7886 -0.5880 0.1800
vn -0.3510 -0.5880 -0.7288
vn -0.0000 -0.5880 -0.8089
vn 0.7886 -0.5880 0.1800
vn -0.7886 -0.5880 -0.1800
vn -0.6324 -0.5880 -0.5043
vn -0.3509 -0.5880 0.7288
vn 0.7886 -0.5880 -0.1800
vn -0.0000 -0.5880 0.8089
vn 0.0027 0.0233 0.9997
vn -0.2102 0.8748 0.4365
vn -0.3787 0.8748 0.3020
vn 0.1712 0.7879 0.5915
vn 0.2179 0.8706 0.4411
vn 0.0012 0.8743 0.4853
vn 1.0000 -0.0000 -0.0000
vn -0.0010 0.8752 -0.4837
vn 0.4561 0.7126 -0.5331
vn 0.5575 0.7719 -0.3055
vn -0.3787 0.8748 -0.3020
vn -0.2102 0.8748 -0.4365
vn 0.5998 0.7815 -0.1718
vn 0.6175 0.7847 0.0545
vn -0.4723 0.8748 -0.1078
vn 0.5929 0.7828 0.1891
vn -0.4723 0.8748 0.1078
vn -0.7580 -0.2448 0.6045
vn -0.4207 -0.2448 0.8736
vn -0.3073 0.9490 0.0701
vn 0.2290 0.9481 0.2205
vn 0.2498 0.9481 0.1967
vn 0.1373 0.9489 0.2841
vn -0.2465 0.9490 0.1966
vn -0.0000 0.9490 0.3152
vn -0.1368 0.9490 0.2840
vn 0.2045 0.8780 -0.4329
vn -0.0000 0.9490 -0.3152
vn 0.1363 0.9491 -0.2839
vn -0.1368 0.9490 -0.2840
vn -0.0000 1.0000 -0.0000
vn -0.2465 0.9490 -0.1965
vn -0.3073 0.9490 -0.0701
vn 0.4207 -0.2448 0.8735
vn -0.0000 -0.2448 0.9696
vn -0.4207 -0.2448 0.8735
vn -0.0000 -0.2448 -0.9696
vn 0.4207 -0.2448 -0.8735
vn -0.4207 -0.2448 -0.8735
vn 0.7580 -0.2448 -0.6045
vn -0.7580 -0.2448 -0.6045
vn 0.9453 -0.2448 -0.2158
vn -0.9453 -0.2448 -0.2157
vn 0.9453 -0.2448 0.2157
vn -0.9453 -0.2448 0.2158
vn 0.7580 -0.2448 0.6045
vn 0.2368 0.3079 0.9215
vn 0.3109 0.9468 0.0836
vn 0.2555 0.9109 -0.3241
vn 0.1639 0.7949 -0.5842
vn 0.3058 0.9489 -0.0781
vn 0.2454 0.9495 -0.1957
vn 0.3063 0.9494 -0.0700
vn 0.1937 0.3229 -0.9264
vn 0.2252 0.9490 -0.2206
vn 0.2683 0.9041 0.3327
vn 0.1586 0.6480 -0.7450
vn 0.3127 0.9470 0.0739
vn -1.0000 -0.0000 -0.0000
vn -0.9988 0.0481 0.0028
vn -1.0000 -0.0005 0.0011
vn -1.0000 0.0073 0.0012
vn -1.0000 -0.0047 -0.0000
vn -0.0000 0.9006 -0.4346
vn 0.3845 0.8707 0.3066
vn 0.3845 0.8707 -0.3066
vn 0.1831 0.6433 0.7434
vn 0.6196 0.7837 -0.0429
vn 1.0000 -0.0001 -0.0000
vn 1.0000 0.0001 -0.0000
vn -1.0000 0.0027 0.0028
vn -1.0000 0.0001 -0.0000
vt 0.608262 0.683369
vt 0.582588 0.688516
vt 0.582442 0.683962
vt 0.636651 0.682250
vt 0.608418 0.687939
vt 0.286121 0.683583
vt 0.257328 0.687652
vt 0.257485 0.682405
vt 0.529771 0.696300
vt 0.502680 0.708335
vt 0.502652 0.696986
vt 0.311693 0.684372
vt 0.286025 0.688155
vt 0.556317 0.689256
vt 0.556162 0.684615
vt 0.529607 0.689993
vt 0.529475 0.685287
vt 0.529340 0.678727
vt 0.556024 0.678245
vt 0.582319 0.677720
vt 0.608066 0.677180
vt 0.635369 0.675294
vt 0.258702 0.675316
vt 0.286436 0.677447
vt 0.311840 0.678240
vt 0.556506 0.695464
vt 0.529885 0.707523
vt 0.608462 0.693919
vt 0.582983 0.705325
vt 0.582769 0.694591
vt 0.633502 0.705505
vt 0.608413 0.704188
vt 0.285964 0.694144
vt 0.260723 0.705845
vt 0.258192 0.694628
vt 0.311216 0.705521
vt 0.286030 0.704417
vt 0.556694 0.706496
vt 0.502371 0.679192
vt 0.528329 0.667675
vt 0.287940 0.667052
vt 0.312042 0.668557
vt 0.262678 0.664201
vt 0.607708 0.666322
vt 0.632691 0.664165
vt 0.581915 0.666073
vt 0.555322 0.666976
vt 0.635960 0.694370
vt 0.636788 0.687460
vt 0.311391 0.694949
vt 0.502533 0.690478
vt 0.502464 0.685714
vt 0.348567 0.233671
vt 0.325989 0.217470
vt 0.328934 0.214434
vt 0.368589 0.249395
vt 0.346094 0.236568
vt 0.639251 0.256612
vt 0.614099 0.274947
vt 0.612190 0.270819
vt 0.585533 0.285806
vt 0.584153 0.281552
vt 0.664441 0.239299
vt 0.641648 0.260523
vt 0.689413 0.217839
vt 0.667232 0.242914
vt 0.344229 0.204300
vt 0.352091 0.229655
vt 0.333788 0.211051
vt 0.378552 0.234899
vt 0.359746 0.221109
vt 0.578102 0.262308
vt 0.554349 0.282674
vt 0.551780 0.269610
vt 0.603899 0.252049
vt 0.582198 0.275538
vt 0.628816 0.238845
vt 0.609505 0.264977
vt 0.651879 0.223071
vt 0.635886 0.251085
vt 0.671993 0.204328
vt 0.660506 0.234234
vt 0.683906 0.213391
vt 0.371782 0.244751
vt 0.587772 0.292672
vt 0.556382 0.293146
vt 0.617153 0.281629
vt 0.645645 0.267136
vt 0.671580 0.248706
vt 0.692670 0.221723
vt 0.696421 0.228446
vt 0.322347 0.223120
vt 0.342263 0.241076
vt 0.362845 0.257689
vt 0.555544 0.288796
vt 0.297625 0.847727
vt 0.279759 0.870135
vt 0.239604 0.819793
vt 0.253940 0.882573
vt 0.225281 0.882576
vt 0.199459 0.870144
vt 0.181589 0.847740
vt 0.297619 0.791847
vt 0.303999 0.819786
vt 0.765341 0.439808
vt 0.748558 0.457793
vt 0.743558 0.452345
vt 0.814430 0.438351
vt 0.831200 0.454876
vt 0.811672 0.445079
vt 0.760494 0.567503
vt 0.782170 0.568671
vt 0.780747 0.575625
vt 0.789887 0.434918
vt 0.768107 0.446453
vt 0.743178 0.552594
vt 0.763355 0.561187
vt 0.836332 0.449471
vt 0.846280 0.470624
vt 0.789906 0.442200
vt 0.854933 0.490405
vt 0.841267 0.473977
vt 0.770302 0.452286
vt 0.856467 0.511771
vt 0.849134 0.491837
vt 0.752719 0.462480
vt 0.850867 0.532294
vt 0.850557 0.511200
vt 0.752494 0.544217
vt 0.766269 0.556436
vt 0.834742 0.545885
vt 0.845555 0.529872
vt 0.460464 0.326559
vt 0.457000 0.351220
vt 0.445916 0.334739
vt 0.540965 0.329325
vt 0.554721 0.352789
vt 0.541366 0.352467
vt 0.469225 0.344393
vt 0.489555 0.360210
vt 0.477725 0.364170
vt 0.526006 0.330032
vt 0.527975 0.353002
vt 0.496735 0.335177
vt 0.482655 0.339208
vt 0.511182 0.331790
vt 0.501873 0.357008
vt 0.613627 0.342215
vt 0.593666 0.358610
vt 0.599984 0.337439
vt 0.418526 0.690827
vt 0.390719 0.685756
vt 0.418596 0.685894
vt 0.390629 0.690573
vt 0.363742 0.685398
vt 0.363628 0.690068
vt 0.337436 0.684954
vt 0.475257 0.708924
vt 0.475201 0.697317
vt 0.337304 0.689518
vt 0.447034 0.691097
vt 0.447074 0.686147
vt 0.475105 0.690923
vt 0.475091 0.686046
vt 0.447110 0.679260
vt 0.418619 0.679121
vt 0.390736 0.679160
vt 0.363802 0.678998
vt 0.337527 0.678698
vt 0.447090 0.709983
vt 0.447039 0.697734
vt 0.418389 0.709324
vt 0.390481 0.696889
vt 0.418436 0.697561
vt 0.390382 0.708338
vt 0.363476 0.696312
vt 0.363365 0.707412
vt 0.337141 0.695627
vt 0.337015 0.706474
vt 0.476009 0.668077
vt 0.475089 0.679470
vt 0.336789 0.667993
vt 0.363343 0.667689
vt 0.390589 0.667280
vt 0.418882 0.666412
vt 0.447793 0.667266
vt 0.311570 0.688853
vt 0.413691 0.278449
vt 0.391045 0.263000
vt 0.415293 0.274682
vt 0.389110 0.266493
vt 0.497296 0.297122
vt 0.469001 0.289980
vt 0.497535 0.292792
vt 0.526782 0.296999
vt 0.526521 0.292632
vt 0.468284 0.294193
vt 0.441374 0.283766
vt 0.440181 0.287797
vt 0.417493 0.269340
vt 0.399578 0.246932
vt 0.421985 0.257484
vt 0.524859 0.272822
vt 0.526077 0.286288
vt 0.498069 0.273385
vt 0.497790 0.286851
vt 0.471745 0.270722
vt 0.469992 0.283841
vt 0.446125 0.265437
vt 0.442986 0.278053
vt 0.393637 0.258175
vt 0.557793 0.300146
vt 0.527332 0.304046
vt 0.497031 0.304107
vt 0.467236 0.301018
vt 0.438353 0.294326
vt 0.411194 0.284552
vt 0.386062 0.272149
vt 0.366380 0.252560
vt 0.253926 0.757011
vt 0.225267 0.757014
vt 0.199448 0.769451
vt 0.181582 0.791860
vt 0.175208 0.819800
vt 0.279748 0.769443
vt 0.822289 0.562712
vt 0.843912 0.554881
vt 0.824943 0.569107
vt 0.863551 0.511822
vt 0.861801 0.487791
vt 0.802765 0.576185
vt 0.839081 0.549967
vt 0.857333 0.535018
vt 0.802603 0.569158
vt 0.852579 0.466430
vt 0.783290 0.563132
vt 0.827564 0.459797
vt 0.819575 0.557580
vt 0.809904 0.450838
vt 0.801761 0.563515
vt 0.790107 0.448330
vt 0.626266 0.348279
vt 0.605671 0.362187
vt 0.581006 0.355784
vt 0.585779 0.333553
vt 0.514756 0.354572
vt 0.637057 0.355615
vt 0.616813 0.366482
vt 0.567970 0.353816
vt 0.571057 0.330812
vt 0.457448 0.374086
vt 0.446344 0.359145
vt 0.556004 0.329777
vt 0.475326 0.389306
vt 0.466120 0.392396
vt 0.529770 0.378985
vt 0.466980 0.368880
vt 0.485239 0.386401
vt 0.518121 0.380034
vt 0.506751 0.381678
vt 0.495705 0.383793
vt 0.598921 0.385052
vt 0.588083 0.382776
vt 0.576855 0.380865
vt 0.565268 0.379459
vt 0.553448 0.378712
vt 0.626876 0.371360
vt 0.609162 0.387654
vt 0.541582 0.378548
vt 0.531042 0.406674
vt 0.540260 0.308416
vt 0.523723 0.309521
vt 0.475539 0.320147
vt 0.507594 0.311794
vt 0.491422 0.315133
vt 0.622130 0.323883
vt 0.606501 0.317639
vt 0.636655 0.331733
vt 0.590123 0.313212
vt 0.573758 0.310381
vt 0.432558 0.345628
vt 0.557141 0.308622
vt 0.500047 0.409576
vt 0.520568 0.407217
vt 0.510218 0.408166
vt 0.584011 0.409409
vt 0.594293 0.410861
vt 0.573540 0.408131
vt 0.618678 0.390449
vt 0.604323 0.412373
vt 0.562941 0.407093
vt 0.471423 0.414395
vt 0.552269 0.406541
vt 0.480550 0.412870
vt 0.541620 0.406375
vt 0.490143 0.411176
vt 0.602567 0.427833
vt 0.592404 0.426591
vt 0.582233 0.425373
vt 0.572026 0.424310
vt 0.612754 0.428904
vt 0.561748 0.423479
vt 0.482595 0.427607
vt 0.472842 0.428842
vt 0.551524 0.422746
vt 0.541471 0.422359
vt 0.492237 0.426270
vt 0.531608 0.422367
vt 0.501974 0.425026
vt 0.521788 0.423003
vt 0.511860 0.423976
vt 0.105810 0.909421
vt 0.120705 0.907684
vt 0.120682 0.909620
vt 0.172111 0.909566
vt 0.184210 0.907736
vt 0.184244 0.909384
vt 0.134577 0.907900
vt 0.134568 0.909715
vt 0.159922 0.909667
vt 0.172085 0.907922
vt 0.023916 0.901266
vt 0.042084 0.884424
vt 0.040948 0.902043
vt 0.147588 0.909722
vt 0.159906 0.908019
vt 0.057171 0.908428
vt 0.073743 0.906531
vt 0.073710 0.908756
vt 0.147584 0.908013
vt 0.024468 0.929961
vt 0.040809 0.912318
vt 0.040436 0.929043
vt 0.040840 0.908273
vt 0.057190 0.906216
vt 0.090156 0.906960
vt 0.090112 0.909126
vt 0.196609 0.909190
vt 0.211425 0.906939
vt 0.211457 0.909087
vt 0.105847 0.907365
vt 0.196564 0.907450
vt 0.172216 0.925960
vt 0.184278 0.912304
vt 0.184310 0.924577
vt 0.120190 0.928259
vt 0.134571 0.912977
vt 0.134288 0.927241
vt 0.159930 0.912629
vt 0.172132 0.912520
vt 0.147603 0.912792
vt 0.147528 0.926109
vt 0.159952 0.924805
vt 0.002983 0.907458
vt 0.023659 0.905612
vt 0.023598 0.908040
vt 0.057112 0.912340
vt 0.056392 0.928363
vt 0.072852 0.930966
vt 0.073654 0.912798
vt 0.003620 0.912661
vt 0.023598 0.912421
vt 0.090064 0.912963
vt 0.089449 0.929963
vt 0.206404 0.925813
vt 0.196579 0.912337
vt 0.210886 0.912763
vt 0.105778 0.913163
vt 0.105193 0.929160
vt 0.195738 0.923777
vt 0.120662 0.913100
vt 0.057252 0.902244
vt 0.074384 0.882682
vt 0.073822 0.902486
vt 0.147608 0.904950
vt 0.134605 0.889347
vt 0.147592 0.890669
vt 0.004305 0.899407
vt 0.026646 0.884244
vt 0.057914 0.883771
vt 0.090291 0.903128
vt 0.090662 0.884806
vt 0.196416 0.904320
vt 0.205175 0.889562
vt 0.210685 0.903220
vt 0.105981 0.903633
vt 0.106095 0.886446
vt 0.183735 0.891714
vt 0.194931 0.892115
vt 0.120797 0.904213
vt 0.120786 0.887946
vt 0.184145 0.904819
vt 0.171817 0.890607
vt 0.134636 0.904648
vt 0.159884 0.905065
vt 0.172034 0.904975
vt 0.159791 0.891977
vt 0.040820 0.910267
vt 0.023588 0.910186
vt 0.003118 0.910040
vt 0.211301 0.910942
vt 0.184264 0.910842
vt 0.196604 0.910726
vt 0.172126 0.911022
vt 0.159929 0.911127
vt 0.057144 0.910381
vt 0.073685 0.910723
vt 0.090082 0.911043
vt 0.120670 0.911334
vt 0.105790 0.911243
vt 0.134568 0.911322
vt 0.147595 0.911235
vt 0.040892 0.904032
vt 0.023772 0.903474
vt 0.003542 0.901947
vt 0.196506 0.905911
vt 0.211181 0.905073
vt 0.184177 0.906278
vt 0.172064 0.906468
vt 0.159899 0.906562
vt 0.040858 0.906023
vt 0.057215 0.904260
vt 0.090217 0.905045
vt 0.073780 0.904563
vt 0.120748 0.905973
vt 0.105908 0.905546
vt 0.134604 0.906297
vt 0.147594 0.906502
vt 0.279196 0.975820
vt 0.291094 0.973486
vt 0.291113 0.975814
vt 0.337967 0.975118
vt 0.349093 0.972832
vt 0.349131 0.975004
vt 0.303077 0.973430
vt 0.303117 0.975761
vt 0.326761 0.975297
vt 0.337926 0.972939
vt 0.315103 0.975536
vt 0.326712 0.973071
vt 0.241283 0.976278
vt 0.254388 0.973616
vt 0.254428 0.976123
vt 0.315050 0.973235
vt 0.214415 0.976442
vt 0.227812 0.973708
vt 0.227842 0.976318
vt 0.199832 0.976854
vt 0.214362 0.973822
vt 0.267029 0.973519
vt 0.267067 0.975928
vt 0.360351 0.974880
vt 0.372469 0.972453
vt 0.372477 0.974935
vt 0.279174 0.973474
vt 0.360313 0.972691
vt 0.241255 0.973689
vt 0.200082 0.971347
vt 0.214450 0.965157
vt 0.214358 0.971531
vt 0.360080 0.965495
vt 0.372186 0.970356
vt 0.360274 0.970810
vt 0.348990 0.965269
vt 0.349072 0.970933
vt 0.337907 0.971072
vt 0.326663 0.965541
vt 0.326699 0.971146
vt 0.314939 0.965198
vt 0.315030 0.971243
vt 0.227802 0.971447
vt 0.241254 0.971452
vt 0.254388 0.971449
vt 0.267032 0.971434
vt 0.279179 0.971466
vt 0.291083 0.971475
vt 0.303056 0.971397
vt 0.291116 0.977626
vt 0.995813 0.253762
vt 0.992072 0.242986
vt 0.995813 0.242986
vt 0.227859 0.978351
vt 0.241307 0.978288
vt 0.349153 0.976698
vt 0.360347 0.976579
vt 0.267094 0.977810
vt 0.279212 0.977639
vt 0.372271 0.976813
vt 0.214460 0.978495
vt 0.303137 0.977590
vt 0.315146 0.977329
vt 0.254460 0.978077
vt 0.326807 0.977028
vt 0.337995 0.976814
vt 0.349192 0.981647
vt 0.303212 0.982967
vt 0.326866 0.981886
vt 0.338044 0.981366
vt 0.315220 0.982382
vt 0.241384 0.984224
vt 0.254529 0.983586
vt 0.227970 0.984040
vt 0.214727 0.984021
vt 0.200151 0.979122
vt 0.267146 0.983076
vt 0.360272 0.981204
vt 0.371027 0.981628
vt 0.279276 0.982524
vt 0.291170 0.982727
vt 0.227757 0.964616
vt 0.290988 0.965647
vt 0.302954 0.965791
vt 0.279081 0.965554
vt 0.266939 0.965357
vt 0.254292 0.965145
vt 0.241191 0.964941
vt 0.199794 0.973862
vt 0.463081 0.249957
vt 0.451262 0.246627
vt 0.463088 0.247101
vt 0.995813 0.232209
vt 0.992072 0.221433
vt 0.995813 0.221433
vt 0.995813 0.275315
vt 0.992072 0.264539
vt 0.995813 0.264539
vt 0.995813 0.210656
vt 0.992072 0.199880
vt 0.995813 0.199880
vt 0.995813 0.296868
vt 0.992072 0.286092
vt 0.995813 0.286092
vt 0.995813 0.339974
vt 0.992072 0.329198
vt 0.995813 0.329198
vt 0.992072 0.232209
vt 0.992072 0.318421
vt 0.995813 0.318421
vt 0.992072 0.253762
vt 0.992072 0.210656
vt 0.992072 0.275315
vt 0.992072 0.189103
vt 0.995813 0.189103
vt 0.992072 0.307645
vt 0.995813 0.307645
vt 0.992072 0.296868
vt 0.093785 0.413852
vt 0.077572 0.413392
vt 0.080905 0.392276
vt 0.439416 0.249890
vt 0.451252 0.249927
vt 0.474861 0.246701
vt 0.474936 0.249873
vt 0.427609 0.246488
vt 0.439433 0.247025
vt 0.487569 0.246440
vt 0.487591 0.249869
vt 0.580844 0.249679
vt 0.570568 0.247184
vt 0.580314 0.247184
vt 0.499386 0.249778
vt 0.499458 0.246937
vt 0.570523 0.249637
vt 0.560355 0.246753
vt 0.509581 0.249692
vt 0.509604 0.247349
vt 0.549499 0.249691
vt 0.560371 0.249699
vt 0.518976 0.247257
vt 0.519021 0.249805
vt 0.539314 0.249754
vt 0.549437 0.246966
vt 0.529160 0.246883
vt 0.529152 0.249725
vt 0.539323 0.247301
vt 0.529143 0.252555
vt 0.539305 0.252219
vt 0.549515 0.252638
vt 0.509627 0.252240
vt 0.518999 0.252148
vt 0.560434 0.252424
vt 0.499445 0.252619
vt 0.570550 0.252079
vt 0.487668 0.253041
vt 0.580292 0.252167
vt 0.474958 0.253303
vt 0.427587 0.253216
vt 0.439415 0.252755
vt 0.451241 0.253229
vt 0.463073 0.252826
vt 0.227429 0.436071
vt 0.224185 0.434881
vt 0.234429 0.420191
vt 0.186149 0.449254
vt 0.187036 0.432313
vt 0.196970 0.442450
vt 0.246606 0.425637
vt 0.242637 0.440520
vt 0.176083 0.453457
vt 0.179857 0.439476
vt 0.258434 0.428272
vt 0.256883 0.443106
vt 0.166354 0.455632
vt 0.172369 0.443921
vt 0.270684 0.428425
vt 0.271704 0.444157
vt 0.194379 0.476338
vt 0.179025 0.465495
vt 0.190957 0.462133
vt 0.157257 0.446364
vt 0.164901 0.446033
vt 0.283881 0.425445
vt 0.287933 0.443173
vt 0.096454 0.478551
vt 0.102002 0.456965
vt 0.105912 0.457193
vt 0.146452 0.454661
vt 0.156628 0.456110
vt 0.075027 0.434079
vt 0.095238 0.434208
vt 0.141736 0.440634
vt 0.149516 0.444567
vt 0.123995 0.444121
vt 0.136055 0.451004
vt 0.143088 0.481166
vt 0.131191 0.464716
vt 0.144330 0.467129
vt 0.237174 0.473681
vt 0.254584 0.459579
vt 0.251670 0.475938
vt 0.113531 0.478733
vt 0.129147 0.480060
vt 0.168912 0.480558
vt 0.181454 0.478772
vt 0.266618 0.479182
vt 0.270364 0.461863
vt 0.084620 0.503001
vt 0.099051 0.499758
vt 0.156163 0.467900
vt 0.167540 0.467239
vt 0.214444 0.454224
vt 0.217884 0.454107
vt 0.222438 0.472798
vt 0.283517 0.484647
vt 0.288461 0.463968
vt 0.204838 0.457555
vt 0.208101 0.473873
vt 0.156204 0.481364
vt 0.222892 0.454762
vt 0.239250 0.457136
vt 0.074486 0.458112
vt 0.096241 0.457096
vt 0.116125 0.437301
vt 0.134144 0.433315
vt 0.222522 0.490781
vt 0.235209 0.491209
vt 0.142549 0.500302
vt 0.156661 0.499762
vt 0.196868 0.493839
vt 0.209768 0.491762
vt 0.260591 0.497603
vt 0.273163 0.502747
vt 0.170427 0.498405
vt 0.183798 0.496284
vt 0.127992 0.500271
vt 0.247829 0.493775
vt 0.113378 0.498790
vt 0.116489 0.460518
vt 0.151594 0.430027
vt 0.154945 0.432712
vt 0.135766 0.420893
vt 0.148966 0.420724
vt 0.149287 0.425853
vt 0.298928 0.227914
vt 0.315933 0.293459
vt 0.298928 0.296898
vt 0.171700 0.425361
vt 0.238347 0.417426
vt 0.254221 0.409182
vt 0.166389 0.432367
vt 0.169563 0.429579
vt 0.257426 0.408330
vt 0.266827 0.407516
vt 0.162692 0.433810
vt 0.269904 0.407835
vt 0.274415 0.408850
vt 0.158770 0.433942
vt 0.717354 0.012159
vt 0.709798 0.005474
vt 0.715085 0.002982
vt 0.159498 0.429120
vt 0.152078 0.415704
vt 0.156579 0.419719
vt 0.155143 0.422050
vt 0.157430 0.428375
vt 0.154927 0.424611
vt 0.155793 0.426821
vt 0.171761 0.420158
vt 0.166036 0.424318
vt 0.165710 0.421838
vt 0.165272 0.426552
vt 0.221714 0.005925
vt 0.290287 0.002979
vt 0.289916 0.005926
vt 0.163705 0.428169
vt 0.161686 0.429076
vt 0.428810 0.014757
vt 0.426490 0.017667
vt 0.421277 0.011130
vt 0.714617 0.015840
vt 0.705998 0.010171
vt 0.714973 0.014310
vt 0.715909 0.012976
vt 0.721738 0.017003
vt 0.727513 0.025460
vt 0.720739 0.018268
vt 0.722076 0.015426
vt 0.730724 0.020397
vt 0.722219 0.028707
vt 0.719287 0.018959
vt 0.721662 0.013857
vt 0.731390 0.014640
vt 0.717644 0.019134
vt 0.716039 0.028863
vt 0.725996 0.005018
vt 0.729602 0.009340
vt 0.710267 0.026700
vt 0.716144 0.018557
vt 0.719036 0.012027
vt 0.720577 0.012665
vt 0.715075 0.017394
vt 0.706375 0.021884
vt 0.720729 0.002982
vt 0.705057 0.016084
vt 0.341235 0.264524
vt 0.340521 0.269463
vt 0.332838 0.282167
vt 0.099096 0.433764
vt 0.157958 0.415082
vt 0.169733 0.415694
vt 0.181595 0.418563
vt 0.162519 0.415075
vt 0.164137 0.419638
vt 0.161687 0.418325
vt 0.204296 0.435966
vt 0.168290 0.415405
vt 0.150766 0.416049
vt 0.191151 0.424039
vt 0.158937 0.418254
vt 0.630615 0.292099
vt 0.638074 0.279602
vt 0.631039 0.308865
vt 0.329315 0.237994
vt 0.329315 0.286770
vt 0.419417 0.002979
vt 0.423138 0.002979
vt 0.419417 0.019281
vt 0.423138 0.019281
vt 0.416064 0.004593
vt 0.426490 0.004593
vt 0.428810 0.007502
vt 0.429638 0.011130
vt 0.416064 0.017667
vt 0.413744 0.014758
vt 0.412916 0.011130
vt 0.413744 0.007502
vt 0.654043 0.330836
vt 0.671048 0.266105
vt 0.671048 0.334307
vt 0.640661 0.276542
vt 0.654043 0.269416
vt 0.502283 0.668851
vt 0.747908 0.547691
vt 0.650084 0.341933
vt 0.614060 0.413807
vt 0.003145 0.904490
vt 0.008873 0.930849
vt 0.012146 0.881484
vt 0.201641 0.964703
vt 0.370748 0.964849
vt 0.337843 0.965823
vt 0.201801 0.984876
vt 0.992072 0.339974
vt 0.426823 0.249850
vt 0.077293 0.481374
vt 0.129908 0.424694
vt 0.315933 0.231225
vt 0.261114 0.407776
vt 0.221304 0.002979
vt 0.340219 0.270594
vt 0.334868 0.245343
vt 0.340219 0.254398
vt 0.340549 0.255644
vt 0.341268 0.260552
vt 0.640661 0.324146
vt 0.629755 0.305266
vt 0.629359 0.302722
vt 0.629316 0.297925
vt 0.629754 0.294789
s 1
usemtl White.004
f 21/1/1 39/2/2 20/3/3
f 22/4/4 41/5/5 21/1/1
f 24/6/6 43/7/7 22/8/4
f 34/9/8 10/10/9 35/11/10
f 26/12/11 45/13/12 24/6/6
f 20/3/3 37/14/13 19/15/14
f 19/15/14 33/16/15 17/17/16
f 19/15/14 1/18/17 3/19/18
f 20/3/3 3/19/18 4/20/19
f 21/1/1 4/20/19 5/21/20
f 22/4/4 5/21/20 6/22/21
f 24/6/6 6/23/21 7/24/22
f 24/6/6 8/25/23 26/12/11
f 38/26/24 9/27/25 34/9/8
f 42/28/26 12/29/27 40/30/28
f 42/28/26 14/31/29 13/32/30
f 46/33/31 14/34/29 44/35/32
f 46/33/31 16/36/33 15/37/34
f 40/30/28 11/38/35 38/26/24
f 2/39/36 32/40/37 1/18/17
f 8/25/23 25/41/38 23/42/39
f 7/24/22 27/43/40 25/41/38
f 6/22/21 28/44/41 27/45/40
f 5/21/20 29/46/42 28/44/41
f 3/19/18 29/46/42 4/20/19
f 1/18/17 30/47/43 3/19/18
f 35/11/10 33/16/15 34/9/8
f 34/9/8 37/14/13 38/26/24
f 38/26/24 39/2/2 40/30/28
f 40/30/28 41/5/5 42/28/26
f 44/48/32 41/5/5 43/49/7
f 44/35/32 45/13/12 46/33/31
f 45/13/12 48/50/44 46/33/31
f 17/17/16 36/51/45 18/52/46
f 62/53/47 75/54/48 60/55/49
f 64/56/50 77/57/51 62/53/47
f 56/58/52 69/59/53 54/60/54
f 54/60/54 65/61/55 50/62/56
f 58/63/57 71/64/58 56/58/52
f 60/65/49 73/66/59 58/63/57
f 14/67/29 61/68/60 59/69/61
f 16/70/33 61/68/60 15/71/34
f 9/72/25 52/73/62 10/74/9
f 11/75/35 49/76/63 9/72/25
f 12/77/27 53/78/64 11/75/35
f 13/79/30 55/80/65 12/77/27
f 14/81/29 57/82/66 13/79/30
f 50/62/56 52/73/62 49/76/63
f 54/60/54 49/76/63 53/78/64
f 56/58/52 53/78/64 55/80/65
f 58/63/57 55/80/65 57/82/66
f 60/65/49 57/82/66 59/83/61
f 60/55/49 61/68/60 62/53/47
f 63/84/67 62/53/47 61/68/60
f 66/85/68 68/86/69 65/61/55
f 70/87/70 65/61/55 69/59/53
f 72/88/71 69/59/53 71/64/58
f 72/88/71 73/66/59 74/89/72
f 74/89/72 75/90/48 76/91/73
f 76/92/73 77/57/51 78/93/74
f 77/57/51 80/94/75 78/93/74
f 50/62/56 68/86/69 51/95/76
f 70/96/70 72/97/71 81/98/77
f 81/98/77 72/97/71 74/99/72
f 74/99/72 76/100/73 81/98/77
f 76/100/73 78/101/74 81/98/77
f 78/101/74 80/102/75 81/98/77
f 67/103/78 66/104/68 81/98/77
f 66/104/68 70/96/70 81/98/77
f 18/52/46 1/18/17 17/17/16
f 28/105/79 84/106/80 27/107/81
f 30/108/82 89/109/83 87/110/84
f 25/111/85 82/112/86 23/113/87
f 29/114/88 85/115/89 28/105/79
f 27/116/81 83/117/90 25/111/85
f 32/118/91 88/119/92 89/109/83
f 29/114/88 87/110/84 86/120/93
f 171/121/94 105/122/95 88/119/92
f 86/120/93 180/123/96 85/115/89
f 170/124/97 98/125/98 171/121/94
f 84/106/80 180/123/96 181/126/99
f 169/127/100 99/128/101 170/124/97
f 83/117/90 181/129/99 182/130/102
f 169/127/100 101/131/103 100/132/104
f 179/133/105 198/134/106 180/135/107
f 211/136/108 175/137/109 176/138/110
f 199/139/111 95/140/112 94/141/113
f 206/142/114 176/138/110 177/143/115
f 209/144/116 95/140/112 210/145/117
f 205/146/118 97/147/119 209/144/116
f 208/148/120 172/149/121 207/150/122
f 134/151/123 121/152/124 120/153/125
f 136/154/126 122/155/127 121/152/124
f 138/156/128 123/157/129 122/155/127
f 35/11/10 112/158/130 131/159/131
f 140/160/132 26/12/11 123/157/129
f 132/161/133 120/153/125 119/162/134
f 130/163/135 119/162/134 118/164/136
f 107/165/137 118/164/136 119/162/134
f 120/153/125 107/165/137 119/162/134
f 121/152/124 108/166/138 120/153/125
f 122/155/127 109/167/139 121/152/124
f 123/157/129 110/168/140 122/155/127
f 26/12/11 111/169/141 123/157/129
f 131/159/131 113/170/142 133/171/143
f 114/172/144 137/173/145 135/174/146
f 115/175/147 139/176/148 137/173/145
f 116/177/149 141/178/150 139/176/148
f 117/179/151 48/50/44 141/178/150
f 113/170/142 135/174/146 133/171/143
f 129/180/152 2/39/36 106/181/153
f 8/25/23 124/182/154 111/169/141
f 111/169/141 125/183/155 110/168/140
f 110/168/140 126/184/156 109/167/139
f 109/167/139 127/185/157 108/166/138
f 127/185/157 107/165/137 108/166/138
f 128/186/158 106/181/153 107/165/137
f 130/163/135 35/11/10 131/159/131
f 133/171/143 130/163/135 131/159/131
f 135/174/146 132/161/133 133/171/143
f 136/154/126 135/174/146 137/173/145
f 139/176/148 136/154/126 137/173/145
f 141/178/150 138/156/128 139/176/148
f 140/160/132 48/50/44 47/187/159
f 36/51/45 118/164/136 18/52/46
f 162/188/160 153/189/161 151/190/162
f 164/191/163 64/56/50 153/189/161
f 156/192/164 147/193/165 145/194/166
f 154/195/167 145/194/166 143/196/168
f 158/197/169 149/198/170 147/193/165
f 160/199/171 151/190/162 149/198/170
f 150/200/172 117/201/151 116/202/149
f 117/201/151 63/84/67 16/70/33
f 52/73/62 112/203/130 10/74/9
f 142/204/173 113/205/142 112/203/130
f 144/206/174 114/207/144 113/205/142
f 146/208/175 115/209/147 114/207/144
f 148/210/176 116/202/149 115/209/147
f 142/204/173 51/95/76 143/196/168
f 145/194/166 142/204/173 143/196/168
f 146/208/175 145/194/166 147/193/165
f 149/198/170 146/208/175 147/193/165
f 151/190/162 148/210/176 149/198/170
f 153/189/161 150/200/172 151/190/162
f 153/189/161 63/84/67 152/211/177
f 154/195/167 67/212/78 155/213/178
f 156/192/164 155/213/178 157/214/179
f 158/197/169 157/214/179 159/215/180
f 160/199/171 159/215/180 161/216/181
f 162/188/160 161/216/181 163/217/182
f 164/191/163 163/217/182 165/218/183
f 165/218/183 79/219/184 164/191/163
f 68/86/69 143/196/168 51/95/76
f 157/220/179 81/98/77 159/221/180
f 81/98/77 161/222/181 159/221/180
f 161/222/181 81/98/77 163/223/182
f 163/223/182 81/98/77 165/224/183
f 165/224/183 81/98/77 80/102/75
f 67/103/78 81/98/77 155/225/178
f 155/225/178 81/98/77 157/220/179
f 118/164/136 2/39/36 18/52/46
f 167/226/185 126/227/186 125/228/187
f 128/229/188 171/121/94 129/230/189
f 82/112/86 124/231/190 23/113/87
f 168/232/191 127/233/192 126/227/186
f 166/234/193 125/228/187 124/231/190
f 129/230/189 88/119/92 31/235/194
f 127/233/192 170/124/97 128/229/188
f 83/117/90 183/236/195 82/112/86
f 167/226/185 101/131/103 168/232/191
f 88/119/92 104/237/196 89/109/83
f 166/234/193 102/238/197 167/226/185
f 87/110/84 104/237/196 178/239/198
f 82/112/86 103/240/199 166/234/193
f 87/110/84 179/241/200 86/120/93
f 204/242/201 90/243/202 208/148/120
f 207/150/122 173/244/203 203/245/204
f 206/142/114 96/246/205 205/146/118
f 202/247/206 91/248/207 204/242/201
f 203/245/204 174/249/208 201/250/209
f 198/134/106 92/251/210 202/252/206
f 201/250/209 175/137/109 200/253/211
f 92/251/210 187/254/212 186/255/213
f 176/138/110 197/256/214 177/143/115
f 93/257/215 188/258/216 187/254/212
f 177/143/115 190/259/217 96/246/205
f 95/140/112 188/258/216 94/141/113
f 95/140/112 191/260/218 189/261/219
f 91/248/207 184/262/220 90/243/202
f 96/246/205 191/260/218 97/147/119
f 173/244/203 192/263/221 193/264/222
f 90/243/202 192/263/221 172/149/121
f 174/249/208 193/264/222 194/265/223
f 174/249/208 195/266/224 175/137/109
f 92/267/210 185/268/225 91/248/207
f 175/137/109 196/269/226 176/138/110
f 196/269/226 225/270/227 197/256/214
f 99/271/228 200/253/211 211/136/108
f 179/133/105 210/145/117 199/139/111
f 98/272/229 211/136/108 206/142/114
f 178/273/230 209/144/116 210/145/117
f 105/274/231 209/144/116 104/275/232
f 183/276/233 207/150/122 103/277/234
f 182/278/235 208/148/120 183/276/233
f 102/279/236 207/150/122 203/245/204
f 105/274/231 206/142/114 205/146/118
f 182/278/235 202/247/206 204/242/201
f 101/280/237 203/245/204 201/250/209
f 180/135/107 202/252/206 181/281/238
f 101/280/237 200/253/211 100/282/239
f 199/139/111 93/257/215 198/134/106
f 191/260/218 217/283/240 189/261/219
f 197/256/214 218/284/241 190/259/217
f 190/259/217 219/285/242 191/260/218
f 184/262/220 220/286/243 192/263/221
f 185/268/225 212/287/244 184/262/220
f 192/263/221 221/288/245 193/264/222
f 186/289/213 213/290/246 185/268/225
f 193/264/222 222/291/247 194/265/223
f 187/254/212 214/292/248 186/255/213
f 194/265/223 223/293/249 195/266/224
f 188/258/216 215/294/250 187/254/212
f 195/266/224 224/295/251 196/269/226
f 189/261/219 216/296/252 188/258/216
f 212/287/244 227/297/253 226/298/254
f 221/288/245 234/299/255 235/300/256
f 213/290/246 228/301/257 227/297/253
f 222/291/247 235/300/256 236/302/258
f 214/292/248 229/303/259 228/304/257
f 222/291/247 237/305/260 223/293/249
f 216/296/252 229/303/259 215/294/250
f 223/293/249 238/306/261 224/295/251
f 217/283/240 230/307/262 216/296/252
f 224/295/251 239/308/263 225/270/227
f 219/285/242 231/309/264 217/283/240
f 218/284/241 239/308/263 232/310/265
f 219/285/242 232/310/265 233/311/266
f 220/286/243 226/298/254 234/299/255
f 287/312/267 333/313/268 290/314/269
f 270/315/270 308/316/271 267/317/272
f 290/314/269 336/318/273 293/319/274
f 276/320/275 311/321/276 270/315/270
f 300/322/277 240/323/278 296/324/279
f 273/325/280 317/326/281 276/320/275
f 278/327/282 324/328/283 281/329/284
f 293/319/274 314/330/285 273/325/280
f 227/331/286 255/332/287 226/333/288
f 254/334/289 321/335/290 278/327/282
f 281/329/284 327/336/291 284/337/292
f 264/338/293 302/339/294 261/340/295
f 284/337/292 330/341/296 287/312/267
f 267/317/272 305/342/297 264/338/293
f 231/343/298 266/344/299 230/345/300
f 238/346/301 294/347/302 239/348/303
f 231/343/298 275/349/304 269/350/305
f 239/348/303 272/351/306 232/352/307
f 232/352/307 275/349/304 233/353/308
f 261/354/295 299/355/309 258/356/310
f 226/333/288 279/357/311 234/358/312
f 235/359/313 279/357/311 282/360/314
f 227/331/286 260/361/315 257/362/316
f 235/359/313 285/363/317 236/364/318
f 228/365/319 263/366/320 260/367/315
f 236/364/318 288/368/321 237/369/322
f 230/345/300 263/366/320 229/370/323
f 237/369/322 291/371/324 238/346/301
f 320/372/325 249/373/326 323/374/327
f 315/375/328 253/376/329 246/377/330
f 303/378/331 241/379/332 300/322/277
f 296/324/279 248/380/333 320/372/325
f 326/381/334 249/373/326 250/382/335
f 306/383/336 242/384/337 303/385/331
f 329/386/338 250/382/335 251/387/339
f 306/383/336 244/388/340 243/389/341
f 332/390/342 251/387/339 252/391/343
f 309/392/344 245/393/345 244/388/340
f 335/394/346 252/391/343 253/376/329
f 318/395/347 245/393/345 312/396/348
f 318/395/347 246/377/330 247/397/349
f 258/356/310 256/398/350 259/399/351
f 256/398/350 257/362/316 259/399/351
f 260/361/315 259/399/351 257/362/316
f 262/400/352 258/356/310 259/399/351
f 263/366/320 262/401/352 260/367/315
f 262/401/352 264/338/293 261/340/295
f 263/366/320 268/402/353 265/403/354
f 268/402/353 264/338/293 265/403/354
f 269/350/305 268/402/353 266/344/299
f 268/402/353 270/315/270 267/317/272
f 275/349/304 271/404/355 269/350/305
f 271/404/355 276/320/275 270/315/270
f 272/351/306 277/405/356 275/349/304
f 277/405/356 273/325/280 276/320/275
f 255/332/287 280/406/357 279/357/311
f 280/406/357 254/334/289 278/327/282
f 281/329/284 280/406/357 278/327/282
f 280/406/357 282/360/314 279/357/311
f 284/337/292 283/407/358 281/329/284
f 286/408/359 282/360/314 283/407/358
f 287/312/267 286/408/359 284/337/292
f 286/408/359 288/368/321 285/363/317
f 287/312/267 292/409/360 289/410/361
f 292/409/360 288/368/321 289/410/361
f 290/314/269 295/411/362 292/409/360
f 295/411/362 291/371/324 292/409/360
f 293/319/274 274/412/363 295/411/362
f 274/412/363 294/347/302 295/411/362
f 300/322/277 298/413/364 301/414/365
f 298/413/364 299/355/309 301/414/365
f 299/355/309 304/415/366 301/414/365
f 301/414/365 303/378/331 300/322/277
f 302/339/294 307/416/367 304/417/366
f 307/416/367 303/385/331 304/417/366
f 308/316/271 307/416/367 305/342/297
f 310/418/368 306/383/336 307/416/367
f 311/321/276 310/418/368 308/316/271
f 310/418/368 312/396/348 309/392/344
f 317/326/281 313/419/369 311/321/276
f 313/419/369 318/395/347 312/396/348
f 314/330/285 319/420/370 317/326/281
f 319/420/370 315/375/328 318/395/347
f 297/421/371 322/422/372 321/335/290
f 298/413/364 320/372/325 322/422/372
f 323/374/327 322/422/372 320/372/325
f 322/422/372 324/328/283 321/335/290
f 323/374/327 328/423/373 325/424/374
f 325/424/374 327/336/291 324/328/283
f 329/386/338 328/423/373 326/381/334
f 328/423/373 330/341/296 327/336/291
f 329/386/338 334/425/375 331/426/376
f 334/425/375 330/341/296 331/426/376
f 332/390/342 337/427/377 334/425/375
f 337/427/377 333/313/268 334/425/375
f 335/394/346 316/428/378 337/427/377
f 316/428/378 336/318/273 337/427/377
f 258/356/310 297/421/371 254/334/289
f 339/429/379 377/430/380 338/431/381
f 345/432/382 360/433/383 346/434/384
f 338/431/381 379/435/385 342/436/386
f 344/437/387 362/438/388 345/432/382
f 343/439/389 366/440/390 344/437/387
f 351/441/391 371/442/392 341/443/393
f 342/436/386 364/444/394 343/439/389
f 349/445/395 353/446/396 350/447/397
f 348/448/398 354/449/399 349/445/395
f 341/443/393 373/450/400 340/451/401
f 347/452/402 356/453/403 348/454/398
f 340/451/401 375/455/404 339/429/379
f 346/434/384 358/456/405 347/452/402
f 350/447/397 369/457/406 351/441/391
f 396/458/407 355/459/408 394/460/409
f 359/461/410 396/462/407 397/463/411
f 361/464/412 397/463/411 398/465/413
f 399/466/414 361/464/412 398/465/413
f 367/467/415 399/466/414 400/468/416
f 365/469/417 400/468/416 401/470/418
f 395/471/419 369/457/406 353/446/396
f 371/442/392 402/472/420 403/473/421
f 373/450/400 403/473/421 404/474/422
f 375/455/404 404/474/422 405/475/423
f 406/476/424 375/455/404 405/475/423
f 407/477/425 377/430/380 406/476/424
f 407/477/425 365/469/417 401/470/418
f 393/478/426 339/429/379 338/431/381
f 378/479/427 415/480/428 365/481/428
f 386/482/429 351/441/391 389/483/430
f 385/484/431 347/452/402 382/485/432
f 391/486/433 339/429/379 392/487/434
f 384/488/435 347/452/402 348/454/398
f 391/486/433 341/443/393 340/451/401
f 383/489/436 348/448/398 349/445/395
f 383/489/436 350/447/397 386/482/429
f 387/490/437 343/439/389 380/491/438
f 390/492/439 351/441/391 341/443/393
f 380/491/438 344/437/387 388/493/440
f 388/493/440 345/432/382 381/494/441
f 387/490/437 338/431/381 342/436/386
f 381/494/441 346/434/384 385/484/431
f 353/446/396 394/460/409 395/471/419
f 244/495/340 381/494/441 385/484/431
f 253/496/329 393/478/426 387/490/437
f 247/497/349 381/494/441 245/498/345
f 246/499/330 388/493/440 247/497/349
f 248/500/333 390/492/439 249/501/326
f 253/496/329 380/491/438 246/499/330
f 240/502/278 383/489/436 386/482/429
f 241/503/332 384/504/435 383/489/436
f 249/501/326 391/486/433 250/505/335
f 243/506/341 384/488/435 242/507/337
f 250/505/335 392/487/434 251/508/339
f 244/495/340 382/485/432 243/506/341
f 248/500/333 386/482/429 389/483/430
f 252/509/343 392/487/434 393/478/426
f 352/510/442 394/460/409 355/459/408
f 364/444/394 407/477/425 401/470/418
f 407/477/425 376/511/443 378/512/444
f 406/476/424 374/513/445 376/511/443
f 405/475/423 372/514/446 374/513/445
f 404/474/422 370/515/447 372/514/446
f 403/473/421 368/516/448 370/515/447
f 352/510/442 402/472/420 395/471/419
f 401/470/418 366/440/390 364/444/394
f 400/468/416 362/438/388 366/440/390
f 362/438/388 398/465/413 360/433/383
f 398/465/413 358/456/405 360/433/383
f 358/456/405 396/462/407 356/453/403
f 356/517/403 394/460/409 354/449/399
f 437/518/449 423/519/450 430/520/451
f 367/521/452 413/522/453 363/523/453
f 374/524/454 420/525/455 376/526/455
f 361/527/456 411/528/457 359/529/457
f 370/530/458 418/531/459 372/532/459
f 357/533/460 408/534/461 355/535/461
f 365/481/428 414/536/452 367/521/452
f 355/535/461 409/537/462 352/538/462
f 376/526/455 421/539/427 378/479/427
f 363/523/453 412/540/456 361/527/456
f 372/532/459 419/541/454 374/524/454
f 359/529/457 410/542/460 357/543/460
f 352/538/462 416/544/449 368/545/449
f 368/545/449 417/546/458 370/530/458
f 551/547/463 475/548/464 549/549/465
f 438/550/461 423/519/450 436/551/462
f 437/518/449 431/552/466 439/553/458
f 438/550/461 424/554/467 422/555/468
f 439/553/458 432/556/469 441/557/459
f 440/558/460 425/559/470 424/560/467
f 443/561/454 432/556/469 433/562/471
f 442/563/457 426/564/472 425/559/470
f 445/565/455 433/562/471 434/566/473
f 446/567/453 426/564/472 444/568/456
f 445/565/455 435/569/474 447/570/427
f 448/571/452 427/572/475 446/567/453
f 447/570/427 429/573/476 449/574/428
f 448/571/452 429/573/476 428/575/477
f 415/576/478 448/571/452 414/577/479
f 415/576/478 447/570/427 449/574/428
f 413/578/480 448/571/452 446/567/453
f 420/579/481 447/570/427 421/580/482
f 413/578/480 444/568/456 412/581/483
f 419/582/484 445/565/455 420/579/481
f 412/581/483 442/563/457 411/583/485
f 418/584/486 443/561/454 419/582/484
f 411/583/485 440/558/460 410/585/487
f 417/586/488 441/557/459 418/584/486
f 410/587/487 438/550/461 408/588/489
f 417/586/488 437/518/449 439/553/458
f 409/589/490 438/550/461 436/551/462
f 409/589/490 437/518/449 416/590/491
f 498/591/492 547/592/493 471/593/494
f 494/594/495 470/595/496 496/596/497
f 498/591/492 472/597/498 499/598/499
f 491/599/500 464/600/501 494/594/495
f 499/598/499 473/601/502 500/602/503
f 497/603/504 465/604/505 491/599/500
f 500/602/503 474/605/506 501/606/507
f 485/607/508 459/608/509 461/609/510
f 497/603/504 467/610/511 466/611/512
f 501/606/507 475/612/464 502/613/513
f 478/614/514 554/615/515 567/616/516
f 493/617/517 467/610/511 495/618/518
f 502/619/513 551/547/463 503/620/519
f 493/617/517 469/621/520 468/622/521
f 504/623/522 469/621/520 492/624/523
f 489/625/524 450/626/525 453/627/526
f 479/628/527 458/629/528 477/630/529
f 483/631/530 450/626/525 490/632/531
f 487/633/532 459/608/509 486/634/533
f 482/635/534 458/629/528 456/636/535
f 424/637/536 478/614/514 422/638/537
f 487/633/532 455/639/538 457/640/539
f 564/641/540 546/642/541 481/643/542
f 480/644/543 456/636/535 454/645/544
f 485/607/508 463/646/545 484/647/546
f 488/648/547 453/627/526 455/639/538
f 479/628/527 462/649/548 460/650/549
f 478/614/514 454/651/544 452/652/550
f 558/653/551 476/654/552 504/623/522
f 428/655/553 479/628/527 427/656/554
f 431/657/555 488/648/547 432/658/556
f 435/659/557 484/647/546 429/660/558
f 425/661/559 480/644/543 424/662/536
f 429/660/558 481/643/542 428/655/553
f 432/658/556 487/633/532 433/663/560
f 425/661/559 477/630/529 482/635/534
f 433/663/560 486/634/533 434/664/561
f 430/665/562 483/631/530 490/632/531
f 426/666/563 479/628/527 477/630/529
f 430/665/562 489/625/524 431/657/555
f 422/638/537 483/631/530 423/667/564
f 434/664/561 485/607/508 435/659/557
f 567/616/516 504/623/522 451/668/565
f 450/626/525 504/623/522 492/624/523
f 450/626/525 493/617/517 453/627/526
f 452/652/550 502/619/513 503/620/519
f 455/639/538 493/617/517 495/618/518
f 454/645/544 501/606/507 502/613/513
f 457/640/539 495/618/518 497/603/504
f 458/629/528 501/606/507 456/636/535
f 459/608/509 497/603/504 491/599/500
f 458/629/528 499/598/499 500/602/503
f 461/609/510 491/599/500 494/594/495
f 460/650/549 498/591/492 499/598/499
f 463/646/545 494/594/495 496/596/497
f 462/649/548 547/592/493 498/591/492
f 468/622/521 511/669/566 510/670/567
f 560/671/568 514/672/569 512/673/570
f 476/654/552 511/669/566 469/621/520
f 564/674/571 558/675/571 567/676/571
f 464/600/501 506/677/572 470/595/496
f 472/597/498 548/678/573 552/679/574
f 464/600/501 507/680/575 505/681/576
f 550/682/577 473/601/502 552/679/574
f 466/611/512 507/680/575 465/604/505
f 473/601/502 545/683/578 474/605/506
f 467/610/511 508/684/579 466/611/512
f 474/605/506 544/685/580 549/686/465
f 468/622/521 509/687/581 467/610/511
f 520/688/582 535/689/583 534/690/582
f 510/670/567 519/691/584 509/687/581
f 562/692/585 527/693/586 528/694/587
f 511/669/566 520/695/588 510/670/567
f 512/673/570 528/694/587 522/696/589
f 512/673/570 521/697/590 511/669/566
f 513/698/591 516/699/592 523/700/593
f 506/677/572 515/701/594 516/699/592
f 546/702/595 567/703/595 554/704/595
f 505/681/576 517/705/596 515/701/594
f 508/684/579 517/705/596 507/680/575
f 508/684/579 519/691/584 518/706/597
f 539/707/595 538/708/595 569/709/595
f 528/710/598 536/711/599 522/712/599
f 521/713/600 536/711/599 535/689/583
f 516/714/601 537/715/602 523/716/602
f 515/717/603 530/718/601 516/714/601
f 523/716/602 538/719/604 524/720/604
f 517/721/605 529/722/603 515/717/603
f 525/723/606 538/719/604 539/724/606
f 517/721/605 532/725/607 531/726/605
f 525/723/606 540/727/608 526/728/608
f 519/729/609 532/725/607 518/730/607
f 527/731/610 540/727/608 541/732/610
f 519/729/609 534/690/582 533/733/609
f 528/710/598 541/732/610 542/734/598
f 559/735/571 562/736/571 560/737/571
f 551/547/463 553/738/611 503/620/519
f 553/738/611 452/652/550 503/620/519
f 559/739/612 527/693/586 562/692/585
f 566/740/613 555/741/614 513/698/591
f 556/742/615 524/743/616 525/744/617
f 564/641/540 496/596/497 565/745/618
f 523/700/593 568/746/619 513/698/591
f 560/671/568 561/747/620 514/672/569
f 506/677/572 555/741/614 470/595/496
f 565/745/618 470/595/496 563/748/621
f 556/742/615 526/749/622 559/739/612
f 552/750/623 548/751/624 549/752/623
f 558/675/571 563/753/571 557/754/571
f 563/753/571 560/737/571 557/754/571
f 569/709/595 535/755/595 536/756/595
f 530/757/595 569/709/595 537/758/595
f 534/759/595 535/755/595 569/709/595
f 537/758/595 569/709/595 538/708/595
f 569/709/595 536/756/595 542/760/595
f 541/761/595 569/709/595 542/760/595
f 541/761/595 540/762/595 569/709/595
f 540/762/595 539/707/595 569/709/595
f 530/757/595 529/763/595 569/709/595
f 529/763/595 531/764/595 569/709/595
f 531/764/595 532/765/595 569/709/595
f 532/765/595 533/766/595 569/709/595
f 533/766/595 534/759/595 569/709/595
f 553/767/625 546/768/623 554/769/623
f 553/767/625 471/770/626 547/771/627
f 21/1/1 41/5/5 39/2/2
f 22/4/4 43/49/7 41/5/5
f 24/6/6 45/13/12 43/7/7
f 34/9/8 9/27/25 10/10/9
f 26/12/11 47/187/159 45/13/12
f 20/3/3 39/2/2 37/14/13
f 19/15/14 37/14/13 33/16/15
f 19/15/14 17/17/16 1/18/17
f 20/3/3 19/15/14 3/19/18
f 21/1/1 20/3/3 4/20/19
f 22/4/4 21/1/1 5/21/20
f 24/6/6 22/8/4 6/23/21
f 24/6/6 7/24/22 8/25/23
f 38/26/24 11/38/35 9/27/25
f 42/28/26 13/32/30 12/29/27
f 42/28/26 44/48/32 14/31/29
f 46/33/31 15/37/34 14/34/29
f 46/33/31 48/50/44 16/36/33
f 40/30/28 12/29/27 11/38/35
f 2/39/36 31/772/628 32/40/37
f 8/25/23 7/24/22 25/41/38
f 7/24/22 6/23/21 27/43/40
f 6/22/21 5/21/20 28/44/41
f 5/21/20 4/20/19 29/46/42
f 3/19/18 30/47/43 29/46/42
f 1/18/17 32/40/37 30/47/43
f 35/11/10 36/51/45 33/16/15
f 34/9/8 33/16/15 37/14/13
f 38/26/24 37/14/13 39/2/2
f 40/30/28 39/2/2 41/5/5
f 44/48/32 42/28/26 41/5/5
f 44/35/32 43/7/7 45/13/12
f 45/13/12 47/187/159 48/50/44
f 17/17/16 33/16/15 36/51/45
f 62/53/47 77/57/51 75/54/48
f 64/56/50 79/219/184 77/57/51
f 56/58/52 71/64/58 69/59/53
f 54/60/54 69/59/53 65/61/55
f 58/63/57 73/66/59 71/64/58
f 60/65/49 75/90/48 73/66/59
f 14/67/29 15/71/34 61/68/60
f 16/70/33 63/84/67 61/68/60
f 9/72/25 49/76/63 52/73/62
f 11/75/35 53/78/64 49/76/63
f 12/77/27 55/80/65 53/78/64
f 13/79/30 57/82/66 55/80/65
f 14/81/29 59/83/61 57/82/66
f 50/62/56 51/95/76 52/73/62
f 54/60/54 50/62/56 49/76/63
f 56/58/52 54/60/54 53/78/64
f 58/63/57 56/58/52 55/80/65
f 60/65/49 58/63/57 57/82/66
f 60/55/49 59/69/61 61/68/60
f 63/84/67 64/56/50 62/53/47
f 66/85/68 67/212/78 68/86/69
f 70/87/70 66/85/68 65/61/55
f 72/88/71 70/87/70 69/59/53
f 72/88/71 71/64/58 73/66/59
f 74/89/72 73/66/59 75/90/48
f 76/92/73 75/54/48 77/57/51
f 77/57/51 79/219/184 80/94/75
f 50/62/56 65/61/55 68/86/69
f 18/52/46 2/39/36 1/18/17
f 28/105/79 85/115/89 84/106/80
f 30/108/82 32/118/91 89/109/83
f 25/111/85 83/117/90 82/112/86
f 29/114/88 86/120/93 85/115/89
f 27/116/81 84/773/80 83/117/90
f 32/118/91 31/235/194 88/119/92
f 29/114/88 30/108/82 87/110/84
f 171/121/94 98/125/98 105/122/95
f 86/120/93 179/241/200 180/123/96
f 170/124/97 99/128/101 98/125/98
f 84/106/80 85/115/89 180/123/96
f 169/127/100 100/132/104 99/128/101
f 83/117/90 84/773/80 181/129/99
f 169/127/100 168/232/191 101/131/103
f 179/133/105 199/139/111 198/134/106
f 211/136/108 200/253/211 175/137/109
f 199/139/111 210/145/117 95/140/112
f 206/142/114 211/136/108 176/138/110
f 209/144/116 97/147/119 95/140/112
f 205/146/118 96/246/205 97/147/119
f 208/148/120 90/243/202 172/149/121
f 134/151/123 136/154/126 121/152/124
f 136/154/126 138/156/128 122/155/127
f 138/156/128 140/160/132 123/157/129
f 35/11/10 10/10/9 112/158/130
f 140/160/132 47/187/159 26/12/11
f 132/161/133 134/151/123 120/153/125
f 130/163/135 132/161/133 119/162/134
f 107/165/137 106/181/153 118/164/136
f 120/153/125 108/166/138 107/165/137
f 121/152/124 109/167/139 108/166/138
f 122/155/127 110/168/140 109/167/139
f 123/157/129 111/169/141 110/168/140
f 26/12/11 8/25/23 111/169/141
f 131/159/131 112/158/130 113/170/142
f 114/172/144 115/175/147 137/173/145
f 115/175/147 116/177/149 139/176/148
f 116/177/149 117/179/151 141/178/150
f 117/179/151 16/36/33 48/50/44
f 113/170/142 114/172/144 135/174/146
f 129/180/152 31/772/628 2/39/36
f 8/25/23 23/42/39 124/182/154
f 111/169/141 124/182/154 125/183/155
f 110/168/140 125/183/155 126/184/156
f 109/167/139 126/184/156 127/185/157
f 127/185/157 128/186/158 107/165/137
f 128/186/158 129/180/152 106/181/153
f 130/163/135 36/51/45 35/11/10
f 133/171/143 132/161/133 130/163/135
f 135/174/146 134/151/123 132/161/133
f 136/154/126 134/151/123 135/174/146
f 139/176/148 138/156/128 136/154/126
f 141/178/150 140/160/132 138/156/128
f 140/160/132 141/178/150 48/50/44
f 36/51/45 130/163/135 118/164/136
f 162/188/160 164/191/163 153/189/161
f 164/191/163 79/219/184 64/56/50
f 156/192/164 158/197/169 147/193/165
f 154/195/167 156/192/164 145/194/166
f 158/197/169 160/199/171 149/198/170
f 160/199/171 162/188/160 151/190/162
f 150/200/172 152/211/177 117/201/151
f 117/201/151 152/211/177 63/84/67
f 52/73/62 142/204/173 112/203/130
f 142/204/173 144/206/174 113/205/142
f 144/206/174 146/208/175 114/207/144
f 146/208/175 148/210/176 115/209/147
f 148/210/176 150/200/172 116/202/149
f 142/204/173 52/73/62 51/95/76
f 145/194/166 144/206/174 142/204/173
f 146/208/175 144/206/174 145/194/166
f 149/198/170 148/210/176 146/208/175
f 151/190/162 150/200/172 148/210/176
f 153/189/161 152/211/177 150/200/172
f 153/189/161 64/56/50 63/84/67
f 154/195/167 68/86/69 67/212/78
f 156/192/164 154/195/167 155/213/178
f 158/197/169 156/192/164 157/214/179
f 160/199/171 158/197/169 159/215/180
f 162/188/160 160/199/171 161/216/181
f 164/191/163 162/188/160 163/217/182
f 165/218/183 80/94/75 79/219/184
f 68/86/69 154/195/167 143/196/168
f 118/164/136 106/181/153 2/39/36
f 167/226/185 168/232/191 126/227/186
f 128/229/188 170/124/97 171/121/94
f 82/112/86 166/234/193 124/231/190
f 168/232/191 169/127/100 127/233/192
f 166/234/193 167/226/185 125/228/187
f 129/230/189 171/121/94 88/119/92
f 127/233/192 169/127/100 170/124/97
f 83/117/90 182/130/102 183/236/195
f 167/226/185 102/238/197 101/131/103
f 88/119/92 105/122/95 104/237/196
f 166/234/193 103/240/199 102/238/197
f 87/110/84 89/109/83 104/237/196
f 82/112/86 183/236/195 103/240/199
f 87/110/84 178/239/198 179/241/200
f 204/242/201 91/248/207 90/243/202
f 207/150/122 172/149/121 173/244/203
f 206/142/114 177/143/115 96/246/205
f 202/247/206 92/267/210 91/248/207
f 203/245/204 173/244/203 174/249/208
f 198/134/106 93/257/215 92/251/210
f 201/250/209 174/249/208 175/137/109
f 92/251/210 93/257/215 187/254/212
f 176/138/110 196/269/226 197/256/214
f 93/257/215 94/141/113 188/258/216
f 177/143/115 197/256/214 190/259/217
f 95/140/112 189/261/219 188/258/216
f 95/140/112 97/147/119 191/260/218
f 91/248/207 185/268/225 184/262/220
f 96/246/205 190/259/217 191/260/218
f 173/244/203 172/149/121 192/263/221
f 90/243/202 184/262/220 192/263/221
f 174/249/208 173/244/203 193/264/222
f 174/249/208 194/265/223 195/266/224
f 92/267/210 186/289/213 185/268/225
f 175/137/109 195/266/224 196/269/226
f 196/269/226 224/295/251 225/270/227
f 99/271/228 100/282/239 200/253/211
f 179/133/105 178/273/230 210/145/117
f 98/272/229 99/271/228 211/136/108
f 178/273/230 104/275/232 209/144/116
f 105/274/231 205/146/118 209/144/116
f 183/276/233 208/148/120 207/150/122
f 182/278/235 204/242/201 208/148/120
f 102/279/236 103/277/234 207/150/122
f 105/274/231 98/272/229 206/142/114
f 182/278/235 181/774/238 202/247/206
f 101/280/237 102/279/236 203/245/204
f 180/135/107 198/134/106 202/252/206
f 101/280/237 201/250/209 200/253/211
f 199/139/111 94/141/113 93/257/215
f 191/260/218 219/285/242 217/283/240
f 197/256/214 225/270/227 218/284/241
f 190/259/217 218/284/241 219/285/242
f 184/262/220 212/287/244 220/286/243
f 185/268/225 213/290/246 212/287/244
f 192/263/221 220/286/243 221/288/245
f 186/289/213 214/775/248 213/290/246
f 193/264/222 221/288/245 222/291/247
f 187/254/212 215/294/250 214/292/248
f 194/265/223 222/291/247 223/293/249
f 188/258/216 216/296/252 215/294/250
f 195/266/224 223/293/249 224/295/251
f 189/261/219 217/283/240 216/296/252
f 212/287/244 213/290/246 227/297/253
f 221/288/245 220/286/243 234/299/255
f 213/290/246 214/775/248 228/301/257
f 222/291/247 221/288/245 235/300/256
f 214/292/248 215/294/250 229/303/259
f 222/291/247 236/302/258 237/305/260
f 216/296/252 230/307/262 229/303/259
f 223/293/249 237/305/260 238/306/261
f 217/283/240 231/309/264 230/307/262
f 224/295/251 238/306/261 239/308/263
f 219/285/242 233/311/266 231/309/264
f 218/284/241 225/270/227 239/308/263
f 219/285/242 218/284/241 232/310/265
f 220/286/243 212/287/244 226/298/254
f 287/312/267 330/341/296 333/313/268
f 270/315/270 311/321/276 308/316/271
f 290/314/269 333/313/268 336/318/273
f 276/320/275 317/326/281 311/321/276
f 300/322/277 241/379/332 240/323/278
f 273/325/280 314/330/285 317/326/281
f 278/327/282 321/335/290 324/328/283
f 293/319/274 336/318/273 314/330/285
f 227/331/286 257/362/316 255/332/287
f 254/334/289 297/421/371 321/335/290
f 281/329/284 324/328/283 327/336/291
f 264/338/293 305/342/297 302/339/294
f 284/337/292 327/336/291 330/341/296
f 267/317/272 308/316/271 305/342/297
f 231/343/298 269/350/305 266/344/299
f 238/346/301 291/371/324 294/347/302
f 231/343/298 233/353/308 275/349/304
f 239/348/303 294/347/302 272/351/306
f 232/352/307 272/351/306 275/349/304
f 261/354/295 302/776/294 299/355/309
f 226/333/288 255/332/287 279/357/311
f 235/359/313 234/358/312 279/357/311
f 227/331/286 228/777/319 260/361/315
f 235/359/313 282/360/314 285/363/317
f 228/365/319 229/370/323 263/366/320
f 236/364/318 285/363/317 288/368/321
f 230/345/300 266/344/299 263/366/320
f 237/369/322 288/368/321 291/371/324
f 320/372/325 248/380/333 249/373/326
f 315/375/328 335/394/346 253/376/329
f 303/378/331 242/778/337 241/379/332
f 296/324/279 240/323/278 248/380/333
f 326/381/334 323/374/327 249/373/326
f 306/383/336 243/389/341 242/384/337
f 329/386/338 326/381/334 250/382/335
f 306/383/336 309/392/344 244/388/340
f 332/390/342 329/386/338 251/387/339
f 309/392/344 312/396/348 245/393/345
f 335/394/346 332/390/342 252/391/343
f 318/395/347 247/397/349 245/393/345
f 318/395/347 315/375/328 246/377/330
f 258/356/310 254/334/289 256/398/350
f 256/398/350 255/332/287 257/362/316
f 260/361/315 262/400/352 259/399/351
f 262/400/352 261/354/295 258/356/310
f 263/366/320 265/403/354 262/401/352
f 262/401/352 265/403/354 264/338/293
f 263/366/320 266/344/299 268/402/353
f 268/402/353 267/317/272 264/338/293
f 269/350/305 271/404/355 268/402/353
f 268/402/353 271/404/355 270/315/270
f 275/349/304 277/405/356 271/404/355
f 271/404/355 277/405/356 276/320/275
f 272/351/306 274/412/363 277/405/356
f 277/405/356 274/412/363 273/325/280
f 255/332/287 256/398/350 280/406/357
f 280/406/357 256/398/350 254/334/289
f 281/329/284 283/407/358 280/406/357
f 280/406/357 283/407/358 282/360/314
f 284/337/292 286/408/359 283/407/358
f 286/408/359 285/363/317 282/360/314
f 287/312/267 289/410/361 286/408/359
f 286/408/359 289/410/361 288/368/321
f 287/312/267 290/314/269 292/409/360
f 292/409/360 291/371/324 288/368/321
f 290/314/269 293/319/274 295/411/362
f 295/411/362 294/347/302 291/371/324
f 293/319/274 273/325/280 274/412/363
f 274/412/363 272/351/306 294/347/302
f 300/322/277 296/324/279 298/413/364
f 298/413/364 297/421/371 299/355/309
f 299/355/309 302/776/294 304/415/366
f 301/414/365 304/415/366 303/378/331
f 302/339/294 305/342/297 307/416/367
f 307/416/367 306/383/336 303/385/331
f 308/316/271 310/418/368 307/416/367
f 310/418/368 309/392/344 306/383/336
f 311/321/276 313/419/369 310/418/368
f 310/418/368 313/419/369 312/396/348
f 317/326/281 319/420/370 313/419/369
f 313/419/369 319/420/370 318/395/347
f 314/330/285 316/428/378 319/420/370
f 319/420/370 316/428/378 315/375/328
f 297/421/371 298/413/364 322/422/372
f 298/413/364 296/324/279 320/372/325
f 323/374/327 325/424/374 322/422/372
f 322/422/372 325/424/374 324/328/283
f 323/374/327 326/381/334 328/423/373
f 325/424/374 328/423/373 327/336/291
f 329/386/338 331/426/376 328/423/373
f 328/423/373 331/426/376 330/341/296
f 329/386/338 332/390/342 334/425/375
f 334/425/375 333/313/268 330/341/296
f 332/390/342 335/394/346 337/427/377
f 337/427/377 336/318/273 333/313/268
f 335/394/346 315/375/328 316/428/378
f 316/428/378 314/330/285 336/318/273
f 258/356/310 299/355/309 297/421/371
f 339/429/379 375/455/404 377/430/380
f 345/432/382 362/438/388 360/433/383
f 338/431/381 377/430/380 379/435/385
f 344/437/387 366/440/390 362/438/388
f 343/439/389 364/444/394 366/440/390
f 351/441/391 369/457/406 371/442/392
f 342/436/386 379/435/385 364/444/394
f 349/445/395 354/449/399 353/446/396
f 348/448/398 356/517/403 354/449/399
f 341/443/393 371/442/392 373/450/400
f 347/452/402 358/456/405 356/453/403
f 340/451/401 373/450/400 375/455/404
f 346/434/384 360/433/383 358/456/405
f 350/447/397 353/446/396 369/457/406
f 396/458/407 357/779/629 355/459/408
f 359/461/410 357/780/629 396/462/407
f 361/464/412 359/461/410 397/463/411
f 399/466/414 363/781/630 361/464/412
f 367/467/415 363/781/630 399/466/414
f 365/469/417 367/467/415 400/468/416
f 395/471/419 402/472/420 369/457/406
f 371/442/392 369/457/406 402/472/420
f 373/450/400 371/442/392 403/473/421
f 375/455/404 373/450/400 404/474/422
f 406/476/424 377/430/380 375/455/404
f 407/477/425 379/435/385 377/430/380
f 407/477/425 378/512/444 365/469/417
f 393/478/426 392/487/434 339/429/379
f 378/479/427 421/539/427 415/480/428
f 386/482/429 350/447/397 351/441/391
f 385/484/431 346/434/384 347/452/402
f 391/486/433 340/451/401 339/429/379
f 384/488/435 382/485/432 347/452/402
f 391/486/433 390/492/439 341/443/393
f 383/489/436 384/504/435 348/448/398
f 383/489/436 349/445/395 350/447/397
f 387/490/437 342/436/386 343/439/389
f 390/492/439 389/483/430 351/441/391
f 380/491/438 343/439/389 344/437/387
f 388/493/440 344/437/387 345/432/382
f 387/490/437 393/478/426 338/431/381
f 381/494/441 345/432/382 346/434/384
f 353/446/396 354/449/399 394/460/409
f 244/495/340 245/498/345 381/494/441
f 253/496/329 252/509/343 393/478/426
f 247/497/349 388/493/440 381/494/441
f 246/499/330 380/491/438 388/493/440
f 248/500/333 389/483/430 390/492/439
f 253/496/329 387/490/437 380/491/438
f 240/502/278 241/503/332 383/489/436
f 241/503/332 242/782/337 384/504/435
f 249/501/326 390/492/439 391/486/433
f 243/506/341 382/485/432 384/488/435
f 250/505/335 391/486/433 392/487/434
f 244/495/340 385/484/431 382/485/432
f 248/500/333 240/502/278 386/482/429
f 252/509/343 251/508/339 392/487/434
f 352/510/442 395/471/419 394/460/409
f 364/444/394 379/435/385 407/477/425
f 407/477/425 406/476/424 376/511/443
f 406/476/424 405/475/423 374/513/445
f 405/475/423 404/474/422 372/514/446
f 404/474/422 403/473/421 370/515/447
f 403/473/421 402/472/420 368/516/448
f 352/510/442 368/516/448 402/472/420
f 401/470/418 400/468/416 366/440/390
f 400/468/416 399/466/414 362/438/388
f 362/438/388 399/466/414 398/465/413
f 398/465/413 397/463/411 358/456/405
f 358/456/405 397/463/411 396/462/407
f 356/517/403 396/458/407 394/460/409
f 437/518/449 436/551/462 423/519/450
f 367/521/452 414/536/452 413/522/453
f 374/524/454 419/541/454 420/525/455
f 361/527/456 412/540/456 411/528/457
f 370/530/458 417/546/458 418/531/459
f 357/533/460 410/783/460 408/534/461
f 365/481/428 415/480/428 414/536/452
f 355/535/461 408/534/461 409/537/462
f 376/526/455 420/525/455 421/539/427
f 363/523/453 413/522/453 412/540/456
f 372/532/459 418/531/459 419/541/454
f 359/529/457 411/528/457 410/542/460
f 352/538/462 409/537/462 416/544/449
f 368/545/449 416/544/449 417/546/458
f 438/550/461 422/555/468 423/519/450
f 437/518/449 430/520/451 431/552/466
f 438/550/461 440/784/460 424/554/467
f 439/553/458 431/552/466 432/556/469
f 440/558/460 442/563/457 425/559/470
f 443/561/454 441/557/459 432/556/469
f 442/563/457 444/568/456 426/564/472
f 445/565/455 443/561/454 433/562/471
f 446/567/453 427/572/475 426/564/472
f 445/565/455 434/566/473 435/569/474
f 448/571/452 428/575/477 427/572/475
f 447/570/427 435/569/474 429/573/476
f 448/571/452 449/574/428 429/573/476
f 415/576/478 449/574/428 448/571/452
f 415/576/478 421/580/482 447/570/427
f 413/578/480 414/577/479 448/571/452
f 420/579/481 445/565/455 447/570/427
f 413/578/480 446/567/453 444/568/456
f 419/582/484 443/561/454 445/565/455
f 412/581/483 444/568/456 442/563/457
f 418/584/486 441/557/459 443/561/454
f 411/583/485 442/563/457 440/558/460
f 417/586/488 439/553/458 441/557/459
f 410/587/487 440/784/460 438/550/461
f 417/586/488 416/590/491 437/518/449
f 409/589/490 408/588/489 438/550/461
f 409/589/490 436/551/462 437/518/449
f 494/594/495 464/600/501 470/595/496
f 498/591/492 471/593/494 472/597/498
f 491/599/500 465/604/505 464/600/501
f 499/598/499 472/597/498 473/601/502
f 497/603/504 466/611/512 465/604/505
f 500/602/503 473/601/502 474/605/506
f 485/607/508 486/634/533 459/608/509
f 497/603/504 495/618/518 467/610/511
f 501/606/507 474/605/506 475/612/464
f 451/668/565 483/631/530 567/616/516
f 483/631/530 478/614/514 567/616/516
f 478/614/514 452/652/550 554/615/515
f 493/617/517 468/622/521 467/610/511
f 502/619/513 475/548/464 551/547/463
f 493/617/517 492/624/523 469/621/520
f 504/623/522 476/654/552 469/621/520
f 489/625/524 490/632/531 450/626/525
f 479/628/527 460/650/549 458/629/528
f 483/631/530 451/668/565 450/626/525
f 487/633/532 457/640/539 459/608/509
f 482/635/534 477/630/529 458/629/528
f 424/637/536 480/785/543 478/614/514
f 487/633/532 488/648/547 455/639/538
f 462/649/548 481/643/542 546/642/541
f 481/643/542 484/647/546 564/641/540
f 484/647/546 463/646/545 564/641/540
f 480/644/543 482/635/534 456/636/535
f 485/607/508 461/609/510 463/646/545
f 488/648/547 489/625/524 453/627/526
f 479/628/527 481/643/542 462/649/548
f 478/614/514 480/785/543 454/651/544
f 558/653/551 557/786/631 476/654/552
f 428/655/553 481/643/542 479/628/527
f 431/657/555 489/625/524 488/648/547
f 435/659/557 485/607/508 484/647/546
f 425/661/559 482/635/534 480/644/543
f 429/660/558 484/647/546 481/643/542
f 432/658/556 488/648/547 487/633/532
f 425/661/559 426/666/563 477/630/529
f 433/663/560 487/633/532 486/634/533
f 430/665/562 423/667/564 483/631/530
f 426/666/563 427/656/554 479/628/527
f 430/665/562 490/632/531 489/625/524
f 422/638/537 478/614/514 483/631/530
f 434/664/561 486/634/533 485/607/508
f 567/616/516 558/653/551 504/623/522
f 450/626/525 451/668/565 504/623/522
f 450/626/525 492/624/523 493/617/517
f 452/652/550 454/651/544 502/619/513
f 455/639/538 453/627/526 493/617/517
f 454/645/544 456/636/535 501/606/507
f 457/640/539 455/639/538 495/618/518
f 458/629/528 500/602/503 501/606/507
f 459/608/509 457/640/539 497/603/504
f 458/629/528 460/650/549 499/598/499
f 461/609/510 459/608/509 491/599/500
f 460/650/549 462/649/548 498/591/492
f 463/646/545 461/609/510 494/594/495
f 462/649/548 546/642/541 547/592/493
f 468/622/521 469/621/520 511/669/566
f 512/673/570 476/654/552 560/671/568
f 476/654/552 557/786/631 560/671/568
f 476/654/552 512/673/570 511/669/566
f 564/674/571 565/787/571 558/675/571
f 464/600/501 505/681/576 506/677/572
f 472/597/498 471/593/494 548/678/573
f 464/600/501 465/604/505 507/680/575
f 543/788/632 473/601/502 550/682/577
f 473/601/502 472/597/498 552/679/574
f 466/611/512 508/684/579 507/680/575
f 473/601/502 543/788/632 545/683/578
f 467/610/511 509/687/581 508/684/579
f 549/686/465 475/612/464 474/605/506
f 474/605/506 545/683/578 544/685/580
f 468/622/521 510/670/567 509/687/581
f 520/688/582 521/713/600 535/689/583
f 510/670/567 520/695/588 519/691/584
f 528/694/587 514/672/569 562/692/585
f 514/672/569 561/747/620 562/692/585
f 511/669/566 521/697/590 520/695/588
f 512/673/570 514/672/569 528/694/587
f 512/673/570 522/696/589 521/697/590
f 513/698/591 506/677/572 516/699/592
f 506/677/572 505/681/576 515/701/594
f 546/702/595 564/789/595 567/703/595
f 505/681/576 507/680/575 517/705/596
f 508/684/579 518/706/597 517/705/596
f 508/684/579 509/687/581 519/691/584
f 528/710/598 542/734/598 536/711/599
f 521/713/600 522/712/599 536/711/599
f 516/714/601 530/718/601 537/715/602
f 515/717/603 529/722/603 530/718/601
f 523/716/602 537/715/602 538/719/604
f 517/721/605 531/726/605 529/722/603
f 525/723/606 524/720/604 538/719/604
f 517/721/605 518/730/607 532/725/607
f 525/723/606 539/724/606 540/727/608
f 519/729/609 533/733/609 532/725/607
f 527/731/610 526/728/608 540/727/608
f 519/729/609 520/688/582 534/690/582
f 528/710/598 527/731/610 541/732/610
f 561/790/633 560/737/571 562/736/571
f 560/737/571 555/791/571 559/735/571
f 555/791/571 566/792/634 568/793/571
f 568/793/571 556/794/571 555/791/571
f 556/794/571 559/735/571 555/791/571
f 553/738/611 554/615/515 452/652/550
f 559/739/612 526/749/622 527/693/586
f 556/742/615 568/746/619 524/743/616
f 564/641/540 463/646/545 496/596/497
f 524/743/616 568/746/619 523/700/593
f 568/746/619 566/740/613 513/698/591
f 513/698/591 555/741/614 506/677/572
f 555/741/614 563/748/621 470/595/496
f 565/745/618 496/596/497 470/595/496
f 556/742/615 525/744/617 526/749/622
f 471/770/626 551/795/635 548/751/624
f 551/795/635 549/752/623 548/751/624
f 549/752/623 544/796/623 545/797/623
f 545/797/623 543/798/623 549/752/623
f 543/798/623 550/799/636 552/750/623
f 549/752/623 543/798/623 552/750/623
f 558/675/571 565/787/571 563/753/571
f 563/753/571 555/791/571 560/737/571
f 553/767/625 547/771/627 546/768/623
f 553/767/625 551/795/635 471/770/626
