# Blender 5.1.2
# www.blender.org
mtllib White_rook.mtl
o rook_white_low
v 1.103234 0.234120 1.229434
v 1.147935 0.234120 1.239637
v 1.067387 0.234120 1.200847
v 1.047493 0.234120 1.159537
v 1.047492 0.234120 1.113686
v 1.067386 0.234120 1.072376
v 1.103233 0.234120 1.043789
v 1.147934 0.234120 1.033586
v 1.192635 0.234120 1.043788
v 1.228483 0.234120 1.072375
v 1.248377 0.234120 1.113685
v 1.248377 0.234120 1.159536
v 1.228484 0.234120 1.200846
v 1.192636 0.234120 1.229434
v 1.103636 0.178433 1.228600
v 1.147935 0.178433 1.238711
v 1.068110 0.178433 1.200270
v 1.048395 0.178433 1.159331
v 1.048395 0.178433 1.113892
v 1.068110 0.178433 1.072954
v 1.103635 0.178433 1.044623
v 1.147934 0.178433 1.034512
v 1.192234 0.178433 1.044622
v 1.227759 0.178433 1.072953
v 1.247475 0.178433 1.113891
v 1.247475 0.178433 1.159330
v 1.227760 0.178433 1.200269
v 1.192235 0.178433 1.228600
v 1.187960 0.255981 1.219723
v 1.093149 0.209346 1.250376
v 1.147935 0.209346 1.262880
v 1.220056 0.255981 1.194126
v 1.237869 0.255981 1.157138
v 1.049214 0.209346 1.215339
v 1.237869 0.255981 1.116084
v 1.024832 0.209346 1.164709
v 1.220056 0.255981 1.079096
v 1.024832 0.209346 1.108514
v 1.187959 0.255981 1.053500
v 1.049213 0.209346 1.057884
v 1.147934 0.255981 1.044364
v 1.093148 0.209346 1.022847
v 1.107910 0.255981 1.053500
v 1.147934 0.209346 1.010342
v 1.075813 0.255981 1.079097
v 1.202720 0.209346 1.022846
v 1.058001 0.255981 1.116085
v 1.246656 0.209346 1.057883
v 1.058001 0.255981 1.157139
v 1.271038 0.209346 1.108513
v 1.075814 0.255981 1.194126
v 1.271038 0.209346 1.164708
v 1.147935 0.255981 1.228858
v 1.246656 0.209346 1.215338
v 1.107911 0.255981 1.219723
v 1.202721 0.209346 1.250375
v 1.093149 0.199835 1.250376
v 1.096254 0.189535 1.243929
v 1.147935 0.189535 1.255725
v 1.147935 0.199835 1.262880
v 1.049214 0.199835 1.215339
v 1.054809 0.189535 1.210878
v 1.024832 0.199835 1.164709
v 1.031808 0.189535 1.163117
v 1.024832 0.199835 1.108514
v 1.031808 0.189535 1.110107
v 1.049213 0.199835 1.057884
v 1.054808 0.189535 1.062346
v 1.093148 0.199835 1.022847
v 1.096253 0.189535 1.029294
v 1.147934 0.199835 1.010342
v 1.147934 0.189535 1.017498
v 1.202720 0.199835 1.022846
v 1.199615 0.189535 1.029294
v 1.246656 0.199835 1.057883
v 1.241061 0.189535 1.062345
v 1.271038 0.199835 1.108513
v 1.264062 0.189535 1.110105
v 1.271038 0.199835 1.164708
v 1.264062 0.189535 1.163116
v 1.246656 0.199835 1.215338
v 1.241062 0.189535 1.210877
v 1.202721 0.199835 1.250375
v 1.199617 0.189535 1.243928
v 1.094513 0.165891 1.247545
v 1.090432 0.158407 1.256019
v 1.147936 0.158407 1.269143
v 1.147935 0.165891 1.259738
v 1.051671 0.165891 1.213380
v 1.044318 0.158407 1.219244
v 1.027895 0.165891 1.164010
v 1.018726 0.158407 1.166103
v 1.027895 0.165891 1.109214
v 1.018726 0.158407 1.107121
v 1.051670 0.165891 1.059843
v 1.044317 0.158407 1.053980
v 1.094512 0.165891 1.025678
v 1.090431 0.158407 1.017205
v 1.147934 0.165891 1.013484
v 1.147934 0.158407 1.004079
v 1.201357 0.165891 1.025678
v 1.205438 0.158407 1.017204
v 1.244199 0.165891 1.059842
v 1.251552 0.158407 1.053978
v 1.267974 0.165891 1.109212
v 1.277144 0.158407 1.107119
v 1.267975 0.165891 1.164009
v 1.277144 0.158407 1.166102
v 1.244200 0.165891 1.213379
v 1.251553 0.158407 1.219243
v 1.201358 0.165891 1.247544
v 1.205439 0.158407 1.256018
v 1.090432 0.150072 1.256019
v 1.094878 0.141955 1.246787
v 1.147935 0.141955 1.258897
v 1.147936 0.150072 1.269143
v 1.044318 0.150072 1.219244
v 1.052328 0.141955 1.212856
v 1.018726 0.150072 1.166103
v 1.028715 0.141955 1.163823
v 1.018726 0.150072 1.107121
v 1.028715 0.141955 1.109401
v 1.044317 0.150072 1.053980
v 1.052327 0.141955 1.060368
v 1.090431 0.150072 1.017205
v 1.094876 0.141955 1.026436
v 1.147934 0.150072 1.004079
v 1.147934 0.141955 1.014325
v 1.205438 0.150072 1.017204
v 1.200992 0.141955 1.026435
v 1.251552 0.150072 1.053978
v 1.243541 0.141955 1.060367
v 1.277144 0.150072 1.107119
v 1.267155 0.141955 1.109399
v 1.277144 0.150072 1.166102
v 1.267155 0.141955 1.163822
v 1.251553 0.150072 1.219243
v 1.243542 0.141955 1.212855
v 1.205439 0.150072 1.256018
v 1.200993 0.141955 1.246787
v 1.147935 0.141955 1.136611
v 1.187960 0.266912 1.219723
v 1.220056 0.266912 1.194126
v 1.237869 0.266912 1.157138
v 1.237869 0.266912 1.116084
v 1.220056 0.266912 1.079096
v 1.187959 0.266912 1.053500
v 1.147934 0.266912 1.044364
v 1.107910 0.266912 1.053500
v 1.075813 0.266912 1.079097
v 1.058001 0.266912 1.116085
v 1.058001 0.266912 1.157139
v 1.075814 0.266912 1.194126
v 1.147935 0.266912 1.228858
v 1.107911 0.266912 1.219723
v 1.187502 0.271544 1.218772
v 1.219232 0.271544 1.193468
v 1.236840 0.271544 1.156903
v 1.236840 0.271544 1.116319
v 1.219231 0.271544 1.079754
v 1.187501 0.271544 1.054450
v 1.147934 0.271544 1.045419
v 1.108368 0.271544 1.054450
v 1.076638 0.271544 1.079754
v 1.059029 0.271544 1.116320
v 1.059029 0.271544 1.156904
v 1.076638 0.271544 1.193469
v 1.147935 0.271544 1.227803
v 1.108369 0.271544 1.218773
v 1.187502 0.274082 1.218772
v 1.219232 0.274082 1.193468
v 1.236840 0.274082 1.156903
v 1.236840 0.274082 1.116319
v 1.219231 0.274082 1.079754
v 1.187501 0.274082 1.054450
v 1.147934 0.274082 1.045419
v 1.108368 0.274082 1.054450
v 1.076638 0.274082 1.079754
v 1.059029 0.274082 1.116320
v 1.059029 0.274082 1.156904
v 1.076638 0.274082 1.193469
v 1.147935 0.274082 1.227803
v 1.108369 0.274082 1.218773
v 1.184911 0.278130 1.213393
v 1.214564 0.278130 1.189746
v 1.231019 0.278130 1.155574
v 1.231019 0.278130 1.117647
v 1.214563 0.278130 1.083476
v 1.184911 0.278130 1.059829
v 1.147934 0.278130 1.051390
v 1.110958 0.278130 1.059830
v 1.081306 0.278130 1.083477
v 1.064850 0.278130 1.117648
v 1.064850 0.278130 1.155575
v 1.081306 0.278130 1.189746
v 1.147935 0.278130 1.221833
v 1.110959 0.278130 1.213393
v 1.229992 0.268434 1.155340
v 1.229991 0.268434 1.117882
v 1.065878 0.268434 1.155341
v 1.082131 0.268434 1.189089
v 1.213739 0.268434 1.084134
v 1.111417 0.268434 1.212443
v 1.184453 0.268434 1.060779
v 1.147935 0.268434 1.220778
v 1.147934 0.268434 1.052444
v 1.111416 0.268434 1.060780
v 1.184454 0.268434 1.212443
v 1.082130 0.268434 1.084134
v 1.213739 0.268434 1.189088
v 1.065878 0.268434 1.117883
v 1.181027 0.496491 1.205327
v 1.207564 0.496491 1.184164
v 1.222291 0.496491 1.153582
v 1.222291 0.496491 1.119639
v 1.207564 0.496491 1.089058
v 1.181026 0.496491 1.067895
v 1.147934 0.496491 1.060342
v 1.114843 0.496491 1.067896
v 1.088305 0.496491 1.089059
v 1.073578 0.496491 1.119640
v 1.073578 0.496491 1.153583
v 1.088306 0.496491 1.184164
v 1.147935 0.496491 1.212880
v 1.114843 0.496491 1.205327
v 1.183622 0.499349 1.210716
v 1.212241 0.499349 1.187893
v 1.228123 0.499349 1.154913
v 1.228122 0.499349 1.118308
v 1.212240 0.499349 1.085329
v 1.183621 0.499349 1.062506
v 1.147934 0.499349 1.054361
v 1.112247 0.499349 1.062507
v 1.083629 0.499349 1.085330
v 1.067747 0.499349 1.118309
v 1.067747 0.499349 1.154914
v 1.083629 0.499349 1.187894
v 1.147935 0.499349 1.218861
v 1.112248 0.499349 1.210716
v 1.183622 0.502441 1.210716
v 1.212241 0.502441 1.187893
v 1.228123 0.502441 1.154913
v 1.228122 0.502441 1.118308
v 1.212240 0.502441 1.085329
v 1.183621 0.502441 1.062506
v 1.147934 0.502441 1.054361
v 1.112247 0.502441 1.062507
v 1.083629 0.502441 1.085330
v 1.067747 0.502441 1.118309
v 1.067747 0.502441 1.154914
v 1.083629 0.502441 1.187894
v 1.147935 0.502441 1.218861
v 1.112248 0.502441 1.210716
v 1.180721 0.505909 1.204692
v 1.207014 0.505909 1.183725
v 1.221605 0.505909 1.153425
v 1.221604 0.505909 1.119796
v 1.207013 0.505909 1.089497
v 1.180721 0.505909 1.068530
v 1.147934 0.505909 1.061047
v 1.115148 0.505909 1.068530
v 1.088856 0.505909 1.089498
v 1.074265 0.505909 1.119797
v 1.074265 0.505909 1.153426
v 1.088856 0.505909 1.183725
v 1.147935 0.505909 1.212176
v 1.115149 0.505909 1.204692
v 1.191990 0.516200 1.228091
v 1.227319 0.516200 1.199917
v 1.246925 0.516200 1.159204
v 1.246925 0.516200 1.114017
v 1.227318 0.516200 1.073304
v 1.191989 0.516200 1.045131
v 1.147934 0.516200 1.035076
v 1.103880 0.516200 1.045131
v 1.068551 0.516200 1.073305
v 1.048945 0.516200 1.114018
v 1.048945 0.516200 1.159206
v 1.068551 0.516200 1.199918
v 1.147935 0.516200 1.238147
v 1.103881 0.516200 1.228092
v 1.191990 0.559116 1.228091
v 1.246925 0.559116 1.159204
v 1.246925 0.559116 1.114017
v 1.191989 0.559116 1.045131
v 1.103880 0.559116 1.045131
v 1.048945 0.559116 1.114018
v 1.048945 0.559116 1.159206
v 1.103881 0.559116 1.228092
v 1.080327 0.559116 1.063914
v 1.062015 0.559116 1.086876
v 1.162619 0.559116 1.038427
v 1.133249 0.559116 1.038427
v 1.062016 0.559116 1.186347
v 1.080328 0.559116 1.209309
v 1.133250 0.559116 1.234795
v 1.162620 0.559116 1.234795
v 1.215542 0.559116 1.209309
v 1.215542 0.559116 1.063913
v 1.233854 0.559116 1.086875
v 1.233854 0.559116 1.186346
v 1.147935 0.520068 1.226326
v 1.077793 0.520068 1.192548
v 1.077792 0.520068 1.080675
v 1.147934 0.520068 1.046896
v 1.160910 0.559116 1.049858
v 1.134959 0.559116 1.049858
v 1.088198 0.559116 1.072377
v 1.072019 0.559116 1.180557
v 1.134960 0.559116 1.223365
v 1.223851 0.559116 1.092665
v 1.207671 0.559116 1.072376
v 1.109008 0.559116 1.055781
v 1.186860 0.559116 1.055781
v 1.072018 0.559116 1.092666
v 1.060469 0.559116 1.116648
v 1.060469 0.559116 1.156575
v 1.207672 0.559116 1.200845
v 1.088199 0.559116 1.200846
v 1.109009 0.559116 1.217442
v 1.160911 0.559116 1.223365
v 1.186861 0.559116 1.217441
v 1.235401 0.559116 1.156574
v 1.235400 0.559116 1.116647
v 1.223852 0.559116 1.180556
v 1.218077 0.520068 1.080674
v 1.109008 0.520068 1.055781
v 1.186860 0.520068 1.055781
v 1.060469 0.520068 1.116648
v 1.060469 0.520068 1.156575
v 1.218077 0.520068 1.192547
v 1.109009 0.520068 1.217442
v 1.186861 0.520068 1.217441
v 1.235401 0.520068 1.156574
v 1.235400 0.520068 1.116647
v 1.147934 0.540159 1.035076
v 1.103880 0.540159 1.045131
v 1.147935 0.540159 1.238147
v 1.191990 0.540159 1.228091
v 1.068551 0.540159 1.073305
v 1.227319 0.540159 1.199917
v 1.048945 0.540159 1.114018
v 1.246925 0.540159 1.159204
v 1.048945 0.540159 1.159206
v 1.246925 0.540159 1.114017
v 1.068551 0.540159 1.199918
v 1.227318 0.540159 1.073304
v 1.103881 0.540159 1.228092
v 1.191989 0.540159 1.045131
v 1.080327 0.540159 1.063914
v 1.062015 0.540159 1.086876
v 1.162619 0.540159 1.038427
v 1.133249 0.540159 1.038427
v 1.062016 0.540159 1.186347
v 1.080328 0.540159 1.209309
v 1.133250 0.540159 1.234795
v 1.162620 0.540159 1.234795
v 1.215542 0.540159 1.063913
v 1.215542 0.540159 1.209309
v 1.233854 0.540159 1.086875
v 1.233854 0.540159 1.186346
v 1.134960 0.540159 1.223365
v 1.147935 0.540159 1.226326
v 1.060469 0.540159 1.116648
v 1.072018 0.540159 1.092666
v 1.109009 0.540159 1.217442
v 1.077792 0.540159 1.080675
v 1.186860 0.540159 1.055781
v 1.223852 0.540159 1.180556
v 1.077793 0.540159 1.192548
v 1.088199 0.540159 1.200846
v 1.134959 0.540159 1.049858
v 1.235401 0.540159 1.156574
v 1.109008 0.540159 1.055781
v 1.088198 0.540159 1.072377
v 1.207672 0.540159 1.200845
v 1.218077 0.540159 1.192547
v 1.160910 0.540159 1.049858
v 1.147934 0.540159 1.046896
v 1.160911 0.540159 1.223365
v 1.186861 0.540159 1.217441
v 1.218077 0.540159 1.080674
v 1.207671 0.540159 1.072376
v 1.235400 0.540159 1.116647
v 1.223851 0.540159 1.092665
v 1.060469 0.540159 1.156575
v 1.072019 0.540159 1.180557
v 1.147935 0.520068 1.136611
vn -0.0000 0.3512 0.9363
vn 0.4156 -0.2875 0.8629
vn 0.4063 0.3512 0.8436
vn 0.9128 0.3512 0.2083
vn 0.9338 -0.2875 -0.2131
vn 0.9128 0.3512 -0.2083
vn -0.9128 0.3512 -0.2083
vn -0.9338 -0.2875 0.2131
vn -0.9128 0.3512 0.2084
vn 0.7320 0.3512 0.5838
vn 0.9338 -0.2875 0.2131
vn -0.7320 0.3512 -0.5838
vn -0.9338 -0.2875 -0.2131
vn 0.7488 -0.2875 0.5972
vn -0.4063 0.3512 -0.8436
vn -0.7488 -0.2875 -0.5972
vn -0.3082 -0.7039 0.6399
vn -0.0000 0.0231 0.9997
vn -0.0000 -0.7039 0.7103
vn -0.0000 0.3512 -0.9363
vn -0.4156 -0.2875 -0.8629
vn -0.7488 -0.2875 0.5972
vn -0.7320 0.3512 0.5838
vn 0.4062 0.3512 -0.8436
vn -0.0000 -0.2875 -0.9578
vn 0.7320 0.3512 -0.5838
vn 0.4156 -0.2875 -0.8629
vn -0.4156 -0.2875 0.8629
vn -0.4062 0.3512 0.8436
vn 0.7488 -0.2875 -0.5972
vn 0.3536 0.5794 -0.7343
vn 0.7600 0.2345 -0.6061
vn 0.6372 0.5794 -0.5082
vn -0.6372 0.5794 0.5082
vn 0.7946 0.5794 -0.1814
vn -0.7946 0.5794 0.1814
vn 0.7946 0.5794 0.1814
vn -0.7946 0.5794 -0.1814
vn 0.6372 0.5794 0.5082
vn -0.6372 0.5794 -0.5082
vn 0.3536 0.5794 0.7343
vn -0.3536 0.5794 -0.7343
vn -0.0000 0.5794 0.8150
vn -0.0000 0.5794 -0.8150
vn -0.7816 0.0231 0.6233
vn -0.4338 0.0231 0.9007
vn 0.6925 -0.7039 -0.1581
vn 0.7816 0.0231 -0.6233
vn 0.5553 -0.7039 -0.4429
vn 0.4338 0.0231 0.9007
vn 0.3082 -0.7039 0.6399
vn 0.9747 0.0231 0.2225
vn 0.9747 0.0231 -0.2225
vn -0.6925 -0.7039 -0.1581
vn -0.9747 0.0231 0.2225
vn -0.6925 -0.7039 0.1581
vn 0.6925 -0.7039 0.1580
vn 0.7816 0.0231 0.6233
vn -0.7816 0.0231 -0.6233
vn -0.9747 0.0231 -0.2225
vn 0.5553 -0.7039 0.4429
vn -0.5553 -0.7039 -0.4429
vn -0.4338 0.0231 -0.9007
vn -0.0000 -0.7039 -0.7103
vn -0.3082 -0.7039 -0.6399
vn -0.5553 -0.7039 0.4429
vn 0.3082 -0.7039 -0.6399
vn -0.0000 0.0231 -0.9997
vn 0.4338 0.0231 -0.9007
vn 0.9749 -0.0000 -0.2225
vn 0.9477 0.2345 -0.2163
vn -0.4218 0.2345 0.8759
vn -0.3536 0.5794 0.7343
vn 0.4218 0.2345 -0.8759
vn -0.0000 0.2345 -0.9721
vn -0.0000 0.2345 0.9721
vn -0.7600 0.2345 -0.6061
vn -0.4218 0.2345 -0.8758
vn 0.7600 0.2345 0.6061
vn 0.4218 0.2345 0.8758
vn -0.9477 0.2345 -0.2163
vn 0.9477 0.2345 0.2163
vn -0.7600 0.2345 0.6061
vn -0.9477 0.2345 0.2163
vn -0.0000 -0.2875 0.9578
vn -0.3954 0.4119 -0.8210
vn -0.7121 -0.4128 -0.5679
vn -0.7124 0.4119 -0.5681
vn 0.1602 -0.9293 -0.3327
vn 0.2887 -0.9293 -0.2302
vn -0.0000 -1.0000 -0.0000
vn -0.0000 0.4119 -0.9112
vn -0.3952 -0.4128 -0.8206
vn -0.8884 0.4119 0.2028
vn -0.7121 -0.4128 0.5679
vn -0.7124 0.4119 0.5681
vn 0.3954 0.4120 -0.8210
vn -0.0000 -0.4128 -0.9108
vn 0.7124 0.4119 -0.5681
vn 0.3952 -0.4128 -0.8206
vn -0.3952 -0.4128 0.8206
vn -0.3954 0.4119 0.8210
vn 0.8884 0.4119 -0.2028
vn 0.7121 -0.4128 -0.5679
vn -0.0000 0.4119 0.9112
vn 0.3952 -0.4128 0.8206
vn 0.3954 0.4119 0.8210
vn 0.8884 0.4119 0.2028
vn 0.8880 -0.4128 -0.2027
vn -0.8884 0.4119 -0.2028
vn -0.8880 -0.4128 0.2027
vn 0.7124 0.4119 0.5681
vn 0.8880 -0.4128 0.2027
vn -0.8880 -0.4128 -0.2027
vn 0.7121 -0.4128 0.5679
vn 0.4497 0.8181 0.3586
vn -0.2495 0.8181 -0.5182
vn -0.4497 0.8181 -0.3586
vn -0.0000 0.8181 0.5751
vn 0.2495 0.8181 0.5182
vn -0.0000 0.8181 -0.5751
vn -0.2495 0.8181 0.5182
vn 0.2495 0.8181 -0.5182
vn -0.4497 0.8181 0.3586
vn 0.4497 0.8181 -0.3586
vn 0.5607 0.8181 0.1280
vn 0.5607 0.8181 -0.1280
vn -0.5607 0.8181 0.1280
vn -0.5607 0.8181 -0.1280
vn -0.0000 -0.9293 0.3693
vn -0.1602 -0.9293 0.3327
vn -0.2887 -0.9293 0.2302
vn -0.3600 -0.9293 0.0822
vn -0.3600 -0.9293 -0.0822
vn -0.2887 -0.9293 -0.2302
vn -0.1602 -0.9293 -0.3327
vn -0.0000 -0.9293 -0.3693
vn 0.3600 -0.9293 -0.0822
vn 0.3600 -0.9293 0.0822
vn 0.2887 -0.9293 0.2302
vn 0.1602 -0.9293 0.3327
vn -0.0000 -0.4128 0.9108
vn -0.7818 -0.0000 -0.6235
vn 0.7818 -0.0000 0.6235
vn -0.7818 -0.0000 0.6235
vn -0.0000 -0.0000 -1.0000
vn 0.7818 -0.0000 -0.6235
vn -0.9749 -0.0000 -0.2225
vn 0.9749 -0.0000 0.2225
vn -0.4339 -0.0000 -0.9010
vn -0.4339 -0.0000 0.9010
vn -0.0000 -0.0000 1.0000
vn 0.4339 -0.0000 -0.9010
vn -0.9749 -0.0000 0.2225
vn 0.4339 -0.0000 0.9010
vn -0.1806 0.9827 -0.0412
vn -0.1448 0.9827 -0.1155
vn 0.1806 0.9827 0.0412
vn 0.1448 0.9827 0.1155
vn -0.1806 0.9827 0.0412
vn 0.1806 0.9827 -0.0412
vn -0.1448 0.9827 0.1155
vn 0.1448 0.9827 -0.1155
vn -0.0804 0.9827 0.1669
vn 0.0804 0.9827 -0.1669
vn -0.0000 0.9827 0.1852
vn -0.0000 0.9827 -0.1852
vn -0.0804 0.9827 -0.1669
vn 0.0804 0.9827 0.1669
vn -0.3165 -0.9144 0.2524
vn -0.3725 -0.5128 0.7735
vn -0.6712 -0.5128 0.5353
vn 0.1756 -0.9144 -0.3647
vn 0.6712 -0.5128 -0.5353
vn 0.3165 -0.9144 -0.2524
vn -0.1756 -0.9144 0.3647
vn -0.0000 -0.5128 0.8585
vn -0.0000 -0.9144 -0.4048
vn 0.3725 -0.5128 -0.7735
vn -0.3725 -0.5128 -0.7735
vn -0.0000 -0.5128 -0.8585
vn 0.1756 -0.9144 0.3647
vn -0.0000 -0.9144 0.4048
vn -0.1756 -0.9144 -0.3647
vn -0.6712 -0.5128 -0.5353
vn 0.3165 -0.9144 0.2524
vn 0.3725 -0.5128 0.7735
vn -0.3165 -0.9144 -0.2524
vn -0.8370 -0.5128 -0.1910
vn 0.8370 -0.5128 0.1910
vn 0.6712 -0.5128 0.5353
vn -0.3947 -0.9144 0.0901
vn -0.3947 -0.9144 -0.0901
vn 0.3947 -0.9144 0.0901
vn 0.8370 -0.5128 -0.1910
vn -0.8370 -0.5128 0.1910
vn 0.3947 -0.9144 -0.0901
vn 0.3890 0.4429 -0.8078
vn -0.0000 0.4429 -0.8966
vn -0.0000 0.4429 0.8966
vn -0.3890 0.4429 -0.8078
vn 0.3890 0.4429 0.8078
vn -0.7010 0.4429 -0.5590
vn 0.7010 0.4429 0.5590
vn -0.8741 0.4429 -0.1995
vn 0.8741 0.4429 0.1995
vn -0.8741 0.4429 0.1995
vn 0.8741 0.4429 -0.1995
vn -0.7010 0.4429 0.5590
vn 0.7010 0.4429 -0.5590
vn -0.3890 0.4429 0.8078
vn -0.4387 0.8277 -0.3499
vn -0.2435 0.8277 -0.5056
vn 0.4387 0.8277 0.3499
vn 0.2435 0.8277 0.5056
vn -0.5471 0.8277 -0.1249
vn 0.5471 0.8277 0.1249
vn -0.4387 0.8277 0.3499
vn -0.5471 0.8277 0.1249
vn 0.4387 0.8277 -0.3499
vn 0.5471 0.8277 -0.1249
vn 0.2435 0.8277 -0.5056
vn -0.2435 0.8277 0.5056
vn -0.0000 0.8277 -0.5612
vn -0.0000 0.8277 0.5612
vn 0.7812 0.0410 0.6230
vn 0.4335 0.0410 0.9002
vn -0.9741 0.0410 -0.2223
vn -0.7812 0.0410 -0.6230
vn 0.9741 0.0410 0.2223
vn -0.9741 0.0410 0.2223
vn 0.9741 0.0410 -0.2223
vn -0.7812 0.0410 0.6230
vn 0.7812 0.0410 -0.6230
vn -0.4335 0.0410 0.9002
vn 0.4335 0.0410 -0.9002
vn -0.0000 0.0410 0.9992
vn -0.0000 0.0410 -0.9992
vn -0.4335 0.0410 -0.9002
vn -0.3371 -0.9023 -0.2688
vn -0.3753 -0.5017 -0.7794
vn -0.1871 -0.9023 -0.3885
vn 0.3371 -0.9023 0.2688
vn 0.3753 -0.5017 0.7794
vn 0.1871 -0.9023 0.3885
vn -0.4203 -0.9023 -0.0959
vn -0.6763 -0.5017 -0.5393
vn 0.4204 -0.9023 0.0959
vn 0.6763 -0.5017 0.5393
vn -0.4204 -0.9023 0.0959
vn -0.8433 -0.5017 -0.1925
vn 0.8433 -0.5017 -0.1925
vn 0.8433 -0.5018 0.1925
vn -0.6763 -0.5017 0.5393
vn -0.8433 -0.5018 0.1925
vn 0.4204 -0.9023 -0.0959
vn 0.6763 -0.5017 -0.5393
vn -0.3371 -0.9023 0.2688
vn -0.3753 -0.5017 0.7794
vn 0.3371 -0.9023 -0.2688
vn 0.3753 -0.5017 -0.7794
vn -0.0000 -0.9023 0.4312
vn -0.1871 -0.9023 0.3885
vn -0.0000 -0.9023 -0.4312
vn 0.1871 -0.9023 -0.3885
vn -0.0000 -0.5017 -0.8650
vn -0.0000 -0.5017 0.8650
vn 0.6819 0.4892 0.5438
vn -0.8503 0.4892 -0.1941
vn 0.8503 0.4892 0.1941
vn -0.8503 0.4892 0.1941
vn 0.8503 0.4892 -0.1941
vn -0.6819 0.4892 0.5438
vn 0.6819 0.4892 -0.5438
vn -0.3784 0.4892 0.7858
vn 0.3784 0.4892 -0.7858
vn -0.0000 0.4892 -0.8722
vn -0.0000 0.4892 0.8722
vn -0.3784 0.4892 -0.7858
vn 0.3784 0.4892 0.7858
vn -0.6819 0.4892 -0.5438
vn -0.3599 0.8877 0.2870
vn -0.4488 0.8877 0.1024
vn 0.3599 0.8877 -0.2870
vn 0.4488 0.8877 -0.1024
vn -0.0000 0.8877 0.4604
vn -0.1997 0.8877 0.4148
vn -0.0000 0.8877 -0.4604
vn 0.1997 0.8877 -0.4148
vn -0.1998 0.8877 -0.4148
vn 0.1998 0.8877 0.4148
vn -0.3599 0.8877 -0.2870
vn 0.3599 0.8877 0.2870
vn -0.4488 0.8877 -0.1024
vn 0.4488 0.8877 0.1024
vn -0.0000 -0.9297 0.3684
vn -0.1598 -0.9297 0.3319
vn -0.0000 -0.9297 -0.3684
vn 0.1598 -0.9297 -0.3319
vn -0.1598 -0.9297 -0.3319
vn 0.1598 -0.9297 0.3319
vn -0.2880 -0.9297 -0.2297
vn 0.2880 -0.9297 0.2297
vn -0.3592 -0.9297 -0.0820
vn 0.3592 -0.9297 0.0820
vn -0.3592 -0.9297 0.0820
vn 0.3592 -0.9297 -0.0820
vn -0.2880 -0.9297 0.2297
vn 0.2880 -0.9297 -0.2297
vn 0.6235 -0.0000 0.7818
vn -0.2225 -0.0000 0.9749
vn 0.2225 -0.0000 -0.9749
vn 0.5305 0.6894 -0.4933
vn -0.0000 1.0000 -0.0000
vn -0.9010 -0.0000 -0.4339
vn -0.5305 0.6894 -0.4933
vn -0.5054 0.7236 -0.4701
vn -0.9010 -0.0000 0.4339
vn 0.2225 -0.0000 0.9749
vn -0.2225 -0.0000 -0.9749
vn -0.6235 -0.0000 0.7818
vn 0.9010 -0.0000 -0.4339
vn -0.6235 -0.0000 -0.7818
vn 0.6235 -0.0000 -0.7818
vn 0.9010 -0.0000 0.4339
vn -0.5305 0.6894 0.4933
vn 0.3629 0.6894 -0.6270
vn 0.3458 0.7236 -0.5974
vn 0.7164 0.6894 0.1072
vn 0.5305 0.6894 0.4933
vn 0.5054 0.7236 0.4701
vn 0.7164 0.6894 -0.1072
vn 0.6826 0.7236 -0.1021
vn -0.7164 0.6894 0.1072
vn -0.6826 0.7236 0.1021
vn -0.7164 0.6894 -0.1072
vn -0.3629 0.6894 0.6270
vn -0.3458 0.7236 0.5974
vn 0.3629 0.6894 0.6269
vn -0.3629 0.6894 -0.6269
vn 0.6826 0.7236 0.1021
vn 0.7164 0.6894 0.1071
vn -0.5054 0.7236 -0.4700
vn 0.3458 0.7236 0.5973
vn 0.3629 0.6894 -0.6269
vn 0.3458 0.7236 -0.5973
vn -0.5054 0.7236 0.4700
vn 0.5054 0.7236 -0.4700
vn -0.3458 0.7236 0.5973
vn -0.3629 0.6894 0.6269
vn 0.5054 0.7236 -0.4701
vn -0.3458 0.7236 -0.5973
vn 0.5054 0.7236 0.4700
vn -0.6826 0.7236 -0.1021
vn -0.7164 0.6894 -0.1071
vn -0.5054 0.7236 0.4701
vn 0.3458 0.7236 0.5974
vn -0.3458 0.7236 -0.5974
vt 0.026723 0.596715
vt 0.021821 0.570117
vt 0.026549 0.570085
vt 0.027339 0.515995
vt 0.023198 0.489034
vt 0.027919 0.489078
vt 0.026926 0.702089
vt 0.021952 0.676075
vt 0.026559 0.675999
vt 0.026677 0.543055
vt 0.022581 0.515921
vt 0.027137 0.728322
vt 0.022333 0.702168
vt 0.021926 0.543022
vt 0.026760 0.757706
vt 0.022439 0.728312
vt 0.015771 0.623021
vt 0.004929 0.596826
vt 0.015930 0.596809
vt 0.028559 0.408246
vt 0.022103 0.377827
vt 0.027713 0.377626
vt 0.021799 0.649522
vt 0.026474 0.649490
vt 0.028418 0.435516
vt 0.023638 0.408380
vt 0.028221 0.462302
vt 0.023686 0.435545
vt 0.022052 0.623048
vt 0.026685 0.623021
vt 0.023514 0.462297
vt 0.046380 0.435793
vt 0.061570 0.462672
vt 0.046380 0.462669
vt 0.044592 0.649765
vt 0.046214 0.489646
vt 0.044981 0.675877
vt 0.045852 0.516602
vt 0.044583 0.701838
vt 0.045632 0.543463
vt 0.044579 0.727855
vt 0.044732 0.570099
vt 0.046052 0.753914
vt 0.044062 0.596684
vt 0.048726 0.381268
vt 0.046439 0.408827
vt 0.004211 0.649427
vt 0.005234 0.622898
vt 0.016797 0.488918
vt 0.006190 0.461948
vt 0.017249 0.462243
vt 0.003888 0.570226
vt 0.015515 0.570130
vt 0.005000 0.515663
vt 0.006080 0.488693
vt 0.016234 0.702228
vt 0.004742 0.676217
vt 0.015681 0.676157
vt 0.016241 0.515763
vt 0.004260 0.542938
vt 0.005484 0.727809
vt 0.005874 0.702349
vt 0.015583 0.542912
vt 0.016258 0.728161
vt 0.003201 0.753412
vt 0.017198 0.408592
vt 0.003231 0.382445
vt 0.014924 0.379209
vt 0.015685 0.649511
vt 0.017409 0.435556
vt 0.005976 0.409037
vt 0.006361 0.435386
vt 0.068372 0.489634
vt 0.061268 0.489530
vt 0.059456 0.623197
vt 0.044489 0.623256
vt 0.061199 0.436079
vt 0.061392 0.409705
vt 0.058990 0.596923
vt 0.058889 0.727255
vt 0.059990 0.751767
vt 0.060369 0.543593
vt 0.059236 0.570412
vt 0.059140 0.701828
vt 0.060899 0.516559
vt 0.059265 0.649565
vt 0.059039 0.675889
vt 0.022037 0.596764
vt 0.021404 0.757576
vt 0.014491 0.756357
vt 0.709933 0.149116
vt 0.690439 0.173474
vt 0.687645 0.170266
vt 0.861646 0.028536
vt 0.874718 0.055677
vt 0.808726 0.070744
vt 0.358289 0.175332
vt 0.326919 0.156483
vt 0.330476 0.152195
vt 0.640716 0.202925
vt 0.616185 0.218616
vt 0.614637 0.214677
vt 0.385636 0.193576
vt 0.355378 0.179355
vt 0.414514 0.208053
vt 0.383216 0.197815
vt 0.589236 0.227018
vt 0.588178 0.222979
vt 0.444047 0.218939
vt 0.412648 0.212466
vt 0.560858 0.228185
vt 0.532350 0.235183
vt 0.532158 0.230814
vt 0.473417 0.226238
vt 0.442734 0.223386
vt 0.665323 0.187758
vt 0.642764 0.206727
vt 0.502659 0.230196
vt 0.472622 0.230657
vt 0.667798 0.191268
vt 0.502351 0.234607
vt 0.531621 0.210522
vt 0.503141 0.223959
vt 0.504346 0.210287
vt 0.674891 0.155785
vt 0.704375 0.145080
vt 0.683747 0.165818
vt 0.560104 0.222403
vt 0.531958 0.224441
vt 0.371976 0.157992
vt 0.336758 0.147063
vt 0.349878 0.137487
vt 0.397092 0.174622
vt 0.362466 0.169847
vt 0.558278 0.209285
vt 0.586759 0.217259
vt 0.423527 0.188417
vt 0.389204 0.187440
vt 0.583441 0.204781
vt 0.612500 0.209094
vt 0.450646 0.198703
vt 0.417223 0.201849
vt 0.631663 0.185566
vt 0.607834 0.197238
vt 0.474611 0.220209
vt 0.446002 0.212687
vt 0.654510 0.171741
vt 0.637764 0.197391
vt 0.477426 0.206913
vt 0.661858 0.182781
vt 0.562437 0.239166
vt 0.590806 0.233242
vt 0.618605 0.225004
vt 0.646177 0.213180
vt 0.671743 0.196948
vt 0.694661 0.178532
vt 0.717101 0.158911
vt 0.713149 0.152567
vt 0.322682 0.164257
vt 0.350612 0.185880
vt 0.379222 0.204605
vt 0.409547 0.219541
vt 0.440529 0.230520
vt 0.471234 0.237753
vt 0.501740 0.241720
vt 0.532554 0.242231
vt 0.561489 0.232392
vt 0.874720 0.085802
vt 0.838100 0.131728
vt 0.808731 0.138434
vt 0.742734 0.085811
vt 0.742732 0.055686
vt 0.755801 0.028543
vt 0.779352 0.009759
vt 0.808722 0.003053
vt 0.838092 0.009755
vt 0.779361 0.131732
vt 0.755807 0.112951
vt 0.861651 0.112944
vt 0.065463 0.727190
vt 0.067439 0.543837
vt 0.066201 0.649645
vt 0.063257 0.383890
vt 0.068341 0.410001
vt 0.068591 0.462674
vt 0.065865 0.701888
vt 0.068022 0.516707
vt 0.066319 0.751520
vt 0.066372 0.623188
vt 0.065934 0.596931
vt 0.068151 0.436085
vt 0.065917 0.675946
vt 0.066250 0.570623
vt 0.743617 0.668875
vt 0.722070 0.663618
vt 0.723065 0.659177
vt 0.682102 0.752586
vt 0.703906 0.756645
vt 0.703158 0.761134
vt 0.758064 0.686416
vt 0.740821 0.672466
vt 0.666708 0.735870
vt 0.684695 0.748845
vt 0.759095 0.708571
vt 0.754003 0.688471
vt 0.664455 0.713805
vt 0.670649 0.733593
vt 0.763644 0.708445
vt 0.755121 0.728921
vt 0.659920 0.714182
vt 0.667299 0.693267
vt 0.745833 0.749061
vt 0.759289 0.730749
vt 0.663036 0.691672
vt 0.678635 0.675906
vt 0.694817 0.660739
vt 0.675461 0.672645
vt 0.724609 0.755500
vt 0.742843 0.745629
vt 0.701336 0.663618
vt 0.700340 0.659177
vt 0.725848 0.759879
vt 0.214903 0.947222
vt 0.193670 0.941936
vt 0.215100 0.942750
vt 0.049746 0.949498
vt 0.070480 0.943744
vt 0.070743 0.947837
vt 0.193521 0.946092
vt 0.173386 0.941478
vt 0.027644 0.951597
vt 0.049408 0.945185
vt 0.003147 0.949359
vt 0.027219 0.947003
vt 0.153171 0.945495
vt 0.173329 0.945342
vt 0.301115 0.953855
vt 0.278979 0.946818
vt 0.302606 0.949175
vt 0.131912 0.945964
vt 0.153145 0.941355
vt 0.278548 0.951212
vt 0.257490 0.945105
vt 0.110601 0.941967
vt 0.131848 0.941531
vt 0.236360 0.947992
vt 0.257189 0.949141
vt 0.110695 0.946087
vt 0.090508 0.942691
vt 0.236578 0.943763
vt 0.090676 0.946516
vt 0.049296 0.943748
vt 0.027082 0.945524
vt 0.173400 0.940129
vt 0.302759 0.947582
vt 0.153138 0.939975
vt 0.279102 0.945370
vt 0.131822 0.940116
vt 0.257583 0.943694
vt 0.110556 0.940594
vt 0.236650 0.942353
vt 0.090444 0.941356
vt 0.215155 0.941323
vt 0.070394 0.942379
vt 0.193706 0.940550
vt 0.279462 0.941172
vt 0.302342 0.943232
vt 0.131761 0.935979
vt 0.153158 0.936097
vt 0.257847 0.939730
vt 0.110420 0.936735
vt 0.215341 0.937155
vt 0.236874 0.938553
vt 0.070185 0.938542
vt 0.090282 0.937757
vt 0.049017 0.939705
vt 0.193797 0.936655
vt 0.026721 0.941218
vt 0.002994 0.947746
vt 0.173450 0.936494
vt 0.253768 0.132470
vt 0.274762 0.011689
vt 0.274762 0.132662
vt 0.379588 0.127881
vt 0.387271 0.005529
vt 0.400477 0.125779
vt 0.232782 0.131896
vt 0.255974 0.011518
vt 0.358665 0.129601
vt 0.368576 0.007410
vt 0.211810 0.130940
vt 0.237192 0.011004
vt 0.337714 0.130940
vt 0.349851 0.008950
vt 0.190858 0.129601
vt 0.218423 0.010148
vt 0.316741 0.131896
vt 0.331100 0.010148
vt 0.169935 0.127881
vt 0.199673 0.008950
vt 0.293550 0.011518
vt 0.312331 0.011004
vt 0.149046 0.125779
vt 0.180947 0.007410
vt 0.128199 0.123297
vt 0.162253 0.005529
vt 0.295755 0.132470
vt 0.405928 0.003308
vt 0.421324 0.123297
vt 0.956448 0.325591
vt 0.953145 0.306038
vt 0.956724 0.306826
vt 0.956701 0.458952
vt 0.952677 0.438709
vt 0.956488 0.438690
vt 0.956567 0.343738
vt 0.953030 0.325579
vt 0.956953 0.479251
vt 0.952836 0.458985
vt 0.956787 0.362465
vt 0.953050 0.343749
vt 0.952873 0.498980
vt 0.952968 0.479257
vt 0.952812 0.381616
vt 0.953015 0.362434
vt 0.956583 0.499014
vt 0.952749 0.518122
vt 0.956418 0.381665
vt 0.952662 0.400293
vt 0.956342 0.518149
vt 0.952689 0.536737
vt 0.956285 0.418968
vt 0.956068 0.400305
vt 0.956406 0.555335
vt 0.956084 0.536731
vt 0.956879 0.575324
vt 0.952729 0.555373
vt 0.952629 0.418977
vt 0.951013 0.459013
vt 0.951394 0.343759
vt 0.951172 0.479273
vt 0.951314 0.362428
vt 0.951126 0.498978
vt 0.951111 0.381609
vt 0.951052 0.518122
vt 0.950981 0.400295
vt 0.951013 0.536747
vt 0.952856 0.576198
vt 0.951029 0.555385
vt 0.950905 0.418983
vt 0.951361 0.306027
vt 0.950879 0.438727
vt 0.951400 0.325591
vt 0.946807 0.381576
vt 0.947200 0.362371
vt 0.946764 0.518106
vt 0.947086 0.498963
vt 0.946723 0.418942
vt 0.947087 0.400285
vt 0.946843 0.555349
vt 0.947131 0.536755
vt 0.946377 0.575232
vt 0.946321 0.438735
vt 0.947048 0.306911
vt 0.947389 0.325620
vt 0.946600 0.459054
vt 0.947568 0.343747
vt 0.946833 0.479300
vt 0.423782 0.529863
vt 0.401970 0.544995
vt 0.405166 0.529866
vt 0.415179 0.440858
vt 0.439811 0.430957
vt 0.433328 0.444997
vt 0.390873 0.430183
vt 0.415424 0.425397
vt 0.449854 0.534863
vt 0.426983 0.544991
vt 0.371544 0.472359
vt 0.369063 0.445928
vt 0.380677 0.456138
vt 0.466667 0.516343
vt 0.440802 0.522325
vt 0.453315 0.508542
vt 0.369758 0.490888
vt 0.356791 0.467724
vt 0.459178 0.490875
vt 0.375627 0.508554
vt 0.354392 0.492622
vt 0.472138 0.467706
vt 0.457387 0.472346
vt 0.379096 0.534874
vt 0.362277 0.516360
vt 0.448249 0.456128
vt 0.388143 0.522333
vt 0.939887 0.488281
vt 0.926625 0.504957
vt 0.926625 0.488281
vt 0.926625 0.454930
vt 0.916131 0.438255
vt 0.926625 0.438255
vt 0.926625 0.630022
vt 0.916131 0.613347
vt 0.926625 0.613347
vt 0.488731 0.485969
vt 0.481733 0.471024
vt 0.488047 0.469308
vt 0.926625 0.363216
vt 0.916131 0.346540
vt 0.926625 0.346540
vt 0.426107 0.413733
vt 0.439908 0.422780
vt 0.425421 0.420094
vt 0.926625 0.404904
vt 0.916131 0.388229
vt 0.926625 0.388229
vt 0.916131 0.471606
vt 0.926625 0.471606
vt 0.939887 0.663373
vt 0.926625 0.646698
vt 0.939887 0.638360
vt 0.939887 0.338203
vt 0.926625 0.338202
vt 0.939887 0.388229
vt 0.939887 0.363216
vt 0.939887 0.438255
vt 0.926625 0.421579
vt 0.939887 0.413242
vt 0.939887 0.463268
vt 0.926625 0.463268
vt 0.926625 0.413242
vt 0.939887 0.513294
vt 0.926625 0.513294
vt 0.939887 0.563320
vt 0.926625 0.538307
vt 0.939887 0.538307
vt 0.939887 0.588334
vt 0.926625 0.588334
vt 0.926625 0.579996
vt 0.939887 0.313189
vt 0.926625 0.329865
vt 0.926625 0.313189
vt 0.926625 0.596671
vt 0.926625 0.521632
vt 0.939887 0.613347
vt 0.916131 0.563320
vt 0.926625 0.563320
vt 0.926625 0.663373
vt 0.916131 0.646698
vt 0.916131 0.363216
vt 0.916131 0.421579
vt 0.340773 0.487713
vt 0.347771 0.502658
vt 0.341457 0.504375
vt 0.916131 0.538307
vt 0.916131 0.313189
vt 0.916131 0.521632
vt 0.916131 0.596671
vt 0.916131 0.488281
vt 0.347521 0.451320
vt 0.359412 0.439878
vt 0.353570 0.453404
vt 0.354134 0.436012
vt 0.376112 0.425401
vt 0.456471 0.554055
vt 0.470092 0.533804
vt 0.475371 0.537670
vt 0.455956 0.426627
vt 0.442503 0.416774
vt 0.403398 0.559949
vt 0.389597 0.550902
vt 0.404084 0.553588
vt 0.349303 0.519089
vt 0.354704 0.515660
vt 0.480201 0.454593
vt 0.474801 0.458023
vt 0.975612 0.316408
vt 0.964490 0.331142
vt 0.964490 0.309041
vt 0.975612 0.367977
vt 0.975612 0.375344
vt 0.964490 0.375344
vt 0.975612 0.456382
vt 0.964490 0.441648
vt 0.975612 0.441648
vt 0.975612 0.309041
vt 0.975612 0.471116
vt 0.964490 0.485850
vt 0.964490 0.463749
vt 0.975612 0.382712
vt 0.964490 0.397446
vt 0.975612 0.301674
vt 0.975612 0.566888
vt 0.964490 0.552154
vt 0.975612 0.552154
vt 0.975612 0.463749
vt 0.975612 0.574255
vt 0.975612 0.581622
vt 0.964490 0.574255
vt 0.975612 0.507951
vt 0.975612 0.485850
vt 0.964490 0.286940
vt 0.975612 0.286940
vt 0.975612 0.426914
vt 0.964490 0.419547
vt 0.975612 0.530052
vt 0.975612 0.537420
vt 0.964490 0.530052
vt 0.975612 0.522685
vt 0.964490 0.507951
vt 0.964490 0.353243
vt 0.975612 0.353243
vt 0.373549 0.547056
vt 0.387002 0.556909
vt 0.481983 0.522362
vt 0.475935 0.520278
vt 0.389124 0.415253
vt 0.373033 0.419627
vt 0.440380 0.558430
vt 0.453393 0.548282
vt 0.975612 0.412180
vt 0.975612 0.419547
vt 0.964490 0.596356
vt 0.975612 0.397446
vt 0.975612 0.331142
vt 0.459859 0.445914
vt 0.926625 0.638360
vt 0.986105 0.353243
vt 0.986105 0.331142
vt 0.986105 0.412180
vt 0.986105 0.397446
vt 0.986105 0.552154
vt 0.986105 0.537420
vt 0.986105 0.596356
vt 0.986105 0.581622
vt 0.986105 0.367977
vt 0.986105 0.522685
vt 0.986105 0.507951
vt 0.986105 0.441648
vt 0.986105 0.426914
vt 0.986105 0.301674
vt 0.986105 0.286940
vt 0.986105 0.485850
vt 0.986105 0.566888
vt 0.986105 0.382712
vt 0.986105 0.471116
vt 0.986105 0.456382
vt 0.986105 0.316408
vt 0.463927 0.433451
vt 0.451795 0.431486
vt 0.465709 0.442664
vt 0.459766 0.438311
vt 0.474576 0.445735
vt 0.470653 0.438378
vt 0.414988 0.418969
vt 0.415674 0.412608
vt 0.407744 0.417626
vt 0.407476 0.411088
vt 0.399430 0.413276
vt 0.400635 0.419559
vt 0.350152 0.463326
vt 0.344103 0.461242
vt 0.347230 0.470089
vt 0.340797 0.468896
vt 0.341139 0.477226
vt 0.347533 0.477449
vt 0.340773 0.487713
vt 0.488366 0.496456
vt 0.482274 0.503594
vt 0.481972 0.496233
vt 0.485402 0.512441
vt 0.488708 0.504787
vt 0.479353 0.510357
vt 0.482338 0.485746
vt 0.430074 0.560407
vt 0.421760 0.556057
vt 0.428869 0.554124
vt 0.413831 0.561074
vt 0.422029 0.562594
vt 0.414517 0.554713
vt 0.365578 0.540231
vt 0.363795 0.531018
vt 0.369739 0.535372
vt 0.377710 0.542196
vt 0.354928 0.527947
vt 0.358851 0.535305
vt 0.360329 0.524518
vt 0.976429 0.909779
vt 0.945466 0.948606
vt 0.956517 0.900190
vt 0.934415 0.997021
vt 0.914503 0.987432
vt 0.995127 0.948606
vt 0.990209 0.970153
vt 0.914503 0.909779
vt 0.900723 0.927059
vt 0.976429 0.987432
vt 0.956517 0.997021
vt 0.895805 0.948606
vt 0.900723 0.970153
vt 0.990209 0.927059
vt 0.934415 0.900190
vt 0.692841 0.137472
vt 0.070085 0.384355
vt 0.696296 0.665043
vt 0.004571 0.953896
vt 0.003418 0.943316
vt 0.143596 0.003308
vt 0.950959 0.576200
vt 0.396908 0.444421
vt 0.474544 0.492603
vt 0.916131 0.454930
vt 0.916131 0.630022
vt 0.916131 0.404904
vt 0.916131 0.579996
vt 0.916131 0.663373
vt 0.347167 0.487936
vt 0.916131 0.329865
vt 0.916131 0.504957
vt 0.390330 0.421536
vt 0.439175 0.552147
vt 0.975612 0.596356
vt 0.469175 0.449165
vt 0.347167 0.487936
s 1
usemtl White.004
f 31/1/1 83/2/2 56/3/3
f 52/4/4 77/5/5 50/6/6
f 38/7/7 63/8/8 36/9/9
f 54/10/10 79/11/11 52/4/4
f 40/12/12 65/13/13 38/7/7
f 56/3/3 81/14/14 54/10/10
f 42/15/15 67/16/16 40/12/12
f 58/17/17 16/18/18 59/19/19
f 44/20/20 69/21/21 42/22/15
f 36/9/9 61/23/22 34/24/23
f 46/25/24 71/26/25 44/20/20
f 48/27/26 73/28/27 46/25/24
f 34/24/23 57/29/28 30/30/29
f 50/6/6 75/31/30 48/27/26
f 9/32/31 37/33/32 10/34/33
f 44/20/20 9/32/31 46/25/24
f 46/25/24 10/34/33 48/27/26
f 30/30/29 3/35/34 34/24/23
f 48/27/26 11/36/35 50/6/6
f 34/24/23 4/37/36 36/9/9
f 50/6/6 12/38/37 52/4/4
f 38/7/7 4/37/36 5/39/38
f 52/4/4 13/40/39 54/10/10
f 40/12/12 5/39/38 6/41/40
f 56/3/3 13/40/39 14/42/41
f 42/15/15 6/41/40 7/43/42
f 31/1/1 14/42/41 2/44/43
f 44/20/20 7/45/42 8/46/44
f 58/17/17 17/47/45 15/48/46
f 78/49/47 24/50/48 76/51/49
f 59/19/19 28/52/50 84/53/51
f 78/49/47 26/54/52 25/55/53
f 66/56/54 18/57/55 64/58/56
f 80/59/57 27/60/58 26/54/52
f 66/56/54 20/61/59 19/62/60
f 82/63/61 28/52/50 27/60/58
f 68/64/62 21/65/63 20/61/59
f 72/66/64 21/67/63 70/68/65
f 64/58/56 17/47/45 62/69/66
f 74/70/67 22/71/68 72/66/64
f 76/51/49 23/72/69 74/70/67
f 37/33/32 145/73/70 35/74/71
f 2/44/43 55/75/72 1/76/73
f 8/46/44 39/77/74 9/32/31
f 7/45/42 41/78/75 8/46/44
f 14/42/41 53/79/76 2/44/43
f 7/43/42 45/80/77 43/81/78
f 14/42/41 32/82/79 29/83/80
f 6/41/40 47/84/81 45/80/77
f 13/40/39 33/85/82 32/82/79
f 4/37/36 47/84/81 5/39/38
f 12/38/37 35/74/71 33/85/82
f 4/37/36 51/86/83 49/87/84
f 11/36/35 37/33/32 35/74/71
f 3/35/34 55/75/72 51/86/83
f 58/17/17 60/88/85 57/29/28
f 58/17/17 61/23/22 62/69/66
f 64/58/56 61/23/22 63/8/8
f 64/58/56 65/13/13 66/56/54
f 66/56/54 67/16/16 68/64/62
f 68/64/62 69/89/21 70/90/65
f 69/21/21 72/66/64 70/68/65
f 74/70/67 71/26/25 73/28/27
f 73/28/27 76/51/49 74/70/67
f 78/49/47 75/31/30 77/5/5
f 78/49/47 79/11/11 80/59/57
f 80/59/57 81/14/14 82/63/61
f 82/63/61 83/2/2 84/53/51
f 84/53/51 60/88/85 59/19/19
f 30/30/29 60/88/85 31/1/1
f 98/91/86 123/92/87 96/93/88
f 130/94/89 132/95/90 141/96/91
f 100/97/92 125/98/93 98/99/86
f 92/100/94 117/101/95 90/102/96
f 102/103/97 127/104/98 100/97/92
f 104/105/99 129/106/100 102/103/97
f 90/102/96 113/107/101 86/108/102
f 106/109/103 131/110/104 104/105/99
f 87/111/105 139/112/106 112/113/107
f 108/114/108 133/115/109 106/109/103
f 94/116/110 119/117/111 92/100/94
f 110/118/112 135/119/113 108/114/108
f 96/93/88 121/120/114 94/116/110
f 112/113/107 137/121/115 110/118/112
f 28/122/50 109/123/116 27/124/58
f 20/125/59 97/126/117 95/127/118
f 28/122/50 88/128/119 111/129/120
f 22/130/68 97/131/117 21/132/63
f 23/133/69 99/134/121 22/130/68
f 16/135/18 85/136/122 88/128/119
f 24/137/48 101/138/123 23/133/69
f 15/139/46 89/140/124 85/136/122
f 25/141/53 103/142/125 24/137/48
f 18/143/55 89/140/124 17/144/45
f 25/141/53 107/145/126 105/146/127
f 19/147/60 91/148/128 18/143/55
f 27/124/58 107/145/126 26/149/52
f 20/125/59 93/150/129 19/147/60
f 87/111/105 85/136/122 86/108/102
f 86/108/102 89/140/124 90/102/96
f 90/102/96 91/148/128 92/100/94
f 94/116/110 91/148/128 93/150/129
f 96/93/88 93/150/129 95/127/118
f 96/93/88 97/126/117 98/91/86
f 97/131/117 100/97/92 98/99/86
f 100/97/92 101/138/123 102/103/97
f 101/138/123 104/105/99 102/103/97
f 106/109/103 103/142/125 105/146/127
f 108/114/108 105/146/127 107/145/126
f 108/114/108 109/123/116 110/118/112
f 110/118/112 111/129/120 112/113/107
f 87/111/105 111/129/120 88/128/119
f 115/151/130 113/107/101 114/152/131
f 118/153/132 113/107/101 117/101/95
f 120/154/133 117/101/95 119/117/111
f 120/154/133 121/120/114 122/155/134
f 122/155/134 123/92/87 124/156/135
f 126/157/136 123/92/87 125/158/93
f 127/104/98 126/159/136 125/98/93
f 128/160/137 129/106/100 130/161/89
f 131/110/104 130/161/89 129/106/100
f 132/162/90 133/115/109 134/163/138
f 134/163/138 135/119/113 136/164/139
f 136/164/139 137/121/115 138/165/140
f 138/165/140 139/112/106 140/166/141
f 140/166/141 116/167/142 115/151/130
f 86/108/102 116/167/142 87/111/105
f 134/168/138 141/96/91 132/95/90
f 138/169/140 140/170/141 141/96/91
f 118/171/132 120/172/133 141/96/91
f 141/96/91 120/172/133 122/173/134
f 122/173/134 124/174/135 141/96/91
f 124/174/135 126/175/136 141/96/91
f 126/175/136 128/176/137 141/96/91
f 128/176/137 130/94/89 141/96/91
f 115/177/130 114/178/131 141/96/91
f 114/178/131 118/171/132 141/96/91
f 141/96/91 134/168/138 136/179/139
f 115/177/130 141/96/91 140/170/141
f 136/179/139 138/169/140 141/96/91
f 31/1/1 1/76/73 30/30/29
f 47/84/81 150/180/143 45/80/77
f 33/85/82 143/181/144 32/82/79
f 55/75/72 153/182/145 51/86/83
f 43/183/78 148/184/146 41/78/75
f 39/77/74 146/185/147 37/33/32
f 49/87/84 151/186/148 47/84/81
f 35/74/71 144/187/149 33/85/82
f 45/80/77 149/188/150 43/81/78
f 53/79/76 155/189/151 55/75/72
f 29/83/80 154/190/152 53/79/76
f 41/78/75 147/191/153 39/77/74
f 51/86/83 152/192/154 49/87/84
f 32/82/79 142/193/155 29/83/80
f 151/194/156 209/195/157 150/196/157
f 144/197/158 210/198/159 143/199/159
f 152/200/160 211/201/156 151/194/156
f 145/202/161 198/203/158 144/197/158
f 152/200/160 201/204/162 200/205/160
f 145/202/161 202/206/163 199/207/161
f 153/208/162 203/209/164 201/204/162
f 146/210/163 204/211/165 202/206/163
f 154/212/166 203/209/164 155/213/164
f 147/214/165 206/215/167 204/211/165
f 149/216/168 206/215/167 148/217/167
f 154/212/166 208/218/169 205/219/166
f 150/196/157 207/220/168 149/221/168
f 142/222/169 210/198/159 208/218/169
f 201/223/170 169/224/171 167/225/172
f 204/226/173 160/227/174 202/228/175
f 203/229/176 168/230/177 169/224/171
f 206/231/178 161/232/179 204/226/173
f 206/231/178 163/233/180 162/234/181
f 208/235/182 168/230/177 205/236/183
f 207/237/184 164/238/185 163/239/180
f 210/240/186 156/241/187 208/235/182
f 209/242/188 165/243/189 164/238/185
f 210/240/186 158/244/190 157/245/191
f 200/246/192 165/243/189 211/247/193
f 198/248/194 159/249/195 158/244/190
f 201/223/170 166/250/196 200/246/192
f 202/228/175 159/249/195 199/251/197
f 162/234/181 175/252/198 161/232/179
f 163/233/180 176/253/199 162/234/181
f 156/241/187 182/254/200 168/230/177
f 164/238/185 177/255/201 163/239/180
f 157/245/191 170/256/202 156/241/187
f 165/243/189 178/257/203 164/238/185
f 158/244/190 171/258/204 157/245/191
f 166/250/196 179/259/205 165/243/189
f 159/249/195 172/260/206 158/244/190
f 167/225/172 180/261/207 166/250/196
f 160/227/174 173/262/208 159/249/195
f 169/224/171 181/263/209 167/225/172
f 161/232/179 174/264/210 160/227/174
f 168/230/177 183/265/211 169/224/171
f 177/255/201 192/266/212 191/267/213
f 170/256/202 185/268/214 184/269/215
f 179/259/205 192/266/212 178/257/203
f 172/260/206 185/268/214 171/258/204
f 180/261/207 193/270/216 179/259/205
f 173/262/208 186/271/217 172/260/206
f 180/261/207 195/272/218 194/273/219
f 173/262/208 188/274/220 187/275/221
f 183/265/211 195/272/218 181/263/209
f 174/264/210 189/276/222 188/274/220
f 182/254/200 197/277/223 183/265/211
f 175/252/198 190/278/224 189/276/222
f 177/279/201 190/278/224 176/253/199
f 182/254/200 184/269/215 196/280/225
f 185/281/226 212/282/227 184/283/227
f 193/284/228 220/285/229 192/286/229
f 186/287/230 213/288/226 185/281/226
f 194/289/231 221/290/228 193/284/228
f 187/291/232 214/292/230 186/287/230
f 195/293/233 222/294/231 194/289/231
f 188/295/234 215/296/232 187/291/232
f 197/297/235 223/298/233 195/293/233
f 189/299/236 216/300/234 188/295/234
f 197/297/235 224/301/237 225/302/235
f 190/303/238 217/304/236 189/299/236
f 191/305/239 218/306/238 190/303/238
f 184/283/227 224/301/237 196/307/237
f 192/286/229 219/308/239 191/309/239
f 220/310/240 233/311/241 219/312/242
f 213/313/243 226/314/244 212/315/245
f 221/316/246 234/317/247 220/310/240
f 214/318/248 227/319/249 213/313/243
f 222/320/250 235/321/251 221/316/246
f 214/318/248 229/322/252 228/323/253
f 222/320/250 237/324/254 236/325/255
f 215/326/256 230/327/257 229/322/252
f 223/328/258 239/329/259 237/324/254
f 216/330/260 231/331/261 230/327/257
f 224/332/262 239/329/259 225/333/263
f 218/334/264 231/331/261 217/335/265
f 219/336/242 232/337/266 218/334/264
f 212/315/245 238/338/267 224/332/262
f 228/323/253 241/339/268 227/319/249
f 236/325/255 249/340/269 235/321/251
f 229/322/252 242/341/270 228/323/253
f 237/324/254 250/342/271 236/325/255
f 230/327/257 243/343/272 229/322/252
f 239/329/259 251/344/273 237/324/254
f 231/331/261 244/345/274 230/327/257
f 238/338/267 253/346/275 239/329/259
f 232/337/266 245/347/276 231/331/261
f 233/348/241 246/349/277 232/337/266
f 226/314/244 252/350/278 238/338/267
f 234/317/247 247/351/279 233/311/241
f 227/319/249 240/352/280 226/314/244
f 235/321/251 248/353/281 234/317/247
f 250/342/271 265/354/282 264/355/283
f 243/343/272 258/356/284 257/357/285
f 253/346/275 265/354/282 251/344/273
f 245/347/276 258/356/284 244/345/274
f 253/346/275 266/358/286 267/359/287
f 245/347/276 260/360/288 259/361/289
f 246/349/277 261/362/290 260/360/288
f 252/350/278 254/363/291 266/358/286
f 248/353/281 261/364/290 247/351/279
f 241/339/268 254/363/291 240/352/280
f 249/340/269 262/365/292 248/353/281
f 242/341/270 255/366/293 241/339/268
f 249/340/269 264/355/283 263/367/294
f 243/343/272 256/368/295 242/341/270
f 266/369/296 281/370/297 267/371/297
f 260/372/298 273/373/299 259/374/299
f 260/372/298 275/375/300 274/376/298
f 266/369/296 268/377/301 280/378/296
f 262/379/302 275/380/300 261/381/300
f 269/382/303 254/383/301 255/384/303
f 263/385/304 276/386/302 262/379/302
f 256/387/305 269/382/303 255/384/303
f 264/388/306 277/389/304 263/385/304
f 271/390/307 256/387/305 257/391/307
f 264/388/306 279/392/308 278/393/306
f 258/394/309 271/390/307 257/391/307
f 265/395/308 281/370/297 279/392/308
f 268/396/155 359/397/310 339/398/155
f 356/399/311 289/400/151 348/401/151
f 352/402/312 285/403/153 349/404/153
f 298/405/313 322/406/314 282/407/314
f 342/408/148 291/409/315 351/410/315
f 295/411/316 320/412/314 319/413/317
f 354/414/318 288/415/154 344/416/154
f 339/398/155 297/417/319 357/418/319
f 275/419/150 353/420/320 274/421/146
f 276/422/143 351/410/315 340/423/143
f 278/424/154 342/408/148 277/425/148
f 281/426/151 355/427/321 279/428/145
f 280/429/152 357/418/319 338/430/152
f 279/428/145 355/427/321 346/431/145
f 269/432/144 341/433/144 359/397/310
f 271/434/70 343/435/149 270/436/149
f 272/437/147 347/438/147 360/439/322
f 275/440/150 350/441/323 337/442/150
f 272/437/147 358/443/324 347/438/147
f 269/432/144 361/444/325 341/433/144
f 270/436/149 361/444/325 269/432/144
f 273/445/153 358/443/324 272/437/147
f 360/439/322 284/446/70 345/447/70
f 337/448/150 293/449/320 353/420/320
f 344/416/154 287/450/148 342/408/148
f 348/401/151 295/451/321 355/427/321
f 290/452/326 313/453/314 286/454/314
f 345/447/70 283/455/149 343/435/149
f 350/441/323 286/456/150 337/442/150
f 343/435/149 301/457/325 361/444/325
f 349/404/153 299/458/324 358/443/324
f 359/397/310 282/459/155 339/398/155
f 291/460/327 316/461/314 315/462/328
f 287/463/314 317/464/314 316/461/314
f 284/465/314 323/466/314 283/467/314
f 296/468/329 320/412/314 289/469/314
f 299/470/330 314/471/314 312/472/331
f 293/473/332 313/453/314 307/474/333
f 297/475/334 322/406/314 321/476/335
f 365/477/325 329/478/149 304/479/144
f 387/480/322 370/481/147 303/482/147
f 376/483/323 333/484/150 381/485/150
f 367/486/144 365/477/325 304/479/144
f 369/487/315 334/488/148 331/489/143
f 371/490/324 332/491/153 303/482/147
f 375/492/310 367/486/144 304/479/144
f 378/493/311 328/494/151 368/495/151
f 377/496/143 369/487/315 331/489/143
f 370/481/147 371/490/324 303/482/147
f 379/497/152 372/498/319 305/499/152
f 384/500/154 334/488/148 373/501/148
f 375/492/310 327/502/155 374/503/155
f 376/483/323 377/496/143 331/489/143
f 378/493/311 379/497/152 305/499/152
f 380/504/320 333/484/150 302/505/146
f 382/506/145 383/507/321 326/508/145
f 385/509/318 335/510/154 384/500/154
f 387/480/322 330/511/70 386/512/70
f 292/513/336 314/471/314 285/514/314
f 301/515/337 323/466/314 325/516/338
f 294/517/339 317/464/314 288/518/314
f 300/519/340 324/520/314 284/465/314
f 362/521/312 363/522/146 302/505/146
f 372/498/319 327/523/155 305/499/152
f 383/507/321 328/494/151 326/508/145
f 362/521/312 332/491/153 366/524/153
f 386/512/70 329/478/149 364/525/149
f 385/509/318 382/506/145 326/508/145
f 363/522/146 380/504/320 302/505/146
f 259/374/299 272/526/309 258/394/309
f 271/434/70 360/439/322 345/447/70
f 274/421/146 353/420/320 336/527/146
f 268/396/155 357/418/319 280/429/152
f 278/424/154 354/414/318 344/416/154
f 274/421/146 336/527/146 352/402/312
f 280/429/152 338/430/152 356/399/311
f 277/425/148 351/410/315 276/422/143
f 279/428/145 346/431/145 354/414/318
f 273/445/153 352/402/312 349/404/153
f 281/426/151 356/399/311 348/401/151
f 276/422/143 340/423/143 350/441/323
f 317/528/70 364/525/149 316/529/149
f 310/530/312 366/524/153 320/531/153
f 314/532/151 383/507/321 312/533/321
f 313/534/155 372/498/319 307/535/319
f 309/536/322 386/512/70 317/528/70
f 311/537/318 384/500/154 324/538/154
f 322/539/150 380/504/320 321/540/320
f 308/541/310 374/503/155 313/542/155
f 324/538/154 373/501/148 323/543/148
f 306/544/311 368/495/151 314/532/151
f 320/531/153 371/490/324 319/545/324
f 323/543/148 369/487/315 325/546/315
f 318/547/323 381/485/150 322/539/150
f 316/529/149 365/477/325 315/548/325
f 356/549/341 310/550/341 296/468/329
f 356/549/341 363/551/314 362/552/342
f 357/553/335 363/551/314 338/554/314
f 321/476/335 357/553/335 297/475/334
f 295/411/316 371/555/316 355/556/343
f 355/556/343 370/557/314 346/558/314
f 354/559/344 370/557/314 387/560/339
f 387/560/339 294/517/339 354/559/344
f 291/460/327 365/561/345 351/562/346
f 351/562/346 367/563/314 340/564/314
f 350/565/347 367/563/314 375/566/326
f 375/566/326 290/567/326 350/565/347
f 359/568/348 377/569/314 376/570/313
f 361/571/349 377/569/314 341/572/314
f 369/573/350 301/515/337 325/516/338
f 359/568/348 318/574/351 298/405/313
f 360/575/352 382/576/314 385/577/340
f 358/578/353 382/576/314 347/579/314
f 299/470/330 383/580/330 358/578/353
f 385/577/340 300/519/340 360/575/352
f 352/581/354 379/582/314 378/583/355
f 352/581/354 306/584/354 292/513/336
f 353/585/333 379/582/314 336/586/314
f 293/473/332 372/587/332 353/585/333
f 335/588/314 388/589/314 334/590/314
f 388/589/314 329/591/314 330/592/314
f 388/589/314 328/593/314 305/594/314
f 333/595/314 388/589/314 302/596/314
f 388/589/314 327/597/314 304/598/314
f 332/599/314 388/589/314 303/600/314
f 326/601/314 388/589/314 335/588/314
f 388/589/314 331/602/314 334/590/314
f 330/592/314 303/600/314 388/589/314
f 388/589/314 304/598/314 329/591/314
f 388/589/314 326/601/314 328/593/314
f 333/595/314 331/602/314 388/589/314
f 388/589/314 305/594/314 327/597/314
f 332/599/314 302/596/314 388/589/314
f 31/1/1 60/88/85 83/2/2
f 52/4/4 79/11/11 77/5/5
f 38/7/7 65/13/13 63/8/8
f 54/10/10 81/14/14 79/11/11
f 40/12/12 67/16/16 65/13/13
f 56/3/3 83/2/2 81/14/14
f 42/15/15 69/89/21 67/16/16
f 58/17/17 15/48/46 16/18/18
f 44/20/20 71/26/25 69/21/21
f 36/9/9 63/8/8 61/23/22
f 46/25/24 73/28/27 71/26/25
f 48/27/26 75/31/30 73/28/27
f 34/24/23 61/23/22 57/29/28
f 50/6/6 77/5/5 75/31/30
f 9/32/31 39/77/74 37/33/32
f 44/20/20 8/46/44 9/32/31
f 46/25/24 9/32/31 10/34/33
f 30/30/29 1/76/73 3/35/34
f 48/27/26 10/34/33 11/36/35
f 34/24/23 3/35/34 4/37/36
f 50/6/6 11/36/35 12/38/37
f 38/7/7 36/9/9 4/37/36
f 52/4/4 12/38/37 13/40/39
f 40/12/12 38/7/7 5/39/38
f 56/3/3 54/10/10 13/40/39
f 42/15/15 40/12/12 6/41/40
f 31/1/1 56/3/3 14/42/41
f 44/20/20 42/22/15 7/45/42
f 58/17/17 62/69/66 17/47/45
f 78/49/47 25/55/53 24/50/48
f 59/19/19 16/18/18 28/52/50
f 78/49/47 80/59/57 26/54/52
f 66/56/54 19/62/60 18/57/55
f 80/59/57 82/63/61 27/60/58
f 66/56/54 68/64/62 20/61/59
f 82/63/61 84/53/51 28/52/50
f 68/64/62 70/90/65 21/65/63
f 72/66/64 22/71/68 21/67/63
f 64/58/56 18/57/55 17/47/45
f 74/70/67 23/72/69 22/71/68
f 76/51/49 24/50/48 23/72/69
f 37/33/32 146/185/147 145/73/70
f 2/44/43 53/79/76 55/75/72
f 8/46/44 41/78/75 39/77/74
f 7/45/42 43/183/78 41/78/75
f 14/42/41 29/83/80 53/79/76
f 7/43/42 6/41/40 45/80/77
f 14/42/41 13/40/39 32/82/79
f 6/41/40 5/39/38 47/84/81
f 13/40/39 12/38/37 33/85/82
f 4/37/36 49/87/84 47/84/81
f 12/38/37 11/36/35 35/74/71
f 4/37/36 3/35/34 51/86/83
f 11/36/35 10/34/33 37/33/32
f 3/35/34 1/76/73 55/75/72
f 58/17/17 59/19/19 60/88/85
f 58/17/17 57/29/28 61/23/22
f 64/58/56 62/69/66 61/23/22
f 64/58/56 63/8/8 65/13/13
f 66/56/54 65/13/13 67/16/16
f 68/64/62 67/16/16 69/89/21
f 69/21/21 71/26/25 72/66/64
f 74/70/67 72/66/64 71/26/25
f 73/28/27 75/31/30 76/51/49
f 78/49/47 76/51/49 75/31/30
f 78/49/47 77/5/5 79/11/11
f 80/59/57 79/11/11 81/14/14
f 82/63/61 81/14/14 83/2/2
f 84/53/51 83/2/2 60/88/85
f 30/30/29 57/29/28 60/88/85
f 98/91/86 125/158/93 123/92/87
f 100/97/92 127/104/98 125/98/93
f 92/100/94 119/117/111 117/101/95
f 102/103/97 129/106/100 127/104/98
f 104/105/99 131/110/104 129/106/100
f 90/102/96 117/101/95 113/107/101
f 106/109/103 133/115/109 131/110/104
f 87/111/105 116/167/142 139/112/106
f 108/114/108 135/119/113 133/115/109
f 94/116/110 121/120/114 119/117/111
f 110/118/112 137/121/115 135/119/113
f 96/93/88 123/92/87 121/120/114
f 112/113/107 139/112/106 137/121/115
f 28/122/50 111/129/120 109/123/116
f 20/125/59 21/603/63 97/126/117
f 28/122/50 16/135/18 88/128/119
f 22/130/68 99/134/121 97/131/117
f 23/133/69 101/138/123 99/134/121
f 16/135/18 15/139/46 85/136/122
f 24/137/48 103/142/125 101/138/123
f 15/139/46 17/144/45 89/140/124
f 25/141/53 105/146/127 103/142/125
f 18/143/55 91/148/128 89/140/124
f 25/141/53 26/149/52 107/145/126
f 19/147/60 93/150/129 91/148/128
f 27/124/58 109/123/116 107/145/126
f 20/125/59 95/127/118 93/150/129
f 87/111/105 88/128/119 85/136/122
f 86/108/102 85/136/122 89/140/124
f 90/102/96 89/140/124 91/148/128
f 94/116/110 92/100/94 91/148/128
f 96/93/88 94/116/110 93/150/129
f 96/93/88 95/127/118 97/126/117
f 97/131/117 99/134/121 100/97/92
f 100/97/92 99/134/121 101/138/123
f 101/138/123 103/142/125 104/105/99
f 106/109/103 104/105/99 103/142/125
f 108/114/108 106/109/103 105/146/127
f 108/114/108 107/145/126 109/123/116
f 110/118/112 109/123/116 111/129/120
f 87/111/105 112/113/107 111/129/120
f 115/151/130 116/167/142 113/107/101
f 118/153/132 114/152/131 113/107/101
f 120/154/133 118/153/132 117/101/95
f 120/154/133 119/117/111 121/120/114
f 122/155/134 121/120/114 123/92/87
f 126/157/136 124/156/135 123/92/87
f 127/104/98 128/160/137 126/159/136
f 128/160/137 127/104/98 129/106/100
f 131/110/104 132/162/90 130/161/89
f 132/162/90 131/110/104 133/115/109
f 134/163/138 133/115/109 135/119/113
f 136/164/139 135/119/113 137/121/115
f 138/165/140 137/121/115 139/112/106
f 140/166/141 139/112/106 116/167/142
f 86/108/102 113/107/101 116/167/142
f 31/1/1 2/44/43 1/76/73
f 47/84/81 151/186/148 150/180/143
f 33/85/82 144/187/149 143/181/144
f 55/75/72 155/189/151 153/182/145
f 43/183/78 149/604/150 148/184/146
f 39/77/74 147/191/153 146/185/147
f 49/87/84 152/192/154 151/186/148
f 35/74/71 145/73/70 144/187/149
f 45/80/77 150/180/143 149/188/150
f 53/79/76 154/190/152 155/189/151
f 29/83/80 142/193/155 154/190/152
f 41/78/75 148/184/146 147/191/153
f 51/86/83 153/182/145 152/192/154
f 32/82/79 143/181/144 142/193/155
f 151/194/156 211/201/156 209/195/157
f 144/197/158 198/203/158 210/198/159
f 152/200/160 200/205/160 211/201/156
f 145/202/161 199/207/161 198/203/158
f 152/200/160 153/208/162 201/204/162
f 145/202/161 146/210/163 202/206/163
f 153/208/162 155/213/164 203/209/164
f 146/210/163 147/214/165 204/211/165
f 154/212/166 205/219/166 203/209/164
f 147/214/165 148/217/167 206/215/167
f 149/216/168 207/605/168 206/215/167
f 154/212/166 142/222/169 208/218/169
f 150/196/157 209/195/157 207/220/168
f 142/222/169 143/199/159 210/198/159
f 201/223/170 203/229/176 169/224/171
f 204/226/173 161/232/179 160/227/174
f 203/229/176 205/236/183 168/230/177
f 206/231/178 162/234/181 161/232/179
f 206/231/178 207/606/184 163/233/180
f 208/235/182 156/241/187 168/230/177
f 207/237/184 209/242/188 164/238/185
f 210/240/186 157/245/191 156/241/187
f 209/242/188 211/247/193 165/243/189
f 210/240/186 198/248/194 158/244/190
f 200/246/192 166/250/196 165/243/189
f 198/248/194 199/251/197 159/249/195
f 201/223/170 167/225/172 166/250/196
f 202/228/175 160/227/174 159/249/195
f 162/234/181 176/253/199 175/252/198
f 163/233/180 177/279/201 176/253/199
f 156/241/187 170/256/202 182/254/200
f 164/238/185 178/257/203 177/255/201
f 157/245/191 171/258/204 170/256/202
f 165/243/189 179/259/205 178/257/203
f 158/244/190 172/260/206 171/258/204
f 166/250/196 180/261/207 179/259/205
f 159/249/195 173/262/208 172/260/206
f 167/225/172 181/263/209 180/261/207
f 160/227/174 174/264/210 173/262/208
f 169/224/171 183/265/211 181/263/209
f 161/232/179 175/252/198 174/264/210
f 168/230/177 182/254/200 183/265/211
f 177/255/201 178/257/203 192/266/212
f 170/256/202 171/258/204 185/268/214
f 179/259/205 193/270/216 192/266/212
f 172/260/206 186/271/217 185/268/214
f 180/261/207 194/273/219 193/270/216
f 173/262/208 187/275/221 186/271/217
f 180/261/207 181/263/209 195/272/218
f 173/262/208 174/264/210 188/274/220
f 183/265/211 197/277/223 195/272/218
f 174/264/210 175/252/198 189/276/222
f 182/254/200 196/280/225 197/277/223
f 175/252/198 176/253/199 190/278/224
f 177/279/201 191/607/213 190/278/224
f 182/254/200 170/256/202 184/269/215
f 185/281/226 213/288/226 212/282/227
f 193/284/228 221/290/228 220/285/229
f 186/287/230 214/292/230 213/288/226
f 194/289/231 222/294/231 221/290/228
f 187/291/232 215/296/232 214/292/230
f 195/293/233 223/298/233 222/294/231
f 188/295/234 216/300/234 215/296/232
f 197/297/235 225/302/235 223/298/233
f 189/299/236 217/304/236 216/300/234
f 197/297/235 196/307/237 224/301/237
f 190/303/238 218/306/238 217/304/236
f 191/305/239 219/608/239 218/306/238
f 184/283/227 212/282/227 224/301/237
f 192/286/229 220/285/229 219/308/239
f 220/310/240 234/317/247 233/311/241
f 213/313/243 227/319/249 226/314/244
f 221/316/246 235/321/251 234/317/247
f 214/318/248 228/323/253 227/319/249
f 222/320/250 236/325/255 235/321/251
f 214/318/248 215/326/256 229/322/252
f 222/320/250 223/328/258 237/324/254
f 215/326/256 216/330/260 230/327/257
f 223/328/258 225/333/263 239/329/259
f 216/330/260 217/335/265 231/331/261
f 224/332/262 238/338/267 239/329/259
f 218/334/264 232/337/266 231/331/261
f 219/336/242 233/348/241 232/337/266
f 212/315/245 226/314/244 238/338/267
f 228/323/253 242/341/270 241/339/268
f 236/325/255 250/342/271 249/340/269
f 229/322/252 243/343/272 242/341/270
f 237/324/254 251/344/273 250/342/271
f 230/327/257 244/345/274 243/343/272
f 239/329/259 253/346/275 251/344/273
f 231/331/261 245/347/276 244/345/274
f 238/338/267 252/350/278 253/346/275
f 232/337/266 246/349/277 245/347/276
f 233/348/241 247/609/279 246/349/277
f 226/314/244 240/352/280 252/350/278
f 234/317/247 248/353/281 247/351/279
f 227/319/249 241/339/268 240/352/280
f 235/321/251 249/340/269 248/353/281
f 250/342/271 251/344/273 265/354/282
f 243/343/272 244/345/274 258/356/284
f 253/346/275 267/359/287 265/354/282
f 245/347/276 259/361/289 258/356/284
f 253/346/275 252/350/278 266/358/286
f 245/347/276 246/349/277 260/360/288
f 246/349/277 247/609/279 261/362/290
f 252/350/278 240/352/280 254/363/291
f 248/353/281 262/365/292 261/364/290
f 241/339/268 255/366/293 254/363/291
f 249/340/269 263/367/294 262/365/292
f 242/341/270 256/368/295 255/366/293
f 249/340/269 250/342/271 264/355/283
f 243/343/272 257/357/285 256/368/295
f 266/369/296 280/378/296 281/370/297
f 260/372/298 274/376/298 273/373/299
f 260/372/298 261/610/300 275/375/300
f 266/369/296 254/383/301 268/377/301
f 262/379/302 276/386/302 275/380/300
f 269/382/303 268/377/301 254/383/301
f 263/385/304 277/389/304 276/386/302
f 256/387/305 270/611/305 269/382/303
f 264/388/306 278/393/306 277/389/304
f 271/390/307 270/611/305 256/387/305
f 264/388/306 265/395/308 279/392/308
f 258/394/309 272/526/309 271/390/307
f 265/395/308 267/371/297 281/370/297
f 268/396/155 269/432/144 359/397/310
f 356/399/311 296/612/311 289/400/151
f 352/402/312 292/613/312 285/403/153
f 298/405/313 318/574/351 322/406/314
f 342/408/148 287/450/148 291/409/315
f 295/411/316 289/469/314 320/412/314
f 354/414/318 294/614/318 288/415/154
f 339/398/155 282/459/155 297/417/319
f 275/419/150 337/448/150 353/420/320
f 278/424/154 344/416/154 342/408/148
f 281/426/151 348/401/151 355/427/321
f 271/434/70 345/447/70 343/435/149
f 275/440/150 276/422/143 350/441/323
f 270/436/149 343/435/149 361/444/325
f 273/445/153 349/404/153 358/443/324
f 360/439/322 300/615/322 284/446/70
f 337/448/150 286/616/150 293/449/320
f 344/416/154 288/415/154 287/450/148
f 348/401/151 289/400/151 295/451/321
f 290/452/326 308/617/356 313/453/314
f 345/447/70 284/446/70 283/455/149
f 350/441/323 290/618/323 286/456/150
f 343/435/149 283/455/149 301/457/325
f 349/404/153 285/403/153 299/458/324
f 359/397/310 298/619/310 282/459/155
f 291/460/327 287/463/314 316/461/314
f 287/463/314 288/518/314 317/464/314
f 284/465/314 324/520/314 323/466/314
f 296/468/329 310/550/341 320/412/314
f 299/470/330 285/514/314 314/471/314
f 293/473/332 286/454/314 313/453/314
f 297/475/334 282/407/314 322/406/314
f 365/477/325 364/525/149 329/478/149
f 376/483/323 331/489/143 333/484/150
f 369/487/315 373/501/148 334/488/148
f 371/490/324 366/524/153 332/491/153
f 378/493/311 305/499/152 328/494/151
f 384/500/154 335/510/154 334/488/148
f 375/492/310 304/479/144 327/502/155
f 380/504/320 381/485/150 333/484/150
f 385/509/318 326/508/145 335/510/154
f 387/480/322 303/482/147 330/511/70
f 292/513/336 306/584/354 314/471/314
f 301/515/337 283/467/314 323/466/314
f 294/517/339 309/620/357 317/464/314
f 300/519/340 311/621/358 324/520/314
f 372/498/319 374/622/155 327/523/155
f 383/507/321 368/495/151 328/494/151
f 362/521/312 302/505/146 332/491/153
f 386/512/70 330/511/70 329/478/149
f 259/374/299 273/373/299 272/526/309
f 271/434/70 272/437/147 360/439/322
f 268/396/155 339/398/155 357/418/319
f 278/424/154 279/428/145 354/414/318
f 277/425/148 342/408/148 351/410/315
f 273/445/153 274/421/146 352/402/312
f 281/426/151 280/429/152 356/399/311
f 317/528/70 386/512/70 364/525/149
f 310/530/312 362/521/312 366/524/153
f 314/532/151 368/495/151 383/507/321
f 313/534/155 374/622/155 372/498/319
f 309/536/322 387/480/322 386/512/70
f 311/537/318 385/509/318 384/500/154
f 322/539/150 381/485/150 380/504/320
f 308/541/310 375/492/310 374/503/155
f 324/538/154 384/500/154 373/501/148
f 306/544/311 378/493/311 368/495/151
f 320/531/153 366/524/153 371/490/324
f 323/543/148 373/501/148 369/487/315
f 318/547/323 376/483/323 381/485/150
f 316/529/149 364/525/149 365/477/325
f 356/549/341 362/552/342 310/550/341
f 356/549/341 338/554/314 363/551/314
f 357/553/335 380/623/334 363/551/314
f 321/476/335 380/623/334 357/553/335
f 295/411/316 319/413/317 371/555/316
f 355/556/343 371/555/316 370/557/314
f 354/559/344 346/558/314 370/557/314
f 387/560/339 309/620/357 294/517/339
f 291/460/327 315/462/328 365/561/345
f 351/562/346 365/561/345 367/563/314
f 350/565/347 340/564/314 367/563/314
f 375/566/326 308/624/356 290/567/326
f 359/568/348 341/572/314 377/569/314
f 361/571/349 369/573/350 377/569/314
f 369/573/350 361/571/349 301/515/337
f 359/568/348 376/570/313 318/574/351
f 360/575/352 347/579/314 382/576/314
f 358/578/353 383/580/330 382/576/314
f 299/470/330 312/472/331 383/580/330
f 385/577/340 311/621/358 300/519/340
f 352/581/354 336/586/314 379/582/314
f 352/581/354 378/583/355 306/584/354
f 353/585/333 372/587/332 379/582/314
f 293/473/332 307/474/333 372/587/332
